M48
; DRILL file {KiCad 9.0.0-9.0.0-2~ubuntu24.04.1} date 2025-04-06T07:03:20+0300
; FORMAT={-:-/ absolute / metric / decimal}
; #@! TF.CreationDate,2025-04-06T07:03:20+03:00
; #@! TF.GenerationSoftware,Kicad,Pcbnew,9.0.0-9.0.0-2~ubuntu24.04.1
; #@! TF.FileFunction,Plated,1,2,PTH
FMAT,2
METRIC
; #@! TA.AperFunction,Plated,PTH,ViaDrill
T1C0.400
; #@! TA.AperFunction,Plated,PTH,ComponentDrill
T2C0.700
; #@! TA.AperFunction,Plated,PTH,ComponentDrill
T3C1.000
; #@! TA.AperFunction,Plated,PTH,ViaDrill
T4C4.000
%
G90
G05
T1
X109.22Y-83.82
X109.22Y-142.24
X111.76Y-109.22
X111.76Y-124.46
X121.92Y-83.82
X123.136Y-101.195
X134.62Y-83.82
X134.62Y-104.14
X134.62Y-111.76
X134.62Y-132.08
X134.62Y-149.86
X144.78Y-83.82
X154.94Y-83.82
X154.94Y-104.14
X154.94Y-119.38
X154.94Y-149.86
X158.768Y-143.453
X160.136Y-88.105
X168.345Y-77.36
X169.075Y-79.615
X169.614Y-76.293
X170.18Y-114.3
X170.18Y-127.0
X171.417Y-75.961
X172.352Y-78.583
X176.523Y-95.583
X178.562Y-131.928
X179.476Y-89.923
X182.88Y-121.92
T2
X118.12Y-141.56
X120.66Y-141.56
X123.2Y-141.56
T3
X139.7Y-109.22
X139.7Y-134.62
X142.24Y-109.22
X142.24Y-134.62
X144.78Y-109.22
X144.78Y-134.62
X147.32Y-109.22
X147.32Y-134.62
X149.86Y-109.22
X149.86Y-134.62
X152.4Y-109.22
X152.4Y-134.62
X154.94Y-109.22
X154.94Y-134.62
X157.48Y-109.22
X157.48Y-134.62
X160.02Y-109.22
X160.02Y-134.62
X162.56Y-109.22
X162.56Y-134.62
X165.1Y-109.22
X165.1Y-134.62
X167.64Y-109.22
X167.64Y-134.62
X170.18Y-109.22
X170.18Y-134.62
X172.72Y-109.22
X172.72Y-134.62
X175.26Y-109.22
X175.26Y-134.62
X186.7Y-75.6
X186.7Y-78.14
X186.7Y-80.68
X186.7Y-83.22
X186.7Y-85.76
X186.7Y-88.3
X186.7Y-90.84
T4
X114.3Y-73.66
X114.3Y-99.06
T3
G00X170.76Y-149.24
M15
G01X170.76Y-147.24
M16
G05
G00X174.76Y-143.54
M15
G01X172.76Y-143.54
M16
G05
G00X176.76Y-149.24
M15
G01X176.76Y-147.24
M16
G05
M30
