%TF.GenerationSoftware,KiCad,Pcbnew,9.0.0-9.0.0-2~ubuntu24.04.1*%
%TF.CreationDate,2025-04-06T07:01:26+03:00*%
%TF.ProjectId,InterfaceBoard_Gateway,496e7465-7266-4616-9365-426f6172645f,rev?*%
%TF.SameCoordinates,Original*%
%TF.FileFunction,Copper,L2,Bot*%
%TF.FilePolarity,Positive*%
%FSLAX46Y46*%
G04 Gerber Fmt 4.6, Leading zero omitted, Abs format (unit mm)*
G04 Created by KiCad (PCBNEW 9.0.0-9.0.0-2~ubuntu24.04.1) date 2025-04-06 07:01:26*
%MOMM*%
%LPD*%
G01*
G04 APERTURE LIST*
G04 Aperture macros list*
%AMRoundRect*
0 Rectangle with rounded corners*
0 $1 Rounding radius*
0 $2 $3 $4 $5 $6 $7 $8 $9 X,Y pos of 4 corners*
0 Add a 4 corners polygon primitive as box body*
4,1,4,$2,$3,$4,$5,$6,$7,$8,$9,$2,$3,0*
0 Add four circle primitives for the rounded corners*
1,1,$1+$1,$2,$3*
1,1,$1+$1,$4,$5*
1,1,$1+$1,$6,$7*
1,1,$1+$1,$8,$9*
0 Add four rect primitives between the rounded corners*
20,1,$1+$1,$2,$3,$4,$5,0*
20,1,$1+$1,$4,$5,$6,$7,0*
20,1,$1+$1,$6,$7,$8,$9,0*
20,1,$1+$1,$8,$9,$2,$3,0*%
G04 Aperture macros list end*
%TA.AperFunction,ComponentPad*%
%ADD10R,1.700000X1.700000*%
%TD*%
%TA.AperFunction,ComponentPad*%
%ADD11O,1.700000X1.700000*%
%TD*%
%TA.AperFunction,ComponentPad*%
%ADD12R,3.500000X3.500000*%
%TD*%
%TA.AperFunction,ComponentPad*%
%ADD13RoundRect,0.750000X0.750000X1.000000X-0.750000X1.000000X-0.750000X-1.000000X0.750000X-1.000000X0*%
%TD*%
%TA.AperFunction,ComponentPad*%
%ADD14RoundRect,0.875000X0.875000X0.875000X-0.875000X0.875000X-0.875000X-0.875000X0.875000X-0.875000X0*%
%TD*%
%TA.AperFunction,ComponentPad*%
%ADD15C,2.000000*%
%TD*%
%TA.AperFunction,ComponentPad*%
%ADD16R,2.000000X2.000000*%
%TD*%
%TA.AperFunction,ViaPad*%
%ADD17C,0.800000*%
%TD*%
%TA.AperFunction,ViaPad*%
%ADD18C,5.000000*%
%TD*%
%TA.AperFunction,Conductor*%
%ADD19C,0.300000*%
%TD*%
G04 APERTURE END LIST*
D10*
%TO.P,extPorts,1*%
%TO.N,GND*%
X186700000Y-75600000D03*
D11*
%TO.P,extPorts,2*%
X186700000Y-78140000D03*
%TO.P,extPorts,3*%
X186700000Y-80680000D03*
%TO.P,extPorts,4*%
X186700000Y-83220000D03*
%TO.P,extPorts,5*%
X186700000Y-85760000D03*
%TO.P,extPorts,6*%
X186700000Y-88300000D03*
%TO.P,extPorts,7*%
X186700000Y-90840000D03*
%TD*%
D12*
%TO.P,BarrelJack_Horizontal,1*%
%TO.N,GND*%
X170760000Y-148240000D03*
D13*
%TO.P,BarrelJack_Horizontal,2*%
X176760000Y-148240000D03*
D14*
%TO.P,BarrelJack_Horizontal,3*%
X173760000Y-143540000D03*
%TD*%
D15*
%TO.P,ESP32C6,0*%
%TO.N,DI4*%
X157480000Y-109220000D03*
%TO.P,ESP32C6,1*%
%TO.N,DI3*%
X154940000Y-109220000D03*
%TO.P,ESP32C6,2*%
%TO.N,N/C*%
X172720000Y-134620000D03*
%TO.P,ESP32C6,3*%
X170180000Y-134620000D03*
%TO.P,ESP32C6,3V3*%
%TO.N,3V3_2*%
X172720000Y-109220000D03*
%TO.P,ESP32C6,4*%
%TO.N,GND*%
X167640000Y-109220000D03*
%TO.P,ESP32C6,5*%
%TO.N,N/C*%
X165100000Y-109220000D03*
%TO.P,ESP32C6,5V*%
%TO.N,5V_2*%
X139700000Y-109220000D03*
%TO.N,GND*%
X139700000Y-134620000D03*
%TO.P,ESP32C6,6*%
X162560000Y-109220000D03*
%TO.P,ESP32C6,7*%
%TO.N,N/C*%
X160020000Y-109220000D03*
%TO.P,ESP32C6,8*%
%TO.N,DI2*%
X152400000Y-109220000D03*
%TO.P,ESP32C6,9*%
%TO.N,N/C*%
X144780000Y-134620000D03*
%TO.P,ESP32C6,10*%
%TO.N,DI1*%
X149860000Y-109220000D03*
%TO.P,ESP32C6,11*%
%TO.N,DI0*%
X147320000Y-109220000D03*
%TO.P,ESP32C6,12*%
%TO.N,N/C*%
X144780000Y-109220000D03*
%TO.P,ESP32C6,13*%
X142240000Y-109220000D03*
%TO.P,ESP32C6,15*%
X162560000Y-134620000D03*
%TO.P,ESP32C6,18*%
%TO.N,GND*%
X147320000Y-134620000D03*
%TO.P,ESP32C6,19*%
%TO.N,N/C*%
X149860000Y-134620000D03*
%TO.P,ESP32C6,20*%
%TO.N,GND*%
X152400000Y-134620000D03*
%TO.P,ESP32C6,21*%
%TO.N,N/C*%
X154940000Y-134620000D03*
%TO.P,ESP32C6,22*%
%TO.N,GND*%
X157480000Y-134620000D03*
%TO.P,ESP32C6,23*%
%TO.N,N/C*%
X160020000Y-134620000D03*
D16*
%TO.P,ESP32C6,GND*%
%TO.N,GND*%
X142240000Y-134620000D03*
X175260000Y-109220000D03*
X175260000Y-134620000D03*
D15*
%TO.P,ESP32C6,RST*%
%TO.N,N/C*%
X170180000Y-109220000D03*
%TO.P,ESP32C6,RX*%
X165100000Y-134620000D03*
%TO.P,ESP32C6,TX*%
X167640000Y-134620000D03*
%TD*%
D16*
%TO.P,REGULATOR5V,1*%
%TO.N,GND*%
X123200000Y-141560000D03*
D15*
%TO.P,REGULATOR5V,2*%
X120660000Y-141560000D03*
%TO.P,REGULATOR5V,3*%
X118120000Y-141560000D03*
%TD*%
D17*
%TO.N,GND*%
X170180000Y-114300000D03*
X160136200Y-88104800D03*
X134620000Y-111760000D03*
X134620000Y-132080000D03*
X154940000Y-119380000D03*
X111760000Y-124460000D03*
X154940000Y-104140000D03*
X171417000Y-75961300D03*
X154940000Y-83820000D03*
X121920000Y-83820000D03*
X170180000Y-127000000D03*
X178561800Y-131928000D03*
X182880000Y-121920000D03*
X134620000Y-83820000D03*
X123136000Y-101195200D03*
X109220000Y-83820000D03*
X144780000Y-83820000D03*
X176522800Y-95582700D03*
X172351900Y-78582800D03*
X168344700Y-77360000D03*
X179476500Y-89923000D03*
X169614500Y-76293000D03*
X134620000Y-104140000D03*
X109220000Y-142240000D03*
X154940000Y-149860000D03*
D18*
X114300000Y-99060000D03*
D17*
X158767900Y-143452800D03*
D18*
X114300000Y-73660000D03*
D17*
X134620000Y-149860000D03*
X169075400Y-79614700D03*
X111760000Y-109220000D03*
%TD*%
D19*
%TO.N,GND*%
X186700000Y-88300000D02*
X185498300Y-88300000D01*
X155092000Y-131928000D02*
X178561800Y-131928000D01*
X152400000Y-134620000D02*
X155092000Y-131928000D01*
X186700000Y-82018300D02*
X187075500Y-82018300D01*
X158767900Y-143452800D02*
X152446300Y-137131200D01*
X185998500Y-79410000D02*
X183426500Y-76838000D01*
X172351900Y-78582800D02*
X170107300Y-78582800D01*
X174135100Y-85760000D02*
X168323600Y-79948500D01*
X183401100Y-78582800D02*
X172351900Y-78582800D01*
X171417000Y-75961300D02*
X183319600Y-75961300D01*
X170910300Y-101195200D02*
X176522800Y-95582700D01*
X139700000Y-137131200D02*
X128980500Y-137131200D01*
X187147000Y-79410000D02*
X185998500Y-79410000D01*
X160136200Y-88104800D02*
X185303100Y-88104800D01*
X186700000Y-78140000D02*
X185498300Y-78140000D01*
X187917500Y-81176300D02*
X187917500Y-80180500D01*
X152446300Y-137131200D02*
X139700000Y-137131200D01*
X186700000Y-85760000D02*
X174135100Y-85760000D01*
X187075500Y-82018300D02*
X187917500Y-81176300D01*
X128980500Y-137131200D02*
X124551700Y-141560000D01*
X187917500Y-80180500D02*
X187147000Y-79410000D01*
X168323600Y-77381100D02*
X168344700Y-77360000D01*
X170159500Y-76838000D02*
X169614500Y-76293000D01*
X183319600Y-75961300D02*
X185498300Y-78140000D01*
X183426500Y-76838000D02*
X170159500Y-76838000D01*
X184581300Y-89923000D02*
X185498300Y-90840000D01*
X168323600Y-79948500D02*
X168323600Y-77381100D01*
X186700000Y-90840000D02*
X185498300Y-90840000D01*
X179476500Y-89923000D02*
X184581300Y-89923000D01*
X123136000Y-101195200D02*
X170910300Y-101195200D01*
X185498300Y-80680000D02*
X183401100Y-78582800D01*
X186700000Y-80680000D02*
X185498300Y-80680000D01*
X186700000Y-83220000D02*
X186700000Y-82018300D01*
X170107300Y-78582800D02*
X169075400Y-79614700D01*
X139700000Y-137131200D02*
X139700000Y-134620000D01*
X123200000Y-141560000D02*
X124551700Y-141560000D01*
X185303100Y-88104800D02*
X185498300Y-88300000D01*
%TD*%
%TA.AperFunction,Conductor*%
%TO.N,GND*%
G36*
X186950000Y-90406988D02*
G01*
X186892993Y-90374075D01*
X186765826Y-90340000D01*
X186634174Y-90340000D01*
X186507007Y-90374075D01*
X186450000Y-90406988D01*
X186450000Y-88733012D01*
X186507007Y-88765925D01*
X186634174Y-88800000D01*
X186765826Y-88800000D01*
X186892993Y-88765925D01*
X186950000Y-88733012D01*
X186950000Y-90406988D01*
G37*
%TD.AperFunction*%
%TA.AperFunction,Conductor*%
G36*
X186950000Y-87866988D02*
G01*
X186892993Y-87834075D01*
X186765826Y-87800000D01*
X186634174Y-87800000D01*
X186507007Y-87834075D01*
X186450000Y-87866988D01*
X186450000Y-86193012D01*
X186507007Y-86225925D01*
X186634174Y-86260000D01*
X186765826Y-86260000D01*
X186892993Y-86225925D01*
X186950000Y-86193012D01*
X186950000Y-87866988D01*
G37*
%TD.AperFunction*%
%TA.AperFunction,Conductor*%
G36*
X186950000Y-85326988D02*
G01*
X186892993Y-85294075D01*
X186765826Y-85260000D01*
X186634174Y-85260000D01*
X186507007Y-85294075D01*
X186450000Y-85326988D01*
X186450000Y-83653012D01*
X186507007Y-83685925D01*
X186634174Y-83720000D01*
X186765826Y-83720000D01*
X186892993Y-83685925D01*
X186950000Y-83653012D01*
X186950000Y-85326988D01*
G37*
%TD.AperFunction*%
%TA.AperFunction,Conductor*%
G36*
X186950000Y-82786988D02*
G01*
X186892993Y-82754075D01*
X186765826Y-82720000D01*
X186634174Y-82720000D01*
X186507007Y-82754075D01*
X186450000Y-82786988D01*
X186450000Y-81113012D01*
X186507007Y-81145925D01*
X186634174Y-81180000D01*
X186765826Y-81180000D01*
X186892993Y-81145925D01*
X186950000Y-81113012D01*
X186950000Y-82786988D01*
G37*
%TD.AperFunction*%
%TA.AperFunction,Conductor*%
G36*
X186950000Y-80246988D02*
G01*
X186892993Y-80214075D01*
X186765826Y-80180000D01*
X186634174Y-80180000D01*
X186507007Y-80214075D01*
X186450000Y-80246988D01*
X186450000Y-78573012D01*
X186507007Y-78605925D01*
X186634174Y-78640000D01*
X186765826Y-78640000D01*
X186892993Y-78605925D01*
X186950000Y-78573012D01*
X186950000Y-80246988D01*
G37*
%TD.AperFunction*%
%TA.AperFunction,Conductor*%
G36*
X186950000Y-77706988D02*
G01*
X186892993Y-77674075D01*
X186765826Y-77640000D01*
X186634174Y-77640000D01*
X186507007Y-77674075D01*
X186450000Y-77706988D01*
X186450000Y-76033012D01*
X186507007Y-76065925D01*
X186634174Y-76100000D01*
X186765826Y-76100000D01*
X186892993Y-76065925D01*
X186950000Y-76033012D01*
X186950000Y-77706988D01*
G37*
%TD.AperFunction*%
%TA.AperFunction,Conductor*%
G36*
X190443039Y-66059685D02*
G01*
X190488794Y-66112489D01*
X190500000Y-66164000D01*
X190500000Y-159896000D01*
X190480315Y-159963039D01*
X190427511Y-160008794D01*
X190376000Y-160020000D01*
X106804000Y-160020000D01*
X106736961Y-160000315D01*
X106691206Y-159947511D01*
X106680000Y-159896000D01*
X106680000Y-146442155D01*
X168510000Y-146442155D01*
X168510000Y-147990000D01*
X170260000Y-147990000D01*
X170260000Y-148490000D01*
X168510000Y-148490000D01*
X168510000Y-150037844D01*
X168516401Y-150097372D01*
X168516403Y-150097379D01*
X168566645Y-150232086D01*
X168566649Y-150232093D01*
X168652809Y-150347187D01*
X168652812Y-150347190D01*
X168767906Y-150433350D01*
X168767913Y-150433354D01*
X168902620Y-150483596D01*
X168902627Y-150483598D01*
X168962155Y-150489999D01*
X168962172Y-150490000D01*
X170510000Y-150490000D01*
X170510000Y-149673012D01*
X170567007Y-149705925D01*
X170694174Y-149740000D01*
X170825826Y-149740000D01*
X170952993Y-149705925D01*
X171010000Y-149673012D01*
X171010000Y-150490000D01*
X172557828Y-150490000D01*
X172557844Y-150489999D01*
X172617372Y-150483598D01*
X172617379Y-150483596D01*
X172752086Y-150433354D01*
X172752093Y-150433350D01*
X172867187Y-150347190D01*
X172867190Y-150347187D01*
X172953350Y-150232093D01*
X172953354Y-150232086D01*
X173003596Y-150097379D01*
X173003598Y-150097372D01*
X173009999Y-150037844D01*
X173010000Y-150037827D01*
X173010000Y-148490000D01*
X171260000Y-148490000D01*
X171260000Y-147990000D01*
X173010000Y-147990000D01*
X173010000Y-147175803D01*
X174760000Y-147175803D01*
X174760000Y-147990000D01*
X176260000Y-147990000D01*
X176260000Y-148490000D01*
X174760001Y-148490000D01*
X174760001Y-149304197D01*
X174770400Y-149436332D01*
X174825377Y-149654519D01*
X174918428Y-149859374D01*
X174918431Y-149859380D01*
X175046559Y-150044323D01*
X175046569Y-150044335D01*
X175205664Y-150203430D01*
X175205676Y-150203440D01*
X175390619Y-150331568D01*
X175390625Y-150331571D01*
X175595480Y-150424622D01*
X175813667Y-150479599D01*
X175945810Y-150489999D01*
X176509999Y-150489999D01*
X176510000Y-150489998D01*
X176510000Y-149673012D01*
X176567007Y-149705925D01*
X176694174Y-149740000D01*
X176825826Y-149740000D01*
X176952993Y-149705925D01*
X177010000Y-149673012D01*
X177010000Y-150489999D01*
X177574182Y-150489999D01*
X177574197Y-150489998D01*
X177706332Y-150479599D01*
X177924519Y-150424622D01*
X178129374Y-150331571D01*
X178129380Y-150331568D01*
X178314323Y-150203440D01*
X178314335Y-150203430D01*
X178473430Y-150044335D01*
X178473440Y-150044323D01*
X178601568Y-149859380D01*
X178601571Y-149859374D01*
X178694622Y-149654519D01*
X178749599Y-149436332D01*
X178759999Y-149304196D01*
X178760000Y-149304184D01*
X178760000Y-148490000D01*
X177260000Y-148490000D01*
X177260000Y-147990000D01*
X178759999Y-147990000D01*
X178759999Y-147175817D01*
X178759998Y-147175802D01*
X178749599Y-147043667D01*
X178694622Y-146825480D01*
X178601571Y-146620625D01*
X178601568Y-146620619D01*
X178473440Y-146435676D01*
X178473430Y-146435664D01*
X178314335Y-146276569D01*
X178314323Y-146276559D01*
X178129380Y-146148431D01*
X178129374Y-146148428D01*
X177924519Y-146055377D01*
X177706332Y-146000400D01*
X177574196Y-145990000D01*
X177010000Y-145990000D01*
X177010000Y-146806988D01*
X176952993Y-146774075D01*
X176825826Y-146740000D01*
X176694174Y-146740000D01*
X176567007Y-146774075D01*
X176510000Y-146806988D01*
X176510000Y-145990000D01*
X175945817Y-145990000D01*
X175945802Y-145990001D01*
X175813667Y-146000400D01*
X175595480Y-146055377D01*
X175390625Y-146148428D01*
X175390619Y-146148431D01*
X175205676Y-146276559D01*
X175205664Y-146276569D01*
X175046569Y-146435664D01*
X175046559Y-146435676D01*
X174918431Y-146620619D01*
X174918428Y-146620625D01*
X174825377Y-146825480D01*
X174770400Y-147043667D01*
X174760000Y-147175803D01*
X173010000Y-147175803D01*
X173010000Y-146442172D01*
X173009999Y-146442155D01*
X173003598Y-146382627D01*
X173003596Y-146382620D01*
X172953354Y-146247913D01*
X172953350Y-146247906D01*
X172867190Y-146132812D01*
X172867187Y-146132809D01*
X172752093Y-146046649D01*
X172752087Y-146046646D01*
X172701825Y-146027899D01*
X172645891Y-145986027D01*
X172621475Y-145920562D01*
X172636327Y-145852289D01*
X172685733Y-145802884D01*
X172751740Y-145787892D01*
X172791404Y-145789999D01*
X173509999Y-145789999D01*
X173510000Y-145789998D01*
X173510000Y-144040000D01*
X174010000Y-144040000D01*
X174010000Y-145789999D01*
X174728576Y-145789999D01*
X174728588Y-145789998D01*
X174781191Y-145787205D01*
X175010987Y-145742762D01*
X175229975Y-145660120D01*
X175431841Y-145541660D01*
X175431848Y-145541655D01*
X175610786Y-145390788D01*
X175610788Y-145390786D01*
X175761655Y-145211848D01*
X175761660Y-145211841D01*
X175880120Y-145009975D01*
X175962762Y-144790987D01*
X176007205Y-144561191D01*
X176007205Y-144561190D01*
X176009998Y-144508617D01*
X176010000Y-144508578D01*
X176010000Y-143790000D01*
X175193012Y-143790000D01*
X175225925Y-143732993D01*
X175260000Y-143605826D01*
X175260000Y-143474174D01*
X175225925Y-143347007D01*
X175193012Y-143290000D01*
X176009999Y-143290000D01*
X176009999Y-142571423D01*
X176009998Y-142571411D01*
X176007205Y-142518808D01*
X175962762Y-142289012D01*
X175880120Y-142070024D01*
X175761660Y-141868158D01*
X175761655Y-141868151D01*
X175610788Y-141689213D01*
X175610786Y-141689211D01*
X175431848Y-141538344D01*
X175431841Y-141538339D01*
X175229975Y-141419879D01*
X175010987Y-141337237D01*
X174781190Y-141292794D01*
X174728617Y-141290001D01*
X174728579Y-141290000D01*
X174010000Y-141290000D01*
X174010000Y-143040000D01*
X173510000Y-143040000D01*
X173510000Y-141290000D01*
X172791423Y-141290000D01*
X172791411Y-141290001D01*
X172738808Y-141292794D01*
X172509012Y-141337237D01*
X172290024Y-141419879D01*
X172088158Y-141538339D01*
X172088151Y-141538344D01*
X171909213Y-141689211D01*
X171909211Y-141689213D01*
X171758344Y-141868151D01*
X171758339Y-141868158D01*
X171639879Y-142070024D01*
X171557237Y-142289012D01*
X171512794Y-142518808D01*
X171512794Y-142518809D01*
X171510001Y-142571382D01*
X171510000Y-142571421D01*
X171510000Y-143290000D01*
X172326988Y-143290000D01*
X172294075Y-143347007D01*
X172260000Y-143474174D01*
X172260000Y-143605826D01*
X172294075Y-143732993D01*
X172326988Y-143790000D01*
X171510001Y-143790000D01*
X171510001Y-144508588D01*
X171512794Y-144561191D01*
X171557237Y-144790987D01*
X171639879Y-145009975D01*
X171758339Y-145211841D01*
X171758344Y-145211848D01*
X171909211Y-145390786D01*
X171909213Y-145390788D01*
X172088151Y-145541655D01*
X172088158Y-145541660D01*
X172290024Y-145660120D01*
X172509012Y-145742762D01*
X172516735Y-145744256D01*
X172578817Y-145776313D01*
X172613713Y-145836844D01*
X172610343Y-145906633D01*
X172569777Y-145963520D01*
X172504896Y-145989446D01*
X172493189Y-145990000D01*
X171010000Y-145990000D01*
X171010000Y-146806988D01*
X170952993Y-146774075D01*
X170825826Y-146740000D01*
X170694174Y-146740000D01*
X170567007Y-146774075D01*
X170510000Y-146806988D01*
X170510000Y-145990000D01*
X168962155Y-145990000D01*
X168902627Y-145996401D01*
X168902620Y-145996403D01*
X168767913Y-146046645D01*
X168767906Y-146046649D01*
X168652812Y-146132809D01*
X168652809Y-146132812D01*
X168566649Y-146247906D01*
X168566645Y-146247913D01*
X168516403Y-146382620D01*
X168516401Y-146382627D01*
X168510000Y-146442155D01*
X106680000Y-146442155D01*
X106680000Y-142782658D01*
X117250893Y-142782658D01*
X117333828Y-142842914D01*
X117544197Y-142950102D01*
X117768752Y-143023065D01*
X117768751Y-143023065D01*
X118001948Y-143060000D01*
X118238052Y-143060000D01*
X118471247Y-143023065D01*
X118695802Y-142950102D01*
X118906163Y-142842918D01*
X118906169Y-142842914D01*
X118989104Y-142782658D01*
X118989105Y-142782658D01*
X119790893Y-142782658D01*
X119873828Y-142842914D01*
X120084197Y-142950102D01*
X120308752Y-143023065D01*
X120308751Y-143023065D01*
X120541948Y-143060000D01*
X120778052Y-143060000D01*
X121011247Y-143023065D01*
X121235802Y-142950102D01*
X121446171Y-142842914D01*
X121570396Y-142752659D01*
X121636202Y-142729179D01*
X121704256Y-142745004D01*
X121752246Y-142794385D01*
X121752396Y-142794304D01*
X121752688Y-142794840D01*
X121752951Y-142795110D01*
X121753478Y-142796286D01*
X121756649Y-142802093D01*
X121842809Y-142917187D01*
X121842812Y-142917190D01*
X121957906Y-143003350D01*
X121957913Y-143003354D01*
X122092620Y-143053596D01*
X122092627Y-143053598D01*
X122152155Y-143059999D01*
X122152172Y-143060000D01*
X122950000Y-143060000D01*
X123450000Y-143060000D01*
X124247828Y-143060000D01*
X124247844Y-143059999D01*
X124307372Y-143053598D01*
X124307379Y-143053596D01*
X124442086Y-143003354D01*
X124442093Y-143003350D01*
X124557187Y-142917190D01*
X124557190Y-142917187D01*
X124643350Y-142802093D01*
X124643354Y-142802086D01*
X124693596Y-142667379D01*
X124693598Y-142667372D01*
X124699999Y-142607844D01*
X124700000Y-142607827D01*
X124700000Y-141810000D01*
X123450000Y-141810000D01*
X123450000Y-143060000D01*
X122950000Y-143060000D01*
X122950000Y-141804975D01*
X122985095Y-141840070D01*
X123064905Y-141886148D01*
X123153922Y-141910000D01*
X123246078Y-141910000D01*
X123335095Y-141886148D01*
X123414905Y-141840070D01*
X123480070Y-141774905D01*
X123526148Y-141695095D01*
X123550000Y-141606078D01*
X123550000Y-141513922D01*
X123526148Y-141424905D01*
X123480070Y-141345095D01*
X123444975Y-141310000D01*
X123450000Y-141310000D01*
X124700000Y-141310000D01*
X124700000Y-140512172D01*
X124699999Y-140512155D01*
X124693598Y-140452627D01*
X124693596Y-140452620D01*
X124643354Y-140317913D01*
X124643350Y-140317906D01*
X124557190Y-140202812D01*
X124557187Y-140202809D01*
X124442093Y-140116649D01*
X124442086Y-140116645D01*
X124307379Y-140066403D01*
X124307372Y-140066401D01*
X124247844Y-140060000D01*
X123450000Y-140060000D01*
X123450000Y-141310000D01*
X123444975Y-141310000D01*
X123414905Y-141279930D01*
X123335095Y-141233852D01*
X123246078Y-141210000D01*
X123153922Y-141210000D01*
X123064905Y-141233852D01*
X122985095Y-141279930D01*
X122950000Y-141315025D01*
X122950000Y-140060000D01*
X122152155Y-140060000D01*
X122092627Y-140066401D01*
X122092620Y-140066403D01*
X121957913Y-140116645D01*
X121957906Y-140116649D01*
X121842812Y-140202809D01*
X121842809Y-140202812D01*
X121756649Y-140317906D01*
X121752396Y-140325696D01*
X121749275Y-140323992D01*
X121717503Y-140366356D01*
X121652017Y-140390714D01*
X121583757Y-140375801D01*
X121570397Y-140367340D01*
X121446174Y-140277087D01*
X121235802Y-140169897D01*
X121011247Y-140096934D01*
X121011248Y-140096934D01*
X120778052Y-140060000D01*
X120541948Y-140060000D01*
X120308752Y-140096934D01*
X120084197Y-140169897D01*
X119873830Y-140277084D01*
X119790894Y-140337340D01*
X120663554Y-141210000D01*
X120613922Y-141210000D01*
X120524905Y-141233852D01*
X120445095Y-141279930D01*
X120379930Y-141345095D01*
X120333852Y-141424905D01*
X120310000Y-141513922D01*
X120310000Y-141606078D01*
X120333852Y-141695095D01*
X120379930Y-141774905D01*
X120445095Y-141840070D01*
X120524905Y-141886148D01*
X120613922Y-141910000D01*
X120663552Y-141910000D01*
X119790893Y-142782658D01*
X118989105Y-142782658D01*
X118120000Y-141913554D01*
X117250893Y-142782658D01*
X106680000Y-142782658D01*
X106680000Y-141441947D01*
X116620000Y-141441947D01*
X116620000Y-141678052D01*
X116656934Y-141911247D01*
X116729897Y-142135802D01*
X116837087Y-142346174D01*
X116897338Y-142429104D01*
X116897340Y-142429105D01*
X117766446Y-141560000D01*
X117720368Y-141513922D01*
X117770000Y-141513922D01*
X117770000Y-141606078D01*
X117793852Y-141695095D01*
X117839930Y-141774905D01*
X117905095Y-141840070D01*
X117984905Y-141886148D01*
X118073922Y-141910000D01*
X118166078Y-141910000D01*
X118255095Y-141886148D01*
X118334905Y-141840070D01*
X118400070Y-141774905D01*
X118446148Y-141695095D01*
X118470000Y-141606078D01*
X118470000Y-141559999D01*
X118473554Y-141559999D01*
X118473554Y-141560001D01*
X119342657Y-142429104D01*
X119380275Y-142426144D01*
X119399735Y-142426144D01*
X119437340Y-142429104D01*
X120306446Y-141560000D01*
X119437340Y-140690894D01*
X119399733Y-140693854D01*
X119380276Y-140693854D01*
X119342658Y-140690893D01*
X118473554Y-141559999D01*
X118470000Y-141559999D01*
X118470000Y-141513922D01*
X118446148Y-141424905D01*
X118400070Y-141345095D01*
X118334905Y-141279930D01*
X118255095Y-141233852D01*
X118166078Y-141210000D01*
X118073922Y-141210000D01*
X117984905Y-141233852D01*
X117905095Y-141279930D01*
X117839930Y-141345095D01*
X117793852Y-141424905D01*
X117770000Y-141513922D01*
X117720368Y-141513922D01*
X116897340Y-140690894D01*
X116837084Y-140773830D01*
X116729897Y-140984197D01*
X116656934Y-141208752D01*
X116620000Y-141441947D01*
X106680000Y-141441947D01*
X106680000Y-140337340D01*
X117250894Y-140337340D01*
X118120000Y-141206446D01*
X118120001Y-141206446D01*
X118989105Y-140337340D01*
X118989104Y-140337339D01*
X118906174Y-140277087D01*
X118695802Y-140169897D01*
X118471247Y-140096934D01*
X118471248Y-140096934D01*
X118238052Y-140060000D01*
X118001948Y-140060000D01*
X117768752Y-140096934D01*
X117544197Y-140169897D01*
X117333830Y-140277084D01*
X117250894Y-140337340D01*
X106680000Y-140337340D01*
X106680000Y-134501947D01*
X138200000Y-134501947D01*
X138200000Y-134738052D01*
X138236934Y-134971247D01*
X138309897Y-135195802D01*
X138417087Y-135406174D01*
X138477338Y-135489104D01*
X138477340Y-135489105D01*
X139217037Y-134749408D01*
X139234075Y-134812993D01*
X139299901Y-134927007D01*
X139392993Y-135020099D01*
X139507007Y-135085925D01*
X139570589Y-135102962D01*
X138830893Y-135842658D01*
X138913828Y-135902914D01*
X139124197Y-136010102D01*
X139348752Y-136083065D01*
X139348751Y-136083065D01*
X139581948Y-136120000D01*
X139818052Y-136120000D01*
X140051247Y-136083065D01*
X140275802Y-136010102D01*
X140486171Y-135902914D01*
X140610396Y-135812659D01*
X140676202Y-135789179D01*
X140744256Y-135805004D01*
X140792246Y-135854385D01*
X140792396Y-135854304D01*
X140792688Y-135854840D01*
X140792951Y-135855110D01*
X140793478Y-135856286D01*
X140796649Y-135862093D01*
X140882809Y-135977187D01*
X140882812Y-135977190D01*
X140997906Y-136063350D01*
X140997913Y-136063354D01*
X141132620Y-136113596D01*
X141132627Y-136113598D01*
X141192155Y-136119999D01*
X141192172Y-136120000D01*
X141990000Y-136120000D01*
X141990000Y-135053012D01*
X142047007Y-135085925D01*
X142174174Y-135120000D01*
X142305826Y-135120000D01*
X142432993Y-135085925D01*
X142490000Y-135053012D01*
X142490000Y-136120000D01*
X143287828Y-136120000D01*
X143287844Y-136119999D01*
X143347372Y-136113598D01*
X143347379Y-136113596D01*
X143482086Y-136063354D01*
X143482093Y-136063350D01*
X143597187Y-135977190D01*
X143597190Y-135977187D01*
X143683350Y-135862093D01*
X143687604Y-135854304D01*
X143690883Y-135856094D01*
X143722118Y-135814276D01*
X143787556Y-135789789D01*
X143855845Y-135804566D01*
X143869410Y-135813137D01*
X143993567Y-135903343D01*
X144092991Y-135954002D01*
X144204003Y-136010566D01*
X144204005Y-136010566D01*
X144204008Y-136010568D01*
X144324412Y-136049689D01*
X144428631Y-136083553D01*
X144661903Y-136120500D01*
X144661908Y-136120500D01*
X144898097Y-136120500D01*
X145131368Y-136083553D01*
X145132870Y-136083065D01*
X145355992Y-136010568D01*
X145566433Y-135903343D01*
X145757510Y-135764517D01*
X145924517Y-135597510D01*
X145971370Y-135533022D01*
X145975713Y-135528199D01*
X146000150Y-135513142D01*
X146022877Y-135495618D01*
X146030393Y-135494509D01*
X146035199Y-135491549D01*
X146048730Y-135491806D01*
X146077594Y-135487551D01*
X146097340Y-135489105D01*
X146837037Y-134749408D01*
X146854075Y-134812993D01*
X146919901Y-134927007D01*
X147012993Y-135020099D01*
X147127007Y-135085925D01*
X147190590Y-135102962D01*
X146450893Y-135842658D01*
X146533828Y-135902914D01*
X146744197Y-136010102D01*
X146968752Y-136083065D01*
X146968751Y-136083065D01*
X147201948Y-136120000D01*
X147438052Y-136120000D01*
X147671247Y-136083065D01*
X147895802Y-136010102D01*
X148106163Y-135902918D01*
X148106169Y-135902914D01*
X148189104Y-135842658D01*
X148189105Y-135842658D01*
X147449408Y-135102962D01*
X147512993Y-135085925D01*
X147627007Y-135020099D01*
X147720099Y-134927007D01*
X147785925Y-134812993D01*
X147802962Y-134749409D01*
X148542657Y-135489104D01*
X148562404Y-135487550D01*
X148630781Y-135501914D01*
X148672451Y-135538282D01*
X148715483Y-135597510D01*
X148882490Y-135764517D01*
X149073567Y-135903343D01*
X149172991Y-135954002D01*
X149284003Y-136010566D01*
X149284005Y-136010566D01*
X149284008Y-136010568D01*
X149404412Y-136049689D01*
X149508631Y-136083553D01*
X149741903Y-136120500D01*
X149741908Y-136120500D01*
X149978097Y-136120500D01*
X150211368Y-136083553D01*
X150212870Y-136083065D01*
X150435992Y-136010568D01*
X150646433Y-135903343D01*
X150837510Y-135764517D01*
X151004517Y-135597510D01*
X151051370Y-135533022D01*
X151055713Y-135528199D01*
X151080150Y-135513142D01*
X151102877Y-135495618D01*
X151110393Y-135494509D01*
X151115199Y-135491549D01*
X151128730Y-135491806D01*
X151157594Y-135487551D01*
X151177340Y-135489105D01*
X151917037Y-134749408D01*
X151934075Y-134812993D01*
X151999901Y-134927007D01*
X152092993Y-135020099D01*
X152207007Y-135085925D01*
X152270590Y-135102962D01*
X151530893Y-135842658D01*
X151613828Y-135902914D01*
X151824197Y-136010102D01*
X152048752Y-136083065D01*
X152048751Y-136083065D01*
X152281948Y-136120000D01*
X152518052Y-136120000D01*
X152751247Y-136083065D01*
X152975802Y-136010102D01*
X153186163Y-135902918D01*
X153186169Y-135902914D01*
X153269104Y-135842658D01*
X153269105Y-135842658D01*
X152529408Y-135102962D01*
X152592993Y-135085925D01*
X152707007Y-135020099D01*
X152800099Y-134927007D01*
X152865925Y-134812993D01*
X152882962Y-134749409D01*
X153622657Y-135489104D01*
X153642404Y-135487550D01*
X153710781Y-135501914D01*
X153752451Y-135538282D01*
X153795483Y-135597510D01*
X153962490Y-135764517D01*
X154153567Y-135903343D01*
X154252991Y-135954002D01*
X154364003Y-136010566D01*
X154364005Y-136010566D01*
X154364008Y-136010568D01*
X154484412Y-136049689D01*
X154588631Y-136083553D01*
X154821903Y-136120500D01*
X154821908Y-136120500D01*
X155058097Y-136120500D01*
X155291368Y-136083553D01*
X155292870Y-136083065D01*
X155515992Y-136010568D01*
X155726433Y-135903343D01*
X155917510Y-135764517D01*
X156084517Y-135597510D01*
X156131370Y-135533022D01*
X156135713Y-135528199D01*
X156160150Y-135513142D01*
X156182877Y-135495618D01*
X156190393Y-135494509D01*
X156195199Y-135491549D01*
X156208730Y-135491806D01*
X156237594Y-135487551D01*
X156257340Y-135489105D01*
X156997037Y-134749408D01*
X157014075Y-134812993D01*
X157079901Y-134927007D01*
X157172993Y-135020099D01*
X157287007Y-135085925D01*
X157350590Y-135102962D01*
X156610893Y-135842658D01*
X156693828Y-135902914D01*
X156904197Y-136010102D01*
X157128752Y-136083065D01*
X157128751Y-136083065D01*
X157361948Y-136120000D01*
X157598052Y-136120000D01*
X157831247Y-136083065D01*
X158055802Y-136010102D01*
X158266163Y-135902918D01*
X158266169Y-135902914D01*
X158349104Y-135842658D01*
X158349105Y-135842658D01*
X157609408Y-135102962D01*
X157672993Y-135085925D01*
X157787007Y-135020099D01*
X157880099Y-134927007D01*
X157945925Y-134812993D01*
X157962962Y-134749409D01*
X158702657Y-135489104D01*
X158722404Y-135487550D01*
X158790781Y-135501914D01*
X158832451Y-135538282D01*
X158875483Y-135597510D01*
X159042490Y-135764517D01*
X159233567Y-135903343D01*
X159332991Y-135954002D01*
X159444003Y-136010566D01*
X159444005Y-136010566D01*
X159444008Y-136010568D01*
X159564412Y-136049689D01*
X159668631Y-136083553D01*
X159901903Y-136120500D01*
X159901908Y-136120500D01*
X160138097Y-136120500D01*
X160371368Y-136083553D01*
X160372870Y-136083065D01*
X160595992Y-136010568D01*
X160806433Y-135903343D01*
X160997510Y-135764517D01*
X161164517Y-135597510D01*
X161189682Y-135562872D01*
X161245011Y-135520207D01*
X161314625Y-135514228D01*
X161376420Y-135546833D01*
X161390315Y-135562870D01*
X161415483Y-135597510D01*
X161582490Y-135764517D01*
X161773567Y-135903343D01*
X161872991Y-135954002D01*
X161984003Y-136010566D01*
X161984005Y-136010566D01*
X161984008Y-136010568D01*
X162104412Y-136049689D01*
X162208631Y-136083553D01*
X162441903Y-136120500D01*
X162441908Y-136120500D01*
X162678097Y-136120500D01*
X162911368Y-136083553D01*
X162912870Y-136083065D01*
X163135992Y-136010568D01*
X163346433Y-135903343D01*
X163537510Y-135764517D01*
X163704517Y-135597510D01*
X163729682Y-135562872D01*
X163785011Y-135520207D01*
X163854625Y-135514228D01*
X163916420Y-135546833D01*
X163930315Y-135562870D01*
X163955483Y-135597510D01*
X164122490Y-135764517D01*
X164313567Y-135903343D01*
X164412991Y-135954002D01*
X164524003Y-136010566D01*
X164524005Y-136010566D01*
X164524008Y-136010568D01*
X164644412Y-136049689D01*
X164748631Y-136083553D01*
X164981903Y-136120500D01*
X164981908Y-136120500D01*
X165218097Y-136120500D01*
X165451368Y-136083553D01*
X165452870Y-136083065D01*
X165675992Y-136010568D01*
X165886433Y-135903343D01*
X166077510Y-135764517D01*
X166244517Y-135597510D01*
X166269682Y-135562872D01*
X166325011Y-135520207D01*
X166394625Y-135514228D01*
X166456420Y-135546833D01*
X166470315Y-135562870D01*
X166495483Y-135597510D01*
X166662490Y-135764517D01*
X166853567Y-135903343D01*
X166952991Y-135954002D01*
X167064003Y-136010566D01*
X167064005Y-136010566D01*
X167064008Y-136010568D01*
X167184412Y-136049689D01*
X167288631Y-136083553D01*
X167521903Y-136120500D01*
X167521908Y-136120500D01*
X167758097Y-136120500D01*
X167991368Y-136083553D01*
X167992870Y-136083065D01*
X168215992Y-136010568D01*
X168426433Y-135903343D01*
X168617510Y-135764517D01*
X168784517Y-135597510D01*
X168809682Y-135562872D01*
X168865011Y-135520207D01*
X168934625Y-135514228D01*
X168996420Y-135546833D01*
X169010315Y-135562870D01*
X169035483Y-135597510D01*
X169202490Y-135764517D01*
X169393567Y-135903343D01*
X169492991Y-135954002D01*
X169604003Y-136010566D01*
X169604005Y-136010566D01*
X169604008Y-136010568D01*
X169724412Y-136049689D01*
X169828631Y-136083553D01*
X170061903Y-136120500D01*
X170061908Y-136120500D01*
X170298097Y-136120500D01*
X170531368Y-136083553D01*
X170532870Y-136083065D01*
X170755992Y-136010568D01*
X170966433Y-135903343D01*
X171157510Y-135764517D01*
X171324517Y-135597510D01*
X171349682Y-135562872D01*
X171405011Y-135520207D01*
X171474625Y-135514228D01*
X171536420Y-135546833D01*
X171550315Y-135562870D01*
X171575483Y-135597510D01*
X171742490Y-135764517D01*
X171933567Y-135903343D01*
X172032991Y-135954002D01*
X172144003Y-136010566D01*
X172144005Y-136010566D01*
X172144008Y-136010568D01*
X172264412Y-136049689D01*
X172368631Y-136083553D01*
X172601903Y-136120500D01*
X172601908Y-136120500D01*
X172838097Y-136120500D01*
X173071368Y-136083553D01*
X173072870Y-136083065D01*
X173295992Y-136010568D01*
X173506433Y-135903343D01*
X173630579Y-135813145D01*
X173696383Y-135789665D01*
X173764437Y-135805490D01*
X173812057Y-135854489D01*
X173812396Y-135854304D01*
X173813061Y-135855522D01*
X173813132Y-135855595D01*
X173813276Y-135855916D01*
X173816649Y-135862093D01*
X173902809Y-135977187D01*
X173902812Y-135977190D01*
X174017906Y-136063350D01*
X174017913Y-136063354D01*
X174152620Y-136113596D01*
X174152627Y-136113598D01*
X174212155Y-136119999D01*
X174212172Y-136120000D01*
X175010000Y-136120000D01*
X175010000Y-135053012D01*
X175067007Y-135085925D01*
X175194174Y-135120000D01*
X175325826Y-135120000D01*
X175452993Y-135085925D01*
X175510000Y-135053012D01*
X175510000Y-136120000D01*
X176307828Y-136120000D01*
X176307844Y-136119999D01*
X176367372Y-136113598D01*
X176367379Y-136113596D01*
X176502086Y-136063354D01*
X176502093Y-136063350D01*
X176617187Y-135977190D01*
X176617190Y-135977187D01*
X176703350Y-135862093D01*
X176703354Y-135862086D01*
X176753596Y-135727379D01*
X176753598Y-135727372D01*
X176759999Y-135667844D01*
X176760000Y-135667827D01*
X176760000Y-134870000D01*
X175693012Y-134870000D01*
X175725925Y-134812993D01*
X175760000Y-134685826D01*
X175760000Y-134554174D01*
X175725925Y-134427007D01*
X175693012Y-134370000D01*
X176760000Y-134370000D01*
X176760000Y-133572172D01*
X176759999Y-133572155D01*
X176753598Y-133512627D01*
X176753596Y-133512620D01*
X176703354Y-133377913D01*
X176703350Y-133377906D01*
X176617190Y-133262812D01*
X176617187Y-133262809D01*
X176502093Y-133176649D01*
X176502086Y-133176645D01*
X176367379Y-133126403D01*
X176367372Y-133126401D01*
X176307844Y-133120000D01*
X175510000Y-133120000D01*
X175510000Y-134186988D01*
X175452993Y-134154075D01*
X175325826Y-134120000D01*
X175194174Y-134120000D01*
X175067007Y-134154075D01*
X175010000Y-134186988D01*
X175010000Y-133120000D01*
X174212155Y-133120000D01*
X174152627Y-133126401D01*
X174152620Y-133126403D01*
X174017913Y-133176645D01*
X174017906Y-133176649D01*
X173902812Y-133262809D01*
X173902809Y-133262812D01*
X173816649Y-133377906D01*
X173812396Y-133385696D01*
X173809184Y-133383942D01*
X173777435Y-133426056D01*
X173711888Y-133450249D01*
X173643666Y-133435165D01*
X173630585Y-133426859D01*
X173506433Y-133336657D01*
X173295996Y-133229433D01*
X173071368Y-133156446D01*
X172838097Y-133119500D01*
X172838092Y-133119500D01*
X172601908Y-133119500D01*
X172601903Y-133119500D01*
X172368631Y-133156446D01*
X172144003Y-133229433D01*
X171933566Y-133336657D01*
X171850047Y-133397338D01*
X171742490Y-133475483D01*
X171742488Y-133475485D01*
X171742487Y-133475485D01*
X171575484Y-133642488D01*
X171550318Y-133677127D01*
X171494987Y-133719792D01*
X171425374Y-133725771D01*
X171363579Y-133693165D01*
X171349682Y-133677127D01*
X171324517Y-133642490D01*
X171157510Y-133475483D01*
X170966433Y-133336657D01*
X170755996Y-133229433D01*
X170531368Y-133156446D01*
X170298097Y-133119500D01*
X170298092Y-133119500D01*
X170061908Y-133119500D01*
X170061903Y-133119500D01*
X169828631Y-133156446D01*
X169604003Y-133229433D01*
X169393566Y-133336657D01*
X169310047Y-133397338D01*
X169202490Y-133475483D01*
X169202488Y-133475485D01*
X169202487Y-133475485D01*
X169035484Y-133642488D01*
X169010318Y-133677127D01*
X168954987Y-133719792D01*
X168885374Y-133725771D01*
X168823579Y-133693165D01*
X168809682Y-133677127D01*
X168784517Y-133642490D01*
X168617510Y-133475483D01*
X168426433Y-133336657D01*
X168215996Y-133229433D01*
X167991368Y-133156446D01*
X167758097Y-133119500D01*
X167758092Y-133119500D01*
X167521908Y-133119500D01*
X167521903Y-133119500D01*
X167288631Y-133156446D01*
X167064003Y-133229433D01*
X166853566Y-133336657D01*
X166770047Y-133397338D01*
X166662490Y-133475483D01*
X166662488Y-133475485D01*
X166662487Y-133475485D01*
X166495484Y-133642488D01*
X166470318Y-133677127D01*
X166414987Y-133719792D01*
X166345374Y-133725771D01*
X166283579Y-133693165D01*
X166269682Y-133677127D01*
X166244517Y-133642490D01*
X166077510Y-133475483D01*
X165886433Y-133336657D01*
X165675996Y-133229433D01*
X165451368Y-133156446D01*
X165218097Y-133119500D01*
X165218092Y-133119500D01*
X164981908Y-133119500D01*
X164981903Y-133119500D01*
X164748631Y-133156446D01*
X164524003Y-133229433D01*
X164313566Y-133336657D01*
X164230047Y-133397338D01*
X164122490Y-133475483D01*
X164122488Y-133475485D01*
X164122487Y-133475485D01*
X163955484Y-133642488D01*
X163930318Y-133677127D01*
X163874987Y-133719792D01*
X163805374Y-133725771D01*
X163743579Y-133693165D01*
X163729682Y-133677127D01*
X163704517Y-133642490D01*
X163537510Y-133475483D01*
X163346433Y-133336657D01*
X163135996Y-133229433D01*
X162911368Y-133156446D01*
X162678097Y-133119500D01*
X162678092Y-133119500D01*
X162441908Y-133119500D01*
X162441903Y-133119500D01*
X162208631Y-133156446D01*
X161984003Y-133229433D01*
X161773566Y-133336657D01*
X161690047Y-133397338D01*
X161582490Y-133475483D01*
X161582488Y-133475485D01*
X161582487Y-133475485D01*
X161415484Y-133642488D01*
X161390318Y-133677127D01*
X161334987Y-133719792D01*
X161265374Y-133725771D01*
X161203579Y-133693165D01*
X161189682Y-133677127D01*
X161164517Y-133642490D01*
X160997510Y-133475483D01*
X160806433Y-133336657D01*
X160595996Y-133229433D01*
X160371368Y-133156446D01*
X160138097Y-133119500D01*
X160138092Y-133119500D01*
X159901908Y-133119500D01*
X159901903Y-133119500D01*
X159668631Y-133156446D01*
X159444003Y-133229433D01*
X159233566Y-133336657D01*
X159150047Y-133397338D01*
X159042490Y-133475483D01*
X159042488Y-133475485D01*
X159042487Y-133475485D01*
X158875482Y-133642490D01*
X158832451Y-133701717D01*
X158777120Y-133744382D01*
X158722405Y-133752448D01*
X158702658Y-133750893D01*
X157962962Y-134490590D01*
X157945925Y-134427007D01*
X157880099Y-134312993D01*
X157787007Y-134219901D01*
X157672993Y-134154075D01*
X157609409Y-134137037D01*
X158349105Y-133397340D01*
X158349104Y-133397338D01*
X158266174Y-133337087D01*
X158055802Y-133229897D01*
X157831247Y-133156934D01*
X157831248Y-133156934D01*
X157598052Y-133120000D01*
X157361948Y-133120000D01*
X157128752Y-133156934D01*
X156904197Y-133229897D01*
X156693830Y-133337084D01*
X156610894Y-133397340D01*
X157350591Y-134137037D01*
X157287007Y-134154075D01*
X157172993Y-134219901D01*
X157079901Y-134312993D01*
X157014075Y-134427007D01*
X156997037Y-134490590D01*
X156257340Y-133750893D01*
X156237593Y-133752448D01*
X156233860Y-133751663D01*
X156230222Y-133752808D01*
X156199936Y-133744537D01*
X156169215Y-133738084D01*
X156165429Y-133735114D01*
X156162821Y-133734402D01*
X156153431Y-133725701D01*
X156135712Y-133711800D01*
X156131370Y-133706978D01*
X156084517Y-133642490D01*
X155917510Y-133475483D01*
X155726433Y-133336657D01*
X155515996Y-133229433D01*
X155291368Y-133156446D01*
X155058097Y-133119500D01*
X155058092Y-133119500D01*
X154821908Y-133119500D01*
X154821903Y-133119500D01*
X154588631Y-133156446D01*
X154364003Y-133229433D01*
X154153566Y-133336657D01*
X154070047Y-133397338D01*
X153962490Y-133475483D01*
X153962488Y-133475485D01*
X153962487Y-133475485D01*
X153795482Y-133642490D01*
X153752451Y-133701717D01*
X153697120Y-133744382D01*
X153642405Y-133752448D01*
X153622658Y-133750893D01*
X152882962Y-134490590D01*
X152865925Y-134427007D01*
X152800099Y-134312993D01*
X152707007Y-134219901D01*
X152592993Y-134154075D01*
X152529409Y-134137037D01*
X153269105Y-133397340D01*
X153269104Y-133397338D01*
X153186174Y-133337087D01*
X152975802Y-133229897D01*
X152751247Y-133156934D01*
X152751248Y-133156934D01*
X152518052Y-133120000D01*
X152281948Y-133120000D01*
X152048752Y-133156934D01*
X151824197Y-133229897D01*
X151613830Y-133337084D01*
X151530894Y-133397340D01*
X152270591Y-134137037D01*
X152207007Y-134154075D01*
X152092993Y-134219901D01*
X151999901Y-134312993D01*
X151934075Y-134427007D01*
X151917037Y-134490590D01*
X151177340Y-133750893D01*
X151157593Y-133752448D01*
X151153860Y-133751663D01*
X151150222Y-133752808D01*
X151119936Y-133744537D01*
X151089215Y-133738084D01*
X151085429Y-133735114D01*
X151082821Y-133734402D01*
X151073431Y-133725701D01*
X151055712Y-133711800D01*
X151051370Y-133706978D01*
X151004517Y-133642490D01*
X150837510Y-133475483D01*
X150646433Y-133336657D01*
X150435996Y-133229433D01*
X150211368Y-133156446D01*
X149978097Y-133119500D01*
X149978092Y-133119500D01*
X149741908Y-133119500D01*
X149741903Y-133119500D01*
X149508631Y-133156446D01*
X149284003Y-133229433D01*
X149073566Y-133336657D01*
X148990047Y-133397338D01*
X148882490Y-133475483D01*
X148882488Y-133475485D01*
X148882487Y-133475485D01*
X148715482Y-133642490D01*
X148672451Y-133701717D01*
X148617120Y-133744382D01*
X148562405Y-133752448D01*
X148542658Y-133750893D01*
X147802962Y-134490590D01*
X147785925Y-134427007D01*
X147720099Y-134312993D01*
X147627007Y-134219901D01*
X147512993Y-134154075D01*
X147449409Y-134137037D01*
X148189105Y-133397340D01*
X148189104Y-133397338D01*
X148106174Y-133337087D01*
X147895802Y-133229897D01*
X147671247Y-133156934D01*
X147671248Y-133156934D01*
X147438052Y-133120000D01*
X147201948Y-133120000D01*
X146968752Y-133156934D01*
X146744197Y-133229897D01*
X146533830Y-133337084D01*
X146450894Y-133397340D01*
X147190591Y-134137037D01*
X147127007Y-134154075D01*
X147012993Y-134219901D01*
X146919901Y-134312993D01*
X146854075Y-134427007D01*
X146837037Y-134490590D01*
X146097340Y-133750893D01*
X146077593Y-133752448D01*
X146073860Y-133751663D01*
X146070222Y-133752808D01*
X146039936Y-133744537D01*
X146009215Y-133738084D01*
X146005429Y-133735114D01*
X146002821Y-133734402D01*
X145993431Y-133725701D01*
X145975712Y-133711800D01*
X145971370Y-133706978D01*
X145924517Y-133642490D01*
X145757510Y-133475483D01*
X145566433Y-133336657D01*
X145355996Y-133229433D01*
X145131368Y-133156446D01*
X144898097Y-133119500D01*
X144898092Y-133119500D01*
X144661908Y-133119500D01*
X144661903Y-133119500D01*
X144428631Y-133156446D01*
X144204003Y-133229433D01*
X143993566Y-133336657D01*
X143869422Y-133426854D01*
X143803615Y-133450334D01*
X143735561Y-133434509D01*
X143687942Y-133385510D01*
X143687604Y-133385696D01*
X143686938Y-133384478D01*
X143686866Y-133384403D01*
X143686719Y-133384076D01*
X143683350Y-133377906D01*
X143597190Y-133262812D01*
X143597187Y-133262809D01*
X143482093Y-133176649D01*
X143482086Y-133176645D01*
X143347379Y-133126403D01*
X143347372Y-133126401D01*
X143287844Y-133120000D01*
X142490000Y-133120000D01*
X142490000Y-134186988D01*
X142432993Y-134154075D01*
X142305826Y-134120000D01*
X142174174Y-134120000D01*
X142047007Y-134154075D01*
X141990000Y-134186988D01*
X141990000Y-133120000D01*
X141192155Y-133120000D01*
X141132627Y-133126401D01*
X141132620Y-133126403D01*
X140997913Y-133176645D01*
X140997906Y-133176649D01*
X140882812Y-133262809D01*
X140882809Y-133262812D01*
X140796649Y-133377906D01*
X140792396Y-133385696D01*
X140789275Y-133383992D01*
X140757503Y-133426356D01*
X140692017Y-133450714D01*
X140623757Y-133435801D01*
X140610397Y-133427340D01*
X140486174Y-133337087D01*
X140275802Y-133229897D01*
X140051247Y-133156934D01*
X140051248Y-133156934D01*
X139818052Y-133120000D01*
X139581948Y-133120000D01*
X139348752Y-133156934D01*
X139124197Y-133229897D01*
X138913830Y-133337084D01*
X138830894Y-133397340D01*
X139570591Y-134137037D01*
X139507007Y-134154075D01*
X139392993Y-134219901D01*
X139299901Y-134312993D01*
X139234075Y-134427007D01*
X139217037Y-134490591D01*
X138477340Y-133750894D01*
X138417084Y-133833830D01*
X138309897Y-134044197D01*
X138236934Y-134268752D01*
X138200000Y-134501947D01*
X106680000Y-134501947D01*
X106680000Y-109101902D01*
X138199500Y-109101902D01*
X138199500Y-109338097D01*
X138236446Y-109571368D01*
X138309433Y-109795996D01*
X138416657Y-110006433D01*
X138555483Y-110197510D01*
X138722490Y-110364517D01*
X138913567Y-110503343D01*
X139012991Y-110554002D01*
X139124003Y-110610566D01*
X139124005Y-110610566D01*
X139124008Y-110610568D01*
X139244412Y-110649689D01*
X139348631Y-110683553D01*
X139581903Y-110720500D01*
X139581908Y-110720500D01*
X139818097Y-110720500D01*
X140051368Y-110683553D01*
X140052870Y-110683065D01*
X140275992Y-110610568D01*
X140486433Y-110503343D01*
X140677510Y-110364517D01*
X140844517Y-110197510D01*
X140869682Y-110162872D01*
X140925011Y-110120207D01*
X140994625Y-110114228D01*
X141056420Y-110146833D01*
X141070315Y-110162870D01*
X141095483Y-110197510D01*
X141262490Y-110364517D01*
X141453567Y-110503343D01*
X141552991Y-110554002D01*
X141664003Y-110610566D01*
X141664005Y-110610566D01*
X141664008Y-110610568D01*
X141784412Y-110649689D01*
X141888631Y-110683553D01*
X142121903Y-110720500D01*
X142121908Y-110720500D01*
X142358097Y-110720500D01*
X142591368Y-110683553D01*
X142592870Y-110683065D01*
X142815992Y-110610568D01*
X143026433Y-110503343D01*
X143217510Y-110364517D01*
X143384517Y-110197510D01*
X143409682Y-110162872D01*
X143465011Y-110120207D01*
X143534625Y-110114228D01*
X143596420Y-110146833D01*
X143610315Y-110162870D01*
X143635483Y-110197510D01*
X143802490Y-110364517D01*
X143993567Y-110503343D01*
X144092991Y-110554002D01*
X144204003Y-110610566D01*
X144204005Y-110610566D01*
X144204008Y-110610568D01*
X144324412Y-110649689D01*
X144428631Y-110683553D01*
X144661903Y-110720500D01*
X144661908Y-110720500D01*
X144898097Y-110720500D01*
X145131368Y-110683553D01*
X145132870Y-110683065D01*
X145355992Y-110610568D01*
X145566433Y-110503343D01*
X145757510Y-110364517D01*
X145924517Y-110197510D01*
X145949682Y-110162872D01*
X146005011Y-110120207D01*
X146074625Y-110114228D01*
X146136420Y-110146833D01*
X146150315Y-110162870D01*
X146175483Y-110197510D01*
X146342490Y-110364517D01*
X146533567Y-110503343D01*
X146632991Y-110554002D01*
X146744003Y-110610566D01*
X146744005Y-110610566D01*
X146744008Y-110610568D01*
X146864412Y-110649689D01*
X146968631Y-110683553D01*
X147201903Y-110720500D01*
X147201908Y-110720500D01*
X147438097Y-110720500D01*
X147671368Y-110683553D01*
X147672870Y-110683065D01*
X147895992Y-110610568D01*
X148106433Y-110503343D01*
X148297510Y-110364517D01*
X148464517Y-110197510D01*
X148489682Y-110162872D01*
X148545011Y-110120207D01*
X148614625Y-110114228D01*
X148676420Y-110146833D01*
X148690315Y-110162870D01*
X148715483Y-110197510D01*
X148882490Y-110364517D01*
X149073567Y-110503343D01*
X149172991Y-110554002D01*
X149284003Y-110610566D01*
X149284005Y-110610566D01*
X149284008Y-110610568D01*
X149404412Y-110649689D01*
X149508631Y-110683553D01*
X149741903Y-110720500D01*
X149741908Y-110720500D01*
X149978097Y-110720500D01*
X150211368Y-110683553D01*
X150212870Y-110683065D01*
X150435992Y-110610568D01*
X150646433Y-110503343D01*
X150837510Y-110364517D01*
X151004517Y-110197510D01*
X151029682Y-110162872D01*
X151085011Y-110120207D01*
X151154625Y-110114228D01*
X151216420Y-110146833D01*
X151230315Y-110162870D01*
X151255483Y-110197510D01*
X151422490Y-110364517D01*
X151613567Y-110503343D01*
X151712991Y-110554002D01*
X151824003Y-110610566D01*
X151824005Y-110610566D01*
X151824008Y-110610568D01*
X151944412Y-110649689D01*
X152048631Y-110683553D01*
X152281903Y-110720500D01*
X152281908Y-110720500D01*
X152518097Y-110720500D01*
X152751368Y-110683553D01*
X152752870Y-110683065D01*
X152975992Y-110610568D01*
X153186433Y-110503343D01*
X153377510Y-110364517D01*
X153544517Y-110197510D01*
X153569682Y-110162872D01*
X153625011Y-110120207D01*
X153694625Y-110114228D01*
X153756420Y-110146833D01*
X153770315Y-110162870D01*
X153795483Y-110197510D01*
X153962490Y-110364517D01*
X154153567Y-110503343D01*
X154252991Y-110554002D01*
X154364003Y-110610566D01*
X154364005Y-110610566D01*
X154364008Y-110610568D01*
X154484412Y-110649689D01*
X154588631Y-110683553D01*
X154821903Y-110720500D01*
X154821908Y-110720500D01*
X155058097Y-110720500D01*
X155291368Y-110683553D01*
X155292870Y-110683065D01*
X155515992Y-110610568D01*
X155726433Y-110503343D01*
X155917510Y-110364517D01*
X156084517Y-110197510D01*
X156109682Y-110162872D01*
X156165011Y-110120207D01*
X156234625Y-110114228D01*
X156296420Y-110146833D01*
X156310315Y-110162870D01*
X156335483Y-110197510D01*
X156502490Y-110364517D01*
X156693567Y-110503343D01*
X156792991Y-110554002D01*
X156904003Y-110610566D01*
X156904005Y-110610566D01*
X156904008Y-110610568D01*
X157024412Y-110649689D01*
X157128631Y-110683553D01*
X157361903Y-110720500D01*
X157361908Y-110720500D01*
X157598097Y-110720500D01*
X157831368Y-110683553D01*
X157832870Y-110683065D01*
X158055992Y-110610568D01*
X158266433Y-110503343D01*
X158457510Y-110364517D01*
X158624517Y-110197510D01*
X158649682Y-110162872D01*
X158705011Y-110120207D01*
X158774625Y-110114228D01*
X158836420Y-110146833D01*
X158850315Y-110162870D01*
X158875483Y-110197510D01*
X159042490Y-110364517D01*
X159233567Y-110503343D01*
X159332991Y-110554002D01*
X159444003Y-110610566D01*
X159444005Y-110610566D01*
X159444008Y-110610568D01*
X159564412Y-110649689D01*
X159668631Y-110683553D01*
X159901903Y-110720500D01*
X159901908Y-110720500D01*
X160138097Y-110720500D01*
X160371368Y-110683553D01*
X160372870Y-110683065D01*
X160595992Y-110610568D01*
X160806433Y-110503343D01*
X160997510Y-110364517D01*
X161164517Y-110197510D01*
X161211370Y-110133022D01*
X161215713Y-110128199D01*
X161240150Y-110113142D01*
X161262877Y-110095618D01*
X161270393Y-110094509D01*
X161275199Y-110091549D01*
X161288730Y-110091806D01*
X161317594Y-110087551D01*
X161337340Y-110089105D01*
X162077037Y-109349408D01*
X162094075Y-109412993D01*
X162159901Y-109527007D01*
X162252993Y-109620099D01*
X162367007Y-109685925D01*
X162430590Y-109702962D01*
X161690893Y-110442658D01*
X161773828Y-110502914D01*
X161984197Y-110610102D01*
X162208752Y-110683065D01*
X162208751Y-110683065D01*
X162441948Y-110720000D01*
X162678052Y-110720000D01*
X162911247Y-110683065D01*
X163135802Y-110610102D01*
X163346163Y-110502918D01*
X163346169Y-110502914D01*
X163429104Y-110442658D01*
X163429105Y-110442658D01*
X162689408Y-109702962D01*
X162752993Y-109685925D01*
X162867007Y-109620099D01*
X162960099Y-109527007D01*
X163025925Y-109412993D01*
X163042962Y-109349409D01*
X163782657Y-110089104D01*
X163802404Y-110087550D01*
X163870781Y-110101914D01*
X163912451Y-110138282D01*
X163955483Y-110197510D01*
X164122490Y-110364517D01*
X164313567Y-110503343D01*
X164412991Y-110554002D01*
X164524003Y-110610566D01*
X164524005Y-110610566D01*
X164524008Y-110610568D01*
X164644412Y-110649689D01*
X164748631Y-110683553D01*
X164981903Y-110720500D01*
X164981908Y-110720500D01*
X165218097Y-110720500D01*
X165451368Y-110683553D01*
X165452870Y-110683065D01*
X165675992Y-110610568D01*
X165886433Y-110503343D01*
X166077510Y-110364517D01*
X166244517Y-110197510D01*
X166291370Y-110133022D01*
X166295713Y-110128199D01*
X166320150Y-110113142D01*
X166342877Y-110095618D01*
X166350393Y-110094509D01*
X166355199Y-110091549D01*
X166368730Y-110091806D01*
X166397594Y-110087551D01*
X166417340Y-110089105D01*
X167157037Y-109349408D01*
X167174075Y-109412993D01*
X167239901Y-109527007D01*
X167332993Y-109620099D01*
X167447007Y-109685925D01*
X167510590Y-109702962D01*
X166770893Y-110442658D01*
X166853828Y-110502914D01*
X167064197Y-110610102D01*
X167288752Y-110683065D01*
X167288751Y-110683065D01*
X167521948Y-110720000D01*
X167758052Y-110720000D01*
X167991247Y-110683065D01*
X168215802Y-110610102D01*
X168426163Y-110502918D01*
X168426169Y-110502914D01*
X168509104Y-110442658D01*
X168509105Y-110442658D01*
X167769408Y-109702962D01*
X167832993Y-109685925D01*
X167947007Y-109620099D01*
X168040099Y-109527007D01*
X168105925Y-109412993D01*
X168122962Y-109349408D01*
X168862657Y-110089104D01*
X168882404Y-110087550D01*
X168950781Y-110101914D01*
X168992451Y-110138282D01*
X169035483Y-110197510D01*
X169202490Y-110364517D01*
X169393567Y-110503343D01*
X169492991Y-110554002D01*
X169604003Y-110610566D01*
X169604005Y-110610566D01*
X169604008Y-110610568D01*
X169724412Y-110649689D01*
X169828631Y-110683553D01*
X170061903Y-110720500D01*
X170061908Y-110720500D01*
X170298097Y-110720500D01*
X170531368Y-110683553D01*
X170532870Y-110683065D01*
X170755992Y-110610568D01*
X170966433Y-110503343D01*
X171157510Y-110364517D01*
X171324517Y-110197510D01*
X171349682Y-110162872D01*
X171405011Y-110120207D01*
X171474625Y-110114228D01*
X171536420Y-110146833D01*
X171550315Y-110162870D01*
X171575483Y-110197510D01*
X171742490Y-110364517D01*
X171933567Y-110503343D01*
X172032991Y-110554002D01*
X172144003Y-110610566D01*
X172144005Y-110610566D01*
X172144008Y-110610568D01*
X172264412Y-110649689D01*
X172368631Y-110683553D01*
X172601903Y-110720500D01*
X172601908Y-110720500D01*
X172838097Y-110720500D01*
X173071368Y-110683553D01*
X173072870Y-110683065D01*
X173295992Y-110610568D01*
X173506433Y-110503343D01*
X173630579Y-110413145D01*
X173696383Y-110389665D01*
X173764437Y-110405490D01*
X173812057Y-110454489D01*
X173812396Y-110454304D01*
X173813061Y-110455522D01*
X173813132Y-110455595D01*
X173813276Y-110455916D01*
X173816649Y-110462093D01*
X173902809Y-110577187D01*
X173902812Y-110577190D01*
X174017906Y-110663350D01*
X174017913Y-110663354D01*
X174152620Y-110713596D01*
X174152627Y-110713598D01*
X174212155Y-110719999D01*
X174212172Y-110720000D01*
X175010000Y-110720000D01*
X175010000Y-109653012D01*
X175067007Y-109685925D01*
X175194174Y-109720000D01*
X175325826Y-109720000D01*
X175452993Y-109685925D01*
X175510000Y-109653012D01*
X175510000Y-110720000D01*
X176307828Y-110720000D01*
X176307844Y-110719999D01*
X176367372Y-110713598D01*
X176367379Y-110713596D01*
X176502086Y-110663354D01*
X176502093Y-110663350D01*
X176617187Y-110577190D01*
X176617190Y-110577187D01*
X176703350Y-110462093D01*
X176703354Y-110462086D01*
X176753596Y-110327379D01*
X176753598Y-110327372D01*
X176759999Y-110267844D01*
X176760000Y-110267827D01*
X176760000Y-109470000D01*
X175693012Y-109470000D01*
X175725925Y-109412993D01*
X175760000Y-109285826D01*
X175760000Y-109154174D01*
X175725925Y-109027007D01*
X175693012Y-108970000D01*
X176760000Y-108970000D01*
X176760000Y-108172172D01*
X176759999Y-108172155D01*
X176753598Y-108112627D01*
X176753596Y-108112620D01*
X176703354Y-107977913D01*
X176703350Y-107977906D01*
X176617190Y-107862812D01*
X176617187Y-107862809D01*
X176502093Y-107776649D01*
X176502086Y-107776645D01*
X176367379Y-107726403D01*
X176367372Y-107726401D01*
X176307844Y-107720000D01*
X175510000Y-107720000D01*
X175510000Y-108786988D01*
X175452993Y-108754075D01*
X175325826Y-108720000D01*
X175194174Y-108720000D01*
X175067007Y-108754075D01*
X175010000Y-108786988D01*
X175010000Y-107720000D01*
X174212155Y-107720000D01*
X174152627Y-107726401D01*
X174152620Y-107726403D01*
X174017913Y-107776645D01*
X174017906Y-107776649D01*
X173902812Y-107862809D01*
X173902809Y-107862812D01*
X173816649Y-107977906D01*
X173812396Y-107985696D01*
X173809184Y-107983942D01*
X173777435Y-108026056D01*
X173711888Y-108050249D01*
X173643666Y-108035165D01*
X173630585Y-108026859D01*
X173506433Y-107936657D01*
X173295996Y-107829433D01*
X173071368Y-107756446D01*
X172838097Y-107719500D01*
X172838092Y-107719500D01*
X172601908Y-107719500D01*
X172601903Y-107719500D01*
X172368631Y-107756446D01*
X172144003Y-107829433D01*
X171933566Y-107936657D01*
X171850047Y-107997338D01*
X171742490Y-108075483D01*
X171742488Y-108075485D01*
X171742487Y-108075485D01*
X171575484Y-108242488D01*
X171550318Y-108277127D01*
X171494987Y-108319792D01*
X171425374Y-108325771D01*
X171363579Y-108293165D01*
X171349682Y-108277127D01*
X171324517Y-108242490D01*
X171157510Y-108075483D01*
X170966433Y-107936657D01*
X170755996Y-107829433D01*
X170531368Y-107756446D01*
X170298097Y-107719500D01*
X170298092Y-107719500D01*
X170061908Y-107719500D01*
X170061903Y-107719500D01*
X169828631Y-107756446D01*
X169604003Y-107829433D01*
X169393566Y-107936657D01*
X169310047Y-107997338D01*
X169202490Y-108075483D01*
X169202488Y-108075485D01*
X169202487Y-108075485D01*
X169035482Y-108242490D01*
X168992451Y-108301717D01*
X168937120Y-108344382D01*
X168882405Y-108352448D01*
X168862658Y-108350893D01*
X168122962Y-109090590D01*
X168105925Y-109027007D01*
X168040099Y-108912993D01*
X167947007Y-108819901D01*
X167832993Y-108754075D01*
X167769409Y-108737037D01*
X168509105Y-107997340D01*
X168509104Y-107997338D01*
X168426174Y-107937087D01*
X168215802Y-107829897D01*
X167991247Y-107756934D01*
X167991248Y-107756934D01*
X167758052Y-107720000D01*
X167521948Y-107720000D01*
X167288752Y-107756934D01*
X167064197Y-107829897D01*
X166853830Y-107937084D01*
X166770894Y-107997340D01*
X167510591Y-108737037D01*
X167447007Y-108754075D01*
X167332993Y-108819901D01*
X167239901Y-108912993D01*
X167174075Y-109027007D01*
X167157037Y-109090590D01*
X166417340Y-108350893D01*
X166397593Y-108352448D01*
X166393860Y-108351663D01*
X166390222Y-108352808D01*
X166359936Y-108344537D01*
X166329215Y-108338084D01*
X166325429Y-108335114D01*
X166322821Y-108334402D01*
X166313431Y-108325701D01*
X166295712Y-108311800D01*
X166291370Y-108306978D01*
X166244517Y-108242490D01*
X166077510Y-108075483D01*
X165886433Y-107936657D01*
X165675996Y-107829433D01*
X165451368Y-107756446D01*
X165218097Y-107719500D01*
X165218092Y-107719500D01*
X164981908Y-107719500D01*
X164981903Y-107719500D01*
X164748631Y-107756446D01*
X164524003Y-107829433D01*
X164313566Y-107936657D01*
X164230047Y-107997338D01*
X164122490Y-108075483D01*
X164122488Y-108075485D01*
X164122487Y-108075485D01*
X163955482Y-108242490D01*
X163912451Y-108301717D01*
X163857120Y-108344382D01*
X163802405Y-108352448D01*
X163782658Y-108350893D01*
X163042962Y-109090590D01*
X163025925Y-109027007D01*
X162960099Y-108912993D01*
X162867007Y-108819901D01*
X162752993Y-108754075D01*
X162689409Y-108737037D01*
X163429105Y-107997340D01*
X163429104Y-107997338D01*
X163346174Y-107937087D01*
X163135802Y-107829897D01*
X162911247Y-107756934D01*
X162911248Y-107756934D01*
X162678052Y-107720000D01*
X162441948Y-107720000D01*
X162208752Y-107756934D01*
X161984197Y-107829897D01*
X161773830Y-107937084D01*
X161690894Y-107997340D01*
X162430591Y-108737037D01*
X162367007Y-108754075D01*
X162252993Y-108819901D01*
X162159901Y-108912993D01*
X162094075Y-109027007D01*
X162077037Y-109090590D01*
X161337340Y-108350893D01*
X161317593Y-108352448D01*
X161313860Y-108351663D01*
X161310222Y-108352808D01*
X161279936Y-108344537D01*
X161249215Y-108338084D01*
X161245429Y-108335114D01*
X161242821Y-108334402D01*
X161233431Y-108325701D01*
X161215712Y-108311800D01*
X161211370Y-108306978D01*
X161164517Y-108242490D01*
X160997510Y-108075483D01*
X160806433Y-107936657D01*
X160595996Y-107829433D01*
X160371368Y-107756446D01*
X160138097Y-107719500D01*
X160138092Y-107719500D01*
X159901908Y-107719500D01*
X159901903Y-107719500D01*
X159668631Y-107756446D01*
X159444003Y-107829433D01*
X159233566Y-107936657D01*
X159150047Y-107997338D01*
X159042490Y-108075483D01*
X159042488Y-108075485D01*
X159042487Y-108075485D01*
X158875484Y-108242488D01*
X158850318Y-108277127D01*
X158794987Y-108319792D01*
X158725374Y-108325771D01*
X158663579Y-108293165D01*
X158649682Y-108277127D01*
X158624517Y-108242490D01*
X158457510Y-108075483D01*
X158266433Y-107936657D01*
X158055996Y-107829433D01*
X157831368Y-107756446D01*
X157598097Y-107719500D01*
X157598092Y-107719500D01*
X157361908Y-107719500D01*
X157361903Y-107719500D01*
X157128631Y-107756446D01*
X156904003Y-107829433D01*
X156693566Y-107936657D01*
X156610047Y-107997338D01*
X156502490Y-108075483D01*
X156502488Y-108075485D01*
X156502487Y-108075485D01*
X156335484Y-108242488D01*
X156310318Y-108277127D01*
X156254987Y-108319792D01*
X156185374Y-108325771D01*
X156123579Y-108293165D01*
X156109682Y-108277127D01*
X156084517Y-108242490D01*
X155917510Y-108075483D01*
X155726433Y-107936657D01*
X155515996Y-107829433D01*
X155291368Y-107756446D01*
X155058097Y-107719500D01*
X155058092Y-107719500D01*
X154821908Y-107719500D01*
X154821903Y-107719500D01*
X154588631Y-107756446D01*
X154364003Y-107829433D01*
X154153566Y-107936657D01*
X154070047Y-107997338D01*
X153962490Y-108075483D01*
X153962488Y-108075485D01*
X153962487Y-108075485D01*
X153795484Y-108242488D01*
X153770318Y-108277127D01*
X153714987Y-108319792D01*
X153645374Y-108325771D01*
X153583579Y-108293165D01*
X153569682Y-108277127D01*
X153544517Y-108242490D01*
X153377510Y-108075483D01*
X153186433Y-107936657D01*
X152975996Y-107829433D01*
X152751368Y-107756446D01*
X152518097Y-107719500D01*
X152518092Y-107719500D01*
X152281908Y-107719500D01*
X152281903Y-107719500D01*
X152048631Y-107756446D01*
X151824003Y-107829433D01*
X151613566Y-107936657D01*
X151530047Y-107997338D01*
X151422490Y-108075483D01*
X151422488Y-108075485D01*
X151422487Y-108075485D01*
X151255484Y-108242488D01*
X151230318Y-108277127D01*
X151174987Y-108319792D01*
X151105374Y-108325771D01*
X151043579Y-108293165D01*
X151029682Y-108277127D01*
X151004517Y-108242490D01*
X150837510Y-108075483D01*
X150646433Y-107936657D01*
X150435996Y-107829433D01*
X150211368Y-107756446D01*
X149978097Y-107719500D01*
X149978092Y-107719500D01*
X149741908Y-107719500D01*
X149741903Y-107719500D01*
X149508631Y-107756446D01*
X149284003Y-107829433D01*
X149073566Y-107936657D01*
X148990047Y-107997338D01*
X148882490Y-108075483D01*
X148882488Y-108075485D01*
X148882487Y-108075485D01*
X148715484Y-108242488D01*
X148690318Y-108277127D01*
X148634987Y-108319792D01*
X148565374Y-108325771D01*
X148503579Y-108293165D01*
X148489682Y-108277127D01*
X148464517Y-108242490D01*
X148297510Y-108075483D01*
X148106433Y-107936657D01*
X147895996Y-107829433D01*
X147671368Y-107756446D01*
X147438097Y-107719500D01*
X147438092Y-107719500D01*
X147201908Y-107719500D01*
X147201903Y-107719500D01*
X146968631Y-107756446D01*
X146744003Y-107829433D01*
X146533566Y-107936657D01*
X146450047Y-107997338D01*
X146342490Y-108075483D01*
X146342488Y-108075485D01*
X146342487Y-108075485D01*
X146175484Y-108242488D01*
X146150318Y-108277127D01*
X146094987Y-108319792D01*
X146025374Y-108325771D01*
X145963579Y-108293165D01*
X145949682Y-108277127D01*
X145924517Y-108242490D01*
X145757510Y-108075483D01*
X145566433Y-107936657D01*
X145355996Y-107829433D01*
X145131368Y-107756446D01*
X144898097Y-107719500D01*
X144898092Y-107719500D01*
X144661908Y-107719500D01*
X144661903Y-107719500D01*
X144428631Y-107756446D01*
X144204003Y-107829433D01*
X143993566Y-107936657D01*
X143910047Y-107997338D01*
X143802490Y-108075483D01*
X143802488Y-108075485D01*
X143802487Y-108075485D01*
X143635484Y-108242488D01*
X143610318Y-108277127D01*
X143554987Y-108319792D01*
X143485374Y-108325771D01*
X143423579Y-108293165D01*
X143409682Y-108277127D01*
X143384517Y-108242490D01*
X143217510Y-108075483D01*
X143026433Y-107936657D01*
X142815996Y-107829433D01*
X142591368Y-107756446D01*
X142358097Y-107719500D01*
X142358092Y-107719500D01*
X142121908Y-107719500D01*
X142121903Y-107719500D01*
X141888631Y-107756446D01*
X141664003Y-107829433D01*
X141453566Y-107936657D01*
X141370047Y-107997338D01*
X141262490Y-108075483D01*
X141262488Y-108075485D01*
X141262487Y-108075485D01*
X141095484Y-108242488D01*
X141070318Y-108277127D01*
X141014987Y-108319792D01*
X140945374Y-108325771D01*
X140883579Y-108293165D01*
X140869682Y-108277127D01*
X140844517Y-108242490D01*
X140677510Y-108075483D01*
X140486433Y-107936657D01*
X140275996Y-107829433D01*
X140051368Y-107756446D01*
X139818097Y-107719500D01*
X139818092Y-107719500D01*
X139581908Y-107719500D01*
X139581903Y-107719500D01*
X139348631Y-107756446D01*
X139124003Y-107829433D01*
X138913566Y-107936657D01*
X138830047Y-107997338D01*
X138722490Y-108075483D01*
X138722488Y-108075485D01*
X138722487Y-108075485D01*
X138555485Y-108242487D01*
X138555485Y-108242488D01*
X138555483Y-108242490D01*
X138512452Y-108301717D01*
X138416657Y-108433566D01*
X138309433Y-108644003D01*
X138236446Y-108868631D01*
X138199500Y-109101902D01*
X106680000Y-109101902D01*
X106680000Y-98773389D01*
X161524500Y-98773389D01*
X161524500Y-98946611D01*
X161551598Y-99117701D01*
X161605127Y-99282445D01*
X161683768Y-99436788D01*
X161785586Y-99576928D01*
X161908072Y-99699414D01*
X162048212Y-99801232D01*
X162202555Y-99879873D01*
X162367299Y-99933402D01*
X162538389Y-99960500D01*
X162538390Y-99960500D01*
X162711610Y-99960500D01*
X162711611Y-99960500D01*
X162882701Y-99933402D01*
X163047445Y-99879873D01*
X163201788Y-99801232D01*
X163341928Y-99699414D01*
X163464414Y-99576928D01*
X163566232Y-99436788D01*
X163644873Y-99282445D01*
X163698402Y-99117701D01*
X163725500Y-98946611D01*
X163725500Y-98773389D01*
X163698402Y-98602299D01*
X163644873Y-98437555D01*
X163566232Y-98283212D01*
X163464414Y-98143072D01*
X163341928Y-98020586D01*
X163201788Y-97918768D01*
X163047445Y-97840127D01*
X162882701Y-97786598D01*
X162882699Y-97786597D01*
X162882698Y-97786597D01*
X162751271Y-97765781D01*
X162711611Y-97759500D01*
X162538389Y-97759500D01*
X162498728Y-97765781D01*
X162367302Y-97786597D01*
X162202552Y-97840128D01*
X162048211Y-97918768D01*
X161968256Y-97976859D01*
X161908072Y-98020586D01*
X161908070Y-98020588D01*
X161908069Y-98020588D01*
X161785588Y-98143069D01*
X161785588Y-98143070D01*
X161785586Y-98143072D01*
X161741859Y-98203256D01*
X161683768Y-98283211D01*
X161605128Y-98437552D01*
X161551597Y-98602302D01*
X161524500Y-98773389D01*
X106680000Y-98773389D01*
X106680000Y-73776228D01*
X161774500Y-73776228D01*
X161774500Y-73943771D01*
X161807182Y-74108074D01*
X161807184Y-74108082D01*
X161871295Y-74262860D01*
X161964373Y-74402162D01*
X162082837Y-74520626D01*
X162175494Y-74582537D01*
X162222137Y-74613703D01*
X162376918Y-74677816D01*
X162499365Y-74702172D01*
X162541228Y-74710499D01*
X162541232Y-74710500D01*
X162541233Y-74710500D01*
X162708768Y-74710500D01*
X162708769Y-74710499D01*
X162750718Y-74702155D01*
X185350000Y-74702155D01*
X185350000Y-75350000D01*
X186266988Y-75350000D01*
X186234075Y-75407007D01*
X186200000Y-75534174D01*
X186200000Y-75665826D01*
X186234075Y-75792993D01*
X186266988Y-75850000D01*
X185350000Y-75850000D01*
X185350000Y-76497844D01*
X185356401Y-76557372D01*
X185356403Y-76557379D01*
X185406645Y-76692086D01*
X185406649Y-76692093D01*
X185492809Y-76807187D01*
X185492812Y-76807190D01*
X185607906Y-76893350D01*
X185607913Y-76893354D01*
X185739986Y-76942614D01*
X185795920Y-76984485D01*
X185820337Y-77049949D01*
X185805486Y-77118222D01*
X185784335Y-77146477D01*
X185670271Y-77260541D01*
X185545379Y-77432442D01*
X185448904Y-77621782D01*
X185383242Y-77823870D01*
X185383242Y-77823873D01*
X185372769Y-77890000D01*
X186266988Y-77890000D01*
X186234075Y-77947007D01*
X186200000Y-78074174D01*
X186200000Y-78205826D01*
X186234075Y-78332993D01*
X186266988Y-78390000D01*
X185372769Y-78390000D01*
X185383242Y-78456126D01*
X185383242Y-78456129D01*
X185448904Y-78658217D01*
X185545379Y-78847557D01*
X185670272Y-79019459D01*
X185670276Y-79019464D01*
X185820535Y-79169723D01*
X185820540Y-79169727D01*
X185992444Y-79294622D01*
X186002048Y-79299516D01*
X186052844Y-79347491D01*
X186069638Y-79415312D01*
X186047100Y-79481447D01*
X186002048Y-79520484D01*
X185992444Y-79525377D01*
X185820540Y-79650272D01*
X185820535Y-79650276D01*
X185670276Y-79800535D01*
X185670272Y-79800540D01*
X185545379Y-79972442D01*
X185448904Y-80161782D01*
X185383242Y-80363870D01*
X185383242Y-80363873D01*
X185372769Y-80430000D01*
X186266988Y-80430000D01*
X186234075Y-80487007D01*
X186200000Y-80614174D01*
X186200000Y-80745826D01*
X186234075Y-80872993D01*
X186266988Y-80930000D01*
X185372769Y-80930000D01*
X185383242Y-80996126D01*
X185383242Y-80996129D01*
X185448904Y-81198217D01*
X185545379Y-81387557D01*
X185670272Y-81559459D01*
X185670276Y-81559464D01*
X185820535Y-81709723D01*
X185820540Y-81709727D01*
X185992444Y-81834622D01*
X186002048Y-81839516D01*
X186052844Y-81887491D01*
X186069638Y-81955312D01*
X186047100Y-82021447D01*
X186002048Y-82060484D01*
X185992444Y-82065377D01*
X185820540Y-82190272D01*
X185820535Y-82190276D01*
X185670276Y-82340535D01*
X185670272Y-82340540D01*
X185545379Y-82512442D01*
X185448904Y-82701782D01*
X185383242Y-82903870D01*
X185383242Y-82903873D01*
X185372769Y-82970000D01*
X186266988Y-82970000D01*
X186234075Y-83027007D01*
X186200000Y-83154174D01*
X186200000Y-83285826D01*
X186234075Y-83412993D01*
X186266988Y-83470000D01*
X185372769Y-83470000D01*
X185383242Y-83536126D01*
X185383242Y-83536129D01*
X185448904Y-83738217D01*
X185545379Y-83927557D01*
X185670272Y-84099459D01*
X185670276Y-84099464D01*
X185820535Y-84249723D01*
X185820540Y-84249727D01*
X185992444Y-84374622D01*
X186002048Y-84379516D01*
X186052844Y-84427491D01*
X186069638Y-84495312D01*
X186047100Y-84561447D01*
X186002048Y-84600484D01*
X185992444Y-84605377D01*
X185820540Y-84730272D01*
X185820535Y-84730276D01*
X185670276Y-84880535D01*
X185670272Y-84880540D01*
X185545379Y-85052442D01*
X185448904Y-85241782D01*
X185383242Y-85443870D01*
X185383242Y-85443873D01*
X185372769Y-85510000D01*
X186266988Y-85510000D01*
X186234075Y-85567007D01*
X186200000Y-85694174D01*
X186200000Y-85825826D01*
X186234075Y-85952993D01*
X186266988Y-86010000D01*
X185372769Y-86010000D01*
X185383242Y-86076126D01*
X185383242Y-86076129D01*
X185448904Y-86278217D01*
X185545379Y-86467557D01*
X185670272Y-86639459D01*
X185670276Y-86639464D01*
X185820535Y-86789723D01*
X185820540Y-86789727D01*
X185992444Y-86914622D01*
X186002048Y-86919516D01*
X186052844Y-86967491D01*
X186069638Y-87035312D01*
X186047100Y-87101447D01*
X186002048Y-87140484D01*
X185992444Y-87145377D01*
X185820540Y-87270272D01*
X185820535Y-87270276D01*
X185670276Y-87420535D01*
X185670272Y-87420540D01*
X185545379Y-87592442D01*
X185448904Y-87781782D01*
X185383242Y-87983870D01*
X185383242Y-87983873D01*
X185372769Y-88050000D01*
X186266988Y-88050000D01*
X186234075Y-88107007D01*
X186200000Y-88234174D01*
X186200000Y-88365826D01*
X186234075Y-88492993D01*
X186266988Y-88550000D01*
X185372769Y-88550000D01*
X185383242Y-88616126D01*
X185383242Y-88616129D01*
X185448904Y-88818217D01*
X185545379Y-89007557D01*
X185670272Y-89179459D01*
X185670276Y-89179464D01*
X185820535Y-89329723D01*
X185820540Y-89329727D01*
X185992444Y-89454622D01*
X186002048Y-89459516D01*
X186052844Y-89507491D01*
X186069638Y-89575312D01*
X186047100Y-89641447D01*
X186002048Y-89680484D01*
X185992444Y-89685377D01*
X185820540Y-89810272D01*
X185820535Y-89810276D01*
X185670276Y-89960535D01*
X185670272Y-89960540D01*
X185545379Y-90132442D01*
X185448904Y-90321782D01*
X185383242Y-90523870D01*
X185383242Y-90523873D01*
X185372769Y-90590000D01*
X186266988Y-90590000D01*
X186234075Y-90647007D01*
X186200000Y-90774174D01*
X186200000Y-90905826D01*
X186234075Y-91032993D01*
X186266988Y-91090000D01*
X185372769Y-91090000D01*
X185383242Y-91156126D01*
X185383242Y-91156129D01*
X185448904Y-91358217D01*
X185545379Y-91547557D01*
X185670272Y-91719459D01*
X185670276Y-91719464D01*
X185820535Y-91869723D01*
X185820540Y-91869727D01*
X185992442Y-91994620D01*
X186181782Y-92091095D01*
X186383871Y-92156757D01*
X186450000Y-92167231D01*
X186450000Y-91273012D01*
X186507007Y-91305925D01*
X186634174Y-91340000D01*
X186765826Y-91340000D01*
X186892993Y-91305925D01*
X186950000Y-91273012D01*
X186950000Y-92167230D01*
X187016126Y-92156757D01*
X187016129Y-92156757D01*
X187218217Y-92091095D01*
X187407557Y-91994620D01*
X187579459Y-91869727D01*
X187579464Y-91869723D01*
X187729723Y-91719464D01*
X187729727Y-91719459D01*
X187854620Y-91547557D01*
X187951095Y-91358217D01*
X188016757Y-91156129D01*
X188016757Y-91156126D01*
X188027231Y-91090000D01*
X187133012Y-91090000D01*
X187165925Y-91032993D01*
X187200000Y-90905826D01*
X187200000Y-90774174D01*
X187165925Y-90647007D01*
X187133012Y-90590000D01*
X188027231Y-90590000D01*
X188016757Y-90523873D01*
X188016757Y-90523870D01*
X187951095Y-90321782D01*
X187854620Y-90132442D01*
X187729727Y-89960540D01*
X187729723Y-89960535D01*
X187579464Y-89810276D01*
X187579459Y-89810272D01*
X187407558Y-89685379D01*
X187397954Y-89680486D01*
X187347157Y-89632512D01*
X187330361Y-89564692D01*
X187352897Y-89498556D01*
X187397954Y-89459514D01*
X187407558Y-89454620D01*
X187579459Y-89329727D01*
X187579464Y-89329723D01*
X187729723Y-89179464D01*
X187729727Y-89179459D01*
X187854620Y-89007557D01*
X187951095Y-88818217D01*
X188016757Y-88616129D01*
X188016757Y-88616126D01*
X188027231Y-88550000D01*
X187133012Y-88550000D01*
X187165925Y-88492993D01*
X187200000Y-88365826D01*
X187200000Y-88234174D01*
X187165925Y-88107007D01*
X187133012Y-88050000D01*
X188027231Y-88050000D01*
X188016757Y-87983873D01*
X188016757Y-87983870D01*
X187951095Y-87781782D01*
X187854620Y-87592442D01*
X187729727Y-87420540D01*
X187729723Y-87420535D01*
X187579464Y-87270276D01*
X187579459Y-87270272D01*
X187407558Y-87145379D01*
X187397954Y-87140486D01*
X187347157Y-87092512D01*
X187330361Y-87024692D01*
X187352897Y-86958556D01*
X187397954Y-86919514D01*
X187407558Y-86914620D01*
X187579459Y-86789727D01*
X187579464Y-86789723D01*
X187729723Y-86639464D01*
X187729727Y-86639459D01*
X187854620Y-86467557D01*
X187951095Y-86278217D01*
X188016757Y-86076129D01*
X188016757Y-86076126D01*
X188027231Y-86010000D01*
X187133012Y-86010000D01*
X187165925Y-85952993D01*
X187200000Y-85825826D01*
X187200000Y-85694174D01*
X187165925Y-85567007D01*
X187133012Y-85510000D01*
X188027231Y-85510000D01*
X188016757Y-85443873D01*
X188016757Y-85443870D01*
X187951095Y-85241782D01*
X187854620Y-85052442D01*
X187729727Y-84880540D01*
X187729723Y-84880535D01*
X187579464Y-84730276D01*
X187579459Y-84730272D01*
X187407558Y-84605379D01*
X187397954Y-84600486D01*
X187347157Y-84552512D01*
X187330361Y-84484692D01*
X187352897Y-84418556D01*
X187397954Y-84379514D01*
X187407558Y-84374620D01*
X187579459Y-84249727D01*
X187579464Y-84249723D01*
X187729723Y-84099464D01*
X187729727Y-84099459D01*
X187854620Y-83927557D01*
X187951095Y-83738217D01*
X188016757Y-83536129D01*
X188016757Y-83536126D01*
X188027231Y-83470000D01*
X187133012Y-83470000D01*
X187165925Y-83412993D01*
X187200000Y-83285826D01*
X187200000Y-83154174D01*
X187165925Y-83027007D01*
X187133012Y-82970000D01*
X188027231Y-82970000D01*
X188016757Y-82903873D01*
X188016757Y-82903870D01*
X187951095Y-82701782D01*
X187854620Y-82512442D01*
X187729727Y-82340540D01*
X187729723Y-82340535D01*
X187579464Y-82190276D01*
X187579459Y-82190272D01*
X187407558Y-82065379D01*
X187397954Y-82060486D01*
X187347157Y-82012512D01*
X187330361Y-81944692D01*
X187352897Y-81878556D01*
X187397954Y-81839514D01*
X187407558Y-81834620D01*
X187579459Y-81709727D01*
X187579464Y-81709723D01*
X187729723Y-81559464D01*
X187729727Y-81559459D01*
X187854620Y-81387557D01*
X187951095Y-81198217D01*
X188016757Y-80996129D01*
X188016757Y-80996126D01*
X188027231Y-80930000D01*
X187133012Y-80930000D01*
X187165925Y-80872993D01*
X187200000Y-80745826D01*
X187200000Y-80614174D01*
X187165925Y-80487007D01*
X187133012Y-80430000D01*
X188027231Y-80430000D01*
X188016757Y-80363873D01*
X188016757Y-80363870D01*
X187951095Y-80161782D01*
X187854620Y-79972442D01*
X187729727Y-79800540D01*
X187729723Y-79800535D01*
X187579464Y-79650276D01*
X187579459Y-79650272D01*
X187407558Y-79525379D01*
X187397954Y-79520486D01*
X187347157Y-79472512D01*
X187330361Y-79404692D01*
X187352897Y-79338556D01*
X187397954Y-79299514D01*
X187407558Y-79294620D01*
X187579459Y-79169727D01*
X187579464Y-79169723D01*
X187729723Y-79019464D01*
X187729727Y-79019459D01*
X187854620Y-78847557D01*
X187951095Y-78658217D01*
X188016757Y-78456129D01*
X188016757Y-78456126D01*
X188027231Y-78390000D01*
X187133012Y-78390000D01*
X187165925Y-78332993D01*
X187200000Y-78205826D01*
X187200000Y-78074174D01*
X187165925Y-77947007D01*
X187133012Y-77890000D01*
X188027231Y-77890000D01*
X188016757Y-77823873D01*
X188016757Y-77823870D01*
X187951095Y-77621782D01*
X187854620Y-77432442D01*
X187729727Y-77260540D01*
X187729723Y-77260535D01*
X187615665Y-77146477D01*
X187582180Y-77085154D01*
X187587164Y-77015462D01*
X187629036Y-76959529D01*
X187660013Y-76942614D01*
X187792086Y-76893354D01*
X187792093Y-76893350D01*
X187907187Y-76807190D01*
X187907190Y-76807187D01*
X187993350Y-76692093D01*
X187993354Y-76692086D01*
X188043596Y-76557379D01*
X188043598Y-76557372D01*
X188049999Y-76497844D01*
X188050000Y-76497827D01*
X188050000Y-75850000D01*
X187133012Y-75850000D01*
X187165925Y-75792993D01*
X187200000Y-75665826D01*
X187200000Y-75534174D01*
X187165925Y-75407007D01*
X187133012Y-75350000D01*
X188050000Y-75350000D01*
X188050000Y-74702172D01*
X188049999Y-74702155D01*
X188043598Y-74642627D01*
X188043596Y-74642620D01*
X187993354Y-74507913D01*
X187993350Y-74507906D01*
X187907190Y-74392812D01*
X187907187Y-74392809D01*
X187792093Y-74306649D01*
X187792086Y-74306645D01*
X187657379Y-74256403D01*
X187657372Y-74256401D01*
X187597844Y-74250000D01*
X186950000Y-74250000D01*
X186950000Y-75166988D01*
X186892993Y-75134075D01*
X186765826Y-75100000D01*
X186634174Y-75100000D01*
X186507007Y-75134075D01*
X186450000Y-75166988D01*
X186450000Y-74250000D01*
X185802155Y-74250000D01*
X185742627Y-74256401D01*
X185742620Y-74256403D01*
X185607913Y-74306645D01*
X185607906Y-74306649D01*
X185492812Y-74392809D01*
X185492809Y-74392812D01*
X185406649Y-74507906D01*
X185406645Y-74507913D01*
X185356403Y-74642620D01*
X185356401Y-74642627D01*
X185350000Y-74702155D01*
X162750718Y-74702155D01*
X162873082Y-74677816D01*
X163027863Y-74613703D01*
X163167162Y-74520626D01*
X163285626Y-74402162D01*
X163378703Y-74262863D01*
X163442816Y-74108082D01*
X163475500Y-73943767D01*
X163475500Y-73776233D01*
X163442816Y-73611918D01*
X163378703Y-73457137D01*
X163347537Y-73410494D01*
X163285626Y-73317837D01*
X163167162Y-73199373D01*
X163027860Y-73106295D01*
X162873082Y-73042184D01*
X162873074Y-73042182D01*
X162708771Y-73009500D01*
X162708767Y-73009500D01*
X162541233Y-73009500D01*
X162541228Y-73009500D01*
X162376925Y-73042182D01*
X162376917Y-73042184D01*
X162222139Y-73106295D01*
X162082837Y-73199373D01*
X161964373Y-73317837D01*
X161871295Y-73457139D01*
X161807184Y-73611917D01*
X161807182Y-73611925D01*
X161774500Y-73776228D01*
X106680000Y-73776228D01*
X106680000Y-66164000D01*
X106699685Y-66096961D01*
X106752489Y-66051206D01*
X106804000Y-66040000D01*
X190376000Y-66040000D01*
X190443039Y-66059685D01*
G37*
%TD.AperFunction*%
%TD*%
M02*
