%TF.GenerationSoftware,KiCad,Pcbnew,9.0.0-9.0.0-2~ubuntu24.04.1*%
%TF.CreationDate,2025-04-06T07:01:26+03:00*%
%TF.ProjectId,InterfaceBoard_Gateway,496e7465-7266-4616-9365-426f6172645f,rev?*%
%TF.SameCoordinates,Original*%
%TF.FileFunction,Paste,Top*%
%TF.FilePolarity,Positive*%
%FSLAX46Y46*%
G04 Gerber Fmt 4.6, Leading zero omitted, Abs format (unit mm)*
G04 Created by KiCad (PCBNEW 9.0.0-9.0.0-2~ubuntu24.04.1) date 2025-04-06 07:01:26*
%MOMM*%
%LPD*%
G01*
G04 APERTURE LIST*
G04 Aperture macros list*
%AMRoundRect*
0 Rectangle with rounded corners*
0 $1 Rounding radius*
0 $2 $3 $4 $5 $6 $7 $8 $9 X,Y pos of 4 corners*
0 Add a 4 corners polygon primitive as box body*
4,1,4,$2,$3,$4,$5,$6,$7,$8,$9,$2,$3,0*
0 Add four circle primitives for the rounded corners*
1,1,$1+$1,$2,$3*
1,1,$1+$1,$4,$5*
1,1,$1+$1,$6,$7*
1,1,$1+$1,$8,$9*
0 Add four rect primitives between the rounded corners*
20,1,$1+$1,$2,$3,$4,$5,0*
20,1,$1+$1,$4,$5,$6,$7,0*
20,1,$1+$1,$6,$7,$8,$9,0*
20,1,$1+$1,$8,$9,$2,$3,0*%
G04 Aperture macros list end*
%ADD10R,2.000000X0.600000*%
%ADD11R,3.200000X2.300000*%
%ADD12RoundRect,0.250000X0.650000X-0.325000X0.650000X0.325000X-0.650000X0.325000X-0.650000X-0.325000X0*%
%ADD13RoundRect,0.250000X-0.325000X-0.650000X0.325000X-0.650000X0.325000X0.650000X-0.325000X0.650000X0*%
%ADD14RoundRect,0.250000X-1.250000X-0.550000X1.250000X-0.550000X1.250000X0.550000X-1.250000X0.550000X0*%
%ADD15RoundRect,0.250000X0.550000X-1.250000X0.550000X1.250000X-0.550000X1.250000X-0.550000X-1.250000X0*%
G04 APERTURE END LIST*
D10*
%TO.C,BUS_PCI_Express_Mini_Dual*%
X166725000Y-98160000D03*
X158525000Y-97760000D03*
X166725000Y-97360000D03*
X158525000Y-96960000D03*
X166725000Y-96560000D03*
X158525000Y-96160000D03*
X166725000Y-95760000D03*
X158525000Y-95360000D03*
X166725000Y-94960000D03*
X158525000Y-94560000D03*
X166725000Y-94160000D03*
X158525000Y-93760000D03*
X166725000Y-93360000D03*
X158525000Y-92960000D03*
X166725000Y-92560000D03*
X158525000Y-92160000D03*
X166725000Y-88560000D03*
X158525000Y-88160000D03*
X166725000Y-87760000D03*
X158525000Y-87360000D03*
X166725000Y-86960000D03*
X158525000Y-86560000D03*
X166725000Y-86160000D03*
X158525000Y-85760000D03*
X166725000Y-85360000D03*
X158525000Y-84960000D03*
X166725000Y-84560000D03*
X158525000Y-84160000D03*
X166725000Y-83760000D03*
X158525000Y-83360000D03*
X166725000Y-82960000D03*
X158525000Y-82560000D03*
X166725000Y-82160000D03*
X158525000Y-81760000D03*
X166725000Y-81360000D03*
X158525000Y-80960000D03*
X166725000Y-80560000D03*
X158525000Y-80160000D03*
X166725000Y-79760000D03*
X158525000Y-79360000D03*
X166725000Y-78960000D03*
X158525000Y-78560000D03*
X166725000Y-78160000D03*
X158525000Y-77760000D03*
X166725000Y-77360000D03*
X158525000Y-76960000D03*
X166725000Y-76560000D03*
X158525000Y-76160000D03*
X166725000Y-75760000D03*
X158525000Y-75360000D03*
X166725000Y-74960000D03*
X158525000Y-74560000D03*
D11*
X166125000Y-101010000D03*
X166125000Y-71710000D03*
%TD*%
D12*
%TO.C,C22_1206_10nf*%
X173760000Y-83335000D03*
X173760000Y-80385000D03*
%TD*%
D13*
%TO.C,C2_1206_10nf*%
X120250000Y-123780000D03*
X123200000Y-123780000D03*
%TD*%
D14*
%TO.C,C1_1206_10uf*%
X138535000Y-148240000D03*
X142935000Y-148240000D03*
%TD*%
%TO.C,C2_1206_10uf*%
X119525000Y-131400000D03*
X123925000Y-131400000D03*
%TD*%
D15*
%TO.C,C22_1206_10uf*%
X181620000Y-84180000D03*
X181620000Y-79780000D03*
%TD*%
D13*
%TO.C,R2_1206*%
X160260000Y-150320000D03*
X163210000Y-150320000D03*
%TD*%
M02*
