%TF.GenerationSoftware,KiCad,Pcbnew,9.0.0-9.0.0-2~ubuntu24.04.1*%
%TF.CreationDate,2025-04-06T07:01:26+03:00*%
%TF.ProjectId,InterfaceBoard_Gateway,496e7465-7266-4616-9365-426f6172645f,rev?*%
%TF.SameCoordinates,Original*%
%TF.FileFunction,Copper,L1,Top*%
%TF.FilePolarity,Positive*%
%FSLAX46Y46*%
G04 Gerber Fmt 4.6, Leading zero omitted, Abs format (unit mm)*
G04 Created by KiCad (PCBNEW 9.0.0-9.0.0-2~ubuntu24.04.1) date 2025-04-06 07:01:26*
%MOMM*%
%LPD*%
G01*
G04 APERTURE LIST*
G04 Aperture macros list*
%AMRoundRect*
0 Rectangle with rounded corners*
0 $1 Rounding radius*
0 $2 $3 $4 $5 $6 $7 $8 $9 X,Y pos of 4 corners*
0 Add a 4 corners polygon primitive as box body*
4,1,4,$2,$3,$4,$5,$6,$7,$8,$9,$2,$3,0*
0 Add four circle primitives for the rounded corners*
1,1,$1+$1,$2,$3*
1,1,$1+$1,$4,$5*
1,1,$1+$1,$6,$7*
1,1,$1+$1,$8,$9*
0 Add four rect primitives between the rounded corners*
20,1,$1+$1,$2,$3,$4,$5,0*
20,1,$1+$1,$4,$5,$6,$7,0*
20,1,$1+$1,$6,$7,$8,$9,0*
20,1,$1+$1,$8,$9,$2,$3,0*%
G04 Aperture macros list end*
%ADD10C,0.300000*%
%TA.AperFunction,NonConductor*%
%ADD11C,0.300000*%
%TD*%
%TA.AperFunction,EtchedComponent*%
%ADD12C,0.000000*%
%TD*%
%TA.AperFunction,ComponentPad*%
%ADD13R,1.700000X1.700000*%
%TD*%
%TA.AperFunction,ComponentPad*%
%ADD14O,1.700000X1.700000*%
%TD*%
%TA.AperFunction,SMDPad,CuDef*%
%ADD15C,0.500000*%
%TD*%
%TA.AperFunction,SMDPad,CuDef*%
%ADD16R,1.500000X1.000000*%
%TD*%
%TA.AperFunction,ComponentPad*%
%ADD17R,3.500000X3.500000*%
%TD*%
%TA.AperFunction,ComponentPad*%
%ADD18RoundRect,0.750000X0.750000X1.000000X-0.750000X1.000000X-0.750000X-1.000000X0.750000X-1.000000X0*%
%TD*%
%TA.AperFunction,ComponentPad*%
%ADD19RoundRect,0.875000X0.875000X0.875000X-0.875000X0.875000X-0.875000X-0.875000X0.875000X-0.875000X0*%
%TD*%
%TA.AperFunction,SMDPad,CuDef*%
%ADD20R,1.000000X1.500000*%
%TD*%
%TA.AperFunction,SMDPad,CuDef*%
%ADD21R,2.000000X0.600000*%
%TD*%
%TA.AperFunction,SMDPad,CuDef*%
%ADD22R,3.200000X2.300000*%
%TD*%
%TA.AperFunction,SMDPad,CuDef*%
%ADD23RoundRect,0.250000X0.650000X-0.325000X0.650000X0.325000X-0.650000X0.325000X-0.650000X-0.325000X0*%
%TD*%
%TA.AperFunction,SMDPad,CuDef*%
%ADD24RoundRect,0.250000X-0.325000X-0.650000X0.325000X-0.650000X0.325000X0.650000X-0.325000X0.650000X0*%
%TD*%
%TA.AperFunction,SMDPad,CuDef*%
%ADD25RoundRect,0.250000X-1.250000X-0.550000X1.250000X-0.550000X1.250000X0.550000X-1.250000X0.550000X0*%
%TD*%
%TA.AperFunction,SMDPad,CuDef*%
%ADD26RoundRect,0.250000X0.550000X-1.250000X0.550000X1.250000X-0.550000X1.250000X-0.550000X-1.250000X0*%
%TD*%
%TA.AperFunction,ComponentPad*%
%ADD27C,2.000000*%
%TD*%
%TA.AperFunction,ComponentPad*%
%ADD28R,2.000000X2.000000*%
%TD*%
%TA.AperFunction,ViaPad*%
%ADD29C,0.800000*%
%TD*%
%TA.AperFunction,ViaPad*%
%ADD30C,5.000000*%
%TD*%
%TA.AperFunction,Conductor*%
%ADD31C,0.300000*%
%TD*%
G04 APERTURE END LIST*
D10*
D11*
X19614510Y-39760828D02*
X19614510Y-38260828D01*
X19614510Y-38260828D02*
X20471653Y-39760828D01*
X20471653Y-39760828D02*
X20471653Y-38260828D01*
X21471654Y-38260828D02*
X21757368Y-38260828D01*
X21757368Y-38260828D02*
X21900225Y-38332257D01*
X21900225Y-38332257D02*
X22043082Y-38475114D01*
X22043082Y-38475114D02*
X22114511Y-38760828D01*
X22114511Y-38760828D02*
X22114511Y-39260828D01*
X22114511Y-39260828D02*
X22043082Y-39546542D01*
X22043082Y-39546542D02*
X21900225Y-39689400D01*
X21900225Y-39689400D02*
X21757368Y-39760828D01*
X21757368Y-39760828D02*
X21471654Y-39760828D01*
X21471654Y-39760828D02*
X21328797Y-39689400D01*
X21328797Y-39689400D02*
X21185939Y-39546542D01*
X21185939Y-39546542D02*
X21114511Y-39260828D01*
X21114511Y-39260828D02*
X21114511Y-38760828D01*
X21114511Y-38760828D02*
X21185939Y-38475114D01*
X21185939Y-38475114D02*
X21328797Y-38332257D01*
X21328797Y-38332257D02*
X21471654Y-38260828D01*
X22543083Y-38260828D02*
X23400226Y-38260828D01*
X22971654Y-39760828D02*
X22971654Y-38260828D01*
X23900225Y-38975114D02*
X24400225Y-38975114D01*
X24614511Y-39760828D02*
X23900225Y-39760828D01*
X23900225Y-39760828D02*
X23900225Y-38260828D01*
X23900225Y-38260828D02*
X24614511Y-38260828D01*
X25257368Y-39617971D02*
X25328797Y-39689400D01*
X25328797Y-39689400D02*
X25257368Y-39760828D01*
X25257368Y-39760828D02*
X25185940Y-39689400D01*
X25185940Y-39689400D02*
X25257368Y-39617971D01*
X25257368Y-39617971D02*
X25257368Y-39760828D01*
X25257368Y-38832257D02*
X25328797Y-38903685D01*
X25328797Y-38903685D02*
X25257368Y-38975114D01*
X25257368Y-38975114D02*
X25185940Y-38903685D01*
X25185940Y-38903685D02*
X25257368Y-38832257D01*
X25257368Y-38832257D02*
X25257368Y-38975114D01*
X25900226Y-39332257D02*
X26614512Y-39332257D01*
X25757369Y-39760828D02*
X26257369Y-38260828D01*
X26257369Y-38260828D02*
X26757369Y-39760828D01*
X27257368Y-39760828D02*
X27257368Y-38260828D01*
X27257368Y-38260828D02*
X27614511Y-38260828D01*
X27614511Y-38260828D02*
X27828797Y-38332257D01*
X27828797Y-38332257D02*
X27971654Y-38475114D01*
X27971654Y-38475114D02*
X28043083Y-38617971D01*
X28043083Y-38617971D02*
X28114511Y-38903685D01*
X28114511Y-38903685D02*
X28114511Y-39117971D01*
X28114511Y-39117971D02*
X28043083Y-39403685D01*
X28043083Y-39403685D02*
X27971654Y-39546542D01*
X27971654Y-39546542D02*
X27828797Y-39689400D01*
X27828797Y-39689400D02*
X27614511Y-39760828D01*
X27614511Y-39760828D02*
X27257368Y-39760828D01*
X28757368Y-39760828D02*
X28757368Y-38260828D01*
X28757368Y-38260828D02*
X29114511Y-38260828D01*
X29114511Y-38260828D02*
X29328797Y-38332257D01*
X29328797Y-38332257D02*
X29471654Y-38475114D01*
X29471654Y-38475114D02*
X29543083Y-38617971D01*
X29543083Y-38617971D02*
X29614511Y-38903685D01*
X29614511Y-38903685D02*
X29614511Y-39117971D01*
X29614511Y-39117971D02*
X29543083Y-39403685D01*
X29543083Y-39403685D02*
X29471654Y-39546542D01*
X29471654Y-39546542D02*
X29328797Y-39689400D01*
X29328797Y-39689400D02*
X29114511Y-39760828D01*
X29114511Y-39760828D02*
X28757368Y-39760828D01*
X31900225Y-38975114D02*
X31400225Y-38975114D01*
X31400225Y-39760828D02*
X31400225Y-38260828D01*
X31400225Y-38260828D02*
X32114511Y-38260828D01*
X32685939Y-38975114D02*
X33185939Y-38975114D01*
X33400225Y-39760828D02*
X32685939Y-39760828D01*
X32685939Y-39760828D02*
X32685939Y-38260828D01*
X32685939Y-38260828D02*
X33400225Y-38260828D01*
X34900225Y-39760828D02*
X34400225Y-39046542D01*
X34043082Y-39760828D02*
X34043082Y-38260828D01*
X34043082Y-38260828D02*
X34614511Y-38260828D01*
X34614511Y-38260828D02*
X34757368Y-38332257D01*
X34757368Y-38332257D02*
X34828797Y-38403685D01*
X34828797Y-38403685D02*
X34900225Y-38546542D01*
X34900225Y-38546542D02*
X34900225Y-38760828D01*
X34900225Y-38760828D02*
X34828797Y-38903685D01*
X34828797Y-38903685D02*
X34757368Y-38975114D01*
X34757368Y-38975114D02*
X34614511Y-39046542D01*
X34614511Y-39046542D02*
X34043082Y-39046542D01*
X36400225Y-39760828D02*
X35900225Y-39046542D01*
X35543082Y-39760828D02*
X35543082Y-38260828D01*
X35543082Y-38260828D02*
X36114511Y-38260828D01*
X36114511Y-38260828D02*
X36257368Y-38332257D01*
X36257368Y-38332257D02*
X36328797Y-38403685D01*
X36328797Y-38403685D02*
X36400225Y-38546542D01*
X36400225Y-38546542D02*
X36400225Y-38760828D01*
X36400225Y-38760828D02*
X36328797Y-38903685D01*
X36328797Y-38903685D02*
X36257368Y-38975114D01*
X36257368Y-38975114D02*
X36114511Y-39046542D01*
X36114511Y-39046542D02*
X35543082Y-39046542D01*
X37043082Y-39760828D02*
X37043082Y-38260828D01*
X37543083Y-38260828D02*
X38400226Y-38260828D01*
X37971654Y-39760828D02*
X37971654Y-38260828D01*
X38900225Y-38975114D02*
X39400225Y-38975114D01*
X39614511Y-39760828D02*
X38900225Y-39760828D01*
X38900225Y-39760828D02*
X38900225Y-38260828D01*
X38900225Y-38260828D02*
X39614511Y-38260828D01*
X41900225Y-38975114D02*
X42114511Y-39046542D01*
X42114511Y-39046542D02*
X42185940Y-39117971D01*
X42185940Y-39117971D02*
X42257368Y-39260828D01*
X42257368Y-39260828D02*
X42257368Y-39475114D01*
X42257368Y-39475114D02*
X42185940Y-39617971D01*
X42185940Y-39617971D02*
X42114511Y-39689400D01*
X42114511Y-39689400D02*
X41971654Y-39760828D01*
X41971654Y-39760828D02*
X41400225Y-39760828D01*
X41400225Y-39760828D02*
X41400225Y-38260828D01*
X41400225Y-38260828D02*
X41900225Y-38260828D01*
X41900225Y-38260828D02*
X42043083Y-38332257D01*
X42043083Y-38332257D02*
X42114511Y-38403685D01*
X42114511Y-38403685D02*
X42185940Y-38546542D01*
X42185940Y-38546542D02*
X42185940Y-38689400D01*
X42185940Y-38689400D02*
X42114511Y-38832257D01*
X42114511Y-38832257D02*
X42043083Y-38903685D01*
X42043083Y-38903685D02*
X41900225Y-38975114D01*
X41900225Y-38975114D02*
X41400225Y-38975114D01*
X42900225Y-38975114D02*
X43400225Y-38975114D01*
X43614511Y-39760828D02*
X42900225Y-39760828D01*
X42900225Y-39760828D02*
X42900225Y-38260828D01*
X42900225Y-38260828D02*
X43614511Y-38260828D01*
X44185940Y-39332257D02*
X44900226Y-39332257D01*
X44043083Y-39760828D02*
X44543083Y-38260828D01*
X44543083Y-38260828D02*
X45043083Y-39760828D01*
X45543082Y-39760828D02*
X45543082Y-38260828D01*
X45543082Y-38260828D02*
X45900225Y-38260828D01*
X45900225Y-38260828D02*
X46114511Y-38332257D01*
X46114511Y-38332257D02*
X46257368Y-38475114D01*
X46257368Y-38475114D02*
X46328797Y-38617971D01*
X46328797Y-38617971D02*
X46400225Y-38903685D01*
X46400225Y-38903685D02*
X46400225Y-39117971D01*
X46400225Y-39117971D02*
X46328797Y-39403685D01*
X46328797Y-39403685D02*
X46257368Y-39546542D01*
X46257368Y-39546542D02*
X46114511Y-39689400D01*
X46114511Y-39689400D02*
X45900225Y-39760828D01*
X45900225Y-39760828D02*
X45543082Y-39760828D01*
X46971654Y-39689400D02*
X47185940Y-39760828D01*
X47185940Y-39760828D02*
X47543082Y-39760828D01*
X47543082Y-39760828D02*
X47685940Y-39689400D01*
X47685940Y-39689400D02*
X47757368Y-39617971D01*
X47757368Y-39617971D02*
X47828797Y-39475114D01*
X47828797Y-39475114D02*
X47828797Y-39332257D01*
X47828797Y-39332257D02*
X47757368Y-39189400D01*
X47757368Y-39189400D02*
X47685940Y-39117971D01*
X47685940Y-39117971D02*
X47543082Y-39046542D01*
X47543082Y-39046542D02*
X47257368Y-38975114D01*
X47257368Y-38975114D02*
X47114511Y-38903685D01*
X47114511Y-38903685D02*
X47043082Y-38832257D01*
X47043082Y-38832257D02*
X46971654Y-38689400D01*
X46971654Y-38689400D02*
X46971654Y-38546542D01*
X46971654Y-38546542D02*
X47043082Y-38403685D01*
X47043082Y-38403685D02*
X47114511Y-38332257D01*
X47114511Y-38332257D02*
X47257368Y-38260828D01*
X47257368Y-38260828D02*
X47614511Y-38260828D01*
X47614511Y-38260828D02*
X47828797Y-38332257D01*
X48543082Y-39689400D02*
X48543082Y-39760828D01*
X48543082Y-39760828D02*
X48471653Y-39903685D01*
X48471653Y-39903685D02*
X48400225Y-39975114D01*
X51185939Y-39617971D02*
X51114511Y-39689400D01*
X51114511Y-39689400D02*
X50900225Y-39760828D01*
X50900225Y-39760828D02*
X50757368Y-39760828D01*
X50757368Y-39760828D02*
X50543082Y-39689400D01*
X50543082Y-39689400D02*
X50400225Y-39546542D01*
X50400225Y-39546542D02*
X50328796Y-39403685D01*
X50328796Y-39403685D02*
X50257368Y-39117971D01*
X50257368Y-39117971D02*
X50257368Y-38903685D01*
X50257368Y-38903685D02*
X50328796Y-38617971D01*
X50328796Y-38617971D02*
X50400225Y-38475114D01*
X50400225Y-38475114D02*
X50543082Y-38332257D01*
X50543082Y-38332257D02*
X50757368Y-38260828D01*
X50757368Y-38260828D02*
X50900225Y-38260828D01*
X50900225Y-38260828D02*
X51114511Y-38332257D01*
X51114511Y-38332257D02*
X51185939Y-38403685D01*
X51757368Y-39332257D02*
X52471654Y-39332257D01*
X51614511Y-39760828D02*
X52114511Y-38260828D01*
X52114511Y-38260828D02*
X52614511Y-39760828D01*
X53114510Y-39760828D02*
X53114510Y-38260828D01*
X53114510Y-38260828D02*
X53685939Y-38260828D01*
X53685939Y-38260828D02*
X53828796Y-38332257D01*
X53828796Y-38332257D02*
X53900225Y-38403685D01*
X53900225Y-38403685D02*
X53971653Y-38546542D01*
X53971653Y-38546542D02*
X53971653Y-38760828D01*
X53971653Y-38760828D02*
X53900225Y-38903685D01*
X53900225Y-38903685D02*
X53828796Y-38975114D01*
X53828796Y-38975114D02*
X53685939Y-39046542D01*
X53685939Y-39046542D02*
X53114510Y-39046542D01*
X54543082Y-39332257D02*
X55257368Y-39332257D01*
X54400225Y-39760828D02*
X54900225Y-38260828D01*
X54900225Y-38260828D02*
X55400225Y-39760828D01*
X56757367Y-39617971D02*
X56685939Y-39689400D01*
X56685939Y-39689400D02*
X56471653Y-39760828D01*
X56471653Y-39760828D02*
X56328796Y-39760828D01*
X56328796Y-39760828D02*
X56114510Y-39689400D01*
X56114510Y-39689400D02*
X55971653Y-39546542D01*
X55971653Y-39546542D02*
X55900224Y-39403685D01*
X55900224Y-39403685D02*
X55828796Y-39117971D01*
X55828796Y-39117971D02*
X55828796Y-38903685D01*
X55828796Y-38903685D02*
X55900224Y-38617971D01*
X55900224Y-38617971D02*
X55971653Y-38475114D01*
X55971653Y-38475114D02*
X56114510Y-38332257D01*
X56114510Y-38332257D02*
X56328796Y-38260828D01*
X56328796Y-38260828D02*
X56471653Y-38260828D01*
X56471653Y-38260828D02*
X56685939Y-38332257D01*
X56685939Y-38332257D02*
X56757367Y-38403685D01*
X57400224Y-39760828D02*
X57400224Y-38260828D01*
X57900225Y-38260828D02*
X58757368Y-38260828D01*
X58328796Y-39760828D02*
X58328796Y-38260828D01*
X59543082Y-38260828D02*
X59828796Y-38260828D01*
X59828796Y-38260828D02*
X59971653Y-38332257D01*
X59971653Y-38332257D02*
X60114510Y-38475114D01*
X60114510Y-38475114D02*
X60185939Y-38760828D01*
X60185939Y-38760828D02*
X60185939Y-39260828D01*
X60185939Y-39260828D02*
X60114510Y-39546542D01*
X60114510Y-39546542D02*
X59971653Y-39689400D01*
X59971653Y-39689400D02*
X59828796Y-39760828D01*
X59828796Y-39760828D02*
X59543082Y-39760828D01*
X59543082Y-39760828D02*
X59400225Y-39689400D01*
X59400225Y-39689400D02*
X59257367Y-39546542D01*
X59257367Y-39546542D02*
X59185939Y-39260828D01*
X59185939Y-39260828D02*
X59185939Y-38760828D01*
X59185939Y-38760828D02*
X59257367Y-38475114D01*
X59257367Y-38475114D02*
X59400225Y-38332257D01*
X59400225Y-38332257D02*
X59543082Y-38260828D01*
X61685939Y-39760828D02*
X61185939Y-39046542D01*
X60828796Y-39760828D02*
X60828796Y-38260828D01*
X60828796Y-38260828D02*
X61400225Y-38260828D01*
X61400225Y-38260828D02*
X61543082Y-38332257D01*
X61543082Y-38332257D02*
X61614511Y-38403685D01*
X61614511Y-38403685D02*
X61685939Y-38546542D01*
X61685939Y-38546542D02*
X61685939Y-38760828D01*
X61685939Y-38760828D02*
X61614511Y-38903685D01*
X61614511Y-38903685D02*
X61543082Y-38975114D01*
X61543082Y-38975114D02*
X61400225Y-39046542D01*
X61400225Y-39046542D02*
X60828796Y-39046542D01*
X62257368Y-39689400D02*
X62471654Y-39760828D01*
X62471654Y-39760828D02*
X62828796Y-39760828D01*
X62828796Y-39760828D02*
X62971654Y-39689400D01*
X62971654Y-39689400D02*
X63043082Y-39617971D01*
X63043082Y-39617971D02*
X63114511Y-39475114D01*
X63114511Y-39475114D02*
X63114511Y-39332257D01*
X63114511Y-39332257D02*
X63043082Y-39189400D01*
X63043082Y-39189400D02*
X62971654Y-39117971D01*
X62971654Y-39117971D02*
X62828796Y-39046542D01*
X62828796Y-39046542D02*
X62543082Y-38975114D01*
X62543082Y-38975114D02*
X62400225Y-38903685D01*
X62400225Y-38903685D02*
X62328796Y-38832257D01*
X62328796Y-38832257D02*
X62257368Y-38689400D01*
X62257368Y-38689400D02*
X62257368Y-38546542D01*
X62257368Y-38546542D02*
X62328796Y-38403685D01*
X62328796Y-38403685D02*
X62400225Y-38332257D01*
X62400225Y-38332257D02*
X62543082Y-38260828D01*
X62543082Y-38260828D02*
X62900225Y-38260828D01*
X62900225Y-38260828D02*
X63114511Y-38332257D01*
X64900224Y-39760828D02*
X64900224Y-38260828D01*
X64900224Y-38260828D02*
X65757367Y-39760828D01*
X65757367Y-39760828D02*
X65757367Y-38260828D01*
X66471653Y-38975114D02*
X66971653Y-38975114D01*
X67185939Y-39760828D02*
X66471653Y-39760828D01*
X66471653Y-39760828D02*
X66471653Y-38260828D01*
X66471653Y-38260828D02*
X67185939Y-38260828D01*
X67757368Y-39332257D02*
X68471654Y-39332257D01*
X67614511Y-39760828D02*
X68114511Y-38260828D01*
X68114511Y-38260828D02*
X68614511Y-39760828D01*
X69971653Y-39760828D02*
X69471653Y-39046542D01*
X69114510Y-39760828D02*
X69114510Y-38260828D01*
X69114510Y-38260828D02*
X69685939Y-38260828D01*
X69685939Y-38260828D02*
X69828796Y-38332257D01*
X69828796Y-38332257D02*
X69900225Y-38403685D01*
X69900225Y-38403685D02*
X69971653Y-38546542D01*
X69971653Y-38546542D02*
X69971653Y-38760828D01*
X69971653Y-38760828D02*
X69900225Y-38903685D01*
X69900225Y-38903685D02*
X69828796Y-38975114D01*
X69828796Y-38975114D02*
X69685939Y-39046542D01*
X69685939Y-39046542D02*
X69114510Y-39046542D01*
X71543082Y-38260828D02*
X72400225Y-38260828D01*
X71971653Y-39760828D02*
X71971653Y-38260828D01*
X72900224Y-39760828D02*
X72900224Y-38260828D01*
X72900224Y-38975114D02*
X73757367Y-38975114D01*
X73757367Y-39760828D02*
X73757367Y-38260828D01*
X74471653Y-38975114D02*
X74971653Y-38975114D01*
X75185939Y-39760828D02*
X74471653Y-39760828D01*
X74471653Y-39760828D02*
X74471653Y-38260828D01*
X74471653Y-38260828D02*
X75185939Y-38260828D01*
X77685939Y-39760828D02*
X76971653Y-39760828D01*
X76971653Y-39760828D02*
X76971653Y-38260828D01*
X78471654Y-38260828D02*
X78757368Y-38260828D01*
X78757368Y-38260828D02*
X78900225Y-38332257D01*
X78900225Y-38332257D02*
X79043082Y-38475114D01*
X79043082Y-38475114D02*
X79114511Y-38760828D01*
X79114511Y-38760828D02*
X79114511Y-39260828D01*
X79114511Y-39260828D02*
X79043082Y-39546542D01*
X79043082Y-39546542D02*
X78900225Y-39689400D01*
X78900225Y-39689400D02*
X78757368Y-39760828D01*
X78757368Y-39760828D02*
X78471654Y-39760828D01*
X78471654Y-39760828D02*
X78328797Y-39689400D01*
X78328797Y-39689400D02*
X78185939Y-39546542D01*
X78185939Y-39546542D02*
X78114511Y-39260828D01*
X78114511Y-39260828D02*
X78114511Y-38760828D01*
X78114511Y-38760828D02*
X78185939Y-38475114D01*
X78185939Y-38475114D02*
X78328797Y-38332257D01*
X78328797Y-38332257D02*
X78471654Y-38260828D01*
X80614511Y-39760828D02*
X80114511Y-39046542D01*
X79757368Y-39760828D02*
X79757368Y-38260828D01*
X79757368Y-38260828D02*
X80328797Y-38260828D01*
X80328797Y-38260828D02*
X80471654Y-38332257D01*
X80471654Y-38332257D02*
X80543083Y-38403685D01*
X80543083Y-38403685D02*
X80614511Y-38546542D01*
X80614511Y-38546542D02*
X80614511Y-38760828D01*
X80614511Y-38760828D02*
X80543083Y-38903685D01*
X80543083Y-38903685D02*
X80471654Y-38975114D01*
X80471654Y-38975114D02*
X80328797Y-39046542D01*
X80328797Y-39046542D02*
X79757368Y-39046542D01*
X81185940Y-39332257D02*
X81900226Y-39332257D01*
X81043083Y-39760828D02*
X81543083Y-38260828D01*
X81543083Y-38260828D02*
X82043083Y-39760828D01*
X83614511Y-39332257D02*
X84328797Y-39332257D01*
X83471654Y-39760828D02*
X83971654Y-38260828D01*
X83971654Y-38260828D02*
X84471654Y-39760828D01*
X84971653Y-39760828D02*
X84971653Y-38260828D01*
X84971653Y-38260828D02*
X85828796Y-39760828D01*
X85828796Y-39760828D02*
X85828796Y-38260828D01*
X86543082Y-39760828D02*
X86543082Y-38260828D01*
X86543082Y-38260828D02*
X86900225Y-38260828D01*
X86900225Y-38260828D02*
X87114511Y-38332257D01*
X87114511Y-38332257D02*
X87257368Y-38475114D01*
X87257368Y-38475114D02*
X87328797Y-38617971D01*
X87328797Y-38617971D02*
X87400225Y-38903685D01*
X87400225Y-38903685D02*
X87400225Y-39117971D01*
X87400225Y-39117971D02*
X87328797Y-39403685D01*
X87328797Y-39403685D02*
X87257368Y-39546542D01*
X87257368Y-39546542D02*
X87114511Y-39689400D01*
X87114511Y-39689400D02*
X86900225Y-39760828D01*
X86900225Y-39760828D02*
X86543082Y-39760828D01*
X89185939Y-38975114D02*
X89685939Y-38975114D01*
X89900225Y-39760828D02*
X89185939Y-39760828D01*
X89185939Y-39760828D02*
X89185939Y-38260828D01*
X89185939Y-38260828D02*
X89900225Y-38260828D01*
X90400225Y-38260828D02*
X91400225Y-39760828D01*
X91400225Y-38260828D02*
X90400225Y-39760828D01*
X91757368Y-38260828D02*
X92614511Y-38260828D01*
X92185939Y-39760828D02*
X92185939Y-38260828D01*
X94257367Y-39760828D02*
X94257367Y-38260828D01*
X94257367Y-38260828D02*
X94614510Y-38260828D01*
X94614510Y-38260828D02*
X94828796Y-38332257D01*
X94828796Y-38332257D02*
X94971653Y-38475114D01*
X94971653Y-38475114D02*
X95043082Y-38617971D01*
X95043082Y-38617971D02*
X95114510Y-38903685D01*
X95114510Y-38903685D02*
X95114510Y-39117971D01*
X95114510Y-39117971D02*
X95043082Y-39403685D01*
X95043082Y-39403685D02*
X94971653Y-39546542D01*
X94971653Y-39546542D02*
X94828796Y-39689400D01*
X94828796Y-39689400D02*
X94614510Y-39760828D01*
X94614510Y-39760828D02*
X94257367Y-39760828D01*
X96614510Y-39617971D02*
X96543082Y-39689400D01*
X96543082Y-39689400D02*
X96328796Y-39760828D01*
X96328796Y-39760828D02*
X96185939Y-39760828D01*
X96185939Y-39760828D02*
X95971653Y-39689400D01*
X95971653Y-39689400D02*
X95828796Y-39546542D01*
X95828796Y-39546542D02*
X95757367Y-39403685D01*
X95757367Y-39403685D02*
X95685939Y-39117971D01*
X95685939Y-39117971D02*
X95685939Y-38903685D01*
X95685939Y-38903685D02*
X95757367Y-38617971D01*
X95757367Y-38617971D02*
X95828796Y-38475114D01*
X95828796Y-38475114D02*
X95971653Y-38332257D01*
X95971653Y-38332257D02*
X96185939Y-38260828D01*
X96185939Y-38260828D02*
X96328796Y-38260828D01*
X96328796Y-38260828D02*
X96543082Y-38332257D01*
X96543082Y-38332257D02*
X96614510Y-38403685D01*
X98400224Y-39760828D02*
X98400224Y-38260828D01*
X98400224Y-38260828D02*
X98971653Y-38260828D01*
X98971653Y-38260828D02*
X99114510Y-38332257D01*
X99114510Y-38332257D02*
X99185939Y-38403685D01*
X99185939Y-38403685D02*
X99257367Y-38546542D01*
X99257367Y-38546542D02*
X99257367Y-38760828D01*
X99257367Y-38760828D02*
X99185939Y-38903685D01*
X99185939Y-38903685D02*
X99114510Y-38975114D01*
X99114510Y-38975114D02*
X98971653Y-39046542D01*
X98971653Y-39046542D02*
X98400224Y-39046542D01*
X100185939Y-38260828D02*
X100471653Y-38260828D01*
X100471653Y-38260828D02*
X100614510Y-38332257D01*
X100614510Y-38332257D02*
X100757367Y-38475114D01*
X100757367Y-38475114D02*
X100828796Y-38760828D01*
X100828796Y-38760828D02*
X100828796Y-39260828D01*
X100828796Y-39260828D02*
X100757367Y-39546542D01*
X100757367Y-39546542D02*
X100614510Y-39689400D01*
X100614510Y-39689400D02*
X100471653Y-39760828D01*
X100471653Y-39760828D02*
X100185939Y-39760828D01*
X100185939Y-39760828D02*
X100043082Y-39689400D01*
X100043082Y-39689400D02*
X99900224Y-39546542D01*
X99900224Y-39546542D02*
X99828796Y-39260828D01*
X99828796Y-39260828D02*
X99828796Y-38760828D01*
X99828796Y-38760828D02*
X99900224Y-38475114D01*
X99900224Y-38475114D02*
X100043082Y-38332257D01*
X100043082Y-38332257D02*
X100185939Y-38260828D01*
X101328796Y-38260828D02*
X101685939Y-39760828D01*
X101685939Y-39760828D02*
X101971653Y-38689400D01*
X101971653Y-38689400D02*
X102257368Y-39760828D01*
X102257368Y-39760828D02*
X102614511Y-38260828D01*
X104828796Y-38975114D02*
X104328796Y-38975114D01*
X104328796Y-39760828D02*
X104328796Y-38260828D01*
X104328796Y-38260828D02*
X105043082Y-38260828D01*
X105900225Y-38260828D02*
X106185939Y-38260828D01*
X106185939Y-38260828D02*
X106328796Y-38332257D01*
X106328796Y-38332257D02*
X106471653Y-38475114D01*
X106471653Y-38475114D02*
X106543082Y-38760828D01*
X106543082Y-38760828D02*
X106543082Y-39260828D01*
X106543082Y-39260828D02*
X106471653Y-39546542D01*
X106471653Y-39546542D02*
X106328796Y-39689400D01*
X106328796Y-39689400D02*
X106185939Y-39760828D01*
X106185939Y-39760828D02*
X105900225Y-39760828D01*
X105900225Y-39760828D02*
X105757368Y-39689400D01*
X105757368Y-39689400D02*
X105614510Y-39546542D01*
X105614510Y-39546542D02*
X105543082Y-39260828D01*
X105543082Y-39260828D02*
X105543082Y-38760828D01*
X105543082Y-38760828D02*
X105614510Y-38475114D01*
X105614510Y-38475114D02*
X105757368Y-38332257D01*
X105757368Y-38332257D02*
X105900225Y-38260828D01*
X108043082Y-39760828D02*
X107543082Y-39046542D01*
X107185939Y-39760828D02*
X107185939Y-38260828D01*
X107185939Y-38260828D02*
X107757368Y-38260828D01*
X107757368Y-38260828D02*
X107900225Y-38332257D01*
X107900225Y-38332257D02*
X107971654Y-38403685D01*
X107971654Y-38403685D02*
X108043082Y-38546542D01*
X108043082Y-38546542D02*
X108043082Y-38760828D01*
X108043082Y-38760828D02*
X107971654Y-38903685D01*
X107971654Y-38903685D02*
X107900225Y-38975114D01*
X107900225Y-38975114D02*
X107757368Y-39046542D01*
X107757368Y-39046542D02*
X107185939Y-39046542D01*
X109828796Y-39760828D02*
X109828796Y-38260828D01*
X109828796Y-38260828D02*
X110685939Y-39760828D01*
X110685939Y-39760828D02*
X110685939Y-38260828D01*
X111685940Y-38260828D02*
X111971654Y-38260828D01*
X111971654Y-38260828D02*
X112114511Y-38332257D01*
X112114511Y-38332257D02*
X112257368Y-38475114D01*
X112257368Y-38475114D02*
X112328797Y-38760828D01*
X112328797Y-38760828D02*
X112328797Y-39260828D01*
X112328797Y-39260828D02*
X112257368Y-39546542D01*
X112257368Y-39546542D02*
X112114511Y-39689400D01*
X112114511Y-39689400D02*
X111971654Y-39760828D01*
X111971654Y-39760828D02*
X111685940Y-39760828D01*
X111685940Y-39760828D02*
X111543083Y-39689400D01*
X111543083Y-39689400D02*
X111400225Y-39546542D01*
X111400225Y-39546542D02*
X111328797Y-39260828D01*
X111328797Y-39260828D02*
X111328797Y-38760828D01*
X111328797Y-38760828D02*
X111400225Y-38475114D01*
X111400225Y-38475114D02*
X111543083Y-38332257D01*
X111543083Y-38332257D02*
X111685940Y-38260828D01*
X112971654Y-39760828D02*
X112971654Y-38260828D01*
X113614512Y-39689400D02*
X113828798Y-39760828D01*
X113828798Y-39760828D02*
X114185940Y-39760828D01*
X114185940Y-39760828D02*
X114328798Y-39689400D01*
X114328798Y-39689400D02*
X114400226Y-39617971D01*
X114400226Y-39617971D02*
X114471655Y-39475114D01*
X114471655Y-39475114D02*
X114471655Y-39332257D01*
X114471655Y-39332257D02*
X114400226Y-39189400D01*
X114400226Y-39189400D02*
X114328798Y-39117971D01*
X114328798Y-39117971D02*
X114185940Y-39046542D01*
X114185940Y-39046542D02*
X113900226Y-38975114D01*
X113900226Y-38975114D02*
X113757369Y-38903685D01*
X113757369Y-38903685D02*
X113685940Y-38832257D01*
X113685940Y-38832257D02*
X113614512Y-38689400D01*
X113614512Y-38689400D02*
X113614512Y-38546542D01*
X113614512Y-38546542D02*
X113685940Y-38403685D01*
X113685940Y-38403685D02*
X113757369Y-38332257D01*
X113757369Y-38332257D02*
X113900226Y-38260828D01*
X113900226Y-38260828D02*
X114257369Y-38260828D01*
X114257369Y-38260828D02*
X114471655Y-38332257D01*
X115114511Y-38975114D02*
X115614511Y-38975114D01*
X115828797Y-39760828D02*
X115114511Y-39760828D01*
X115114511Y-39760828D02*
X115114511Y-38260828D01*
X115114511Y-38260828D02*
X115828797Y-38260828D01*
X117543083Y-39689400D02*
X117757369Y-39760828D01*
X117757369Y-39760828D02*
X118114511Y-39760828D01*
X118114511Y-39760828D02*
X118257369Y-39689400D01*
X118257369Y-39689400D02*
X118328797Y-39617971D01*
X118328797Y-39617971D02*
X118400226Y-39475114D01*
X118400226Y-39475114D02*
X118400226Y-39332257D01*
X118400226Y-39332257D02*
X118328797Y-39189400D01*
X118328797Y-39189400D02*
X118257369Y-39117971D01*
X118257369Y-39117971D02*
X118114511Y-39046542D01*
X118114511Y-39046542D02*
X117828797Y-38975114D01*
X117828797Y-38975114D02*
X117685940Y-38903685D01*
X117685940Y-38903685D02*
X117614511Y-38832257D01*
X117614511Y-38832257D02*
X117543083Y-38689400D01*
X117543083Y-38689400D02*
X117543083Y-38546542D01*
X117543083Y-38546542D02*
X117614511Y-38403685D01*
X117614511Y-38403685D02*
X117685940Y-38332257D01*
X117685940Y-38332257D02*
X117828797Y-38260828D01*
X117828797Y-38260828D02*
X118185940Y-38260828D01*
X118185940Y-38260828D02*
X118400226Y-38332257D01*
X119043082Y-38975114D02*
X119543082Y-38975114D01*
X119757368Y-39760828D02*
X119043082Y-39760828D01*
X119043082Y-39760828D02*
X119043082Y-38260828D01*
X119043082Y-38260828D02*
X119757368Y-38260828D01*
X120400225Y-39760828D02*
X120400225Y-38260828D01*
X120400225Y-38260828D02*
X120971654Y-38260828D01*
X120971654Y-38260828D02*
X121114511Y-38332257D01*
X121114511Y-38332257D02*
X121185940Y-38403685D01*
X121185940Y-38403685D02*
X121257368Y-38546542D01*
X121257368Y-38546542D02*
X121257368Y-38760828D01*
X121257368Y-38760828D02*
X121185940Y-38903685D01*
X121185940Y-38903685D02*
X121114511Y-38975114D01*
X121114511Y-38975114D02*
X120971654Y-39046542D01*
X120971654Y-39046542D02*
X120400225Y-39046542D01*
X121900225Y-38975114D02*
X122400225Y-38975114D01*
X122614511Y-39760828D02*
X121900225Y-39760828D01*
X121900225Y-39760828D02*
X121900225Y-38260828D01*
X121900225Y-38260828D02*
X122614511Y-38260828D01*
X124114511Y-39760828D02*
X123614511Y-39046542D01*
X123257368Y-39760828D02*
X123257368Y-38260828D01*
X123257368Y-38260828D02*
X123828797Y-38260828D01*
X123828797Y-38260828D02*
X123971654Y-38332257D01*
X123971654Y-38332257D02*
X124043083Y-38403685D01*
X124043083Y-38403685D02*
X124114511Y-38546542D01*
X124114511Y-38546542D02*
X124114511Y-38760828D01*
X124114511Y-38760828D02*
X124043083Y-38903685D01*
X124043083Y-38903685D02*
X123971654Y-38975114D01*
X123971654Y-38975114D02*
X123828797Y-39046542D01*
X123828797Y-39046542D02*
X123257368Y-39046542D01*
X124685940Y-39332257D02*
X125400226Y-39332257D01*
X124543083Y-39760828D02*
X125043083Y-38260828D01*
X125043083Y-38260828D02*
X125543083Y-39760828D01*
X125828797Y-38260828D02*
X126685940Y-38260828D01*
X126257368Y-39760828D02*
X126257368Y-38260828D01*
X127185939Y-39760828D02*
X127185939Y-38260828D01*
X128185940Y-38260828D02*
X128471654Y-38260828D01*
X128471654Y-38260828D02*
X128614511Y-38332257D01*
X128614511Y-38332257D02*
X128757368Y-38475114D01*
X128757368Y-38475114D02*
X128828797Y-38760828D01*
X128828797Y-38760828D02*
X128828797Y-39260828D01*
X128828797Y-39260828D02*
X128757368Y-39546542D01*
X128757368Y-39546542D02*
X128614511Y-39689400D01*
X128614511Y-39689400D02*
X128471654Y-39760828D01*
X128471654Y-39760828D02*
X128185940Y-39760828D01*
X128185940Y-39760828D02*
X128043083Y-39689400D01*
X128043083Y-39689400D02*
X127900225Y-39546542D01*
X127900225Y-39546542D02*
X127828797Y-39260828D01*
X127828797Y-39260828D02*
X127828797Y-38760828D01*
X127828797Y-38760828D02*
X127900225Y-38475114D01*
X127900225Y-38475114D02*
X128043083Y-38332257D01*
X128043083Y-38332257D02*
X128185940Y-38260828D01*
X129471654Y-39760828D02*
X129471654Y-38260828D01*
X129471654Y-38260828D02*
X130328797Y-39760828D01*
X130328797Y-39760828D02*
X130328797Y-38260828D01*
D10*
D11*
X111054510Y-155815114D02*
X111554510Y-155815114D01*
X111768796Y-156600828D02*
X111054510Y-156600828D01*
X111054510Y-156600828D02*
X111054510Y-155100828D01*
X111054510Y-155100828D02*
X111768796Y-155100828D01*
X112411653Y-155100828D02*
X112411653Y-156315114D01*
X112411653Y-156315114D02*
X112483082Y-156457971D01*
X112483082Y-156457971D02*
X112554511Y-156529400D01*
X112554511Y-156529400D02*
X112697368Y-156600828D01*
X112697368Y-156600828D02*
X112983082Y-156600828D01*
X112983082Y-156600828D02*
X113125939Y-156529400D01*
X113125939Y-156529400D02*
X113197368Y-156457971D01*
X113197368Y-156457971D02*
X113268796Y-156315114D01*
X113268796Y-156315114D02*
X113268796Y-155100828D01*
X113983082Y-156600828D02*
X113983082Y-155100828D01*
X113983082Y-155100828D02*
X114840225Y-156600828D01*
X114840225Y-156600828D02*
X114840225Y-155100828D01*
X115983083Y-155100828D02*
X115983083Y-156172257D01*
X115983083Y-156172257D02*
X115911654Y-156386542D01*
X115911654Y-156386542D02*
X115768797Y-156529400D01*
X115768797Y-156529400D02*
X115554511Y-156600828D01*
X115554511Y-156600828D02*
X115411654Y-156600828D01*
X116697368Y-155100828D02*
X116697368Y-156315114D01*
X116697368Y-156315114D02*
X116768797Y-156457971D01*
X116768797Y-156457971D02*
X116840226Y-156529400D01*
X116840226Y-156529400D02*
X116983083Y-156600828D01*
X116983083Y-156600828D02*
X117268797Y-156600828D01*
X117268797Y-156600828D02*
X117411654Y-156529400D01*
X117411654Y-156529400D02*
X117483083Y-156457971D01*
X117483083Y-156457971D02*
X117554511Y-156315114D01*
X117554511Y-156315114D02*
X117554511Y-155100828D01*
X118268797Y-156600828D02*
X118268797Y-155100828D01*
X118268797Y-155100828D02*
X119125940Y-156600828D01*
X119125940Y-156600828D02*
X119125940Y-155100828D01*
X120625941Y-155172257D02*
X120483084Y-155100828D01*
X120483084Y-155100828D02*
X120268798Y-155100828D01*
X120268798Y-155100828D02*
X120054512Y-155172257D01*
X120054512Y-155172257D02*
X119911655Y-155315114D01*
X119911655Y-155315114D02*
X119840226Y-155457971D01*
X119840226Y-155457971D02*
X119768798Y-155743685D01*
X119768798Y-155743685D02*
X119768798Y-155957971D01*
X119768798Y-155957971D02*
X119840226Y-156243685D01*
X119840226Y-156243685D02*
X119911655Y-156386542D01*
X119911655Y-156386542D02*
X120054512Y-156529400D01*
X120054512Y-156529400D02*
X120268798Y-156600828D01*
X120268798Y-156600828D02*
X120411655Y-156600828D01*
X120411655Y-156600828D02*
X120625941Y-156529400D01*
X120625941Y-156529400D02*
X120697369Y-156457971D01*
X120697369Y-156457971D02*
X120697369Y-155957971D01*
X120697369Y-155957971D02*
X120411655Y-155957971D01*
X122483083Y-156600828D02*
X122483083Y-155100828D01*
X122483083Y-155100828D02*
X122983083Y-156172257D01*
X122983083Y-156172257D02*
X123483083Y-155100828D01*
X123483083Y-155100828D02*
X123483083Y-156600828D01*
X124197369Y-156600828D02*
X124197369Y-155100828D01*
X125054512Y-156600828D02*
X124411655Y-155743685D01*
X125054512Y-155100828D02*
X124197369Y-155957971D01*
X126483084Y-156600828D02*
X125625941Y-156600828D01*
X126054512Y-156600828D02*
X126054512Y-155100828D01*
X126054512Y-155100828D02*
X125911655Y-155315114D01*
X125911655Y-155315114D02*
X125768798Y-155457971D01*
X125768798Y-155457971D02*
X125625941Y-155529400D01*
X126768798Y-156743685D02*
X127911655Y-156743685D01*
X129054512Y-156600828D02*
X128197369Y-156600828D01*
X128625940Y-156600828D02*
X128625940Y-155100828D01*
X128625940Y-155100828D02*
X128483083Y-155315114D01*
X128483083Y-155315114D02*
X128340226Y-155457971D01*
X128340226Y-155457971D02*
X128197369Y-155529400D01*
D12*
%TA.AperFunction,EtchedComponent*%
%TO.C,oi*%
G36*
X176790000Y-72820000D02*
G01*
X176290000Y-72820000D01*
X176290000Y-71820000D01*
X176790000Y-71820000D01*
X176790000Y-72820000D01*
G37*
%TD.AperFunction*%
%TA.AperFunction,EtchedComponent*%
%TO.C,ai*%
G36*
X176760000Y-151490000D02*
G01*
X175760000Y-151490000D01*
X175760000Y-150990000D01*
X176760000Y-150990000D01*
X176760000Y-151490000D01*
G37*
%TD.AperFunction*%
%TA.AperFunction,EtchedComponent*%
%TO.C,BYPASSGND*%
G36*
X124560000Y-115340000D02*
G01*
X123960000Y-115340000D01*
X123960000Y-114840000D01*
X124560000Y-114840000D01*
X124560000Y-115340000D01*
G37*
%TD.AperFunction*%
%TA.AperFunction,EtchedComponent*%
%TO.C,BYPASS3V3*%
G36*
X122020000Y-115340000D02*
G01*
X121420000Y-115340000D01*
X121420000Y-114840000D01*
X122020000Y-114840000D01*
X122020000Y-115340000D01*
G37*
%TD.AperFunction*%
%TA.AperFunction,EtchedComponent*%
%TO.C,net*%
G36*
X170680000Y-142490000D02*
G01*
X169680000Y-142490000D01*
X169680000Y-141990000D01*
X170680000Y-141990000D01*
X170680000Y-142490000D01*
G37*
%TD.AperFunction*%
%TD*%
D13*
%TO.P,extPorts,1*%
%TO.N,GND*%
X186700000Y-75600000D03*
D14*
%TO.P,extPorts,2*%
X186700000Y-78140000D03*
%TO.P,extPorts,3*%
X186700000Y-80680000D03*
%TO.P,extPorts,4*%
X186700000Y-83220000D03*
%TO.P,extPorts,5*%
X186700000Y-85760000D03*
%TO.P,extPorts,6*%
X186700000Y-88300000D03*
%TO.P,extPorts,7*%
X186700000Y-90840000D03*
%TD*%
D15*
%TO.P,oi,1*%
%TO.N,GND*%
X176540000Y-71820000D03*
%TO.P,oi,2*%
X176540000Y-72820000D03*
%TD*%
%TO.P,ai,1*%
%TO.N,GND*%
X175760000Y-151240000D03*
%TO.P,ai,2*%
X176760000Y-151240000D03*
%TD*%
D16*
%TO.P,BYPASSGND,1*%
%TO.N,GND*%
X124260000Y-115740000D03*
%TO.P,BYPASSGND,2*%
X124260000Y-114440000D03*
%TD*%
D17*
%TO.P,BarrelJack_Horizontal,1*%
%TO.N,GND*%
X170760000Y-148240000D03*
D18*
%TO.P,BarrelJack_Horizontal,2*%
X176760000Y-148240000D03*
D19*
%TO.P,BarrelJack_Horizontal,3*%
X173760000Y-143540000D03*
%TD*%
D20*
%TO.P,GNDEXTNO,1*%
%TO.N,GND*%
X176460000Y-75360000D03*
%TO.P,GNDEXTNO,2*%
X177760000Y-75360000D03*
%TD*%
%TO.P,3v3extNO,1*%
%TO.N,GND*%
X176610000Y-90860000D03*
%TO.P,3v3extNO,2*%
X177910000Y-90860000D03*
%TD*%
D21*
%TO.P,BUS_PCI_Express_Mini_Dual,1*%
%TO.N,N/C*%
X166725000Y-98160000D03*
%TO.P,BUS_PCI_Express_Mini_Dual,2*%
X158525000Y-97760000D03*
%TO.P,BUS_PCI_Express_Mini_Dual,3*%
X166725000Y-97360000D03*
%TO.P,BUS_PCI_Express_Mini_Dual,4*%
X158525000Y-96960000D03*
%TO.P,BUS_PCI_Express_Mini_Dual,5*%
X166725000Y-96560000D03*
%TO.P,BUS_PCI_Express_Mini_Dual,6*%
X158525000Y-96160000D03*
%TO.P,BUS_PCI_Express_Mini_Dual,7*%
X166725000Y-95760000D03*
%TO.P,BUS_PCI_Express_Mini_Dual,8*%
X158525000Y-95360000D03*
%TO.P,BUS_PCI_Express_Mini_Dual,9*%
X166725000Y-94960000D03*
%TO.P,BUS_PCI_Express_Mini_Dual,10*%
X158525000Y-94560000D03*
%TO.P,BUS_PCI_Express_Mini_Dual,11*%
X166725000Y-94160000D03*
%TO.P,BUS_PCI_Express_Mini_Dual,12*%
X158525000Y-93760000D03*
%TO.P,BUS_PCI_Express_Mini_Dual,13*%
X166725000Y-93360000D03*
%TO.P,BUS_PCI_Express_Mini_Dual,14*%
X158525000Y-92960000D03*
%TO.P,BUS_PCI_Express_Mini_Dual,15*%
X166725000Y-92560000D03*
%TO.P,BUS_PCI_Express_Mini_Dual,16*%
X158525000Y-92160000D03*
%TO.P,BUS_PCI_Express_Mini_Dual,17*%
X166725000Y-88560000D03*
%TO.P,BUS_PCI_Express_Mini_Dual,18*%
X158525000Y-88160000D03*
%TO.P,BUS_PCI_Express_Mini_Dual,19*%
%TO.N,1PPS*%
X166725000Y-87760000D03*
%TO.P,BUS_PCI_Express_Mini_Dual,20*%
%TO.N,N/C*%
X158525000Y-87360000D03*
%TO.P,BUS_PCI_Express_Mini_Dual,21*%
X166725000Y-86960000D03*
%TO.P,BUS_PCI_Express_Mini_Dual,22*%
%TO.N,GND*%
X158525000Y-86560000D03*
%TO.P,BUS_PCI_Express_Mini_Dual,23*%
%TO.N,N/C*%
X166725000Y-86160000D03*
%TO.P,BUS_PCI_Express_Mini_Dual,24*%
X158525000Y-85760000D03*
%TO.P,BUS_PCI_Express_Mini_Dual,25*%
X166725000Y-85360000D03*
%TO.P,BUS_PCI_Express_Mini_Dual,26*%
X158525000Y-84960000D03*
%TO.P,BUS_PCI_Express_Mini_Dual,27*%
X166725000Y-84560000D03*
%TO.P,BUS_PCI_Express_Mini_Dual,28*%
X158525000Y-84160000D03*
%TO.P,BUS_PCI_Express_Mini_Dual,29*%
X166725000Y-83760000D03*
%TO.P,BUS_PCI_Express_Mini_Dual,30*%
%TO.N,SCL*%
X158525000Y-83360000D03*
%TO.P,BUS_PCI_Express_Mini_Dual,31*%
%TO.N,N/C*%
X166725000Y-82960000D03*
%TO.P,BUS_PCI_Express_Mini_Dual,32*%
%TO.N,SDA*%
X158525000Y-82560000D03*
%TO.P,BUS_PCI_Express_Mini_Dual,33*%
%TO.N,N/C*%
X166725000Y-82160000D03*
%TO.P,BUS_PCI_Express_Mini_Dual,34*%
X158525000Y-81760000D03*
%TO.P,BUS_PCI_Express_Mini_Dual,35*%
X166725000Y-81360000D03*
%TO.P,BUS_PCI_Express_Mini_Dual,36*%
X158525000Y-80960000D03*
%TO.P,BUS_PCI_Express_Mini_Dual,37*%
X166725000Y-80560000D03*
%TO.P,BUS_PCI_Express_Mini_Dual,38*%
X158525000Y-80160000D03*
%TO.P,BUS_PCI_Express_Mini_Dual,39*%
X166725000Y-79760000D03*
%TO.P,BUS_PCI_Express_Mini_Dual,40*%
X158525000Y-79360000D03*
%TO.P,BUS_PCI_Express_Mini_Dual,41*%
%TO.N,GND*%
X166725000Y-78960000D03*
%TO.P,BUS_PCI_Express_Mini_Dual,42*%
%TO.N,N/C*%
X158525000Y-78560000D03*
%TO.P,BUS_PCI_Express_Mini_Dual,43*%
%TO.N,GND*%
X166725000Y-78160000D03*
%TO.P,BUS_PCI_Express_Mini_Dual,44*%
%TO.N,N/C*%
X158525000Y-77760000D03*
%TO.P,BUS_PCI_Express_Mini_Dual,45*%
%TO.N,GND*%
X166725000Y-77360000D03*
%TO.P,BUS_PCI_Express_Mini_Dual,46*%
%TO.N,N/C*%
X158525000Y-76960000D03*
%TO.P,BUS_PCI_Express_Mini_Dual,47*%
%TO.N,GND*%
X166725000Y-76560000D03*
%TO.P,BUS_PCI_Express_Mini_Dual,48*%
%TO.N,N/C*%
X158525000Y-76160000D03*
%TO.P,BUS_PCI_Express_Mini_Dual,49*%
%TO.N,GND*%
X166725000Y-75760000D03*
%TO.P,BUS_PCI_Express_Mini_Dual,50*%
X158525000Y-75360000D03*
%TO.P,BUS_PCI_Express_Mini_Dual,51*%
X166725000Y-74960000D03*
%TO.P,BUS_PCI_Express_Mini_Dual,52*%
%TO.N,N/C*%
X158525000Y-74560000D03*
D22*
%TO.P,BUS_PCI_Express_Mini_Dual,MP*%
X166125000Y-101010000D03*
X166125000Y-71710000D03*
%TD*%
D23*
%TO.P,C22_1206_10nf,1*%
%TO.N,GND*%
X173760000Y-83335000D03*
%TO.P,C22_1206_10nf,2*%
X173760000Y-80385000D03*
%TD*%
D24*
%TO.P,C2_1206_10nf,1*%
%TO.N,GND*%
X120250000Y-123780000D03*
%TO.P,C2_1206_10nf,2*%
X123200000Y-123780000D03*
%TD*%
D25*
%TO.P,C1_1206_10uf,1*%
%TO.N,GND*%
X138535000Y-148240000D03*
%TO.P,C1_1206_10uf,2*%
X142935000Y-148240000D03*
%TD*%
%TO.P,C2_1206_10uf,1*%
%TO.N,GND*%
X119525000Y-131400000D03*
%TO.P,C2_1206_10uf,2*%
X123925000Y-131400000D03*
%TD*%
D26*
%TO.P,C22_1206_10uf,1*%
%TO.N,GND*%
X181620000Y-84180000D03*
%TO.P,C22_1206_10uf,2*%
X181620000Y-79780000D03*
%TD*%
D24*
%TO.P,R2_1206,1*%
%TO.N,GND*%
X160260000Y-150320000D03*
%TO.P,R2_1206,2*%
X163210000Y-150320000D03*
%TD*%
D16*
%TO.P,BYPASS3V3,1*%
%TO.N,GND*%
X121720000Y-115740000D03*
%TO.P,BYPASS3V3,2*%
X121720000Y-114440000D03*
%TD*%
D15*
%TO.P,net,1*%
%TO.N,GND*%
X169680000Y-142240000D03*
%TO.P,net,2*%
X170680000Y-142240000D03*
%TD*%
D27*
%TO.P,ESP32C6,0*%
%TO.N,DI4*%
X157480000Y-109220000D03*
%TO.P,ESP32C6,1*%
%TO.N,DI3*%
X154940000Y-109220000D03*
%TO.P,ESP32C6,2*%
%TO.N,N/C*%
X172720000Y-134620000D03*
%TO.P,ESP32C6,3*%
X170180000Y-134620000D03*
%TO.P,ESP32C6,3V3*%
%TO.N,3V3_2*%
X172720000Y-109220000D03*
%TO.P,ESP32C6,4*%
%TO.N,GND*%
X167640000Y-109220000D03*
%TO.P,ESP32C6,5*%
%TO.N,N/C*%
X165100000Y-109220000D03*
%TO.P,ESP32C6,5V*%
%TO.N,5V_2*%
X139700000Y-109220000D03*
%TO.N,GND*%
X139700000Y-134620000D03*
%TO.P,ESP32C6,6*%
X162560000Y-109220000D03*
%TO.P,ESP32C6,7*%
%TO.N,N/C*%
X160020000Y-109220000D03*
%TO.P,ESP32C6,8*%
%TO.N,DI2*%
X152400000Y-109220000D03*
%TO.P,ESP32C6,9*%
%TO.N,N/C*%
X144780000Y-134620000D03*
%TO.P,ESP32C6,10*%
%TO.N,DI1*%
X149860000Y-109220000D03*
%TO.P,ESP32C6,11*%
%TO.N,DI0*%
X147320000Y-109220000D03*
%TO.P,ESP32C6,12*%
%TO.N,N/C*%
X144780000Y-109220000D03*
%TO.P,ESP32C6,13*%
X142240000Y-109220000D03*
%TO.P,ESP32C6,15*%
X162560000Y-134620000D03*
%TO.P,ESP32C6,18*%
%TO.N,GND*%
X147320000Y-134620000D03*
%TO.P,ESP32C6,19*%
%TO.N,N/C*%
X149860000Y-134620000D03*
%TO.P,ESP32C6,20*%
%TO.N,GND*%
X152400000Y-134620000D03*
%TO.P,ESP32C6,21*%
%TO.N,N/C*%
X154940000Y-134620000D03*
%TO.P,ESP32C6,22*%
%TO.N,GND*%
X157480000Y-134620000D03*
%TO.P,ESP32C6,23*%
%TO.N,N/C*%
X160020000Y-134620000D03*
D28*
%TO.P,ESP32C6,GND*%
%TO.N,GND*%
X142240000Y-134620000D03*
X175260000Y-109220000D03*
X175260000Y-134620000D03*
D27*
%TO.P,ESP32C6,RST*%
%TO.N,N/C*%
X170180000Y-109220000D03*
%TO.P,ESP32C6,RX*%
X165100000Y-134620000D03*
%TO.P,ESP32C6,TX*%
X167640000Y-134620000D03*
%TD*%
D28*
%TO.P,REGULATOR5V,1*%
%TO.N,GND*%
X123200000Y-141560000D03*
D27*
%TO.P,REGULATOR5V,2*%
X120660000Y-141560000D03*
%TO.P,REGULATOR5V,3*%
X118120000Y-141560000D03*
%TD*%
D29*
%TO.N,GND*%
X170180000Y-114300000D03*
X160136200Y-88104800D03*
X134620000Y-111760000D03*
X134620000Y-132080000D03*
X154940000Y-119380000D03*
X111760000Y-124460000D03*
X154940000Y-104140000D03*
X171417000Y-75961300D03*
X154940000Y-83820000D03*
X121920000Y-83820000D03*
X170180000Y-127000000D03*
X178561800Y-131928000D03*
X182880000Y-121920000D03*
X134620000Y-83820000D03*
X123136000Y-101195200D03*
X109220000Y-83820000D03*
X144780000Y-83820000D03*
X176522800Y-95582700D03*
X172351900Y-78582800D03*
X168344700Y-77360000D03*
X179476500Y-89923000D03*
X169614500Y-76293000D03*
X134620000Y-104140000D03*
X109220000Y-142240000D03*
X154940000Y-149860000D03*
D30*
X114300000Y-99060000D03*
D29*
X158767900Y-143452800D03*
D30*
X114300000Y-73660000D03*
D29*
X134620000Y-149860000D03*
X169075400Y-79614700D03*
X111760000Y-109220000D03*
%TD*%
D31*
%TO.N,GND*%
X166725000Y-78160000D02*
X170866200Y-78160000D01*
X176460000Y-77685000D02*
X179525000Y-77685000D01*
X186700000Y-86961700D02*
X186326500Y-86961700D01*
X177760000Y-74040000D02*
X176540000Y-72820000D01*
X185498300Y-85125700D02*
X177274500Y-93349500D01*
X187901700Y-80182100D02*
X187901700Y-81192600D01*
X158525000Y-75360000D02*
X157173300Y-75360000D01*
X165373300Y-98211700D02*
X165373300Y-76560000D01*
X163391800Y-75360000D02*
X158525000Y-75360000D01*
X178561800Y-94726400D02*
X178561800Y-131928000D01*
X172351900Y-78582800D02*
X172351900Y-77967400D01*
X187061400Y-79341800D02*
X187901700Y-80182100D01*
X177274500Y-114825500D02*
X157480000Y-134620000D01*
X187075500Y-76801700D02*
X186700000Y-76801700D01*
X176610000Y-90860000D02*
X176610000Y-91961700D01*
X186700000Y-79341800D02*
X187061400Y-79341800D01*
X147320000Y-134620000D02*
X138293400Y-125593400D01*
X174623800Y-78032000D02*
X170900100Y-74308300D01*
X169347500Y-76560000D02*
X166725000Y-76560000D01*
X139700000Y-134620000D02*
X139700000Y-147075000D01*
X178761700Y-90637800D02*
X179476500Y-89923000D01*
X178761700Y-90860000D02*
X178761700Y-90637800D01*
X120250000Y-123780000D02*
X119525000Y-124505000D01*
X186700000Y-85760000D02*
X186700000Y-86961700D01*
X139700000Y-147075000D02*
X138535000Y-148240000D01*
X120250000Y-118061700D02*
X120250000Y-123780000D01*
X138293400Y-125593400D02*
X138293400Y-105439900D01*
X121720000Y-102611200D02*
X123136000Y-101195200D01*
X176113000Y-78032000D02*
X176460000Y-77685000D01*
X176610000Y-86185000D02*
X179615000Y-86185000D01*
X118120000Y-141560000D02*
X119525000Y-140155000D01*
X169925800Y-75541300D02*
X169303300Y-75541300D01*
X176522800Y-95582700D02*
X176522800Y-92048900D01*
X157975000Y-86560000D02*
X157173300Y-86560000D01*
X188408500Y-78134700D02*
X187075500Y-76801700D01*
X173760000Y-83335000D02*
X173760000Y-83236300D01*
X167640000Y-109220000D02*
X169075400Y-107784600D01*
X157975000Y-86560000D02*
X158525000Y-86560000D01*
X124260000Y-108273300D02*
X157173300Y-75360000D01*
X173760000Y-83236300D02*
X169386700Y-78863000D01*
X162560000Y-109220000D02*
X162560000Y-101025000D01*
X186700000Y-79341700D02*
X186700000Y-79341800D01*
X166578300Y-150320000D02*
X168658300Y-148240000D01*
X171980000Y-143540000D02*
X170680000Y-142240000D01*
X159876700Y-86560000D02*
X159876700Y-87845300D01*
X174623800Y-78032000D02*
X176113000Y-78032000D01*
X173760000Y-80385000D02*
X174623800Y-79521200D01*
X166725000Y-78960000D02*
X168076700Y-78960000D01*
X119525000Y-140155000D02*
X119525000Y-131400000D01*
X176760000Y-148240000D02*
X188408500Y-136591500D01*
X176522800Y-92048900D02*
X176610000Y-91961700D01*
X164443500Y-74308300D02*
X163391800Y-75360000D01*
X121720000Y-114440000D02*
X121720000Y-102611200D01*
X160260000Y-150320000D02*
X160260000Y-144944900D01*
X174623800Y-79521200D02*
X174623800Y-78032000D01*
X177274500Y-93349500D02*
X177274500Y-114825500D01*
X176610000Y-86185000D02*
X176610000Y-90860000D01*
X187076000Y-82018300D02*
X186202200Y-82018300D01*
X166725000Y-74960000D02*
X170415700Y-74960000D01*
X170760000Y-148240000D02*
X168658300Y-148240000D01*
X173760000Y-83335000D02*
X176610000Y-86185000D01*
X160260000Y-144944900D02*
X158767900Y-143452800D01*
X179525000Y-77685000D02*
X181620000Y-79780000D01*
X168344700Y-77360000D02*
X166725000Y-77360000D01*
X166725000Y-76560000D02*
X165373300Y-76560000D01*
X169386700Y-78863000D02*
X168173700Y-78863000D01*
X186202200Y-82018300D02*
X185498300Y-82722200D01*
X173760000Y-143540000D02*
X173760000Y-145240000D01*
X169084600Y-75760000D02*
X166725000Y-75760000D01*
X158525000Y-86560000D02*
X159876700Y-86560000D01*
X170900100Y-74308300D02*
X164443500Y-74308300D01*
X172351900Y-77967400D02*
X169925800Y-75541300D01*
X176760000Y-151240000D02*
X176760000Y-148240000D01*
X187901700Y-81192600D02*
X187076000Y-82018300D01*
X162560000Y-101025000D02*
X165373300Y-98211700D01*
X121720000Y-116591700D02*
X120250000Y-118061700D01*
X119525000Y-124505000D02*
X119525000Y-131400000D01*
X169075400Y-107784600D02*
X169075400Y-79614700D01*
X173760000Y-143540000D02*
X171980000Y-143540000D01*
X138293400Y-105439900D02*
X157173300Y-86560000D01*
X159876700Y-87845300D02*
X160136200Y-88104800D01*
X169614500Y-76293000D02*
X169347500Y-76560000D01*
X170415700Y-74960000D02*
X171417000Y-75961300D01*
X168173700Y-78863000D02*
X168076700Y-78960000D01*
X124260000Y-114440000D02*
X124260000Y-108273300D01*
X177760000Y-75360000D02*
X177760000Y-74040000D01*
X179615000Y-86185000D02*
X181620000Y-84180000D01*
X177910000Y-90860000D02*
X178761700Y-90860000D01*
X185498300Y-82722200D02*
X185498300Y-85125700D01*
X121720000Y-115740000D02*
X121720000Y-116591700D01*
X186700000Y-78140000D02*
X186700000Y-79341700D01*
X169303300Y-75541300D02*
X169084600Y-75760000D01*
X188408500Y-136591500D02*
X188408500Y-78134700D01*
X170866200Y-78160000D02*
X173091200Y-80385000D01*
X186700000Y-75600000D02*
X186700000Y-76801700D01*
X186326500Y-86961700D02*
X178561800Y-94726400D01*
X163210000Y-150320000D02*
X166578300Y-150320000D01*
X173760000Y-145240000D02*
X176760000Y-148240000D01*
X176460000Y-77685000D02*
X176460000Y-75360000D01*
X173091200Y-80385000D02*
X173760000Y-80385000D01*
%TD*%
%TA.AperFunction,Conductor*%
%TO.N,GND*%
G36*
X186950000Y-90406988D02*
G01*
X186892993Y-90374075D01*
X186765826Y-90340000D01*
X186634174Y-90340000D01*
X186507007Y-90374075D01*
X186450000Y-90406988D01*
X186450000Y-88733012D01*
X186507007Y-88765925D01*
X186634174Y-88800000D01*
X186765826Y-88800000D01*
X186892993Y-88765925D01*
X186950000Y-88733012D01*
X186950000Y-90406988D01*
G37*
%TD.AperFunction*%
%TA.AperFunction,Conductor*%
G36*
X186950000Y-87866988D02*
G01*
X186892993Y-87834075D01*
X186765826Y-87800000D01*
X186634174Y-87800000D01*
X186507007Y-87834075D01*
X186450000Y-87866988D01*
X186450000Y-86193012D01*
X186507007Y-86225925D01*
X186634174Y-86260000D01*
X186765826Y-86260000D01*
X186892993Y-86225925D01*
X186950000Y-86193012D01*
X186950000Y-87866988D01*
G37*
%TD.AperFunction*%
%TA.AperFunction,Conductor*%
G36*
X186950000Y-85326988D02*
G01*
X186892993Y-85294075D01*
X186765826Y-85260000D01*
X186634174Y-85260000D01*
X186507007Y-85294075D01*
X186450000Y-85326988D01*
X186450000Y-83653012D01*
X186507007Y-83685925D01*
X186634174Y-83720000D01*
X186765826Y-83720000D01*
X186892993Y-83685925D01*
X186950000Y-83653012D01*
X186950000Y-85326988D01*
G37*
%TD.AperFunction*%
%TA.AperFunction,Conductor*%
G36*
X186950000Y-82786988D02*
G01*
X186892993Y-82754075D01*
X186765826Y-82720000D01*
X186634174Y-82720000D01*
X186507007Y-82754075D01*
X186450000Y-82786988D01*
X186450000Y-81113012D01*
X186507007Y-81145925D01*
X186634174Y-81180000D01*
X186765826Y-81180000D01*
X186892993Y-81145925D01*
X186950000Y-81113012D01*
X186950000Y-82786988D01*
G37*
%TD.AperFunction*%
%TA.AperFunction,Conductor*%
G36*
X186950000Y-80246988D02*
G01*
X186892993Y-80214075D01*
X186765826Y-80180000D01*
X186634174Y-80180000D01*
X186507007Y-80214075D01*
X186450000Y-80246988D01*
X186450000Y-78573012D01*
X186507007Y-78605925D01*
X186634174Y-78640000D01*
X186765826Y-78640000D01*
X186892993Y-78605925D01*
X186950000Y-78573012D01*
X186950000Y-80246988D01*
G37*
%TD.AperFunction*%
%TA.AperFunction,Conductor*%
G36*
X186950000Y-77706988D02*
G01*
X186892993Y-77674075D01*
X186765826Y-77640000D01*
X186634174Y-77640000D01*
X186507007Y-77674075D01*
X186450000Y-77706988D01*
X186450000Y-76033012D01*
X186507007Y-76065925D01*
X186634174Y-76100000D01*
X186765826Y-76100000D01*
X186892993Y-76065925D01*
X186950000Y-76033012D01*
X186950000Y-77706988D01*
G37*
%TD.AperFunction*%
%TA.AperFunction,Conductor*%
G36*
X190443039Y-66059685D02*
G01*
X190488794Y-66112489D01*
X190500000Y-66164000D01*
X190500000Y-159896000D01*
X190480315Y-159963039D01*
X190427511Y-160008794D01*
X190376000Y-160020000D01*
X106804000Y-160020000D01*
X106736961Y-160000315D01*
X106691206Y-159947511D01*
X106680000Y-159896000D01*
X106680000Y-157399185D01*
X110399010Y-157399185D01*
X129710012Y-157399185D01*
X129710012Y-154442484D01*
X110399010Y-154442484D01*
X110399010Y-157399185D01*
X106680000Y-157399185D01*
X106680000Y-151917577D01*
X175435975Y-151917577D01*
X175541236Y-151961178D01*
X175541240Y-151961179D01*
X175686126Y-151989999D01*
X175686129Y-151990000D01*
X175833871Y-151990000D01*
X175833873Y-151989999D01*
X175978760Y-151961179D01*
X175978775Y-151961175D01*
X176084024Y-151917578D01*
X176084024Y-151917577D01*
X176435975Y-151917577D01*
X176541236Y-151961178D01*
X176541240Y-151961179D01*
X176686126Y-151989999D01*
X176686129Y-151990000D01*
X176833871Y-151990000D01*
X176833873Y-151989999D01*
X176978760Y-151961179D01*
X176978775Y-151961175D01*
X177084024Y-151917578D01*
X177084024Y-151917577D01*
X176760001Y-151593554D01*
X176760000Y-151593554D01*
X176435975Y-151917577D01*
X176084024Y-151917577D01*
X175760001Y-151593554D01*
X175760000Y-151593554D01*
X175435975Y-151917577D01*
X106680000Y-151917577D01*
X106680000Y-151019986D01*
X159185001Y-151019986D01*
X159195494Y-151122697D01*
X159250641Y-151289119D01*
X159250643Y-151289124D01*
X159342684Y-151438345D01*
X159466654Y-151562315D01*
X159615875Y-151654356D01*
X159615880Y-151654358D01*
X159782302Y-151709505D01*
X159782309Y-151709506D01*
X159885019Y-151719999D01*
X160009999Y-151719999D01*
X160510000Y-151719999D01*
X160634972Y-151719999D01*
X160634986Y-151719998D01*
X160737697Y-151709505D01*
X160904119Y-151654358D01*
X160904124Y-151654356D01*
X161053345Y-151562315D01*
X161177315Y-151438345D01*
X161269356Y-151289124D01*
X161269358Y-151289119D01*
X161324505Y-151122697D01*
X161324506Y-151122690D01*
X161334999Y-151019986D01*
X162135001Y-151019986D01*
X162145494Y-151122697D01*
X162200641Y-151289119D01*
X162200643Y-151289124D01*
X162292684Y-151438345D01*
X162416654Y-151562315D01*
X162565875Y-151654356D01*
X162565880Y-151654358D01*
X162732302Y-151709505D01*
X162732309Y-151709506D01*
X162835019Y-151719999D01*
X162959999Y-151719999D01*
X163460000Y-151719999D01*
X163584972Y-151719999D01*
X163584986Y-151719998D01*
X163687697Y-151709505D01*
X163854119Y-151654358D01*
X163854124Y-151654356D01*
X164003345Y-151562315D01*
X164127315Y-151438345D01*
X164219356Y-151289124D01*
X164219358Y-151289119D01*
X164260114Y-151166126D01*
X175010000Y-151166126D01*
X175010000Y-151313873D01*
X175038820Y-151458759D01*
X175038822Y-151458767D01*
X175082421Y-151564024D01*
X175406446Y-151240000D01*
X176113554Y-151240000D01*
X176260000Y-151386446D01*
X176406446Y-151240000D01*
X176406445Y-151239999D01*
X177113554Y-151239999D01*
X177113554Y-151240001D01*
X177437577Y-151564024D01*
X177437578Y-151564024D01*
X177481175Y-151458775D01*
X177481179Y-151458760D01*
X177509999Y-151313873D01*
X177510000Y-151313871D01*
X177510000Y-151166128D01*
X177509999Y-151166126D01*
X177481179Y-151021240D01*
X177481178Y-151021236D01*
X177437577Y-150915975D01*
X177113554Y-151239999D01*
X176406445Y-151239999D01*
X176260000Y-151093554D01*
X176113554Y-151240000D01*
X175406446Y-151240000D01*
X175406446Y-151239999D01*
X175082421Y-150915974D01*
X175082420Y-150915974D01*
X175038823Y-151021228D01*
X175038820Y-151021240D01*
X175010000Y-151166126D01*
X164260114Y-151166126D01*
X164274505Y-151122697D01*
X164274506Y-151122690D01*
X164284999Y-151019986D01*
X164285000Y-151019973D01*
X164285000Y-150570000D01*
X163460000Y-150570000D01*
X163460000Y-151719999D01*
X162959999Y-151719999D01*
X162960000Y-151719998D01*
X162960000Y-150570000D01*
X162135001Y-150570000D01*
X162135001Y-151019986D01*
X161334999Y-151019986D01*
X161335000Y-151019973D01*
X161335000Y-150570000D01*
X160510000Y-150570000D01*
X160510000Y-151719999D01*
X160009999Y-151719999D01*
X160010000Y-151719998D01*
X160010000Y-150570000D01*
X159185001Y-150570000D01*
X159185001Y-151019986D01*
X106680000Y-151019986D01*
X106680000Y-149620013D01*
X159185000Y-149620013D01*
X159185000Y-150070000D01*
X160010000Y-150070000D01*
X160510000Y-150070000D01*
X161334999Y-150070000D01*
X161334999Y-149620029D01*
X161334998Y-149620013D01*
X162135000Y-149620013D01*
X162135000Y-150070000D01*
X162960000Y-150070000D01*
X163460000Y-150070000D01*
X164284999Y-150070000D01*
X164284999Y-149620028D01*
X164284998Y-149620013D01*
X164274505Y-149517302D01*
X164219358Y-149350880D01*
X164219356Y-149350875D01*
X164127315Y-149201654D01*
X164003345Y-149077684D01*
X163854124Y-148985643D01*
X163854119Y-148985641D01*
X163687697Y-148930494D01*
X163687690Y-148930493D01*
X163584986Y-148920000D01*
X163460000Y-148920000D01*
X163460000Y-150070000D01*
X162960000Y-150070000D01*
X162960000Y-148920000D01*
X162835027Y-148920000D01*
X162835012Y-148920001D01*
X162732302Y-148930494D01*
X162565880Y-148985641D01*
X162565875Y-148985643D01*
X162416654Y-149077684D01*
X162292684Y-149201654D01*
X162200643Y-149350875D01*
X162200641Y-149350880D01*
X162145494Y-149517302D01*
X162145493Y-149517309D01*
X162135000Y-149620013D01*
X161334998Y-149620013D01*
X161334998Y-149620012D01*
X161324505Y-149517302D01*
X161269358Y-149350880D01*
X161269356Y-149350875D01*
X161177315Y-149201654D01*
X161053345Y-149077684D01*
X160904124Y-148985643D01*
X160904119Y-148985641D01*
X160737697Y-148930494D01*
X160737690Y-148930493D01*
X160634986Y-148920000D01*
X160510000Y-148920000D01*
X160510000Y-150070000D01*
X160010000Y-150070000D01*
X160010000Y-148920000D01*
X159885027Y-148920000D01*
X159885012Y-148920001D01*
X159782302Y-148930494D01*
X159615880Y-148985641D01*
X159615875Y-148985643D01*
X159466654Y-149077684D01*
X159342684Y-149201654D01*
X159250643Y-149350875D01*
X159250641Y-149350880D01*
X159195494Y-149517302D01*
X159195493Y-149517309D01*
X159185000Y-149620013D01*
X106680000Y-149620013D01*
X106680000Y-148839986D01*
X136535001Y-148839986D01*
X136545494Y-148942697D01*
X136600641Y-149109119D01*
X136600643Y-149109124D01*
X136692684Y-149258345D01*
X136816654Y-149382315D01*
X136965875Y-149474356D01*
X136965880Y-149474358D01*
X137132302Y-149529505D01*
X137132309Y-149529506D01*
X137235019Y-149539999D01*
X138284999Y-149539999D01*
X138785000Y-149539999D01*
X139834972Y-149539999D01*
X139834986Y-149539998D01*
X139937697Y-149529505D01*
X140104119Y-149474358D01*
X140104124Y-149474356D01*
X140253345Y-149382315D01*
X140377315Y-149258345D01*
X140469356Y-149109124D01*
X140469358Y-149109119D01*
X140524505Y-148942697D01*
X140524506Y-148942690D01*
X140534999Y-148839986D01*
X140935001Y-148839986D01*
X140945494Y-148942697D01*
X141000641Y-149109119D01*
X141000643Y-149109124D01*
X141092684Y-149258345D01*
X141216654Y-149382315D01*
X141365875Y-149474356D01*
X141365880Y-149474358D01*
X141532302Y-149529505D01*
X141532309Y-149529506D01*
X141635019Y-149539999D01*
X142684999Y-149539999D01*
X143185000Y-149539999D01*
X144234972Y-149539999D01*
X144234986Y-149539998D01*
X144337697Y-149529505D01*
X144429280Y-149499158D01*
X144504119Y-149474358D01*
X144504124Y-149474356D01*
X144653345Y-149382315D01*
X144777315Y-149258345D01*
X144869356Y-149109124D01*
X144869358Y-149109119D01*
X144924505Y-148942697D01*
X144924506Y-148942690D01*
X144934999Y-148839986D01*
X144935000Y-148839973D01*
X144935000Y-148490000D01*
X143185000Y-148490000D01*
X143185000Y-149539999D01*
X142684999Y-149539999D01*
X142685000Y-149539998D01*
X142685000Y-148490000D01*
X140935001Y-148490000D01*
X140935001Y-148839986D01*
X140534999Y-148839986D01*
X140535000Y-148839973D01*
X140535000Y-148490000D01*
X138785000Y-148490000D01*
X138785000Y-149539999D01*
X138284999Y-149539999D01*
X138285000Y-149539998D01*
X138285000Y-148490000D01*
X136535001Y-148490000D01*
X136535001Y-148839986D01*
X106680000Y-148839986D01*
X106680000Y-147640013D01*
X136535000Y-147640013D01*
X136535000Y-147990000D01*
X138285000Y-147990000D01*
X138785000Y-147990000D01*
X140534999Y-147990000D01*
X140534999Y-147640029D01*
X140534998Y-147640013D01*
X140935000Y-147640013D01*
X140935000Y-147990000D01*
X142685000Y-147990000D01*
X143185000Y-147990000D01*
X144934999Y-147990000D01*
X144934999Y-147640028D01*
X144934998Y-147640013D01*
X144924505Y-147537302D01*
X144869358Y-147370880D01*
X144869356Y-147370875D01*
X144777315Y-147221654D01*
X144653345Y-147097684D01*
X144504124Y-147005643D01*
X144504119Y-147005641D01*
X144337697Y-146950494D01*
X144337690Y-146950493D01*
X144234986Y-146940000D01*
X143185000Y-146940000D01*
X143185000Y-147990000D01*
X142685000Y-147990000D01*
X142685000Y-146940000D01*
X141635028Y-146940000D01*
X141635012Y-146940001D01*
X141532302Y-146950494D01*
X141365880Y-147005641D01*
X141365875Y-147005643D01*
X141216654Y-147097684D01*
X141092684Y-147221654D01*
X141000643Y-147370875D01*
X141000641Y-147370880D01*
X140945494Y-147537302D01*
X140945493Y-147537309D01*
X140935000Y-147640013D01*
X140534998Y-147640013D01*
X140534998Y-147640012D01*
X140524505Y-147537302D01*
X140469358Y-147370880D01*
X140469356Y-147370875D01*
X140377315Y-147221654D01*
X140253345Y-147097684D01*
X140104124Y-147005643D01*
X140104119Y-147005641D01*
X139937697Y-146950494D01*
X139937690Y-146950493D01*
X139834986Y-146940000D01*
X138785000Y-146940000D01*
X138785000Y-147990000D01*
X138285000Y-147990000D01*
X138285000Y-146940000D01*
X137235028Y-146940000D01*
X137235012Y-146940001D01*
X137132302Y-146950494D01*
X136965880Y-147005641D01*
X136965875Y-147005643D01*
X136816654Y-147097684D01*
X136692684Y-147221654D01*
X136600643Y-147370875D01*
X136600641Y-147370880D01*
X136545494Y-147537302D01*
X136545493Y-147537309D01*
X136535000Y-147640013D01*
X106680000Y-147640013D01*
X106680000Y-146442155D01*
X168510000Y-146442155D01*
X168510000Y-147990000D01*
X170260000Y-147990000D01*
X170260000Y-148490000D01*
X168510000Y-148490000D01*
X168510000Y-150037844D01*
X168516401Y-150097372D01*
X168516403Y-150097379D01*
X168566645Y-150232086D01*
X168566649Y-150232093D01*
X168652809Y-150347187D01*
X168652812Y-150347190D01*
X168767906Y-150433350D01*
X168767913Y-150433354D01*
X168902620Y-150483596D01*
X168902627Y-150483598D01*
X168962155Y-150489999D01*
X168962172Y-150490000D01*
X170510000Y-150490000D01*
X170510000Y-149673012D01*
X170567007Y-149705925D01*
X170694174Y-149740000D01*
X170825826Y-149740000D01*
X170952993Y-149705925D01*
X171010000Y-149673012D01*
X171010000Y-150490000D01*
X172557828Y-150490000D01*
X172557844Y-150489999D01*
X172617372Y-150483598D01*
X172617379Y-150483596D01*
X172752086Y-150433354D01*
X172752093Y-150433350D01*
X172867187Y-150347190D01*
X172867190Y-150347187D01*
X172953350Y-150232093D01*
X172953354Y-150232086D01*
X173003596Y-150097379D01*
X173003598Y-150097372D01*
X173009999Y-150037844D01*
X173010000Y-150037827D01*
X173010000Y-148490000D01*
X171260000Y-148490000D01*
X171260000Y-147990000D01*
X173010000Y-147990000D01*
X173010000Y-147175803D01*
X174760000Y-147175803D01*
X174760000Y-147990000D01*
X176260000Y-147990000D01*
X176260000Y-148490000D01*
X174760001Y-148490000D01*
X174760001Y-149304197D01*
X174770400Y-149436332D01*
X174825377Y-149654519D01*
X174918428Y-149859374D01*
X174918431Y-149859380D01*
X175046559Y-150044323D01*
X175046569Y-150044335D01*
X175205664Y-150203430D01*
X175205676Y-150203440D01*
X175390619Y-150331568D01*
X175390623Y-150331570D01*
X175417982Y-150343997D01*
X175470880Y-150389643D01*
X175490703Y-150456642D01*
X175471156Y-150523721D01*
X175437919Y-150552640D01*
X175435974Y-150562421D01*
X175760000Y-150886446D01*
X175760001Y-150886446D01*
X176126581Y-150519864D01*
X176187904Y-150486379D01*
X176214262Y-150483545D01*
X176305736Y-150483545D01*
X176316544Y-150486718D01*
X176327746Y-150485514D01*
X176349469Y-150496386D01*
X176372775Y-150503230D01*
X176380151Y-150511743D01*
X176390227Y-150516786D01*
X176393417Y-150519864D01*
X176760000Y-150886446D01*
X176760001Y-150886446D01*
X177126581Y-150519864D01*
X177187904Y-150486379D01*
X177238522Y-150489999D01*
X177574182Y-150489999D01*
X177574197Y-150489998D01*
X177706332Y-150479599D01*
X177924519Y-150424622D01*
X178129374Y-150331571D01*
X178129380Y-150331568D01*
X178314323Y-150203440D01*
X178314335Y-150203430D01*
X178473430Y-150044335D01*
X178473440Y-150044323D01*
X178601568Y-149859380D01*
X178601571Y-149859374D01*
X178694622Y-149654519D01*
X178749599Y-149436332D01*
X178759999Y-149304196D01*
X178760000Y-149304184D01*
X178760000Y-148490000D01*
X177260000Y-148490000D01*
X177260000Y-147990000D01*
X178759999Y-147990000D01*
X178759999Y-147175817D01*
X178759998Y-147175802D01*
X178749599Y-147043667D01*
X178694622Y-146825480D01*
X178601571Y-146620625D01*
X178601568Y-146620619D01*
X178473440Y-146435676D01*
X178473430Y-146435664D01*
X178314335Y-146276569D01*
X178314323Y-146276559D01*
X178129380Y-146148431D01*
X178129374Y-146148428D01*
X177924519Y-146055377D01*
X177706332Y-146000400D01*
X177574196Y-145990000D01*
X177010000Y-145990000D01*
X177010000Y-146806988D01*
X176952993Y-146774075D01*
X176825826Y-146740000D01*
X176694174Y-146740000D01*
X176567007Y-146774075D01*
X176510000Y-146806988D01*
X176510000Y-145990000D01*
X175945817Y-145990000D01*
X175945802Y-145990001D01*
X175813667Y-146000400D01*
X175595480Y-146055377D01*
X175390625Y-146148428D01*
X175390619Y-146148431D01*
X175205676Y-146276559D01*
X175205664Y-146276569D01*
X175046569Y-146435664D01*
X175046559Y-146435676D01*
X174918431Y-146620619D01*
X174918428Y-146620625D01*
X174825377Y-146825480D01*
X174770400Y-147043667D01*
X174760000Y-147175803D01*
X173010000Y-147175803D01*
X173010000Y-146442172D01*
X173009999Y-146442155D01*
X173003598Y-146382627D01*
X173003596Y-146382620D01*
X172953354Y-146247913D01*
X172953350Y-146247906D01*
X172867190Y-146132812D01*
X172867187Y-146132809D01*
X172752093Y-146046649D01*
X172752087Y-146046646D01*
X172701825Y-146027899D01*
X172645891Y-145986027D01*
X172621475Y-145920562D01*
X172636327Y-145852289D01*
X172685733Y-145802884D01*
X172751740Y-145787892D01*
X172791404Y-145789999D01*
X173509999Y-145789999D01*
X173510000Y-145789998D01*
X173510000Y-144040000D01*
X174010000Y-144040000D01*
X174010000Y-145789999D01*
X174728576Y-145789999D01*
X174728588Y-145789998D01*
X174781191Y-145787205D01*
X175010987Y-145742762D01*
X175229975Y-145660120D01*
X175431841Y-145541660D01*
X175431848Y-145541655D01*
X175610786Y-145390788D01*
X175610788Y-145390786D01*
X175761655Y-145211848D01*
X175761660Y-145211841D01*
X175880120Y-145009975D01*
X175962762Y-144790987D01*
X176007205Y-144561191D01*
X176007205Y-144561190D01*
X176009998Y-144508617D01*
X176010000Y-144508578D01*
X176010000Y-143790000D01*
X175193012Y-143790000D01*
X175225925Y-143732993D01*
X175260000Y-143605826D01*
X175260000Y-143474174D01*
X175225925Y-143347007D01*
X175193012Y-143290000D01*
X176009999Y-143290000D01*
X176009999Y-142571423D01*
X176009998Y-142571411D01*
X176007205Y-142518808D01*
X175962762Y-142289012D01*
X175880120Y-142070024D01*
X175761660Y-141868158D01*
X175761655Y-141868151D01*
X175610788Y-141689213D01*
X175610786Y-141689211D01*
X175431848Y-141538344D01*
X175431841Y-141538339D01*
X175229975Y-141419879D01*
X175010987Y-141337237D01*
X174781190Y-141292794D01*
X174728617Y-141290001D01*
X174728579Y-141290000D01*
X174010000Y-141290000D01*
X174010000Y-143040000D01*
X173510000Y-143040000D01*
X173510000Y-141290000D01*
X172791423Y-141290000D01*
X172791411Y-141290001D01*
X172738808Y-141292794D01*
X172509012Y-141337237D01*
X172290024Y-141419879D01*
X172088158Y-141538339D01*
X172088151Y-141538344D01*
X171909213Y-141689211D01*
X171909211Y-141689213D01*
X171758344Y-141868151D01*
X171758339Y-141868158D01*
X171639875Y-142070031D01*
X171638942Y-142071985D01*
X171638327Y-142072669D01*
X171637213Y-142074569D01*
X171636826Y-142074342D01*
X171592271Y-142123981D01*
X171524898Y-142142491D01*
X171458213Y-142121638D01*
X171413388Y-142068042D01*
X171405447Y-142042698D01*
X171401178Y-142021235D01*
X171357577Y-141915975D01*
X171033554Y-142239999D01*
X171033554Y-142240001D01*
X171357576Y-142564023D01*
X171361807Y-142563182D01*
X171431399Y-142569409D01*
X171486577Y-142612271D01*
X171509822Y-142678160D01*
X171510000Y-142684799D01*
X171510000Y-143290000D01*
X172326988Y-143290000D01*
X172294075Y-143347007D01*
X172260000Y-143474174D01*
X172260000Y-143605826D01*
X172294075Y-143732993D01*
X172326988Y-143790000D01*
X171510001Y-143790000D01*
X171510001Y-144508588D01*
X171512794Y-144561191D01*
X171557237Y-144790987D01*
X171639879Y-145009975D01*
X171758339Y-145211841D01*
X171758344Y-145211848D01*
X171909211Y-145390786D01*
X171909213Y-145390788D01*
X172088151Y-145541655D01*
X172088158Y-145541660D01*
X172290024Y-145660120D01*
X172509012Y-145742762D01*
X172516735Y-145744256D01*
X172578817Y-145776313D01*
X172613713Y-145836844D01*
X172610343Y-145906633D01*
X172569777Y-145963520D01*
X172504896Y-145989446D01*
X172493189Y-145990000D01*
X171010000Y-145990000D01*
X171010000Y-146806988D01*
X170952993Y-146774075D01*
X170825826Y-146740000D01*
X170694174Y-146740000D01*
X170567007Y-146774075D01*
X170510000Y-146806988D01*
X170510000Y-145990000D01*
X168962155Y-145990000D01*
X168902627Y-145996401D01*
X168902620Y-145996403D01*
X168767913Y-146046645D01*
X168767906Y-146046649D01*
X168652812Y-146132809D01*
X168652809Y-146132812D01*
X168566649Y-146247906D01*
X168566645Y-146247913D01*
X168516403Y-146382620D01*
X168516401Y-146382627D01*
X168510000Y-146442155D01*
X106680000Y-146442155D01*
X106680000Y-142782658D01*
X117250893Y-142782658D01*
X117333828Y-142842914D01*
X117544197Y-142950102D01*
X117768752Y-143023065D01*
X117768751Y-143023065D01*
X118001948Y-143060000D01*
X118238052Y-143060000D01*
X118471247Y-143023065D01*
X118695802Y-142950102D01*
X118906163Y-142842918D01*
X118906169Y-142842914D01*
X118989104Y-142782658D01*
X118989105Y-142782658D01*
X119790893Y-142782658D01*
X119873828Y-142842914D01*
X120084197Y-142950102D01*
X120308752Y-143023065D01*
X120308751Y-143023065D01*
X120541948Y-143060000D01*
X120778052Y-143060000D01*
X121011247Y-143023065D01*
X121235802Y-142950102D01*
X121446171Y-142842914D01*
X121570396Y-142752659D01*
X121636202Y-142729179D01*
X121704256Y-142745004D01*
X121752246Y-142794385D01*
X121752396Y-142794304D01*
X121752688Y-142794840D01*
X121752951Y-142795110D01*
X121753478Y-142796286D01*
X121756649Y-142802093D01*
X121842809Y-142917187D01*
X121842812Y-142917190D01*
X121957906Y-143003350D01*
X121957913Y-143003354D01*
X122092620Y-143053596D01*
X122092627Y-143053598D01*
X122152155Y-143059999D01*
X122152172Y-143060000D01*
X122950000Y-143060000D01*
X123450000Y-143060000D01*
X124247828Y-143060000D01*
X124247844Y-143059999D01*
X124307372Y-143053598D01*
X124307379Y-143053596D01*
X124442086Y-143003354D01*
X124442093Y-143003350D01*
X124556670Y-142917577D01*
X169355975Y-142917577D01*
X169461236Y-142961178D01*
X169461240Y-142961179D01*
X169606126Y-142989999D01*
X169606129Y-142990000D01*
X169753871Y-142990000D01*
X169753873Y-142989999D01*
X169898760Y-142961179D01*
X169898775Y-142961175D01*
X170004024Y-142917578D01*
X170004024Y-142917577D01*
X170355975Y-142917577D01*
X170461236Y-142961178D01*
X170461240Y-142961179D01*
X170606126Y-142989999D01*
X170606129Y-142990000D01*
X170753871Y-142990000D01*
X170753873Y-142989999D01*
X170898760Y-142961179D01*
X170898775Y-142961175D01*
X171004024Y-142917578D01*
X171004024Y-142917577D01*
X170680001Y-142593554D01*
X170680000Y-142593554D01*
X170355975Y-142917577D01*
X170004024Y-142917577D01*
X169680001Y-142593554D01*
X169680000Y-142593554D01*
X169355975Y-142917577D01*
X124556670Y-142917577D01*
X124557187Y-142917190D01*
X124557190Y-142917187D01*
X124643082Y-142802452D01*
X124643082Y-142802451D01*
X124643083Y-142802450D01*
X124643352Y-142802090D01*
X124643354Y-142802086D01*
X124693596Y-142667379D01*
X124693598Y-142667372D01*
X124699999Y-142607844D01*
X124700000Y-142607827D01*
X124700000Y-142166126D01*
X168930000Y-142166126D01*
X168930000Y-142313873D01*
X168958820Y-142458759D01*
X168958822Y-142458767D01*
X169002421Y-142564024D01*
X169326446Y-142240000D01*
X170033554Y-142240000D01*
X170180000Y-142386446D01*
X170326446Y-142240000D01*
X170180000Y-142093554D01*
X170033554Y-142240000D01*
X169326446Y-142240000D01*
X169326446Y-142239999D01*
X169002421Y-141915974D01*
X169002420Y-141915974D01*
X168958823Y-142021228D01*
X168958820Y-142021240D01*
X168930000Y-142166126D01*
X124700000Y-142166126D01*
X124700000Y-141810000D01*
X123450000Y-141810000D01*
X123450000Y-143060000D01*
X122950000Y-143060000D01*
X122950000Y-141804975D01*
X122985095Y-141840070D01*
X123064905Y-141886148D01*
X123153922Y-141910000D01*
X123246078Y-141910000D01*
X123335095Y-141886148D01*
X123414905Y-141840070D01*
X123480070Y-141774905D01*
X123526148Y-141695095D01*
X123550000Y-141606078D01*
X123550000Y-141562420D01*
X169355974Y-141562420D01*
X169355974Y-141562421D01*
X169680000Y-141886446D01*
X169680001Y-141886446D01*
X170004024Y-141562421D01*
X170004022Y-141562420D01*
X170355974Y-141562420D01*
X170355974Y-141562421D01*
X170680000Y-141886446D01*
X170680001Y-141886446D01*
X171004024Y-141562421D01*
X170898767Y-141518822D01*
X170898759Y-141518820D01*
X170753872Y-141490000D01*
X170606128Y-141490000D01*
X170461240Y-141518820D01*
X170461228Y-141518823D01*
X170355974Y-141562420D01*
X170004022Y-141562420D01*
X169898767Y-141518822D01*
X169898759Y-141518820D01*
X169753872Y-141490000D01*
X169606128Y-141490000D01*
X169461240Y-141518820D01*
X169461228Y-141518823D01*
X169355974Y-141562420D01*
X123550000Y-141562420D01*
X123550000Y-141513922D01*
X123526148Y-141424905D01*
X123480070Y-141345095D01*
X123444975Y-141310000D01*
X123450000Y-141310000D01*
X124700000Y-141310000D01*
X124700000Y-140512172D01*
X124699999Y-140512155D01*
X124693598Y-140452627D01*
X124693596Y-140452620D01*
X124643354Y-140317913D01*
X124643350Y-140317906D01*
X124557190Y-140202812D01*
X124557187Y-140202809D01*
X124442093Y-140116649D01*
X124442086Y-140116645D01*
X124307379Y-140066403D01*
X124307372Y-140066401D01*
X124247844Y-140060000D01*
X123450000Y-140060000D01*
X123450000Y-141310000D01*
X123444975Y-141310000D01*
X123414905Y-141279930D01*
X123335095Y-141233852D01*
X123246078Y-141210000D01*
X123153922Y-141210000D01*
X123064905Y-141233852D01*
X122985095Y-141279930D01*
X122950000Y-141315025D01*
X122950000Y-140060000D01*
X122152155Y-140060000D01*
X122092627Y-140066401D01*
X122092620Y-140066403D01*
X121957913Y-140116645D01*
X121957906Y-140116649D01*
X121842812Y-140202809D01*
X121842809Y-140202812D01*
X121756649Y-140317906D01*
X121752396Y-140325696D01*
X121749275Y-140323992D01*
X121717503Y-140366356D01*
X121652017Y-140390714D01*
X121583757Y-140375801D01*
X121570397Y-140367340D01*
X121446174Y-140277087D01*
X121235802Y-140169897D01*
X121011247Y-140096934D01*
X121011248Y-140096934D01*
X120778052Y-140060000D01*
X120541948Y-140060000D01*
X120308752Y-140096934D01*
X120084197Y-140169897D01*
X119873830Y-140277084D01*
X119790894Y-140337340D01*
X120663554Y-141210000D01*
X120613922Y-141210000D01*
X120524905Y-141233852D01*
X120445095Y-141279930D01*
X120379930Y-141345095D01*
X120333852Y-141424905D01*
X120310000Y-141513922D01*
X120310000Y-141606078D01*
X120333852Y-141695095D01*
X120379930Y-141774905D01*
X120445095Y-141840070D01*
X120524905Y-141886148D01*
X120613922Y-141910000D01*
X120663552Y-141910000D01*
X119790893Y-142782658D01*
X118989105Y-142782658D01*
X118120000Y-141913554D01*
X117250893Y-142782658D01*
X106680000Y-142782658D01*
X106680000Y-141441947D01*
X116620000Y-141441947D01*
X116620000Y-141678052D01*
X116656934Y-141911247D01*
X116729897Y-142135802D01*
X116837087Y-142346174D01*
X116897338Y-142429104D01*
X116897340Y-142429105D01*
X117766446Y-141560000D01*
X117720368Y-141513922D01*
X117770000Y-141513922D01*
X117770000Y-141606078D01*
X117793852Y-141695095D01*
X117839930Y-141774905D01*
X117905095Y-141840070D01*
X117984905Y-141886148D01*
X118073922Y-141910000D01*
X118166078Y-141910000D01*
X118255095Y-141886148D01*
X118334905Y-141840070D01*
X118400070Y-141774905D01*
X118446148Y-141695095D01*
X118470000Y-141606078D01*
X118470000Y-141559999D01*
X118473554Y-141559999D01*
X118473554Y-141560001D01*
X119342657Y-142429104D01*
X119380275Y-142426144D01*
X119399735Y-142426144D01*
X119437340Y-142429104D01*
X120306446Y-141560000D01*
X119437340Y-140690894D01*
X119399733Y-140693854D01*
X119380276Y-140693854D01*
X119342658Y-140690893D01*
X118473554Y-141559999D01*
X118470000Y-141559999D01*
X118470000Y-141513922D01*
X118446148Y-141424905D01*
X118400070Y-141345095D01*
X118334905Y-141279930D01*
X118255095Y-141233852D01*
X118166078Y-141210000D01*
X118073922Y-141210000D01*
X117984905Y-141233852D01*
X117905095Y-141279930D01*
X117839930Y-141345095D01*
X117793852Y-141424905D01*
X117770000Y-141513922D01*
X117720368Y-141513922D01*
X116897340Y-140690894D01*
X116837084Y-140773830D01*
X116729897Y-140984197D01*
X116656934Y-141208752D01*
X116620000Y-141441947D01*
X106680000Y-141441947D01*
X106680000Y-140337340D01*
X117250894Y-140337340D01*
X118120000Y-141206446D01*
X118120001Y-141206446D01*
X118989105Y-140337340D01*
X118989104Y-140337339D01*
X118906174Y-140277087D01*
X118695802Y-140169897D01*
X118471247Y-140096934D01*
X118471248Y-140096934D01*
X118238052Y-140060000D01*
X118001948Y-140060000D01*
X117768752Y-140096934D01*
X117544197Y-140169897D01*
X117333830Y-140277084D01*
X117250894Y-140337340D01*
X106680000Y-140337340D01*
X106680000Y-134501947D01*
X138200000Y-134501947D01*
X138200000Y-134738052D01*
X138236934Y-134971247D01*
X138309897Y-135195802D01*
X138417087Y-135406174D01*
X138477338Y-135489104D01*
X138477340Y-135489105D01*
X139217037Y-134749408D01*
X139234075Y-134812993D01*
X139299901Y-134927007D01*
X139392993Y-135020099D01*
X139507007Y-135085925D01*
X139570589Y-135102962D01*
X138830893Y-135842658D01*
X138913828Y-135902914D01*
X139124197Y-136010102D01*
X139348752Y-136083065D01*
X139348751Y-136083065D01*
X139581948Y-136120000D01*
X139818052Y-136120000D01*
X140051247Y-136083065D01*
X140275802Y-136010102D01*
X140486171Y-135902914D01*
X140610396Y-135812659D01*
X140676202Y-135789179D01*
X140744256Y-135805004D01*
X140792246Y-135854385D01*
X140792396Y-135854304D01*
X140792688Y-135854840D01*
X140792951Y-135855110D01*
X140793478Y-135856286D01*
X140796649Y-135862093D01*
X140882809Y-135977187D01*
X140882812Y-135977190D01*
X140997906Y-136063350D01*
X140997913Y-136063354D01*
X141132620Y-136113596D01*
X141132627Y-136113598D01*
X141192155Y-136119999D01*
X141192172Y-136120000D01*
X141990000Y-136120000D01*
X141990000Y-135053012D01*
X142047007Y-135085925D01*
X142174174Y-135120000D01*
X142305826Y-135120000D01*
X142432993Y-135085925D01*
X142490000Y-135053012D01*
X142490000Y-136120000D01*
X143287828Y-136120000D01*
X143287844Y-136119999D01*
X143347372Y-136113598D01*
X143347379Y-136113596D01*
X143482086Y-136063354D01*
X143482093Y-136063350D01*
X143597187Y-135977190D01*
X143597190Y-135977187D01*
X143683350Y-135862093D01*
X143687604Y-135854304D01*
X143690883Y-135856094D01*
X143722118Y-135814276D01*
X143787556Y-135789789D01*
X143855845Y-135804566D01*
X143869410Y-135813137D01*
X143993567Y-135903343D01*
X144092991Y-135954002D01*
X144204003Y-136010566D01*
X144204005Y-136010566D01*
X144204008Y-136010568D01*
X144324412Y-136049689D01*
X144428631Y-136083553D01*
X144661903Y-136120500D01*
X144661908Y-136120500D01*
X144898097Y-136120500D01*
X145131368Y-136083553D01*
X145132870Y-136083065D01*
X145355992Y-136010568D01*
X145566433Y-135903343D01*
X145757510Y-135764517D01*
X145924517Y-135597510D01*
X145971370Y-135533022D01*
X145975713Y-135528199D01*
X146000150Y-135513142D01*
X146022877Y-135495618D01*
X146030393Y-135494509D01*
X146035199Y-135491549D01*
X146048730Y-135491806D01*
X146077594Y-135487551D01*
X146097340Y-135489105D01*
X146837037Y-134749408D01*
X146854075Y-134812993D01*
X146919901Y-134927007D01*
X147012993Y-135020099D01*
X147127007Y-135085925D01*
X147190590Y-135102962D01*
X146450893Y-135842658D01*
X146533828Y-135902914D01*
X146744197Y-136010102D01*
X146968752Y-136083065D01*
X146968751Y-136083065D01*
X147201948Y-136120000D01*
X147438052Y-136120000D01*
X147671247Y-136083065D01*
X147895802Y-136010102D01*
X148106163Y-135902918D01*
X148106169Y-135902914D01*
X148189104Y-135842658D01*
X148189105Y-135842658D01*
X147449408Y-135102962D01*
X147512993Y-135085925D01*
X147627007Y-135020099D01*
X147720099Y-134927007D01*
X147785925Y-134812993D01*
X147802962Y-134749409D01*
X148542657Y-135489104D01*
X148562404Y-135487550D01*
X148630781Y-135501914D01*
X148672451Y-135538282D01*
X148715483Y-135597510D01*
X148882490Y-135764517D01*
X149073567Y-135903343D01*
X149172991Y-135954002D01*
X149284003Y-136010566D01*
X149284005Y-136010566D01*
X149284008Y-136010568D01*
X149404412Y-136049689D01*
X149508631Y-136083553D01*
X149741903Y-136120500D01*
X149741908Y-136120500D01*
X149978097Y-136120500D01*
X150211368Y-136083553D01*
X150212870Y-136083065D01*
X150435992Y-136010568D01*
X150646433Y-135903343D01*
X150837510Y-135764517D01*
X151004517Y-135597510D01*
X151051370Y-135533022D01*
X151055713Y-135528199D01*
X151080150Y-135513142D01*
X151102877Y-135495618D01*
X151110393Y-135494509D01*
X151115199Y-135491549D01*
X151128730Y-135491806D01*
X151157594Y-135487551D01*
X151177340Y-135489105D01*
X151917037Y-134749408D01*
X151934075Y-134812993D01*
X151999901Y-134927007D01*
X152092993Y-135020099D01*
X152207007Y-135085925D01*
X152270590Y-135102962D01*
X151530893Y-135842658D01*
X151613828Y-135902914D01*
X151824197Y-136010102D01*
X152048752Y-136083065D01*
X152048751Y-136083065D01*
X152281948Y-136120000D01*
X152518052Y-136120000D01*
X152751247Y-136083065D01*
X152975802Y-136010102D01*
X153186163Y-135902918D01*
X153186169Y-135902914D01*
X153269104Y-135842658D01*
X153269105Y-135842658D01*
X152529408Y-135102962D01*
X152592993Y-135085925D01*
X152707007Y-135020099D01*
X152800099Y-134927007D01*
X152865925Y-134812993D01*
X152882962Y-134749409D01*
X153622657Y-135489104D01*
X153642404Y-135487550D01*
X153710781Y-135501914D01*
X153752451Y-135538282D01*
X153795483Y-135597510D01*
X153962490Y-135764517D01*
X154153567Y-135903343D01*
X154252991Y-135954002D01*
X154364003Y-136010566D01*
X154364005Y-136010566D01*
X154364008Y-136010568D01*
X154484412Y-136049689D01*
X154588631Y-136083553D01*
X154821903Y-136120500D01*
X154821908Y-136120500D01*
X155058097Y-136120500D01*
X155291368Y-136083553D01*
X155292870Y-136083065D01*
X155515992Y-136010568D01*
X155726433Y-135903343D01*
X155917510Y-135764517D01*
X156084517Y-135597510D01*
X156131370Y-135533022D01*
X156135713Y-135528199D01*
X156160150Y-135513142D01*
X156182877Y-135495618D01*
X156190393Y-135494509D01*
X156195199Y-135491549D01*
X156208730Y-135491806D01*
X156237594Y-135487551D01*
X156257340Y-135489105D01*
X156997037Y-134749408D01*
X157014075Y-134812993D01*
X157079901Y-134927007D01*
X157172993Y-135020099D01*
X157287007Y-135085925D01*
X157350590Y-135102962D01*
X156610893Y-135842658D01*
X156693828Y-135902914D01*
X156904197Y-136010102D01*
X157128752Y-136083065D01*
X157128751Y-136083065D01*
X157361948Y-136120000D01*
X157598052Y-136120000D01*
X157831247Y-136083065D01*
X158055802Y-136010102D01*
X158266163Y-135902918D01*
X158266169Y-135902914D01*
X158349104Y-135842658D01*
X158349105Y-135842658D01*
X157609408Y-135102962D01*
X157672993Y-135085925D01*
X157787007Y-135020099D01*
X157880099Y-134927007D01*
X157945925Y-134812993D01*
X157962962Y-134749409D01*
X158702657Y-135489104D01*
X158722404Y-135487550D01*
X158790781Y-135501914D01*
X158832451Y-135538282D01*
X158875483Y-135597510D01*
X159042490Y-135764517D01*
X159233567Y-135903343D01*
X159332991Y-135954002D01*
X159444003Y-136010566D01*
X159444005Y-136010566D01*
X159444008Y-136010568D01*
X159564412Y-136049689D01*
X159668631Y-136083553D01*
X159901903Y-136120500D01*
X159901908Y-136120500D01*
X160138097Y-136120500D01*
X160371368Y-136083553D01*
X160372870Y-136083065D01*
X160595992Y-136010568D01*
X160806433Y-135903343D01*
X160997510Y-135764517D01*
X161164517Y-135597510D01*
X161189682Y-135562872D01*
X161245011Y-135520207D01*
X161314625Y-135514228D01*
X161376420Y-135546833D01*
X161390315Y-135562870D01*
X161415483Y-135597510D01*
X161582490Y-135764517D01*
X161773567Y-135903343D01*
X161872991Y-135954002D01*
X161984003Y-136010566D01*
X161984005Y-136010566D01*
X161984008Y-136010568D01*
X162104412Y-136049689D01*
X162208631Y-136083553D01*
X162441903Y-136120500D01*
X162441908Y-136120500D01*
X162678097Y-136120500D01*
X162911368Y-136083553D01*
X162912870Y-136083065D01*
X163135992Y-136010568D01*
X163346433Y-135903343D01*
X163537510Y-135764517D01*
X163704517Y-135597510D01*
X163729682Y-135562872D01*
X163785011Y-135520207D01*
X163854625Y-135514228D01*
X163916420Y-135546833D01*
X163930315Y-135562870D01*
X163955483Y-135597510D01*
X164122490Y-135764517D01*
X164313567Y-135903343D01*
X164412991Y-135954002D01*
X164524003Y-136010566D01*
X164524005Y-136010566D01*
X164524008Y-136010568D01*
X164644412Y-136049689D01*
X164748631Y-136083553D01*
X164981903Y-136120500D01*
X164981908Y-136120500D01*
X165218097Y-136120500D01*
X165451368Y-136083553D01*
X165452870Y-136083065D01*
X165675992Y-136010568D01*
X165886433Y-135903343D01*
X166077510Y-135764517D01*
X166244517Y-135597510D01*
X166269682Y-135562872D01*
X166325011Y-135520207D01*
X166394625Y-135514228D01*
X166456420Y-135546833D01*
X166470315Y-135562870D01*
X166495483Y-135597510D01*
X166662490Y-135764517D01*
X166853567Y-135903343D01*
X166952991Y-135954002D01*
X167064003Y-136010566D01*
X167064005Y-136010566D01*
X167064008Y-136010568D01*
X167184412Y-136049689D01*
X167288631Y-136083553D01*
X167521903Y-136120500D01*
X167521908Y-136120500D01*
X167758097Y-136120500D01*
X167991368Y-136083553D01*
X167992870Y-136083065D01*
X168215992Y-136010568D01*
X168426433Y-135903343D01*
X168617510Y-135764517D01*
X168784517Y-135597510D01*
X168809682Y-135562872D01*
X168865011Y-135520207D01*
X168934625Y-135514228D01*
X168996420Y-135546833D01*
X169010315Y-135562870D01*
X169035483Y-135597510D01*
X169202490Y-135764517D01*
X169393567Y-135903343D01*
X169492991Y-135954002D01*
X169604003Y-136010566D01*
X169604005Y-136010566D01*
X169604008Y-136010568D01*
X169724412Y-136049689D01*
X169828631Y-136083553D01*
X170061903Y-136120500D01*
X170061908Y-136120500D01*
X170298097Y-136120500D01*
X170531368Y-136083553D01*
X170532870Y-136083065D01*
X170755992Y-136010568D01*
X170966433Y-135903343D01*
X171157510Y-135764517D01*
X171324517Y-135597510D01*
X171349682Y-135562872D01*
X171405011Y-135520207D01*
X171474625Y-135514228D01*
X171536420Y-135546833D01*
X171550315Y-135562870D01*
X171575483Y-135597510D01*
X171742490Y-135764517D01*
X171933567Y-135903343D01*
X172032991Y-135954002D01*
X172144003Y-136010566D01*
X172144005Y-136010566D01*
X172144008Y-136010568D01*
X172264412Y-136049689D01*
X172368631Y-136083553D01*
X172601903Y-136120500D01*
X172601908Y-136120500D01*
X172838097Y-136120500D01*
X173071368Y-136083553D01*
X173072870Y-136083065D01*
X173295992Y-136010568D01*
X173506433Y-135903343D01*
X173630579Y-135813145D01*
X173696383Y-135789665D01*
X173764437Y-135805490D01*
X173812057Y-135854489D01*
X173812396Y-135854304D01*
X173813061Y-135855522D01*
X173813132Y-135855595D01*
X173813276Y-135855916D01*
X173816649Y-135862093D01*
X173902809Y-135977187D01*
X173902812Y-135977190D01*
X174017906Y-136063350D01*
X174017913Y-136063354D01*
X174152620Y-136113596D01*
X174152627Y-136113598D01*
X174212155Y-136119999D01*
X174212172Y-136120000D01*
X175010000Y-136120000D01*
X175010000Y-135053012D01*
X175067007Y-135085925D01*
X175194174Y-135120000D01*
X175325826Y-135120000D01*
X175452993Y-135085925D01*
X175510000Y-135053012D01*
X175510000Y-136120000D01*
X176307828Y-136120000D01*
X176307844Y-136119999D01*
X176367372Y-136113598D01*
X176367379Y-136113596D01*
X176502086Y-136063354D01*
X176502093Y-136063350D01*
X176617187Y-135977190D01*
X176617190Y-135977187D01*
X176703350Y-135862093D01*
X176703354Y-135862086D01*
X176753596Y-135727379D01*
X176753598Y-135727372D01*
X176759999Y-135667844D01*
X176760000Y-135667827D01*
X176760000Y-134870000D01*
X175693012Y-134870000D01*
X175725925Y-134812993D01*
X175760000Y-134685826D01*
X175760000Y-134554174D01*
X175725925Y-134427007D01*
X175693012Y-134370000D01*
X176760000Y-134370000D01*
X176760000Y-133572172D01*
X176759999Y-133572155D01*
X176753598Y-133512627D01*
X176753596Y-133512620D01*
X176703354Y-133377913D01*
X176703350Y-133377906D01*
X176617190Y-133262812D01*
X176617187Y-133262809D01*
X176502093Y-133176649D01*
X176502086Y-133176645D01*
X176367379Y-133126403D01*
X176367372Y-133126401D01*
X176307844Y-133120000D01*
X175510000Y-133120000D01*
X175510000Y-134186988D01*
X175452993Y-134154075D01*
X175325826Y-134120000D01*
X175194174Y-134120000D01*
X175067007Y-134154075D01*
X175010000Y-134186988D01*
X175010000Y-133120000D01*
X174212155Y-133120000D01*
X174152627Y-133126401D01*
X174152620Y-133126403D01*
X174017913Y-133176645D01*
X174017906Y-133176649D01*
X173902812Y-133262809D01*
X173902809Y-133262812D01*
X173816649Y-133377906D01*
X173812396Y-133385696D01*
X173809184Y-133383942D01*
X173777435Y-133426056D01*
X173711888Y-133450249D01*
X173643666Y-133435165D01*
X173630585Y-133426859D01*
X173506433Y-133336657D01*
X173295996Y-133229433D01*
X173071368Y-133156446D01*
X172838097Y-133119500D01*
X172838092Y-133119500D01*
X172601908Y-133119500D01*
X172601903Y-133119500D01*
X172368631Y-133156446D01*
X172144003Y-133229433D01*
X171933566Y-133336657D01*
X171850047Y-133397338D01*
X171742490Y-133475483D01*
X171742488Y-133475485D01*
X171742487Y-133475485D01*
X171575484Y-133642488D01*
X171550318Y-133677127D01*
X171494987Y-133719792D01*
X171425374Y-133725771D01*
X171363579Y-133693165D01*
X171349682Y-133677127D01*
X171324517Y-133642490D01*
X171157510Y-133475483D01*
X170966433Y-133336657D01*
X170755996Y-133229433D01*
X170531368Y-133156446D01*
X170298097Y-133119500D01*
X170298092Y-133119500D01*
X170061908Y-133119500D01*
X170061903Y-133119500D01*
X169828631Y-133156446D01*
X169604003Y-133229433D01*
X169393566Y-133336657D01*
X169310047Y-133397338D01*
X169202490Y-133475483D01*
X169202488Y-133475485D01*
X169202487Y-133475485D01*
X169035484Y-133642488D01*
X169010318Y-133677127D01*
X168954987Y-133719792D01*
X168885374Y-133725771D01*
X168823579Y-133693165D01*
X168809682Y-133677127D01*
X168784517Y-133642490D01*
X168617510Y-133475483D01*
X168426433Y-133336657D01*
X168215996Y-133229433D01*
X167991368Y-133156446D01*
X167758097Y-133119500D01*
X167758092Y-133119500D01*
X167521908Y-133119500D01*
X167521903Y-133119500D01*
X167288631Y-133156446D01*
X167064003Y-133229433D01*
X166853566Y-133336657D01*
X166770047Y-133397338D01*
X166662490Y-133475483D01*
X166662488Y-133475485D01*
X166662487Y-133475485D01*
X166495484Y-133642488D01*
X166470318Y-133677127D01*
X166414987Y-133719792D01*
X166345374Y-133725771D01*
X166283579Y-133693165D01*
X166269682Y-133677127D01*
X166244517Y-133642490D01*
X166077510Y-133475483D01*
X165886433Y-133336657D01*
X165675996Y-133229433D01*
X165451368Y-133156446D01*
X165218097Y-133119500D01*
X165218092Y-133119500D01*
X164981908Y-133119500D01*
X164981903Y-133119500D01*
X164748631Y-133156446D01*
X164524003Y-133229433D01*
X164313566Y-133336657D01*
X164230047Y-133397338D01*
X164122490Y-133475483D01*
X164122488Y-133475485D01*
X164122487Y-133475485D01*
X163955484Y-133642488D01*
X163930318Y-133677127D01*
X163874987Y-133719792D01*
X163805374Y-133725771D01*
X163743579Y-133693165D01*
X163729682Y-133677127D01*
X163704517Y-133642490D01*
X163537510Y-133475483D01*
X163346433Y-133336657D01*
X163135996Y-133229433D01*
X162911368Y-133156446D01*
X162678097Y-133119500D01*
X162678092Y-133119500D01*
X162441908Y-133119500D01*
X162441903Y-133119500D01*
X162208631Y-133156446D01*
X161984003Y-133229433D01*
X161773566Y-133336657D01*
X161690047Y-133397338D01*
X161582490Y-133475483D01*
X161582488Y-133475485D01*
X161582487Y-133475485D01*
X161415484Y-133642488D01*
X161390318Y-133677127D01*
X161334987Y-133719792D01*
X161265374Y-133725771D01*
X161203579Y-133693165D01*
X161189682Y-133677127D01*
X161164517Y-133642490D01*
X160997510Y-133475483D01*
X160806433Y-133336657D01*
X160595996Y-133229433D01*
X160371368Y-133156446D01*
X160138097Y-133119500D01*
X160138092Y-133119500D01*
X159901908Y-133119500D01*
X159901903Y-133119500D01*
X159668631Y-133156446D01*
X159444003Y-133229433D01*
X159233566Y-133336657D01*
X159150047Y-133397338D01*
X159042490Y-133475483D01*
X159042488Y-133475485D01*
X159042487Y-133475485D01*
X158875482Y-133642490D01*
X158832451Y-133701717D01*
X158777120Y-133744382D01*
X158722405Y-133752448D01*
X158702658Y-133750893D01*
X157962962Y-134490590D01*
X157945925Y-134427007D01*
X157880099Y-134312993D01*
X157787007Y-134219901D01*
X157672993Y-134154075D01*
X157609409Y-134137037D01*
X158349105Y-133397340D01*
X158349104Y-133397338D01*
X158266174Y-133337087D01*
X158055802Y-133229897D01*
X157831247Y-133156934D01*
X157831248Y-133156934D01*
X157598052Y-133120000D01*
X157361948Y-133120000D01*
X157128752Y-133156934D01*
X156904197Y-133229897D01*
X156693830Y-133337084D01*
X156610894Y-133397340D01*
X157350591Y-134137037D01*
X157287007Y-134154075D01*
X157172993Y-134219901D01*
X157079901Y-134312993D01*
X157014075Y-134427007D01*
X156997037Y-134490590D01*
X156257340Y-133750893D01*
X156237593Y-133752448D01*
X156233860Y-133751663D01*
X156230222Y-133752808D01*
X156199936Y-133744537D01*
X156169215Y-133738084D01*
X156165429Y-133735114D01*
X156162821Y-133734402D01*
X156153431Y-133725701D01*
X156135712Y-133711800D01*
X156131370Y-133706978D01*
X156084517Y-133642490D01*
X155917510Y-133475483D01*
X155726433Y-133336657D01*
X155515996Y-133229433D01*
X155291368Y-133156446D01*
X155058097Y-133119500D01*
X155058092Y-133119500D01*
X154821908Y-133119500D01*
X154821903Y-133119500D01*
X154588631Y-133156446D01*
X154364003Y-133229433D01*
X154153566Y-133336657D01*
X154070047Y-133397338D01*
X153962490Y-133475483D01*
X153962488Y-133475485D01*
X153962487Y-133475485D01*
X153795482Y-133642490D01*
X153752451Y-133701717D01*
X153697120Y-133744382D01*
X153642405Y-133752448D01*
X153622658Y-133750893D01*
X152882962Y-134490590D01*
X152865925Y-134427007D01*
X152800099Y-134312993D01*
X152707007Y-134219901D01*
X152592993Y-134154075D01*
X152529409Y-134137037D01*
X153269105Y-133397340D01*
X153269104Y-133397338D01*
X153186174Y-133337087D01*
X152975802Y-133229897D01*
X152751247Y-133156934D01*
X152751248Y-133156934D01*
X152518052Y-133120000D01*
X152281948Y-133120000D01*
X152048752Y-133156934D01*
X151824197Y-133229897D01*
X151613830Y-133337084D01*
X151530894Y-133397340D01*
X152270591Y-134137037D01*
X152207007Y-134154075D01*
X152092993Y-134219901D01*
X151999901Y-134312993D01*
X151934075Y-134427007D01*
X151917037Y-134490590D01*
X151177340Y-133750893D01*
X151157593Y-133752448D01*
X151153860Y-133751663D01*
X151150222Y-133752808D01*
X151119936Y-133744537D01*
X151089215Y-133738084D01*
X151085429Y-133735114D01*
X151082821Y-133734402D01*
X151073431Y-133725701D01*
X151055712Y-133711800D01*
X151051370Y-133706978D01*
X151004517Y-133642490D01*
X150837510Y-133475483D01*
X150646433Y-133336657D01*
X150435996Y-133229433D01*
X150211368Y-133156446D01*
X149978097Y-133119500D01*
X149978092Y-133119500D01*
X149741908Y-133119500D01*
X149741903Y-133119500D01*
X149508631Y-133156446D01*
X149284003Y-133229433D01*
X149073566Y-133336657D01*
X148990047Y-133397338D01*
X148882490Y-133475483D01*
X148882488Y-133475485D01*
X148882487Y-133475485D01*
X148715482Y-133642490D01*
X148672451Y-133701717D01*
X148617120Y-133744382D01*
X148562405Y-133752448D01*
X148542658Y-133750893D01*
X147802962Y-134490590D01*
X147785925Y-134427007D01*
X147720099Y-134312993D01*
X147627007Y-134219901D01*
X147512993Y-134154075D01*
X147449409Y-134137037D01*
X148189105Y-133397340D01*
X148189104Y-133397338D01*
X148106174Y-133337087D01*
X147895802Y-133229897D01*
X147671247Y-133156934D01*
X147671248Y-133156934D01*
X147438052Y-133120000D01*
X147201948Y-133120000D01*
X146968752Y-133156934D01*
X146744197Y-133229897D01*
X146533830Y-133337084D01*
X146450894Y-133397340D01*
X147190591Y-134137037D01*
X147127007Y-134154075D01*
X147012993Y-134219901D01*
X146919901Y-134312993D01*
X146854075Y-134427007D01*
X146837037Y-134490590D01*
X146097340Y-133750893D01*
X146077593Y-133752448D01*
X146073860Y-133751663D01*
X146070222Y-133752808D01*
X146039936Y-133744537D01*
X146009215Y-133738084D01*
X146005429Y-133735114D01*
X146002821Y-133734402D01*
X145993431Y-133725701D01*
X145975712Y-133711800D01*
X145971370Y-133706978D01*
X145924517Y-133642490D01*
X145757510Y-133475483D01*
X145566433Y-133336657D01*
X145355996Y-133229433D01*
X145131368Y-133156446D01*
X144898097Y-133119500D01*
X144898092Y-133119500D01*
X144661908Y-133119500D01*
X144661903Y-133119500D01*
X144428631Y-133156446D01*
X144204003Y-133229433D01*
X143993566Y-133336657D01*
X143869422Y-133426854D01*
X143803615Y-133450334D01*
X143735561Y-133434509D01*
X143687942Y-133385510D01*
X143687604Y-133385696D01*
X143686938Y-133384478D01*
X143686866Y-133384403D01*
X143686719Y-133384076D01*
X143683350Y-133377906D01*
X143597190Y-133262812D01*
X143597187Y-133262809D01*
X143482093Y-133176649D01*
X143482086Y-133176645D01*
X143347379Y-133126403D01*
X143347372Y-133126401D01*
X143287844Y-133120000D01*
X142490000Y-133120000D01*
X142490000Y-134186988D01*
X142432993Y-134154075D01*
X142305826Y-134120000D01*
X142174174Y-134120000D01*
X142047007Y-134154075D01*
X141990000Y-134186988D01*
X141990000Y-133120000D01*
X141192155Y-133120000D01*
X141132627Y-133126401D01*
X141132620Y-133126403D01*
X140997913Y-133176645D01*
X140997906Y-133176649D01*
X140882812Y-133262809D01*
X140882809Y-133262812D01*
X140796649Y-133377906D01*
X140792396Y-133385696D01*
X140789275Y-133383992D01*
X140757503Y-133426356D01*
X140692017Y-133450714D01*
X140623757Y-133435801D01*
X140610397Y-133427340D01*
X140486174Y-133337087D01*
X140275802Y-133229897D01*
X140051247Y-133156934D01*
X140051248Y-133156934D01*
X139818052Y-133120000D01*
X139581948Y-133120000D01*
X139348752Y-133156934D01*
X139124197Y-133229897D01*
X138913830Y-133337084D01*
X138830894Y-133397340D01*
X139570591Y-134137037D01*
X139507007Y-134154075D01*
X139392993Y-134219901D01*
X139299901Y-134312993D01*
X139234075Y-134427007D01*
X139217037Y-134490591D01*
X138477340Y-133750894D01*
X138417084Y-133833830D01*
X138309897Y-134044197D01*
X138236934Y-134268752D01*
X138200000Y-134501947D01*
X106680000Y-134501947D01*
X106680000Y-131999986D01*
X117525001Y-131999986D01*
X117535494Y-132102697D01*
X117590641Y-132269119D01*
X117590643Y-132269124D01*
X117682684Y-132418345D01*
X117806654Y-132542315D01*
X117955875Y-132634356D01*
X117955880Y-132634358D01*
X118122302Y-132689505D01*
X118122309Y-132689506D01*
X118225019Y-132699999D01*
X119274999Y-132699999D01*
X119775000Y-132699999D01*
X120824972Y-132699999D01*
X120824986Y-132699998D01*
X120927697Y-132689505D01*
X121094119Y-132634358D01*
X121094124Y-132634356D01*
X121243345Y-132542315D01*
X121367315Y-132418345D01*
X121459356Y-132269124D01*
X121459358Y-132269119D01*
X121514505Y-132102697D01*
X121514506Y-132102690D01*
X121524999Y-131999986D01*
X121925001Y-131999986D01*
X121935494Y-132102697D01*
X121990641Y-132269119D01*
X121990643Y-132269124D01*
X122082684Y-132418345D01*
X122206654Y-132542315D01*
X122355875Y-132634356D01*
X122355880Y-132634358D01*
X122522302Y-132689505D01*
X122522309Y-132689506D01*
X122625019Y-132699999D01*
X123674999Y-132699999D01*
X124175000Y-132699999D01*
X125224972Y-132699999D01*
X125224986Y-132699998D01*
X125327697Y-132689505D01*
X125494119Y-132634358D01*
X125494124Y-132634356D01*
X125643345Y-132542315D01*
X125767315Y-132418345D01*
X125859356Y-132269124D01*
X125859358Y-132269119D01*
X125914505Y-132102697D01*
X125914506Y-132102690D01*
X125924999Y-131999986D01*
X125925000Y-131999973D01*
X125925000Y-131650000D01*
X124175000Y-131650000D01*
X124175000Y-132699999D01*
X123674999Y-132699999D01*
X123675000Y-132699998D01*
X123675000Y-131650000D01*
X121925001Y-131650000D01*
X121925001Y-131999986D01*
X121524999Y-131999986D01*
X121525000Y-131999973D01*
X121525000Y-131650000D01*
X119775000Y-131650000D01*
X119775000Y-132699999D01*
X119274999Y-132699999D01*
X119275000Y-132699998D01*
X119275000Y-131650000D01*
X117525001Y-131650000D01*
X117525001Y-131999986D01*
X106680000Y-131999986D01*
X106680000Y-130800013D01*
X117525000Y-130800013D01*
X117525000Y-131150000D01*
X119275000Y-131150000D01*
X119775000Y-131150000D01*
X121524999Y-131150000D01*
X121524999Y-130800029D01*
X121524998Y-130800013D01*
X121925000Y-130800013D01*
X121925000Y-131150000D01*
X123675000Y-131150000D01*
X124175000Y-131150000D01*
X125924999Y-131150000D01*
X125924999Y-130800028D01*
X125924998Y-130800013D01*
X125914505Y-130697302D01*
X125859358Y-130530880D01*
X125859356Y-130530875D01*
X125767315Y-130381654D01*
X125643345Y-130257684D01*
X125494124Y-130165643D01*
X125494119Y-130165641D01*
X125327697Y-130110494D01*
X125327690Y-130110493D01*
X125224986Y-130100000D01*
X124175000Y-130100000D01*
X124175000Y-131150000D01*
X123675000Y-131150000D01*
X123675000Y-130100000D01*
X122625028Y-130100000D01*
X122625012Y-130100001D01*
X122522302Y-130110494D01*
X122355880Y-130165641D01*
X122355875Y-130165643D01*
X122206654Y-130257684D01*
X122082684Y-130381654D01*
X121990643Y-130530875D01*
X121990641Y-130530880D01*
X121935494Y-130697302D01*
X121935493Y-130697309D01*
X121925000Y-130800013D01*
X121524998Y-130800013D01*
X121524998Y-130800012D01*
X121514505Y-130697302D01*
X121459358Y-130530880D01*
X121459356Y-130530875D01*
X121367315Y-130381654D01*
X121243345Y-130257684D01*
X121094124Y-130165643D01*
X121094119Y-130165641D01*
X120927697Y-130110494D01*
X120927690Y-130110493D01*
X120824986Y-130100000D01*
X119775000Y-130100000D01*
X119775000Y-131150000D01*
X119275000Y-131150000D01*
X119275000Y-130100000D01*
X118225028Y-130100000D01*
X118225012Y-130100001D01*
X118122302Y-130110494D01*
X117955880Y-130165641D01*
X117955875Y-130165643D01*
X117806654Y-130257684D01*
X117682684Y-130381654D01*
X117590643Y-130530875D01*
X117590641Y-130530880D01*
X117535494Y-130697302D01*
X117535493Y-130697309D01*
X117525000Y-130800013D01*
X106680000Y-130800013D01*
X106680000Y-124479986D01*
X119175001Y-124479986D01*
X119185494Y-124582697D01*
X119240641Y-124749119D01*
X119240643Y-124749124D01*
X119332684Y-124898345D01*
X119456654Y-125022315D01*
X119605875Y-125114356D01*
X119605880Y-125114358D01*
X119772302Y-125169505D01*
X119772309Y-125169506D01*
X119875019Y-125179999D01*
X119999999Y-125179999D01*
X120500000Y-125179999D01*
X120624972Y-125179999D01*
X120624986Y-125179998D01*
X120727697Y-125169505D01*
X120894119Y-125114358D01*
X120894124Y-125114356D01*
X121043345Y-125022315D01*
X121167315Y-124898345D01*
X121259356Y-124749124D01*
X121259358Y-124749119D01*
X121314505Y-124582697D01*
X121314506Y-124582690D01*
X121324999Y-124479986D01*
X122125001Y-124479986D01*
X122135494Y-124582697D01*
X122190641Y-124749119D01*
X122190643Y-124749124D01*
X122282684Y-124898345D01*
X122406654Y-125022315D01*
X122555875Y-125114356D01*
X122555880Y-125114358D01*
X122722302Y-125169505D01*
X122722309Y-125169506D01*
X122825019Y-125179999D01*
X122949999Y-125179999D01*
X123450000Y-125179999D01*
X123574972Y-125179999D01*
X123574986Y-125179998D01*
X123677697Y-125169505D01*
X123844119Y-125114358D01*
X123844124Y-125114356D01*
X123993345Y-125022315D01*
X124117315Y-124898345D01*
X124209356Y-124749124D01*
X124209358Y-124749119D01*
X124264505Y-124582697D01*
X124264506Y-124582690D01*
X124274999Y-124479986D01*
X124275000Y-124479973D01*
X124275000Y-124030000D01*
X123450000Y-124030000D01*
X123450000Y-125179999D01*
X122949999Y-125179999D01*
X122950000Y-125179998D01*
X122950000Y-124030000D01*
X122125001Y-124030000D01*
X122125001Y-124479986D01*
X121324999Y-124479986D01*
X121325000Y-124479973D01*
X121325000Y-124030000D01*
X120500000Y-124030000D01*
X120500000Y-125179999D01*
X119999999Y-125179999D01*
X120000000Y-125179998D01*
X120000000Y-124030000D01*
X119175001Y-124030000D01*
X119175001Y-124479986D01*
X106680000Y-124479986D01*
X106680000Y-123080013D01*
X119175000Y-123080013D01*
X119175000Y-123530000D01*
X120000000Y-123530000D01*
X120500000Y-123530000D01*
X121324999Y-123530000D01*
X121324999Y-123080029D01*
X121324998Y-123080013D01*
X122125000Y-123080013D01*
X122125000Y-123530000D01*
X122950000Y-123530000D01*
X123450000Y-123530000D01*
X124274999Y-123530000D01*
X124274999Y-123080028D01*
X124274998Y-123080013D01*
X124264505Y-122977302D01*
X124209358Y-122810880D01*
X124209356Y-122810875D01*
X124117315Y-122661654D01*
X123993345Y-122537684D01*
X123844124Y-122445643D01*
X123844119Y-122445641D01*
X123677697Y-122390494D01*
X123677690Y-122390493D01*
X123574986Y-122380000D01*
X123450000Y-122380000D01*
X123450000Y-123530000D01*
X122950000Y-123530000D01*
X122950000Y-122380000D01*
X122825027Y-122380000D01*
X122825012Y-122380001D01*
X122722302Y-122390494D01*
X122555880Y-122445641D01*
X122555875Y-122445643D01*
X122406654Y-122537684D01*
X122282684Y-122661654D01*
X122190643Y-122810875D01*
X122190641Y-122810880D01*
X122135494Y-122977302D01*
X122135493Y-122977309D01*
X122125000Y-123080013D01*
X121324998Y-123080013D01*
X121324998Y-123080012D01*
X121314505Y-122977302D01*
X121259358Y-122810880D01*
X121259356Y-122810875D01*
X121167315Y-122661654D01*
X121043345Y-122537684D01*
X120894124Y-122445643D01*
X120894119Y-122445641D01*
X120727697Y-122390494D01*
X120727690Y-122390493D01*
X120624986Y-122380000D01*
X120500000Y-122380000D01*
X120500000Y-123530000D01*
X120000000Y-123530000D01*
X120000000Y-122380000D01*
X119875027Y-122380000D01*
X119875012Y-122380001D01*
X119772302Y-122390494D01*
X119605880Y-122445641D01*
X119605875Y-122445643D01*
X119456654Y-122537684D01*
X119332684Y-122661654D01*
X119240643Y-122810875D01*
X119240641Y-122810880D01*
X119185494Y-122977302D01*
X119185493Y-122977309D01*
X119175000Y-123080013D01*
X106680000Y-123080013D01*
X106680000Y-116287844D01*
X120470000Y-116287844D01*
X120476401Y-116347372D01*
X120476403Y-116347379D01*
X120526645Y-116482086D01*
X120526649Y-116482093D01*
X120612809Y-116597187D01*
X120612812Y-116597190D01*
X120727906Y-116683350D01*
X120727913Y-116683354D01*
X120862620Y-116733596D01*
X120862627Y-116733598D01*
X120922155Y-116739999D01*
X120922172Y-116740000D01*
X121470000Y-116740000D01*
X121970000Y-116740000D01*
X122517828Y-116740000D01*
X122517844Y-116739999D01*
X122577372Y-116733598D01*
X122577379Y-116733596D01*
X122712086Y-116683354D01*
X122712093Y-116683350D01*
X122827187Y-116597190D01*
X122827190Y-116597187D01*
X122890734Y-116512305D01*
X122946668Y-116470434D01*
X123016359Y-116465450D01*
X123077682Y-116498936D01*
X123089266Y-116512305D01*
X123152809Y-116597187D01*
X123152812Y-116597190D01*
X123267906Y-116683350D01*
X123267913Y-116683354D01*
X123402620Y-116733596D01*
X123402627Y-116733598D01*
X123462155Y-116739999D01*
X123462172Y-116740000D01*
X124010000Y-116740000D01*
X124510000Y-116740000D01*
X125057828Y-116740000D01*
X125057844Y-116739999D01*
X125117372Y-116733598D01*
X125117379Y-116733596D01*
X125252086Y-116683354D01*
X125252093Y-116683350D01*
X125367187Y-116597190D01*
X125367190Y-116597187D01*
X125453350Y-116482093D01*
X125453354Y-116482086D01*
X125503596Y-116347379D01*
X125503598Y-116347372D01*
X125509999Y-116287844D01*
X125510000Y-116287827D01*
X125510000Y-115990000D01*
X124510000Y-115990000D01*
X124510000Y-116740000D01*
X124010000Y-116740000D01*
X124010000Y-115990000D01*
X121970000Y-115990000D01*
X121970000Y-116740000D01*
X121470000Y-116740000D01*
X121470000Y-115990000D01*
X120470000Y-115990000D01*
X120470000Y-116287844D01*
X106680000Y-116287844D01*
X106680000Y-114987844D01*
X120470000Y-114987844D01*
X120476401Y-115047375D01*
X120478186Y-115054927D01*
X120476754Y-115055265D01*
X120481119Y-115116370D01*
X120476632Y-115131649D01*
X120476401Y-115132624D01*
X120470000Y-115192155D01*
X120470000Y-115490000D01*
X121470000Y-115490000D01*
X121970000Y-115490000D01*
X124010000Y-115490000D01*
X124510000Y-115490000D01*
X125510000Y-115490000D01*
X125510000Y-115192172D01*
X125509999Y-115192155D01*
X125503597Y-115132622D01*
X125501813Y-115125067D01*
X125503250Y-115124727D01*
X125498874Y-115063658D01*
X125503364Y-115048366D01*
X125503597Y-115047377D01*
X125509999Y-114987844D01*
X125510000Y-114987827D01*
X125510000Y-114690000D01*
X124510000Y-114690000D01*
X124510000Y-115490000D01*
X124010000Y-115490000D01*
X124010000Y-114690000D01*
X121970000Y-114690000D01*
X121970000Y-115490000D01*
X121470000Y-115490000D01*
X121470000Y-114690000D01*
X120470000Y-114690000D01*
X120470000Y-114987844D01*
X106680000Y-114987844D01*
X106680000Y-113892155D01*
X120470000Y-113892155D01*
X120470000Y-114190000D01*
X121470000Y-114190000D01*
X121970000Y-114190000D01*
X124010000Y-114190000D01*
X124510000Y-114190000D01*
X125510000Y-114190000D01*
X125510000Y-113892172D01*
X125509999Y-113892155D01*
X125503598Y-113832627D01*
X125503596Y-113832620D01*
X125453354Y-113697913D01*
X125453350Y-113697906D01*
X125367190Y-113582812D01*
X125367187Y-113582809D01*
X125252093Y-113496649D01*
X125252086Y-113496645D01*
X125117379Y-113446403D01*
X125117372Y-113446401D01*
X125057844Y-113440000D01*
X124510000Y-113440000D01*
X124510000Y-114190000D01*
X124010000Y-114190000D01*
X124010000Y-113440000D01*
X123462155Y-113440000D01*
X123402627Y-113446401D01*
X123402620Y-113446403D01*
X123267913Y-113496645D01*
X123267906Y-113496649D01*
X123152812Y-113582809D01*
X123089266Y-113667695D01*
X123033332Y-113709565D01*
X122963640Y-113714549D01*
X122902317Y-113681063D01*
X122890734Y-113667695D01*
X122827187Y-113582809D01*
X122712093Y-113496649D01*
X122712086Y-113496645D01*
X122577379Y-113446403D01*
X122577372Y-113446401D01*
X122517844Y-113440000D01*
X121970000Y-113440000D01*
X121970000Y-114190000D01*
X121470000Y-114190000D01*
X121470000Y-113440000D01*
X120922155Y-113440000D01*
X120862627Y-113446401D01*
X120862620Y-113446403D01*
X120727913Y-113496645D01*
X120727906Y-113496649D01*
X120612812Y-113582809D01*
X120612809Y-113582812D01*
X120526649Y-113697906D01*
X120526645Y-113697913D01*
X120476403Y-113832620D01*
X120476401Y-113832627D01*
X120470000Y-113892155D01*
X106680000Y-113892155D01*
X106680000Y-109101902D01*
X138199500Y-109101902D01*
X138199500Y-109338097D01*
X138236446Y-109571368D01*
X138309433Y-109795996D01*
X138416657Y-110006433D01*
X138555483Y-110197510D01*
X138722490Y-110364517D01*
X138913567Y-110503343D01*
X139012991Y-110554002D01*
X139124003Y-110610566D01*
X139124005Y-110610566D01*
X139124008Y-110610568D01*
X139244412Y-110649689D01*
X139348631Y-110683553D01*
X139581903Y-110720500D01*
X139581908Y-110720500D01*
X139818097Y-110720500D01*
X140051368Y-110683553D01*
X140052870Y-110683065D01*
X140275992Y-110610568D01*
X140486433Y-110503343D01*
X140677510Y-110364517D01*
X140844517Y-110197510D01*
X140869682Y-110162872D01*
X140925011Y-110120207D01*
X140994625Y-110114228D01*
X141056420Y-110146833D01*
X141070315Y-110162870D01*
X141095483Y-110197510D01*
X141262490Y-110364517D01*
X141453567Y-110503343D01*
X141552991Y-110554002D01*
X141664003Y-110610566D01*
X141664005Y-110610566D01*
X141664008Y-110610568D01*
X141784412Y-110649689D01*
X141888631Y-110683553D01*
X142121903Y-110720500D01*
X142121908Y-110720500D01*
X142358097Y-110720500D01*
X142591368Y-110683553D01*
X142592870Y-110683065D01*
X142815992Y-110610568D01*
X143026433Y-110503343D01*
X143217510Y-110364517D01*
X143384517Y-110197510D01*
X143409682Y-110162872D01*
X143465011Y-110120207D01*
X143534625Y-110114228D01*
X143596420Y-110146833D01*
X143610315Y-110162870D01*
X143635483Y-110197510D01*
X143802490Y-110364517D01*
X143993567Y-110503343D01*
X144092991Y-110554002D01*
X144204003Y-110610566D01*
X144204005Y-110610566D01*
X144204008Y-110610568D01*
X144324412Y-110649689D01*
X144428631Y-110683553D01*
X144661903Y-110720500D01*
X144661908Y-110720500D01*
X144898097Y-110720500D01*
X145131368Y-110683553D01*
X145132870Y-110683065D01*
X145355992Y-110610568D01*
X145566433Y-110503343D01*
X145757510Y-110364517D01*
X145924517Y-110197510D01*
X145949682Y-110162872D01*
X146005011Y-110120207D01*
X146074625Y-110114228D01*
X146136420Y-110146833D01*
X146150315Y-110162870D01*
X146175483Y-110197510D01*
X146342490Y-110364517D01*
X146533567Y-110503343D01*
X146632991Y-110554002D01*
X146744003Y-110610566D01*
X146744005Y-110610566D01*
X146744008Y-110610568D01*
X146864412Y-110649689D01*
X146968631Y-110683553D01*
X147201903Y-110720500D01*
X147201908Y-110720500D01*
X147438097Y-110720500D01*
X147671368Y-110683553D01*
X147672870Y-110683065D01*
X147895992Y-110610568D01*
X148106433Y-110503343D01*
X148297510Y-110364517D01*
X148464517Y-110197510D01*
X148489682Y-110162872D01*
X148545011Y-110120207D01*
X148614625Y-110114228D01*
X148676420Y-110146833D01*
X148690315Y-110162870D01*
X148715483Y-110197510D01*
X148882490Y-110364517D01*
X149073567Y-110503343D01*
X149172991Y-110554002D01*
X149284003Y-110610566D01*
X149284005Y-110610566D01*
X149284008Y-110610568D01*
X149404412Y-110649689D01*
X149508631Y-110683553D01*
X149741903Y-110720500D01*
X149741908Y-110720500D01*
X149978097Y-110720500D01*
X150211368Y-110683553D01*
X150212870Y-110683065D01*
X150435992Y-110610568D01*
X150646433Y-110503343D01*
X150837510Y-110364517D01*
X151004517Y-110197510D01*
X151029682Y-110162872D01*
X151085011Y-110120207D01*
X151154625Y-110114228D01*
X151216420Y-110146833D01*
X151230315Y-110162870D01*
X151255483Y-110197510D01*
X151422490Y-110364517D01*
X151613567Y-110503343D01*
X151712991Y-110554002D01*
X151824003Y-110610566D01*
X151824005Y-110610566D01*
X151824008Y-110610568D01*
X151944412Y-110649689D01*
X152048631Y-110683553D01*
X152281903Y-110720500D01*
X152281908Y-110720500D01*
X152518097Y-110720500D01*
X152751368Y-110683553D01*
X152752870Y-110683065D01*
X152975992Y-110610568D01*
X153186433Y-110503343D01*
X153377510Y-110364517D01*
X153544517Y-110197510D01*
X153569682Y-110162872D01*
X153625011Y-110120207D01*
X153694625Y-110114228D01*
X153756420Y-110146833D01*
X153770315Y-110162870D01*
X153795483Y-110197510D01*
X153962490Y-110364517D01*
X154153567Y-110503343D01*
X154252991Y-110554002D01*
X154364003Y-110610566D01*
X154364005Y-110610566D01*
X154364008Y-110610568D01*
X154484412Y-110649689D01*
X154588631Y-110683553D01*
X154821903Y-110720500D01*
X154821908Y-110720500D01*
X155058097Y-110720500D01*
X155291368Y-110683553D01*
X155292870Y-110683065D01*
X155515992Y-110610568D01*
X155726433Y-110503343D01*
X155917510Y-110364517D01*
X156084517Y-110197510D01*
X156109682Y-110162872D01*
X156165011Y-110120207D01*
X156234625Y-110114228D01*
X156296420Y-110146833D01*
X156310315Y-110162870D01*
X156335483Y-110197510D01*
X156502490Y-110364517D01*
X156693567Y-110503343D01*
X156792991Y-110554002D01*
X156904003Y-110610566D01*
X156904005Y-110610566D01*
X156904008Y-110610568D01*
X157024412Y-110649689D01*
X157128631Y-110683553D01*
X157361903Y-110720500D01*
X157361908Y-110720500D01*
X157598097Y-110720500D01*
X157831368Y-110683553D01*
X157832870Y-110683065D01*
X158055992Y-110610568D01*
X158266433Y-110503343D01*
X158457510Y-110364517D01*
X158624517Y-110197510D01*
X158649682Y-110162872D01*
X158705011Y-110120207D01*
X158774625Y-110114228D01*
X158836420Y-110146833D01*
X158850315Y-110162870D01*
X158875483Y-110197510D01*
X159042490Y-110364517D01*
X159233567Y-110503343D01*
X159332991Y-110554002D01*
X159444003Y-110610566D01*
X159444005Y-110610566D01*
X159444008Y-110610568D01*
X159564412Y-110649689D01*
X159668631Y-110683553D01*
X159901903Y-110720500D01*
X159901908Y-110720500D01*
X160138097Y-110720500D01*
X160371368Y-110683553D01*
X160372870Y-110683065D01*
X160595992Y-110610568D01*
X160806433Y-110503343D01*
X160997510Y-110364517D01*
X161164517Y-110197510D01*
X161211370Y-110133022D01*
X161215713Y-110128199D01*
X161240150Y-110113142D01*
X161262877Y-110095618D01*
X161270393Y-110094509D01*
X161275199Y-110091549D01*
X161288730Y-110091806D01*
X161317594Y-110087551D01*
X161337340Y-110089105D01*
X162077037Y-109349408D01*
X162094075Y-109412993D01*
X162159901Y-109527007D01*
X162252993Y-109620099D01*
X162367007Y-109685925D01*
X162430590Y-109702962D01*
X161690893Y-110442658D01*
X161773828Y-110502914D01*
X161984197Y-110610102D01*
X162208752Y-110683065D01*
X162208751Y-110683065D01*
X162441948Y-110720000D01*
X162678052Y-110720000D01*
X162911247Y-110683065D01*
X163135802Y-110610102D01*
X163346163Y-110502918D01*
X163346169Y-110502914D01*
X163429104Y-110442658D01*
X163429105Y-110442658D01*
X162689408Y-109702962D01*
X162752993Y-109685925D01*
X162867007Y-109620099D01*
X162960099Y-109527007D01*
X163025925Y-109412993D01*
X163042962Y-109349409D01*
X163782657Y-110089104D01*
X163802404Y-110087550D01*
X163870781Y-110101914D01*
X163912451Y-110138282D01*
X163955483Y-110197510D01*
X164122490Y-110364517D01*
X164313567Y-110503343D01*
X164412991Y-110554002D01*
X164524003Y-110610566D01*
X164524005Y-110610566D01*
X164524008Y-110610568D01*
X164644412Y-110649689D01*
X164748631Y-110683553D01*
X164981903Y-110720500D01*
X164981908Y-110720500D01*
X165218097Y-110720500D01*
X165451368Y-110683553D01*
X165452870Y-110683065D01*
X165675992Y-110610568D01*
X165886433Y-110503343D01*
X166077510Y-110364517D01*
X166244517Y-110197510D01*
X166291370Y-110133022D01*
X166295713Y-110128199D01*
X166320150Y-110113142D01*
X166342877Y-110095618D01*
X166350393Y-110094509D01*
X166355199Y-110091549D01*
X166368730Y-110091806D01*
X166397594Y-110087551D01*
X166417340Y-110089105D01*
X167157037Y-109349408D01*
X167174075Y-109412993D01*
X167239901Y-109527007D01*
X167332993Y-109620099D01*
X167447007Y-109685925D01*
X167510590Y-109702962D01*
X166770893Y-110442658D01*
X166853828Y-110502914D01*
X167064197Y-110610102D01*
X167288752Y-110683065D01*
X167288751Y-110683065D01*
X167521948Y-110720000D01*
X167758052Y-110720000D01*
X167991247Y-110683065D01*
X168215802Y-110610102D01*
X168426163Y-110502918D01*
X168426169Y-110502914D01*
X168509104Y-110442658D01*
X168509105Y-110442658D01*
X167769408Y-109702962D01*
X167832993Y-109685925D01*
X167947007Y-109620099D01*
X168040099Y-109527007D01*
X168105925Y-109412993D01*
X168122962Y-109349408D01*
X168862657Y-110089104D01*
X168882404Y-110087550D01*
X168950781Y-110101914D01*
X168992451Y-110138282D01*
X169035483Y-110197510D01*
X169202490Y-110364517D01*
X169393567Y-110503343D01*
X169492991Y-110554002D01*
X169604003Y-110610566D01*
X169604005Y-110610566D01*
X169604008Y-110610568D01*
X169724412Y-110649689D01*
X169828631Y-110683553D01*
X170061903Y-110720500D01*
X170061908Y-110720500D01*
X170298097Y-110720500D01*
X170531368Y-110683553D01*
X170532870Y-110683065D01*
X170755992Y-110610568D01*
X170966433Y-110503343D01*
X171157510Y-110364517D01*
X171324517Y-110197510D01*
X171349682Y-110162872D01*
X171405011Y-110120207D01*
X171474625Y-110114228D01*
X171536420Y-110146833D01*
X171550315Y-110162870D01*
X171575483Y-110197510D01*
X171742490Y-110364517D01*
X171933567Y-110503343D01*
X172032991Y-110554002D01*
X172144003Y-110610566D01*
X172144005Y-110610566D01*
X172144008Y-110610568D01*
X172264412Y-110649689D01*
X172368631Y-110683553D01*
X172601903Y-110720500D01*
X172601908Y-110720500D01*
X172838097Y-110720500D01*
X173071368Y-110683553D01*
X173072870Y-110683065D01*
X173295992Y-110610568D01*
X173506433Y-110503343D01*
X173630579Y-110413145D01*
X173696383Y-110389665D01*
X173764437Y-110405490D01*
X173812057Y-110454489D01*
X173812396Y-110454304D01*
X173813061Y-110455522D01*
X173813132Y-110455595D01*
X173813276Y-110455916D01*
X173816649Y-110462093D01*
X173902809Y-110577187D01*
X173902812Y-110577190D01*
X174017906Y-110663350D01*
X174017913Y-110663354D01*
X174152620Y-110713596D01*
X174152627Y-110713598D01*
X174212155Y-110719999D01*
X174212172Y-110720000D01*
X175010000Y-110720000D01*
X175010000Y-109653012D01*
X175067007Y-109685925D01*
X175194174Y-109720000D01*
X175325826Y-109720000D01*
X175452993Y-109685925D01*
X175510000Y-109653012D01*
X175510000Y-110720000D01*
X176307828Y-110720000D01*
X176307844Y-110719999D01*
X176367372Y-110713598D01*
X176367379Y-110713596D01*
X176502086Y-110663354D01*
X176502093Y-110663350D01*
X176617187Y-110577190D01*
X176617190Y-110577187D01*
X176703350Y-110462093D01*
X176703354Y-110462086D01*
X176753596Y-110327379D01*
X176753598Y-110327372D01*
X176759999Y-110267844D01*
X176760000Y-110267827D01*
X176760000Y-109470000D01*
X175693012Y-109470000D01*
X175725925Y-109412993D01*
X175760000Y-109285826D01*
X175760000Y-109154174D01*
X175725925Y-109027007D01*
X175693012Y-108970000D01*
X176760000Y-108970000D01*
X176760000Y-108172172D01*
X176759999Y-108172155D01*
X176753598Y-108112627D01*
X176753596Y-108112620D01*
X176703354Y-107977913D01*
X176703350Y-107977906D01*
X176617190Y-107862812D01*
X176617187Y-107862809D01*
X176502093Y-107776649D01*
X176502086Y-107776645D01*
X176367379Y-107726403D01*
X176367372Y-107726401D01*
X176307844Y-107720000D01*
X175510000Y-107720000D01*
X175510000Y-108786988D01*
X175452993Y-108754075D01*
X175325826Y-108720000D01*
X175194174Y-108720000D01*
X175067007Y-108754075D01*
X175010000Y-108786988D01*
X175010000Y-107720000D01*
X174212155Y-107720000D01*
X174152627Y-107726401D01*
X174152620Y-107726403D01*
X174017913Y-107776645D01*
X174017906Y-107776649D01*
X173902812Y-107862809D01*
X173902809Y-107862812D01*
X173816649Y-107977906D01*
X173812396Y-107985696D01*
X173809184Y-107983942D01*
X173777435Y-108026056D01*
X173711888Y-108050249D01*
X173643666Y-108035165D01*
X173630585Y-108026859D01*
X173506433Y-107936657D01*
X173295996Y-107829433D01*
X173071368Y-107756446D01*
X172838097Y-107719500D01*
X172838092Y-107719500D01*
X172601908Y-107719500D01*
X172601903Y-107719500D01*
X172368631Y-107756446D01*
X172144003Y-107829433D01*
X171933566Y-107936657D01*
X171850047Y-107997338D01*
X171742490Y-108075483D01*
X171742488Y-108075485D01*
X171742487Y-108075485D01*
X171575484Y-108242488D01*
X171550318Y-108277127D01*
X171494987Y-108319792D01*
X171425374Y-108325771D01*
X171363579Y-108293165D01*
X171349682Y-108277127D01*
X171324517Y-108242490D01*
X171157510Y-108075483D01*
X170966433Y-107936657D01*
X170755996Y-107829433D01*
X170531368Y-107756446D01*
X170298097Y-107719500D01*
X170298092Y-107719500D01*
X170061908Y-107719500D01*
X170061903Y-107719500D01*
X169828631Y-107756446D01*
X169604003Y-107829433D01*
X169393566Y-107936657D01*
X169310047Y-107997338D01*
X169202490Y-108075483D01*
X169202488Y-108075485D01*
X169202487Y-108075485D01*
X169035482Y-108242490D01*
X168992451Y-108301717D01*
X168937120Y-108344382D01*
X168882405Y-108352448D01*
X168862658Y-108350893D01*
X168122962Y-109090590D01*
X168105925Y-109027007D01*
X168040099Y-108912993D01*
X167947007Y-108819901D01*
X167832993Y-108754075D01*
X167769409Y-108737037D01*
X168509105Y-107997340D01*
X168509104Y-107997338D01*
X168426174Y-107937087D01*
X168215802Y-107829897D01*
X167991247Y-107756934D01*
X167991248Y-107756934D01*
X167758052Y-107720000D01*
X167521948Y-107720000D01*
X167288752Y-107756934D01*
X167064197Y-107829897D01*
X166853830Y-107937084D01*
X166770894Y-107997340D01*
X167510591Y-108737037D01*
X167447007Y-108754075D01*
X167332993Y-108819901D01*
X167239901Y-108912993D01*
X167174075Y-109027007D01*
X167157037Y-109090590D01*
X166417340Y-108350893D01*
X166397593Y-108352448D01*
X166393860Y-108351663D01*
X166390222Y-108352808D01*
X166359936Y-108344537D01*
X166329215Y-108338084D01*
X166325429Y-108335114D01*
X166322821Y-108334402D01*
X166313431Y-108325701D01*
X166295712Y-108311800D01*
X166291370Y-108306978D01*
X166244517Y-108242490D01*
X166077510Y-108075483D01*
X165886433Y-107936657D01*
X165675996Y-107829433D01*
X165451368Y-107756446D01*
X165218097Y-107719500D01*
X165218092Y-107719500D01*
X164981908Y-107719500D01*
X164981903Y-107719500D01*
X164748631Y-107756446D01*
X164524003Y-107829433D01*
X164313566Y-107936657D01*
X164230047Y-107997338D01*
X164122490Y-108075483D01*
X164122488Y-108075485D01*
X164122487Y-108075485D01*
X163955482Y-108242490D01*
X163912451Y-108301717D01*
X163857120Y-108344382D01*
X163802405Y-108352448D01*
X163782658Y-108350893D01*
X163042962Y-109090590D01*
X163025925Y-109027007D01*
X162960099Y-108912993D01*
X162867007Y-108819901D01*
X162752993Y-108754075D01*
X162689409Y-108737037D01*
X163429105Y-107997340D01*
X163429104Y-107997338D01*
X163346174Y-107937087D01*
X163135802Y-107829897D01*
X162911247Y-107756934D01*
X162911248Y-107756934D01*
X162678052Y-107720000D01*
X162441948Y-107720000D01*
X162208752Y-107756934D01*
X161984197Y-107829897D01*
X161773830Y-107937084D01*
X161690894Y-107997340D01*
X162430591Y-108737037D01*
X162367007Y-108754075D01*
X162252993Y-108819901D01*
X162159901Y-108912993D01*
X162094075Y-109027007D01*
X162077037Y-109090590D01*
X161337340Y-108350893D01*
X161317593Y-108352448D01*
X161313860Y-108351663D01*
X161310222Y-108352808D01*
X161279936Y-108344537D01*
X161249215Y-108338084D01*
X161245429Y-108335114D01*
X161242821Y-108334402D01*
X161233431Y-108325701D01*
X161215712Y-108311800D01*
X161211370Y-108306978D01*
X161164517Y-108242490D01*
X160997510Y-108075483D01*
X160806433Y-107936657D01*
X160595996Y-107829433D01*
X160371368Y-107756446D01*
X160138097Y-107719500D01*
X160138092Y-107719500D01*
X159901908Y-107719500D01*
X159901903Y-107719500D01*
X159668631Y-107756446D01*
X159444003Y-107829433D01*
X159233566Y-107936657D01*
X159150047Y-107997338D01*
X159042490Y-108075483D01*
X159042488Y-108075485D01*
X159042487Y-108075485D01*
X158875484Y-108242488D01*
X158850318Y-108277127D01*
X158794987Y-108319792D01*
X158725374Y-108325771D01*
X158663579Y-108293165D01*
X158649682Y-108277127D01*
X158624517Y-108242490D01*
X158457510Y-108075483D01*
X158266433Y-107936657D01*
X158055996Y-107829433D01*
X157831368Y-107756446D01*
X157598097Y-107719500D01*
X157598092Y-107719500D01*
X157361908Y-107719500D01*
X157361903Y-107719500D01*
X157128631Y-107756446D01*
X156904003Y-107829433D01*
X156693566Y-107936657D01*
X156610047Y-107997338D01*
X156502490Y-108075483D01*
X156502488Y-108075485D01*
X156502487Y-108075485D01*
X156335484Y-108242488D01*
X156310318Y-108277127D01*
X156254987Y-108319792D01*
X156185374Y-108325771D01*
X156123579Y-108293165D01*
X156109682Y-108277127D01*
X156084517Y-108242490D01*
X155917510Y-108075483D01*
X155726433Y-107936657D01*
X155515996Y-107829433D01*
X155291368Y-107756446D01*
X155058097Y-107719500D01*
X155058092Y-107719500D01*
X154821908Y-107719500D01*
X154821903Y-107719500D01*
X154588631Y-107756446D01*
X154364003Y-107829433D01*
X154153566Y-107936657D01*
X154070047Y-107997338D01*
X153962490Y-108075483D01*
X153962488Y-108075485D01*
X153962487Y-108075485D01*
X153795484Y-108242488D01*
X153770318Y-108277127D01*
X153714987Y-108319792D01*
X153645374Y-108325771D01*
X153583579Y-108293165D01*
X153569682Y-108277127D01*
X153544517Y-108242490D01*
X153377510Y-108075483D01*
X153186433Y-107936657D01*
X152975996Y-107829433D01*
X152751368Y-107756446D01*
X152518097Y-107719500D01*
X152518092Y-107719500D01*
X152281908Y-107719500D01*
X152281903Y-107719500D01*
X152048631Y-107756446D01*
X151824003Y-107829433D01*
X151613566Y-107936657D01*
X151530047Y-107997338D01*
X151422490Y-108075483D01*
X151422488Y-108075485D01*
X151422487Y-108075485D01*
X151255484Y-108242488D01*
X151230318Y-108277127D01*
X151174987Y-108319792D01*
X151105374Y-108325771D01*
X151043579Y-108293165D01*
X151029682Y-108277127D01*
X151004517Y-108242490D01*
X150837510Y-108075483D01*
X150646433Y-107936657D01*
X150435996Y-107829433D01*
X150211368Y-107756446D01*
X149978097Y-107719500D01*
X149978092Y-107719500D01*
X149741908Y-107719500D01*
X149741903Y-107719500D01*
X149508631Y-107756446D01*
X149284003Y-107829433D01*
X149073566Y-107936657D01*
X148990047Y-107997338D01*
X148882490Y-108075483D01*
X148882488Y-108075485D01*
X148882487Y-108075485D01*
X148715484Y-108242488D01*
X148690318Y-108277127D01*
X148634987Y-108319792D01*
X148565374Y-108325771D01*
X148503579Y-108293165D01*
X148489682Y-108277127D01*
X148464517Y-108242490D01*
X148297510Y-108075483D01*
X148106433Y-107936657D01*
X147895996Y-107829433D01*
X147671368Y-107756446D01*
X147438097Y-107719500D01*
X147438092Y-107719500D01*
X147201908Y-107719500D01*
X147201903Y-107719500D01*
X146968631Y-107756446D01*
X146744003Y-107829433D01*
X146533566Y-107936657D01*
X146450047Y-107997338D01*
X146342490Y-108075483D01*
X146342488Y-108075485D01*
X146342487Y-108075485D01*
X146175484Y-108242488D01*
X146150318Y-108277127D01*
X146094987Y-108319792D01*
X146025374Y-108325771D01*
X145963579Y-108293165D01*
X145949682Y-108277127D01*
X145924517Y-108242490D01*
X145757510Y-108075483D01*
X145566433Y-107936657D01*
X145355996Y-107829433D01*
X145131368Y-107756446D01*
X144898097Y-107719500D01*
X144898092Y-107719500D01*
X144661908Y-107719500D01*
X144661903Y-107719500D01*
X144428631Y-107756446D01*
X144204003Y-107829433D01*
X143993566Y-107936657D01*
X143910047Y-107997338D01*
X143802490Y-108075483D01*
X143802488Y-108075485D01*
X143802487Y-108075485D01*
X143635484Y-108242488D01*
X143610318Y-108277127D01*
X143554987Y-108319792D01*
X143485374Y-108325771D01*
X143423579Y-108293165D01*
X143409682Y-108277127D01*
X143384517Y-108242490D01*
X143217510Y-108075483D01*
X143026433Y-107936657D01*
X142815996Y-107829433D01*
X142591368Y-107756446D01*
X142358097Y-107719500D01*
X142358092Y-107719500D01*
X142121908Y-107719500D01*
X142121903Y-107719500D01*
X141888631Y-107756446D01*
X141664003Y-107829433D01*
X141453566Y-107936657D01*
X141370047Y-107997338D01*
X141262490Y-108075483D01*
X141262488Y-108075485D01*
X141262487Y-108075485D01*
X141095484Y-108242488D01*
X141070318Y-108277127D01*
X141014987Y-108319792D01*
X140945374Y-108325771D01*
X140883579Y-108293165D01*
X140869682Y-108277127D01*
X140844517Y-108242490D01*
X140677510Y-108075483D01*
X140486433Y-107936657D01*
X140275996Y-107829433D01*
X140051368Y-107756446D01*
X139818097Y-107719500D01*
X139818092Y-107719500D01*
X139581908Y-107719500D01*
X139581903Y-107719500D01*
X139348631Y-107756446D01*
X139124003Y-107829433D01*
X138913566Y-107936657D01*
X138830047Y-107997338D01*
X138722490Y-108075483D01*
X138722488Y-108075485D01*
X138722487Y-108075485D01*
X138555485Y-108242487D01*
X138555485Y-108242488D01*
X138555483Y-108242490D01*
X138512452Y-108301717D01*
X138416657Y-108433566D01*
X138309433Y-108644003D01*
X138236446Y-108868631D01*
X138199500Y-109101902D01*
X106680000Y-109101902D01*
X106680000Y-98773389D01*
X161524500Y-98773389D01*
X161524500Y-98946611D01*
X161551598Y-99117701D01*
X161605127Y-99282445D01*
X161683768Y-99436788D01*
X161785586Y-99576928D01*
X161908072Y-99699414D01*
X162048212Y-99801232D01*
X162202555Y-99879873D01*
X162367299Y-99933402D01*
X162538389Y-99960500D01*
X162538390Y-99960500D01*
X162711610Y-99960500D01*
X162711611Y-99960500D01*
X162882701Y-99933402D01*
X163047445Y-99879873D01*
X163180389Y-99812135D01*
X164024500Y-99812135D01*
X164024500Y-102207870D01*
X164024501Y-102207876D01*
X164030908Y-102267483D01*
X164081202Y-102402328D01*
X164081206Y-102402335D01*
X164167452Y-102517544D01*
X164167455Y-102517547D01*
X164282664Y-102603793D01*
X164282671Y-102603797D01*
X164417517Y-102654091D01*
X164417516Y-102654091D01*
X164424444Y-102654835D01*
X164477127Y-102660500D01*
X167772872Y-102660499D01*
X167832483Y-102654091D01*
X167967331Y-102603796D01*
X168082546Y-102517546D01*
X168168796Y-102402331D01*
X168219091Y-102267483D01*
X168225500Y-102207873D01*
X168225499Y-99812128D01*
X168219091Y-99752517D01*
X168202669Y-99708488D01*
X168168797Y-99617671D01*
X168168793Y-99617664D01*
X168082547Y-99502455D01*
X168082544Y-99502452D01*
X167967335Y-99416206D01*
X167967328Y-99416202D01*
X167832482Y-99365908D01*
X167832483Y-99365908D01*
X167772883Y-99359501D01*
X167772881Y-99359500D01*
X167772873Y-99359500D01*
X167772864Y-99359500D01*
X164477129Y-99359500D01*
X164477123Y-99359501D01*
X164417516Y-99365908D01*
X164282671Y-99416202D01*
X164282664Y-99416206D01*
X164167455Y-99502452D01*
X164167452Y-99502455D01*
X164081206Y-99617664D01*
X164081202Y-99617671D01*
X164030908Y-99752517D01*
X164025671Y-99801231D01*
X164024501Y-99812123D01*
X164024500Y-99812135D01*
X163180389Y-99812135D01*
X163201788Y-99801232D01*
X163341928Y-99699414D01*
X163464414Y-99576928D01*
X163566232Y-99436788D01*
X163644873Y-99282445D01*
X163698402Y-99117701D01*
X163725500Y-98946611D01*
X163725500Y-98773389D01*
X163698402Y-98602299D01*
X163644873Y-98437555D01*
X163566232Y-98283212D01*
X163464414Y-98143072D01*
X163341928Y-98020586D01*
X163201788Y-97918768D01*
X163047445Y-97840127D01*
X162882701Y-97786598D01*
X162882699Y-97786597D01*
X162882698Y-97786597D01*
X162751271Y-97765781D01*
X162711611Y-97759500D01*
X162538389Y-97759500D01*
X162498728Y-97765781D01*
X162367302Y-97786597D01*
X162202552Y-97840128D01*
X162048211Y-97918768D01*
X161968256Y-97976859D01*
X161908072Y-98020586D01*
X161908070Y-98020588D01*
X161908069Y-98020588D01*
X161785588Y-98143069D01*
X161785588Y-98143070D01*
X161785586Y-98143072D01*
X161767848Y-98167486D01*
X161683768Y-98283211D01*
X161605128Y-98437552D01*
X161605127Y-98437554D01*
X161605127Y-98437555D01*
X161582282Y-98507864D01*
X161551597Y-98602302D01*
X161535755Y-98702328D01*
X161524500Y-98773389D01*
X106680000Y-98773389D01*
X106680000Y-91812127D01*
X157024500Y-91812127D01*
X157024500Y-91812134D01*
X157024500Y-91812135D01*
X157024500Y-92507869D01*
X157024501Y-92507878D01*
X157028679Y-92546745D01*
X157028679Y-92573250D01*
X157024500Y-92612122D01*
X157024500Y-93307869D01*
X157024501Y-93307878D01*
X157028679Y-93346745D01*
X157028679Y-93373250D01*
X157024500Y-93412122D01*
X157024500Y-94107869D01*
X157024501Y-94107878D01*
X157028679Y-94146745D01*
X157028679Y-94173250D01*
X157024500Y-94212122D01*
X157024500Y-94907869D01*
X157024501Y-94907878D01*
X157028679Y-94946745D01*
X157028679Y-94973250D01*
X157024500Y-95012122D01*
X157024500Y-95707869D01*
X157024501Y-95707878D01*
X157028679Y-95746745D01*
X157028679Y-95773250D01*
X157024500Y-95812122D01*
X157024500Y-96507869D01*
X157024501Y-96507878D01*
X157028679Y-96546745D01*
X157028679Y-96573250D01*
X157024500Y-96612122D01*
X157024500Y-97307869D01*
X157024501Y-97307878D01*
X157028679Y-97346745D01*
X157028679Y-97373250D01*
X157024500Y-97412122D01*
X157024500Y-98107870D01*
X157024501Y-98107876D01*
X157030908Y-98167483D01*
X157081202Y-98302328D01*
X157081206Y-98302335D01*
X157167452Y-98417544D01*
X157167455Y-98417547D01*
X157282664Y-98503793D01*
X157282671Y-98503797D01*
X157417517Y-98554091D01*
X157417516Y-98554091D01*
X157424444Y-98554835D01*
X157477127Y-98560500D01*
X159572872Y-98560499D01*
X159632483Y-98554091D01*
X159767331Y-98503796D01*
X159882546Y-98417546D01*
X159968796Y-98302331D01*
X160019091Y-98167483D01*
X160025500Y-98107873D01*
X160025499Y-97412128D01*
X160025499Y-97412127D01*
X160025498Y-97412111D01*
X160021320Y-97373253D01*
X160021320Y-97346745D01*
X160025500Y-97307873D01*
X160025499Y-96612128D01*
X160025499Y-96612127D01*
X160025498Y-96612111D01*
X160021320Y-96573253D01*
X160021320Y-96546745D01*
X160025500Y-96507873D01*
X160025499Y-95812128D01*
X160025499Y-95812127D01*
X160025498Y-95812111D01*
X160021320Y-95773253D01*
X160021320Y-95746745D01*
X160025500Y-95707873D01*
X160025499Y-95012128D01*
X160025499Y-95012127D01*
X160025498Y-95012111D01*
X160021320Y-94973253D01*
X160021320Y-94946745D01*
X160025500Y-94907873D01*
X160025499Y-94212128D01*
X160025499Y-94212127D01*
X160025498Y-94212111D01*
X160021320Y-94173253D01*
X160021320Y-94146745D01*
X160025500Y-94107873D01*
X160025499Y-93412128D01*
X160025499Y-93412127D01*
X160025498Y-93412111D01*
X160021320Y-93373253D01*
X160021320Y-93346745D01*
X160025500Y-93307873D01*
X160025499Y-92612128D01*
X160025499Y-92612127D01*
X160025498Y-92612111D01*
X160021320Y-92573253D01*
X160021320Y-92546745D01*
X160025500Y-92507873D01*
X160025499Y-92212127D01*
X165224500Y-92212127D01*
X165224500Y-92212134D01*
X165224500Y-92212135D01*
X165224500Y-92907869D01*
X165224501Y-92907878D01*
X165228679Y-92946745D01*
X165228679Y-92973250D01*
X165224500Y-93012122D01*
X165224500Y-93707869D01*
X165224501Y-93707878D01*
X165228679Y-93746745D01*
X165228679Y-93773250D01*
X165224500Y-93812122D01*
X165224500Y-94507869D01*
X165224501Y-94507878D01*
X165228679Y-94546745D01*
X165228679Y-94573250D01*
X165224500Y-94612122D01*
X165224500Y-95307869D01*
X165224501Y-95307878D01*
X165228679Y-95346745D01*
X165228679Y-95373250D01*
X165224500Y-95412122D01*
X165224500Y-96107869D01*
X165224501Y-96107878D01*
X165228679Y-96146745D01*
X165228679Y-96173250D01*
X165224500Y-96212122D01*
X165224500Y-96907869D01*
X165224501Y-96907878D01*
X165228679Y-96946745D01*
X165228679Y-96973250D01*
X165224500Y-97012122D01*
X165224500Y-97707869D01*
X165224501Y-97707878D01*
X165228679Y-97746745D01*
X165228679Y-97773250D01*
X165224500Y-97812122D01*
X165224500Y-98507870D01*
X165224501Y-98507876D01*
X165230908Y-98567483D01*
X165281202Y-98702328D01*
X165281206Y-98702335D01*
X165367452Y-98817544D01*
X165367455Y-98817547D01*
X165482664Y-98903793D01*
X165482671Y-98903797D01*
X165617517Y-98954091D01*
X165617516Y-98954091D01*
X165624444Y-98954835D01*
X165677127Y-98960500D01*
X167772872Y-98960499D01*
X167832483Y-98954091D01*
X167967331Y-98903796D01*
X168082546Y-98817546D01*
X168168796Y-98702331D01*
X168219091Y-98567483D01*
X168225500Y-98507873D01*
X168225499Y-97812128D01*
X168225499Y-97812127D01*
X168225498Y-97812111D01*
X168221320Y-97773253D01*
X168221320Y-97746745D01*
X168225500Y-97707873D01*
X168225499Y-97012128D01*
X168225499Y-97012127D01*
X168225498Y-97012111D01*
X168221320Y-96973253D01*
X168221320Y-96946745D01*
X168225500Y-96907873D01*
X168225499Y-96212128D01*
X168225499Y-96212127D01*
X168225498Y-96212111D01*
X168221320Y-96173253D01*
X168221320Y-96146745D01*
X168225500Y-96107873D01*
X168225499Y-95412128D01*
X168225499Y-95412127D01*
X168225498Y-95412111D01*
X168221320Y-95373253D01*
X168221320Y-95346745D01*
X168225500Y-95307873D01*
X168225499Y-94612128D01*
X168225499Y-94612127D01*
X168225498Y-94612111D01*
X168221320Y-94573253D01*
X168221320Y-94546745D01*
X168225500Y-94507873D01*
X168225499Y-93812128D01*
X168225499Y-93812127D01*
X168225498Y-93812111D01*
X168221320Y-93773253D01*
X168221320Y-93746745D01*
X168225500Y-93707873D01*
X168225499Y-93012128D01*
X168225499Y-93012127D01*
X168225498Y-93012111D01*
X168221320Y-92973253D01*
X168221320Y-92946745D01*
X168225500Y-92907873D01*
X168225499Y-92212128D01*
X168219091Y-92152517D01*
X168203233Y-92110000D01*
X168168797Y-92017671D01*
X168168793Y-92017664D01*
X168082547Y-91902455D01*
X168082544Y-91902452D01*
X167967335Y-91816206D01*
X167967328Y-91816202D01*
X167832482Y-91765908D01*
X167832483Y-91765908D01*
X167772883Y-91759501D01*
X167772881Y-91759500D01*
X167772873Y-91759500D01*
X167772864Y-91759500D01*
X165677129Y-91759500D01*
X165677123Y-91759501D01*
X165617516Y-91765908D01*
X165482671Y-91816202D01*
X165482664Y-91816206D01*
X165367455Y-91902452D01*
X165367452Y-91902455D01*
X165281206Y-92017664D01*
X165281202Y-92017671D01*
X165230910Y-92152513D01*
X165230909Y-92152517D01*
X165224500Y-92212127D01*
X160025499Y-92212127D01*
X160025499Y-92156757D01*
X160025499Y-91812129D01*
X160025498Y-91812123D01*
X160019091Y-91752516D01*
X159983781Y-91657844D01*
X175610000Y-91657844D01*
X175616401Y-91717372D01*
X175616403Y-91717379D01*
X175666645Y-91852086D01*
X175666649Y-91852093D01*
X175752809Y-91967187D01*
X175752812Y-91967190D01*
X175867906Y-92053350D01*
X175867913Y-92053354D01*
X176002620Y-92103596D01*
X176002627Y-92103598D01*
X176062155Y-92109999D01*
X176062172Y-92110000D01*
X176360000Y-92110000D01*
X176860000Y-92110000D01*
X177157828Y-92110000D01*
X177157844Y-92109999D01*
X177217377Y-92103597D01*
X177224933Y-92101813D01*
X177225272Y-92103250D01*
X177286342Y-92098874D01*
X177301633Y-92103364D01*
X177302622Y-92103597D01*
X177362155Y-92109999D01*
X177362172Y-92110000D01*
X177660000Y-92110000D01*
X178160000Y-92110000D01*
X178457828Y-92110000D01*
X178457844Y-92109999D01*
X178517372Y-92103598D01*
X178517379Y-92103596D01*
X178652086Y-92053354D01*
X178652093Y-92053350D01*
X178767187Y-91967190D01*
X178767190Y-91967187D01*
X178853350Y-91852093D01*
X178853354Y-91852086D01*
X178903596Y-91717379D01*
X178903598Y-91717372D01*
X178909999Y-91657844D01*
X178910000Y-91657827D01*
X178910000Y-91110000D01*
X178160000Y-91110000D01*
X178160000Y-92110000D01*
X177660000Y-92110000D01*
X177660000Y-91110000D01*
X176860000Y-91110000D01*
X176860000Y-92110000D01*
X176360000Y-92110000D01*
X176360000Y-91110000D01*
X175610000Y-91110000D01*
X175610000Y-91657844D01*
X159983781Y-91657844D01*
X159968797Y-91617671D01*
X159968793Y-91617664D01*
X159882547Y-91502455D01*
X159882544Y-91502452D01*
X159767335Y-91416206D01*
X159767328Y-91416202D01*
X159632482Y-91365908D01*
X159632483Y-91365908D01*
X159572883Y-91359501D01*
X159572881Y-91359500D01*
X159572873Y-91359500D01*
X159572864Y-91359500D01*
X157477129Y-91359500D01*
X157477123Y-91359501D01*
X157417516Y-91365908D01*
X157282671Y-91416202D01*
X157282664Y-91416206D01*
X157167455Y-91502452D01*
X157167452Y-91502455D01*
X157081206Y-91617664D01*
X157081202Y-91617671D01*
X157030910Y-91752513D01*
X157030909Y-91752517D01*
X157024500Y-91812127D01*
X106680000Y-91812127D01*
X106680000Y-90062155D01*
X175610000Y-90062155D01*
X175610000Y-90610000D01*
X176360000Y-90610000D01*
X176860000Y-90610000D01*
X177660000Y-90610000D01*
X178160000Y-90610000D01*
X178910000Y-90610000D01*
X178910000Y-90062172D01*
X178909999Y-90062155D01*
X178903598Y-90002627D01*
X178903596Y-90002620D01*
X178853354Y-89867913D01*
X178853350Y-89867906D01*
X178767190Y-89752812D01*
X178767187Y-89752809D01*
X178652093Y-89666649D01*
X178652086Y-89666645D01*
X178517379Y-89616403D01*
X178517372Y-89616401D01*
X178457844Y-89610000D01*
X178160000Y-89610000D01*
X178160000Y-90610000D01*
X177660000Y-90610000D01*
X177660000Y-89610000D01*
X177362155Y-89610000D01*
X177302624Y-89616401D01*
X177295073Y-89618186D01*
X177294734Y-89616754D01*
X177233630Y-89621119D01*
X177218350Y-89616632D01*
X177217375Y-89616401D01*
X177157844Y-89610000D01*
X176860000Y-89610000D01*
X176860000Y-90610000D01*
X176360000Y-90610000D01*
X176360000Y-89610000D01*
X176062155Y-89610000D01*
X176002627Y-89616401D01*
X176002620Y-89616403D01*
X175867913Y-89666645D01*
X175867906Y-89666649D01*
X175752812Y-89752809D01*
X175752809Y-89752812D01*
X175666649Y-89867906D01*
X175666645Y-89867913D01*
X175616403Y-90002620D01*
X175616401Y-90002627D01*
X175610000Y-90062155D01*
X106680000Y-90062155D01*
X106680000Y-74212127D01*
X157024500Y-74212127D01*
X157024500Y-74212134D01*
X157024500Y-74212135D01*
X157024500Y-74907869D01*
X157024501Y-74907880D01*
X157028931Y-74949093D01*
X157028931Y-74975596D01*
X157025000Y-75012165D01*
X157025000Y-75110000D01*
X157025051Y-75110051D01*
X157091915Y-75129685D01*
X157112572Y-75146334D01*
X157118834Y-75152598D01*
X157167454Y-75217546D01*
X157232247Y-75266050D01*
X157238529Y-75272334D01*
X157251184Y-75295520D01*
X157267015Y-75316668D01*
X157267661Y-75325707D01*
X157272004Y-75333663D01*
X157270114Y-75360011D01*
X157271999Y-75386360D01*
X157267655Y-75394315D01*
X157267007Y-75403353D01*
X157251175Y-75424493D01*
X157238513Y-75447683D01*
X157225145Y-75459266D01*
X157167455Y-75502453D01*
X157167454Y-75502454D01*
X157124141Y-75560312D01*
X157068209Y-75602182D01*
X157025027Y-75609972D01*
X157025000Y-75610000D01*
X157025000Y-75707832D01*
X157028931Y-75744399D01*
X157028931Y-75770905D01*
X157024500Y-75812122D01*
X157024500Y-76507869D01*
X157024501Y-76507878D01*
X157028679Y-76546745D01*
X157028679Y-76573250D01*
X157024500Y-76612122D01*
X157024500Y-77307869D01*
X157024501Y-77307878D01*
X157028679Y-77346745D01*
X157028679Y-77373250D01*
X157024500Y-77412122D01*
X157024500Y-78107869D01*
X157024501Y-78107878D01*
X157028679Y-78146745D01*
X157028679Y-78173250D01*
X157024500Y-78212122D01*
X157024500Y-78907869D01*
X157024501Y-78907878D01*
X157028679Y-78946745D01*
X157028679Y-78973250D01*
X157024500Y-79012122D01*
X157024500Y-79707869D01*
X157024501Y-79707878D01*
X157028679Y-79746745D01*
X157028679Y-79773250D01*
X157024500Y-79812122D01*
X157024500Y-80507869D01*
X157024501Y-80507878D01*
X157028679Y-80546745D01*
X157028679Y-80573250D01*
X157024500Y-80612122D01*
X157024500Y-81307869D01*
X157024501Y-81307878D01*
X157028679Y-81346745D01*
X157028679Y-81373250D01*
X157024500Y-81412122D01*
X157024500Y-82107869D01*
X157024501Y-82107878D01*
X157028679Y-82146745D01*
X157028679Y-82173250D01*
X157024500Y-82212122D01*
X157024500Y-82907869D01*
X157024501Y-82907878D01*
X157028679Y-82946745D01*
X157028679Y-82973250D01*
X157024500Y-83012122D01*
X157024500Y-83707869D01*
X157024501Y-83707878D01*
X157028679Y-83746745D01*
X157028679Y-83773250D01*
X157024500Y-83812122D01*
X157024500Y-84507869D01*
X157024501Y-84507878D01*
X157028679Y-84546745D01*
X157028679Y-84573250D01*
X157024500Y-84612122D01*
X157024500Y-85307869D01*
X157024501Y-85307878D01*
X157028679Y-85346745D01*
X157028679Y-85373250D01*
X157024500Y-85412122D01*
X157024500Y-86107869D01*
X157024501Y-86107880D01*
X157028931Y-86149093D01*
X157028931Y-86175596D01*
X157025000Y-86212165D01*
X157025000Y-86310000D01*
X157025051Y-86310051D01*
X157091915Y-86329685D01*
X157112572Y-86346334D01*
X157118834Y-86352598D01*
X157167454Y-86417546D01*
X157232247Y-86466050D01*
X157238529Y-86472334D01*
X157251184Y-86495520D01*
X157267015Y-86516668D01*
X157267661Y-86525707D01*
X157272004Y-86533663D01*
X157270114Y-86560011D01*
X157271999Y-86586360D01*
X157267655Y-86594315D01*
X157267007Y-86603353D01*
X157251175Y-86624493D01*
X157238513Y-86647683D01*
X157225145Y-86659266D01*
X157167455Y-86702453D01*
X157167454Y-86702454D01*
X157124141Y-86760312D01*
X157068209Y-86802182D01*
X157025027Y-86809972D01*
X157025000Y-86810000D01*
X157025000Y-86907832D01*
X157028931Y-86944399D01*
X157028931Y-86970905D01*
X157024500Y-87012122D01*
X157024500Y-87707869D01*
X157024501Y-87707878D01*
X157028679Y-87746745D01*
X157028679Y-87773250D01*
X157024500Y-87812122D01*
X157024500Y-88507870D01*
X157024501Y-88507876D01*
X157030908Y-88567483D01*
X157081202Y-88702328D01*
X157081206Y-88702335D01*
X157167452Y-88817544D01*
X157167455Y-88817547D01*
X157282664Y-88903793D01*
X157282671Y-88903797D01*
X157417517Y-88954091D01*
X157417516Y-88954091D01*
X157424444Y-88954835D01*
X157477127Y-88960500D01*
X159572872Y-88960499D01*
X159632483Y-88954091D01*
X159767331Y-88903796D01*
X159882546Y-88817546D01*
X159968796Y-88702331D01*
X160019091Y-88567483D01*
X160025500Y-88507873D01*
X160025499Y-87812128D01*
X160025499Y-87812127D01*
X160025498Y-87812111D01*
X160021320Y-87773253D01*
X160021320Y-87746745D01*
X160025500Y-87707873D01*
X160025499Y-87012128D01*
X160021067Y-86970898D01*
X160021068Y-86944393D01*
X160024999Y-86907833D01*
X160025000Y-86907819D01*
X160025000Y-86810000D01*
X160024948Y-86809948D01*
X159958085Y-86790315D01*
X159937428Y-86773667D01*
X159931169Y-86767406D01*
X159882546Y-86702454D01*
X159817744Y-86653943D01*
X159811470Y-86647667D01*
X159798813Y-86624478D01*
X159782984Y-86603333D01*
X159782337Y-86594293D01*
X159777995Y-86586338D01*
X159779884Y-86559986D01*
X159778000Y-86533641D01*
X159782342Y-86525687D01*
X159782991Y-86516647D01*
X159798824Y-86495503D01*
X159811485Y-86472318D01*
X159824850Y-86460736D01*
X159882546Y-86417546D01*
X159925858Y-86359687D01*
X159981791Y-86317818D01*
X160024972Y-86310027D01*
X160025000Y-86310000D01*
X160025000Y-86212182D01*
X160024999Y-86212164D01*
X160021068Y-86175602D01*
X160021068Y-86149093D01*
X160025500Y-86107873D01*
X160025499Y-85412128D01*
X160025499Y-85412127D01*
X160025498Y-85412111D01*
X160021320Y-85373253D01*
X160021320Y-85346745D01*
X160025500Y-85307873D01*
X160025499Y-84612128D01*
X160025499Y-84612127D01*
X160025498Y-84612111D01*
X160021320Y-84573253D01*
X160021320Y-84546745D01*
X160025500Y-84507873D01*
X160025499Y-83812128D01*
X160025499Y-83812127D01*
X160025498Y-83812111D01*
X160021320Y-83773253D01*
X160021320Y-83746745D01*
X160025500Y-83707873D01*
X160025499Y-83012128D01*
X160025499Y-83012127D01*
X160025498Y-83012111D01*
X160021320Y-82973253D01*
X160021320Y-82946745D01*
X160025500Y-82907873D01*
X160025499Y-82212128D01*
X160025499Y-82212127D01*
X160025498Y-82212111D01*
X160021320Y-82173253D01*
X160021320Y-82146745D01*
X160025500Y-82107873D01*
X160025499Y-81412128D01*
X160025499Y-81412127D01*
X160025498Y-81412111D01*
X160021320Y-81373253D01*
X160021320Y-81346745D01*
X160025500Y-81307873D01*
X160025499Y-80612128D01*
X160025499Y-80612127D01*
X160025498Y-80612111D01*
X160021320Y-80573253D01*
X160021320Y-80546745D01*
X160025500Y-80507873D01*
X160025499Y-79812128D01*
X160025499Y-79812127D01*
X160025498Y-79812111D01*
X160021320Y-79773253D01*
X160021320Y-79746745D01*
X160025500Y-79707873D01*
X160025499Y-79412127D01*
X165224500Y-79412127D01*
X165224500Y-79415025D01*
X165224500Y-79415026D01*
X165224500Y-80107869D01*
X165224501Y-80107878D01*
X165228679Y-80146745D01*
X165228679Y-80173250D01*
X165224500Y-80212122D01*
X165224500Y-80907869D01*
X165224501Y-80907878D01*
X165228679Y-80946745D01*
X165228679Y-80973250D01*
X165224500Y-81012122D01*
X165224500Y-81707869D01*
X165224501Y-81707878D01*
X165228679Y-81746745D01*
X165228679Y-81773250D01*
X165224500Y-81812122D01*
X165224500Y-82507869D01*
X165224501Y-82507878D01*
X165228679Y-82546745D01*
X165228679Y-82573250D01*
X165224500Y-82612122D01*
X165224500Y-83307869D01*
X165224501Y-83307878D01*
X165228679Y-83346745D01*
X165228679Y-83373250D01*
X165224500Y-83412122D01*
X165224500Y-84107869D01*
X165224501Y-84107878D01*
X165228679Y-84146745D01*
X165228679Y-84173250D01*
X165224500Y-84212122D01*
X165224500Y-84907869D01*
X165224501Y-84907878D01*
X165228679Y-84946745D01*
X165228679Y-84973250D01*
X165224500Y-85012122D01*
X165224500Y-85707869D01*
X165224501Y-85707878D01*
X165228679Y-85746745D01*
X165228679Y-85773250D01*
X165224500Y-85812122D01*
X165224500Y-86507869D01*
X165224501Y-86507878D01*
X165228679Y-86546745D01*
X165228679Y-86573250D01*
X165224500Y-86612122D01*
X165224500Y-87307869D01*
X165224501Y-87307878D01*
X165228679Y-87346745D01*
X165228679Y-87373250D01*
X165224500Y-87412122D01*
X165224500Y-88107869D01*
X165224501Y-88107878D01*
X165228679Y-88146745D01*
X165228679Y-88173250D01*
X165224500Y-88212122D01*
X165224500Y-88907870D01*
X165224501Y-88907876D01*
X165230908Y-88967483D01*
X165281202Y-89102328D01*
X165281206Y-89102335D01*
X165367452Y-89217544D01*
X165367455Y-89217547D01*
X165482664Y-89303793D01*
X165482671Y-89303797D01*
X165617517Y-89354091D01*
X165617516Y-89354091D01*
X165624444Y-89354835D01*
X165677127Y-89360500D01*
X167772872Y-89360499D01*
X167832483Y-89354091D01*
X167967331Y-89303796D01*
X168082546Y-89217546D01*
X168168796Y-89102331D01*
X168219091Y-88967483D01*
X168225500Y-88907873D01*
X168225499Y-88212128D01*
X168225499Y-88212127D01*
X168225498Y-88212111D01*
X168221320Y-88173253D01*
X168221320Y-88146745D01*
X168225500Y-88107873D01*
X168225499Y-87412128D01*
X168225499Y-87412127D01*
X168225498Y-87412111D01*
X168221320Y-87373253D01*
X168221320Y-87346745D01*
X168225500Y-87307873D01*
X168225499Y-86612128D01*
X168225499Y-86612127D01*
X168225498Y-86612111D01*
X168221320Y-86573253D01*
X168221320Y-86546745D01*
X168225500Y-86507873D01*
X168225499Y-85812128D01*
X168225499Y-85812127D01*
X168225498Y-85812111D01*
X168221320Y-85773253D01*
X168221320Y-85746745D01*
X168225500Y-85707873D01*
X168225500Y-85479986D01*
X180320001Y-85479986D01*
X180330494Y-85582697D01*
X180385641Y-85749119D01*
X180385643Y-85749124D01*
X180477684Y-85898345D01*
X180601654Y-86022315D01*
X180750875Y-86114356D01*
X180750880Y-86114358D01*
X180917302Y-86169505D01*
X180917309Y-86169506D01*
X181020019Y-86179999D01*
X181369999Y-86179999D01*
X181870000Y-86179999D01*
X182219972Y-86179999D01*
X182219986Y-86179998D01*
X182322697Y-86169505D01*
X182489119Y-86114358D01*
X182489124Y-86114356D01*
X182638345Y-86022315D01*
X182762315Y-85898345D01*
X182854356Y-85749124D01*
X182854358Y-85749119D01*
X182909505Y-85582697D01*
X182909506Y-85582690D01*
X182919999Y-85479986D01*
X182920000Y-85479973D01*
X182920000Y-84430000D01*
X181870000Y-84430000D01*
X181870000Y-86179999D01*
X181369999Y-86179999D01*
X181370000Y-86179998D01*
X181370000Y-84430000D01*
X180320001Y-84430000D01*
X180320001Y-85479986D01*
X168225500Y-85479986D01*
X168225499Y-85012128D01*
X168225499Y-85012127D01*
X168225498Y-85012111D01*
X168221320Y-84973253D01*
X168221320Y-84946745D01*
X168225500Y-84907873D01*
X168225499Y-84212128D01*
X168225499Y-84212127D01*
X168225498Y-84212111D01*
X168221320Y-84173253D01*
X168221320Y-84146745D01*
X168225500Y-84107873D01*
X168225499Y-83709986D01*
X172360001Y-83709986D01*
X172370494Y-83812697D01*
X172425641Y-83979119D01*
X172425643Y-83979124D01*
X172517684Y-84128345D01*
X172641654Y-84252315D01*
X172790875Y-84344356D01*
X172790880Y-84344358D01*
X172957302Y-84399505D01*
X172957309Y-84399506D01*
X173060019Y-84409999D01*
X173509999Y-84409999D01*
X174010000Y-84409999D01*
X174459972Y-84409999D01*
X174459986Y-84409998D01*
X174562697Y-84399505D01*
X174729119Y-84344358D01*
X174729124Y-84344356D01*
X174844650Y-84273099D01*
X174878345Y-84252315D01*
X175002315Y-84128345D01*
X175094356Y-83979124D01*
X175094358Y-83979119D01*
X175149505Y-83812697D01*
X175149506Y-83812690D01*
X175159999Y-83709986D01*
X175160000Y-83709973D01*
X175160000Y-83585000D01*
X174010000Y-83585000D01*
X174010000Y-84409999D01*
X173509999Y-84409999D01*
X173510000Y-84409998D01*
X173510000Y-83585000D01*
X172360001Y-83585000D01*
X172360001Y-83709986D01*
X168225499Y-83709986D01*
X168225499Y-83412128D01*
X168220795Y-83368378D01*
X168220658Y-83363488D01*
X168221320Y-83360973D01*
X168221320Y-83346745D01*
X168225500Y-83307873D01*
X168225500Y-82960013D01*
X172360000Y-82960013D01*
X172360000Y-83085000D01*
X173510000Y-83085000D01*
X174010000Y-83085000D01*
X175159999Y-83085000D01*
X175159999Y-82960028D01*
X175159998Y-82960010D01*
X175152792Y-82889465D01*
X175151826Y-82880013D01*
X180320000Y-82880013D01*
X180320000Y-83930000D01*
X181370000Y-83930000D01*
X181870000Y-83930000D01*
X182919999Y-83930000D01*
X182919999Y-82880028D01*
X182919998Y-82880013D01*
X182909505Y-82777302D01*
X182854358Y-82610880D01*
X182854356Y-82610875D01*
X182762315Y-82461654D01*
X182638345Y-82337684D01*
X182489124Y-82245643D01*
X182489119Y-82245641D01*
X182322697Y-82190494D01*
X182322690Y-82190493D01*
X182219986Y-82180000D01*
X181870000Y-82180000D01*
X181870000Y-83930000D01*
X181370000Y-83930000D01*
X181370000Y-82180000D01*
X181020028Y-82180000D01*
X181020012Y-82180001D01*
X180917302Y-82190494D01*
X180750880Y-82245641D01*
X180750875Y-82245643D01*
X180601654Y-82337684D01*
X180477684Y-82461654D01*
X180385643Y-82610875D01*
X180385641Y-82610880D01*
X180330494Y-82777302D01*
X180330493Y-82777309D01*
X180320000Y-82880013D01*
X175151826Y-82880013D01*
X175149505Y-82857302D01*
X175094358Y-82690880D01*
X175094356Y-82690875D01*
X175002315Y-82541654D01*
X174878345Y-82417684D01*
X174729124Y-82325643D01*
X174729119Y-82325641D01*
X174562697Y-82270494D01*
X174562690Y-82270493D01*
X174459986Y-82260000D01*
X174010000Y-82260000D01*
X174010000Y-83085000D01*
X173510000Y-83085000D01*
X173510000Y-82260000D01*
X173060028Y-82260000D01*
X173060012Y-82260001D01*
X172957302Y-82270494D01*
X172790880Y-82325641D01*
X172790875Y-82325643D01*
X172641654Y-82417684D01*
X172517684Y-82541654D01*
X172425643Y-82690875D01*
X172425641Y-82690880D01*
X172370494Y-82857302D01*
X172370493Y-82857309D01*
X172360000Y-82960013D01*
X168225500Y-82960013D01*
X168225499Y-82612128D01*
X168225499Y-82612127D01*
X168225498Y-82612111D01*
X168221320Y-82573253D01*
X168221320Y-82546745D01*
X168225500Y-82507873D01*
X168225499Y-81812128D01*
X168225499Y-81812127D01*
X168225498Y-81812111D01*
X168221320Y-81773253D01*
X168221320Y-81746745D01*
X168225500Y-81707873D01*
X168225499Y-81012128D01*
X168225499Y-81012127D01*
X168225498Y-81012111D01*
X168221320Y-80973253D01*
X168221320Y-80946745D01*
X168225500Y-80907873D01*
X168225500Y-80759986D01*
X172360001Y-80759986D01*
X172370494Y-80862697D01*
X172425641Y-81029119D01*
X172425643Y-81029124D01*
X172517684Y-81178345D01*
X172641654Y-81302315D01*
X172790875Y-81394356D01*
X172790880Y-81394358D01*
X172957302Y-81449505D01*
X172957309Y-81449506D01*
X173060019Y-81459999D01*
X173509999Y-81459999D01*
X174010000Y-81459999D01*
X174459972Y-81459999D01*
X174459986Y-81459998D01*
X174562697Y-81449505D01*
X174729119Y-81394358D01*
X174729124Y-81394356D01*
X174878345Y-81302315D01*
X175002315Y-81178345D01*
X175062984Y-81079986D01*
X180320001Y-81079986D01*
X180330494Y-81182697D01*
X180385641Y-81349119D01*
X180385643Y-81349124D01*
X180477684Y-81498345D01*
X180601654Y-81622315D01*
X180750875Y-81714356D01*
X180750880Y-81714358D01*
X180917302Y-81769505D01*
X180917309Y-81769506D01*
X181020019Y-81779999D01*
X181369999Y-81779999D01*
X181870000Y-81779999D01*
X182219972Y-81779999D01*
X182219986Y-81779998D01*
X182322697Y-81769505D01*
X182489119Y-81714358D01*
X182489124Y-81714356D01*
X182638345Y-81622315D01*
X182762315Y-81498345D01*
X182854356Y-81349124D01*
X182854358Y-81349119D01*
X182909505Y-81182697D01*
X182909506Y-81182690D01*
X182919999Y-81079986D01*
X182920000Y-81079973D01*
X182920000Y-80030000D01*
X181870000Y-80030000D01*
X181870000Y-81779999D01*
X181369999Y-81779999D01*
X181370000Y-81779998D01*
X181370000Y-80030000D01*
X180320001Y-80030000D01*
X180320001Y-81079986D01*
X175062984Y-81079986D01*
X175094356Y-81029124D01*
X175094358Y-81029119D01*
X175149505Y-80862697D01*
X175149506Y-80862690D01*
X175159999Y-80759986D01*
X175160000Y-80759973D01*
X175160000Y-80635000D01*
X174010000Y-80635000D01*
X174010000Y-81459999D01*
X173509999Y-81459999D01*
X173510000Y-81459998D01*
X173510000Y-80635000D01*
X172360001Y-80635000D01*
X172360001Y-80759986D01*
X168225500Y-80759986D01*
X168225499Y-80560000D01*
X168225499Y-80212128D01*
X168225498Y-80212111D01*
X168221320Y-80173253D01*
X168220672Y-80156039D01*
X168220820Y-80151394D01*
X168225500Y-80107873D01*
X168225500Y-80010013D01*
X172360000Y-80010013D01*
X172360000Y-80135000D01*
X173510000Y-80135000D01*
X174010000Y-80135000D01*
X175159999Y-80135000D01*
X175159999Y-80010028D01*
X175159998Y-80010018D01*
X175158080Y-79991242D01*
X175158080Y-79991239D01*
X175149505Y-79907303D01*
X175094358Y-79740880D01*
X175094356Y-79740875D01*
X175002315Y-79591654D01*
X174878345Y-79467684D01*
X174729124Y-79375643D01*
X174729119Y-79375641D01*
X174562697Y-79320494D01*
X174562690Y-79320493D01*
X174459986Y-79310000D01*
X174010000Y-79310000D01*
X174010000Y-80135000D01*
X173510000Y-80135000D01*
X173510000Y-79310000D01*
X173060028Y-79310000D01*
X173060012Y-79310001D01*
X172957302Y-79320494D01*
X172790880Y-79375641D01*
X172790875Y-79375643D01*
X172641654Y-79467684D01*
X172517684Y-79591654D01*
X172425643Y-79740875D01*
X172425641Y-79740880D01*
X172370494Y-79907302D01*
X172370493Y-79907309D01*
X172360000Y-80010013D01*
X168225500Y-80010013D01*
X168225499Y-79412128D01*
X168221067Y-79370898D01*
X168221068Y-79344393D01*
X168224999Y-79307833D01*
X168225000Y-79307819D01*
X168225000Y-79210000D01*
X168224948Y-79209948D01*
X168158085Y-79190315D01*
X168125859Y-79160313D01*
X168082546Y-79102454D01*
X168059709Y-79085358D01*
X167967335Y-79016206D01*
X167967328Y-79016202D01*
X167832482Y-78965908D01*
X167832483Y-78965908D01*
X167772883Y-78959501D01*
X167772881Y-78959500D01*
X167772873Y-78959500D01*
X167772864Y-78959500D01*
X165677129Y-78959500D01*
X165677123Y-78959501D01*
X165617516Y-78965908D01*
X165482671Y-79016202D01*
X165482664Y-79016206D01*
X165367456Y-79102452D01*
X165367455Y-79102453D01*
X165367454Y-79102454D01*
X165324141Y-79160312D01*
X165268209Y-79202182D01*
X165225027Y-79209972D01*
X165225000Y-79210000D01*
X165225000Y-79307832D01*
X165228931Y-79344399D01*
X165228931Y-79367965D01*
X165229020Y-79370051D01*
X165228965Y-79370595D01*
X165224500Y-79412127D01*
X160025499Y-79412127D01*
X160025499Y-79352517D01*
X160025499Y-79012128D01*
X160025498Y-79012111D01*
X160021320Y-78973253D01*
X160021320Y-78946745D01*
X160025500Y-78907873D01*
X160025500Y-78612164D01*
X165225000Y-78612164D01*
X165225000Y-78710000D01*
X166475000Y-78710000D01*
X166975000Y-78710000D01*
X168225000Y-78710000D01*
X168225000Y-78612179D01*
X168224999Y-78612168D01*
X168220815Y-78573258D01*
X168220318Y-78552710D01*
X168224599Y-78480013D01*
X180320000Y-78480013D01*
X180320000Y-79530000D01*
X181370000Y-79530000D01*
X181870000Y-79530000D01*
X182919999Y-79530000D01*
X182919999Y-78480028D01*
X182919998Y-78480013D01*
X182909506Y-78377304D01*
X182909505Y-78377301D01*
X182854358Y-78210880D01*
X182854356Y-78210875D01*
X182762315Y-78061654D01*
X182638345Y-77937684D01*
X182489124Y-77845643D01*
X182489119Y-77845641D01*
X182322697Y-77790494D01*
X182322690Y-77790493D01*
X182219986Y-77780000D01*
X181870000Y-77780000D01*
X181870000Y-79530000D01*
X181370000Y-79530000D01*
X181370000Y-77780000D01*
X181020028Y-77780000D01*
X181020012Y-77780001D01*
X180917302Y-77790494D01*
X180750880Y-77845641D01*
X180750875Y-77845643D01*
X180601654Y-77937684D01*
X180477684Y-78061654D01*
X180385643Y-78210875D01*
X180385641Y-78210880D01*
X180330494Y-78377302D01*
X180330493Y-78377309D01*
X180320000Y-78480013D01*
X168224599Y-78480013D01*
X168225000Y-78473207D01*
X168225000Y-78410000D01*
X166975000Y-78410000D01*
X166975000Y-78710000D01*
X166475000Y-78710000D01*
X166475000Y-78410000D01*
X165226284Y-78410000D01*
X165229856Y-78556988D01*
X165229183Y-78573252D01*
X165225000Y-78612164D01*
X160025500Y-78612164D01*
X160025499Y-78212128D01*
X160020772Y-78168167D01*
X160020647Y-78163049D01*
X160021320Y-78160529D01*
X160021320Y-78146745D01*
X160025500Y-78107873D01*
X160025500Y-77812164D01*
X165225000Y-77812164D01*
X165225000Y-77910000D01*
X166475000Y-77910000D01*
X166975000Y-77910000D01*
X168225000Y-77910000D01*
X168225000Y-77812179D01*
X168224999Y-77812168D01*
X168220815Y-77773258D01*
X168220815Y-77746742D01*
X168224999Y-77707831D01*
X168225000Y-77707821D01*
X168225000Y-77610000D01*
X166975000Y-77610000D01*
X166975000Y-77910000D01*
X166475000Y-77910000D01*
X166475000Y-77610000D01*
X165226284Y-77610000D01*
X165229856Y-77756988D01*
X165229183Y-77773252D01*
X165225000Y-77812164D01*
X160025500Y-77812164D01*
X160025499Y-77412128D01*
X160020772Y-77368167D01*
X160020647Y-77363049D01*
X160021320Y-77360529D01*
X160021320Y-77346745D01*
X160025500Y-77307873D01*
X160025500Y-77012164D01*
X165225000Y-77012164D01*
X165225000Y-77110000D01*
X166475000Y-77110000D01*
X166975000Y-77110000D01*
X168225000Y-77110000D01*
X168225000Y-77012179D01*
X168224999Y-77012168D01*
X168220815Y-76973258D01*
X168220815Y-76946742D01*
X168224999Y-76907831D01*
X168225000Y-76907821D01*
X168225000Y-76810000D01*
X166975000Y-76810000D01*
X166975000Y-77110000D01*
X166475000Y-77110000D01*
X166475000Y-76810000D01*
X165226284Y-76810000D01*
X165229856Y-76956988D01*
X165229183Y-76973252D01*
X165225000Y-77012164D01*
X160025500Y-77012164D01*
X160025499Y-76612128D01*
X160020772Y-76568167D01*
X160020647Y-76563049D01*
X160021320Y-76560529D01*
X160021320Y-76546745D01*
X160025500Y-76507873D01*
X160025500Y-76212164D01*
X165225000Y-76212164D01*
X165225000Y-76310000D01*
X166475000Y-76310000D01*
X166975000Y-76310000D01*
X168225000Y-76310000D01*
X168225000Y-76212179D01*
X168224999Y-76212168D01*
X168220815Y-76173258D01*
X168220815Y-76157844D01*
X175460000Y-76157844D01*
X175466401Y-76217372D01*
X175466403Y-76217379D01*
X175516645Y-76352086D01*
X175516649Y-76352093D01*
X175602809Y-76467187D01*
X175602812Y-76467190D01*
X175717906Y-76553350D01*
X175717913Y-76553354D01*
X175852620Y-76603596D01*
X175852627Y-76603598D01*
X175912155Y-76609999D01*
X175912172Y-76610000D01*
X176210000Y-76610000D01*
X176710000Y-76610000D01*
X177007828Y-76610000D01*
X177007844Y-76609999D01*
X177067377Y-76603597D01*
X177074933Y-76601813D01*
X177075272Y-76603250D01*
X177136342Y-76598874D01*
X177151633Y-76603364D01*
X177152622Y-76603597D01*
X177212155Y-76609999D01*
X177212172Y-76610000D01*
X177510000Y-76610000D01*
X178010000Y-76610000D01*
X178307828Y-76610000D01*
X178307844Y-76609999D01*
X178367372Y-76603598D01*
X178367379Y-76603596D01*
X178502086Y-76553354D01*
X178502093Y-76553350D01*
X178617187Y-76467190D01*
X178617190Y-76467187D01*
X178703350Y-76352093D01*
X178703354Y-76352086D01*
X178753596Y-76217379D01*
X178753598Y-76217372D01*
X178759999Y-76157844D01*
X178760000Y-76157827D01*
X178760000Y-75610000D01*
X178010000Y-75610000D01*
X178010000Y-76610000D01*
X177510000Y-76610000D01*
X177510000Y-75610000D01*
X176710000Y-75610000D01*
X176710000Y-76610000D01*
X176210000Y-76610000D01*
X176210000Y-75610000D01*
X175460000Y-75610000D01*
X175460000Y-76157844D01*
X168220815Y-76157844D01*
X168220815Y-76146742D01*
X168224999Y-76107831D01*
X168225000Y-76107821D01*
X168225000Y-76010000D01*
X166975000Y-76010000D01*
X166975000Y-76310000D01*
X166475000Y-76310000D01*
X166475000Y-76010000D01*
X165226284Y-76010000D01*
X165229856Y-76156988D01*
X165229183Y-76173252D01*
X165225000Y-76212164D01*
X160025500Y-76212164D01*
X160025499Y-75812128D01*
X160020527Y-75765879D01*
X160020398Y-75760821D01*
X160021067Y-75758304D01*
X160021068Y-75744393D01*
X160024999Y-75707833D01*
X160025000Y-75707819D01*
X160025000Y-75610000D01*
X160024948Y-75609948D01*
X159958085Y-75590315D01*
X159937428Y-75573667D01*
X159931169Y-75567406D01*
X159882546Y-75502454D01*
X159817744Y-75453943D01*
X159811470Y-75447667D01*
X159798813Y-75424478D01*
X159789600Y-75412171D01*
X165225000Y-75412171D01*
X165225000Y-75510000D01*
X166475000Y-75510000D01*
X166975000Y-75510000D01*
X168223764Y-75510000D01*
X168220142Y-75363055D01*
X168220815Y-75360534D01*
X168220815Y-75346742D01*
X168224999Y-75307831D01*
X168225000Y-75307821D01*
X168225000Y-75210000D01*
X166975000Y-75210000D01*
X166975000Y-75510000D01*
X166475000Y-75510000D01*
X166475000Y-75210000D01*
X165226285Y-75210000D01*
X165229857Y-75356986D01*
X165229183Y-75359504D01*
X165229184Y-75373254D01*
X165225000Y-75412171D01*
X159789600Y-75412171D01*
X159782984Y-75403333D01*
X159782337Y-75394293D01*
X159777995Y-75386338D01*
X159779884Y-75359986D01*
X159778000Y-75333641D01*
X159782342Y-75325687D01*
X159782991Y-75316647D01*
X159798824Y-75295503D01*
X159811485Y-75272318D01*
X159824850Y-75260736D01*
X159882546Y-75217546D01*
X159925859Y-75159686D01*
X159960676Y-75128064D01*
X160025000Y-75088931D01*
X160025000Y-75012182D01*
X160024999Y-75012164D01*
X160021068Y-74975602D01*
X160021068Y-74949093D01*
X160025500Y-74907873D01*
X160025499Y-74212128D01*
X160019091Y-74152517D01*
X160007380Y-74121119D01*
X159968797Y-74017671D01*
X159968793Y-74017664D01*
X159882547Y-73902455D01*
X159838401Y-73869407D01*
X159767330Y-73816203D01*
X159767328Y-73816202D01*
X159660152Y-73776228D01*
X161774500Y-73776228D01*
X161774500Y-73943771D01*
X161807182Y-74108074D01*
X161807184Y-74108082D01*
X161871295Y-74262860D01*
X161964373Y-74402162D01*
X162082837Y-74520626D01*
X162159884Y-74572107D01*
X162222137Y-74613703D01*
X162376918Y-74677816D01*
X162499365Y-74702172D01*
X162541228Y-74710499D01*
X162541232Y-74710500D01*
X162541233Y-74710500D01*
X162708768Y-74710500D01*
X162708769Y-74710499D01*
X162873082Y-74677816D01*
X163027863Y-74613703D01*
X163030180Y-74612155D01*
X165225000Y-74612155D01*
X165225000Y-74710000D01*
X166475000Y-74710000D01*
X166975000Y-74710000D01*
X168225000Y-74710000D01*
X168225000Y-74612172D01*
X168224999Y-74612155D01*
X168220693Y-74572107D01*
X168219623Y-74562155D01*
X175460000Y-74562155D01*
X175460000Y-75110000D01*
X176210000Y-75110000D01*
X176710000Y-75110000D01*
X177510000Y-75110000D01*
X178010000Y-75110000D01*
X178760000Y-75110000D01*
X178760000Y-74702155D01*
X185350000Y-74702155D01*
X185350000Y-75350000D01*
X186266988Y-75350000D01*
X186234075Y-75407007D01*
X186200000Y-75534174D01*
X186200000Y-75665826D01*
X186234075Y-75792993D01*
X186266988Y-75850000D01*
X185350000Y-75850000D01*
X185350000Y-76497844D01*
X185356401Y-76557372D01*
X185356403Y-76557379D01*
X185406645Y-76692086D01*
X185406649Y-76692093D01*
X185492809Y-76807187D01*
X185492812Y-76807190D01*
X185607906Y-76893350D01*
X185607913Y-76893354D01*
X185739986Y-76942614D01*
X185795920Y-76984485D01*
X185820337Y-77049949D01*
X185805486Y-77118222D01*
X185784335Y-77146477D01*
X185670271Y-77260541D01*
X185545379Y-77432442D01*
X185448904Y-77621782D01*
X185383242Y-77823870D01*
X185383242Y-77823873D01*
X185372769Y-77890000D01*
X186266988Y-77890000D01*
X186234075Y-77947007D01*
X186200000Y-78074174D01*
X186200000Y-78205826D01*
X186234075Y-78332993D01*
X186266988Y-78390000D01*
X185372769Y-78390000D01*
X185383242Y-78456126D01*
X185383242Y-78456129D01*
X185448904Y-78658217D01*
X185545379Y-78847557D01*
X185670272Y-79019459D01*
X185670276Y-79019464D01*
X185820535Y-79169723D01*
X185820540Y-79169727D01*
X185992444Y-79294622D01*
X186002048Y-79299516D01*
X186052844Y-79347491D01*
X186069638Y-79415312D01*
X186047100Y-79481447D01*
X186002048Y-79520484D01*
X185992444Y-79525377D01*
X185820540Y-79650272D01*
X185820535Y-79650276D01*
X185670276Y-79800535D01*
X185670272Y-79800540D01*
X185545379Y-79972442D01*
X185448904Y-80161782D01*
X185383242Y-80363870D01*
X185383242Y-80363873D01*
X185372769Y-80430000D01*
X186266988Y-80430000D01*
X186234075Y-80487007D01*
X186200000Y-80614174D01*
X186200000Y-80745826D01*
X186234075Y-80872993D01*
X186266988Y-80930000D01*
X185372769Y-80930000D01*
X185383242Y-80996126D01*
X185383242Y-80996129D01*
X185448904Y-81198217D01*
X185545379Y-81387557D01*
X185670272Y-81559459D01*
X185670276Y-81559464D01*
X185820535Y-81709723D01*
X185820540Y-81709727D01*
X185992444Y-81834622D01*
X186002048Y-81839516D01*
X186052844Y-81887491D01*
X186069638Y-81955312D01*
X186047100Y-82021447D01*
X186002048Y-82060484D01*
X185992444Y-82065377D01*
X185820540Y-82190272D01*
X185820535Y-82190276D01*
X185670276Y-82340535D01*
X185670272Y-82340540D01*
X185545379Y-82512442D01*
X185448904Y-82701782D01*
X185383242Y-82903870D01*
X185383242Y-82903873D01*
X185372769Y-82970000D01*
X186266988Y-82970000D01*
X186234075Y-83027007D01*
X186200000Y-83154174D01*
X186200000Y-83285826D01*
X186234075Y-83412993D01*
X186266988Y-83470000D01*
X185372769Y-83470000D01*
X185383242Y-83536126D01*
X185383242Y-83536129D01*
X185448904Y-83738217D01*
X185545379Y-83927557D01*
X185670272Y-84099459D01*
X185670276Y-84099464D01*
X185820535Y-84249723D01*
X185820540Y-84249727D01*
X185992444Y-84374622D01*
X186002048Y-84379516D01*
X186052844Y-84427491D01*
X186069638Y-84495312D01*
X186047100Y-84561447D01*
X186002048Y-84600484D01*
X185992444Y-84605377D01*
X185820540Y-84730272D01*
X185820535Y-84730276D01*
X185670276Y-84880535D01*
X185670272Y-84880540D01*
X185545379Y-85052442D01*
X185448904Y-85241782D01*
X185383242Y-85443870D01*
X185383242Y-85443873D01*
X185372769Y-85510000D01*
X186266988Y-85510000D01*
X186234075Y-85567007D01*
X186200000Y-85694174D01*
X186200000Y-85825826D01*
X186234075Y-85952993D01*
X186266988Y-86010000D01*
X185372769Y-86010000D01*
X185383242Y-86076126D01*
X185383242Y-86076129D01*
X185448904Y-86278217D01*
X185545379Y-86467557D01*
X185670272Y-86639459D01*
X185670276Y-86639464D01*
X185820535Y-86789723D01*
X185820540Y-86789727D01*
X185992444Y-86914622D01*
X186002048Y-86919516D01*
X186052844Y-86967491D01*
X186069638Y-87035312D01*
X186047100Y-87101447D01*
X186002048Y-87140484D01*
X185992444Y-87145377D01*
X185820540Y-87270272D01*
X185820535Y-87270276D01*
X185670276Y-87420535D01*
X185670272Y-87420540D01*
X185545379Y-87592442D01*
X185448904Y-87781782D01*
X185383242Y-87983870D01*
X185383242Y-87983873D01*
X185372769Y-88050000D01*
X186266988Y-88050000D01*
X186234075Y-88107007D01*
X186200000Y-88234174D01*
X186200000Y-88365826D01*
X186234075Y-88492993D01*
X186266988Y-88550000D01*
X185372769Y-88550000D01*
X185383242Y-88616126D01*
X185383242Y-88616129D01*
X185448904Y-88818217D01*
X185545379Y-89007557D01*
X185670272Y-89179459D01*
X185670276Y-89179464D01*
X185820535Y-89329723D01*
X185820540Y-89329727D01*
X185992444Y-89454622D01*
X186002048Y-89459516D01*
X186052844Y-89507491D01*
X186069638Y-89575312D01*
X186047100Y-89641447D01*
X186002048Y-89680484D01*
X185992444Y-89685377D01*
X185820540Y-89810272D01*
X185820535Y-89810276D01*
X185670276Y-89960535D01*
X185670272Y-89960540D01*
X185545379Y-90132442D01*
X185448904Y-90321782D01*
X185383242Y-90523870D01*
X185383242Y-90523873D01*
X185372769Y-90590000D01*
X186266988Y-90590000D01*
X186234075Y-90647007D01*
X186200000Y-90774174D01*
X186200000Y-90905826D01*
X186234075Y-91032993D01*
X186266988Y-91090000D01*
X185372769Y-91090000D01*
X185383242Y-91156126D01*
X185383242Y-91156129D01*
X185448904Y-91358217D01*
X185545379Y-91547557D01*
X185670272Y-91719459D01*
X185670276Y-91719464D01*
X185820535Y-91869723D01*
X185820540Y-91869727D01*
X185992442Y-91994620D01*
X186181782Y-92091095D01*
X186383871Y-92156757D01*
X186450000Y-92167231D01*
X186450000Y-91273012D01*
X186507007Y-91305925D01*
X186634174Y-91340000D01*
X186765826Y-91340000D01*
X186892993Y-91305925D01*
X186950000Y-91273012D01*
X186950000Y-92167230D01*
X187016126Y-92156757D01*
X187016129Y-92156757D01*
X187218217Y-92091095D01*
X187407557Y-91994620D01*
X187579459Y-91869727D01*
X187579464Y-91869723D01*
X187729723Y-91719464D01*
X187729727Y-91719459D01*
X187854620Y-91547557D01*
X187951095Y-91358217D01*
X188016757Y-91156129D01*
X188016757Y-91156126D01*
X188027231Y-91090000D01*
X187133012Y-91090000D01*
X187165925Y-91032993D01*
X187200000Y-90905826D01*
X187200000Y-90774174D01*
X187165925Y-90647007D01*
X187133012Y-90590000D01*
X188027231Y-90590000D01*
X188016757Y-90523873D01*
X188016757Y-90523870D01*
X187951095Y-90321782D01*
X187854620Y-90132442D01*
X187729727Y-89960540D01*
X187729723Y-89960535D01*
X187579464Y-89810276D01*
X187579459Y-89810272D01*
X187407558Y-89685379D01*
X187397954Y-89680486D01*
X187347157Y-89632512D01*
X187330361Y-89564692D01*
X187352897Y-89498556D01*
X187397954Y-89459514D01*
X187407558Y-89454620D01*
X187579459Y-89329727D01*
X187579464Y-89329723D01*
X187729723Y-89179464D01*
X187729727Y-89179459D01*
X187854620Y-89007557D01*
X187951095Y-88818217D01*
X188016757Y-88616129D01*
X188016757Y-88616126D01*
X188027231Y-88550000D01*
X187133012Y-88550000D01*
X187165925Y-88492993D01*
X187200000Y-88365826D01*
X187200000Y-88234174D01*
X187165925Y-88107007D01*
X187133012Y-88050000D01*
X188027231Y-88050000D01*
X188016757Y-87983873D01*
X188016757Y-87983870D01*
X187951095Y-87781782D01*
X187854620Y-87592442D01*
X187729727Y-87420540D01*
X187729723Y-87420535D01*
X187579464Y-87270276D01*
X187579459Y-87270272D01*
X187407558Y-87145379D01*
X187397954Y-87140486D01*
X187347157Y-87092512D01*
X187330361Y-87024692D01*
X187352897Y-86958556D01*
X187397954Y-86919514D01*
X187407558Y-86914620D01*
X187579459Y-86789727D01*
X187579464Y-86789723D01*
X187729723Y-86639464D01*
X187729727Y-86639459D01*
X187854620Y-86467557D01*
X187951095Y-86278217D01*
X188016757Y-86076129D01*
X188016757Y-86076126D01*
X188027231Y-86010000D01*
X187133012Y-86010000D01*
X187165925Y-85952993D01*
X187200000Y-85825826D01*
X187200000Y-85694174D01*
X187165925Y-85567007D01*
X187133012Y-85510000D01*
X188027231Y-85510000D01*
X188016757Y-85443873D01*
X188016757Y-85443870D01*
X187951095Y-85241782D01*
X187854620Y-85052442D01*
X187729727Y-84880540D01*
X187729723Y-84880535D01*
X187579464Y-84730276D01*
X187579459Y-84730272D01*
X187407558Y-84605379D01*
X187397954Y-84600486D01*
X187347157Y-84552512D01*
X187330361Y-84484692D01*
X187352897Y-84418556D01*
X187397954Y-84379514D01*
X187407558Y-84374620D01*
X187579459Y-84249727D01*
X187579464Y-84249723D01*
X187729723Y-84099464D01*
X187729727Y-84099459D01*
X187854620Y-83927557D01*
X187951095Y-83738217D01*
X188016757Y-83536129D01*
X188016757Y-83536126D01*
X188027231Y-83470000D01*
X187133012Y-83470000D01*
X187165925Y-83412993D01*
X187200000Y-83285826D01*
X187200000Y-83154174D01*
X187165925Y-83027007D01*
X187133012Y-82970000D01*
X188027231Y-82970000D01*
X188016757Y-82903873D01*
X188016757Y-82903870D01*
X187951095Y-82701782D01*
X187854620Y-82512442D01*
X187729727Y-82340540D01*
X187729723Y-82340535D01*
X187579464Y-82190276D01*
X187579459Y-82190272D01*
X187407558Y-82065379D01*
X187397954Y-82060486D01*
X187347157Y-82012512D01*
X187330361Y-81944692D01*
X187352897Y-81878556D01*
X187397954Y-81839514D01*
X187407558Y-81834620D01*
X187579459Y-81709727D01*
X187579464Y-81709723D01*
X187729723Y-81559464D01*
X187729727Y-81559459D01*
X187854620Y-81387557D01*
X187951095Y-81198217D01*
X188016757Y-80996129D01*
X188016757Y-80996126D01*
X188027231Y-80930000D01*
X187133012Y-80930000D01*
X187165925Y-80872993D01*
X187200000Y-80745826D01*
X187200000Y-80614174D01*
X187165925Y-80487007D01*
X187133012Y-80430000D01*
X188027231Y-80430000D01*
X188016757Y-80363873D01*
X188016757Y-80363870D01*
X187951095Y-80161782D01*
X187854620Y-79972442D01*
X187729727Y-79800540D01*
X187729723Y-79800535D01*
X187579464Y-79650276D01*
X187579459Y-79650272D01*
X187407558Y-79525379D01*
X187397954Y-79520486D01*
X187347157Y-79472512D01*
X187330361Y-79404692D01*
X187352897Y-79338556D01*
X187397954Y-79299514D01*
X187407558Y-79294620D01*
X187579459Y-79169727D01*
X187579464Y-79169723D01*
X187729723Y-79019464D01*
X187729727Y-79019459D01*
X187854620Y-78847557D01*
X187951095Y-78658217D01*
X188016757Y-78456129D01*
X188016757Y-78456126D01*
X188027231Y-78390000D01*
X187133012Y-78390000D01*
X187165925Y-78332993D01*
X187200000Y-78205826D01*
X187200000Y-78074174D01*
X187165925Y-77947007D01*
X187133012Y-77890000D01*
X188027231Y-77890000D01*
X188016757Y-77823873D01*
X188016757Y-77823870D01*
X187951095Y-77621782D01*
X187854620Y-77432442D01*
X187729727Y-77260540D01*
X187729723Y-77260535D01*
X187615665Y-77146477D01*
X187582180Y-77085154D01*
X187587164Y-77015462D01*
X187629036Y-76959529D01*
X187660013Y-76942614D01*
X187792086Y-76893354D01*
X187792093Y-76893350D01*
X187907187Y-76807190D01*
X187907190Y-76807187D01*
X187993350Y-76692093D01*
X187993354Y-76692086D01*
X188043596Y-76557379D01*
X188043598Y-76557372D01*
X188049999Y-76497844D01*
X188050000Y-76497827D01*
X188050000Y-75850000D01*
X187133012Y-75850000D01*
X187165925Y-75792993D01*
X187200000Y-75665826D01*
X187200000Y-75534174D01*
X187165925Y-75407007D01*
X187133012Y-75350000D01*
X188050000Y-75350000D01*
X188050000Y-74702172D01*
X188049999Y-74702155D01*
X188043598Y-74642627D01*
X188043596Y-74642620D01*
X187993354Y-74507913D01*
X187993350Y-74507906D01*
X187907190Y-74392812D01*
X187907187Y-74392809D01*
X187792093Y-74306649D01*
X187792086Y-74306645D01*
X187657379Y-74256403D01*
X187657372Y-74256401D01*
X187597844Y-74250000D01*
X186950000Y-74250000D01*
X186950000Y-75166988D01*
X186892993Y-75134075D01*
X186765826Y-75100000D01*
X186634174Y-75100000D01*
X186507007Y-75134075D01*
X186450000Y-75166988D01*
X186450000Y-74250000D01*
X185802155Y-74250000D01*
X185742627Y-74256401D01*
X185742620Y-74256403D01*
X185607913Y-74306645D01*
X185607906Y-74306649D01*
X185492812Y-74392809D01*
X185492809Y-74392812D01*
X185406649Y-74507906D01*
X185406645Y-74507913D01*
X185356403Y-74642620D01*
X185356401Y-74642627D01*
X185350000Y-74702155D01*
X178760000Y-74702155D01*
X178760000Y-74562172D01*
X178759999Y-74562155D01*
X178753598Y-74502627D01*
X178753596Y-74502620D01*
X178703354Y-74367913D01*
X178703350Y-74367906D01*
X178617190Y-74252812D01*
X178617187Y-74252809D01*
X178502093Y-74166649D01*
X178502086Y-74166645D01*
X178367379Y-74116403D01*
X178367372Y-74116401D01*
X178307844Y-74110000D01*
X178010000Y-74110000D01*
X178010000Y-75110000D01*
X177510000Y-75110000D01*
X177510000Y-74110000D01*
X177212155Y-74110000D01*
X177152624Y-74116401D01*
X177145073Y-74118186D01*
X177144734Y-74116754D01*
X177083630Y-74121119D01*
X177068350Y-74116632D01*
X177067375Y-74116401D01*
X177007844Y-74110000D01*
X176710000Y-74110000D01*
X176710000Y-75110000D01*
X176210000Y-75110000D01*
X176210000Y-74110000D01*
X175912155Y-74110000D01*
X175852627Y-74116401D01*
X175852620Y-74116403D01*
X175717913Y-74166645D01*
X175717906Y-74166649D01*
X175602812Y-74252809D01*
X175602809Y-74252812D01*
X175516649Y-74367906D01*
X175516645Y-74367913D01*
X175466403Y-74502620D01*
X175466401Y-74502627D01*
X175460000Y-74562155D01*
X168219623Y-74562155D01*
X168218598Y-74552626D01*
X168218596Y-74552620D01*
X168168354Y-74417913D01*
X168168350Y-74417906D01*
X168082190Y-74302812D01*
X168082187Y-74302809D01*
X167967093Y-74216649D01*
X167967086Y-74216645D01*
X167832379Y-74166403D01*
X167832372Y-74166401D01*
X167772844Y-74160000D01*
X166975000Y-74160000D01*
X166975000Y-74710000D01*
X166475000Y-74710000D01*
X166475000Y-74160000D01*
X165677155Y-74160000D01*
X165617627Y-74166401D01*
X165617620Y-74166403D01*
X165482913Y-74216645D01*
X165482906Y-74216649D01*
X165367812Y-74302809D01*
X165367809Y-74302812D01*
X165281649Y-74417906D01*
X165281645Y-74417913D01*
X165231403Y-74552620D01*
X165231401Y-74552627D01*
X165225000Y-74612155D01*
X163030180Y-74612155D01*
X163167162Y-74520626D01*
X163285626Y-74402162D01*
X163378703Y-74262863D01*
X163442816Y-74108082D01*
X163475500Y-73943767D01*
X163475500Y-73776233D01*
X163442816Y-73611918D01*
X163395454Y-73497577D01*
X176215975Y-73497577D01*
X176321236Y-73541178D01*
X176321240Y-73541179D01*
X176466126Y-73569999D01*
X176466129Y-73570000D01*
X176613871Y-73570000D01*
X176613873Y-73569999D01*
X176758760Y-73541179D01*
X176758775Y-73541175D01*
X176864024Y-73497578D01*
X176864024Y-73497577D01*
X176540001Y-73173554D01*
X176540000Y-73173554D01*
X176215975Y-73497577D01*
X163395454Y-73497577D01*
X163378703Y-73457137D01*
X163314132Y-73360500D01*
X163285626Y-73317837D01*
X163167162Y-73199373D01*
X163027860Y-73106295D01*
X162873082Y-73042184D01*
X162873074Y-73042182D01*
X162708771Y-73009500D01*
X162708767Y-73009500D01*
X162541233Y-73009500D01*
X162541228Y-73009500D01*
X162376925Y-73042182D01*
X162376917Y-73042184D01*
X162222139Y-73106295D01*
X162082837Y-73199373D01*
X161964373Y-73317837D01*
X161871295Y-73457139D01*
X161807184Y-73611917D01*
X161807182Y-73611925D01*
X161774500Y-73776228D01*
X159660152Y-73776228D01*
X159632482Y-73765908D01*
X159632483Y-73765908D01*
X159572883Y-73759501D01*
X159572881Y-73759500D01*
X159572873Y-73759500D01*
X159572864Y-73759500D01*
X157477129Y-73759500D01*
X157477123Y-73759501D01*
X157417516Y-73765908D01*
X157282671Y-73816202D01*
X157282664Y-73816206D01*
X157167455Y-73902452D01*
X157167452Y-73902455D01*
X157081206Y-74017664D01*
X157081202Y-74017671D01*
X157030910Y-74152513D01*
X157030909Y-74152517D01*
X157024500Y-74212127D01*
X106680000Y-74212127D01*
X106680000Y-70512135D01*
X164024500Y-70512135D01*
X164024500Y-72907870D01*
X164024501Y-72907876D01*
X164030908Y-72967483D01*
X164081202Y-73102328D01*
X164081206Y-73102335D01*
X164167452Y-73217544D01*
X164167455Y-73217547D01*
X164282664Y-73303793D01*
X164282671Y-73303797D01*
X164417517Y-73354091D01*
X164417516Y-73354091D01*
X164424444Y-73354835D01*
X164477127Y-73360500D01*
X167772872Y-73360499D01*
X167832483Y-73354091D01*
X167868706Y-73340581D01*
X167967328Y-73303797D01*
X167967327Y-73303797D01*
X167967331Y-73303796D01*
X168082546Y-73217546D01*
X168168796Y-73102331D01*
X168219091Y-72967483D01*
X168225500Y-72907873D01*
X168225500Y-72746126D01*
X175790000Y-72746126D01*
X175790000Y-72893873D01*
X175818820Y-73038759D01*
X175818822Y-73038767D01*
X175862421Y-73144024D01*
X176186446Y-72820000D01*
X176186446Y-72819999D01*
X176893554Y-72819999D01*
X176893554Y-72820001D01*
X177217577Y-73144024D01*
X177217578Y-73144024D01*
X177261175Y-73038775D01*
X177261179Y-73038760D01*
X177289999Y-72893873D01*
X177290000Y-72893871D01*
X177290000Y-72746128D01*
X177289999Y-72746126D01*
X177261179Y-72601240D01*
X177261178Y-72601236D01*
X177217577Y-72495975D01*
X176893554Y-72819999D01*
X176186446Y-72819999D01*
X175862421Y-72495974D01*
X175862420Y-72495974D01*
X175818823Y-72601228D01*
X175818820Y-72601240D01*
X175790000Y-72746126D01*
X168225500Y-72746126D01*
X168225500Y-72320000D01*
X176393554Y-72320000D01*
X176540000Y-72466446D01*
X176686446Y-72320000D01*
X176540000Y-72173554D01*
X176393554Y-72320000D01*
X168225500Y-72320000D01*
X168225500Y-71746126D01*
X175790000Y-71746126D01*
X175790000Y-71893873D01*
X175818820Y-72038759D01*
X175818822Y-72038767D01*
X175862421Y-72144024D01*
X176186446Y-71820000D01*
X176186446Y-71819999D01*
X176893554Y-71819999D01*
X176893554Y-71820001D01*
X177217577Y-72144024D01*
X177217578Y-72144024D01*
X177261175Y-72038775D01*
X177261179Y-72038760D01*
X177289999Y-71893873D01*
X177290000Y-71893871D01*
X177290000Y-71746128D01*
X177289999Y-71746126D01*
X177261179Y-71601240D01*
X177261178Y-71601236D01*
X177217577Y-71495975D01*
X176893554Y-71819999D01*
X176186446Y-71819999D01*
X175862421Y-71495974D01*
X175862420Y-71495974D01*
X175818823Y-71601228D01*
X175818820Y-71601240D01*
X175790000Y-71746126D01*
X168225500Y-71746126D01*
X168225500Y-71183236D01*
X168225500Y-71142420D01*
X176215974Y-71142420D01*
X176215974Y-71142421D01*
X176540000Y-71466446D01*
X176540001Y-71466446D01*
X176864024Y-71142421D01*
X176758767Y-71098822D01*
X176758759Y-71098820D01*
X176613872Y-71070000D01*
X176466128Y-71070000D01*
X176321240Y-71098820D01*
X176321228Y-71098823D01*
X176215974Y-71142420D01*
X168225500Y-71142420D01*
X168225499Y-70512129D01*
X168225498Y-70512123D01*
X168225497Y-70512116D01*
X168219091Y-70452517D01*
X168168796Y-70317669D01*
X168168795Y-70317668D01*
X168168793Y-70317664D01*
X168082547Y-70202455D01*
X168082544Y-70202452D01*
X167967335Y-70116206D01*
X167967328Y-70116202D01*
X167832482Y-70065908D01*
X167832483Y-70065908D01*
X167772883Y-70059501D01*
X167772881Y-70059500D01*
X167772873Y-70059500D01*
X167772864Y-70059500D01*
X164477129Y-70059500D01*
X164477123Y-70059501D01*
X164417516Y-70065908D01*
X164282671Y-70116202D01*
X164282664Y-70116206D01*
X164167455Y-70202452D01*
X164167452Y-70202455D01*
X164081206Y-70317664D01*
X164081202Y-70317671D01*
X164030908Y-70452517D01*
X164024501Y-70512116D01*
X164024501Y-70512123D01*
X164024500Y-70512135D01*
X106680000Y-70512135D01*
X106680000Y-66164000D01*
X106699685Y-66096961D01*
X106752489Y-66051206D01*
X106804000Y-66040000D01*
X190376000Y-66040000D01*
X190443039Y-66059685D01*
G37*
%TD.AperFunction*%
%TD*%
M02*
