M48
; DRILL file {KiCad 9.0.0-9.0.0-2~ubuntu24.04.1} date 2025-04-06T07:07:05+0300
; FORMAT={-:-/ absolute / metric / decimal}
; #@! TF.CreationDate,2025-04-06T07:07:05+03:00
; #@! TF.GenerationSoftware,Kicad,Pcbnew,9.0.0-9.0.0-2~ubuntu24.04.1
; #@! TF.FileFunction,Plated,1,2,PTH
FMAT,2
METRIC
; #@! TA.AperFunction,Plated,PTH,ViaDrill
T1C0.400
; #@! TA.AperFunction,Plated,PTH,ViaDrill
T2C0.500
; #@! TA.AperFunction,Plated,PTH,ComponentDrill
T3C0.700
; #@! TA.AperFunction,Plated,PTH,ComponentDrill
T4C0.762
; #@! TA.AperFunction,Plated,PTH,ComponentDrill
T5C1.000
%
G90
G05
T1
X148.151Y-110.265
X150.205Y-106.993
X150.486Y-80.013
X163.279Y-83.651
X167.546Y-83.474
X171.214Y-64.595
T2
X122.0Y-67.0
X122.0Y-80.0
X122.0Y-98.0
X122.5Y-116.0
X131.0Y-74.5
X131.0Y-120.0
X131.0Y-131.0
X139.0Y-67.0
X139.5Y-93.5
X139.5Y-116.5
X149.0Y-67.0
X155.0Y-97.0
X162.0Y-131.0
X162.5Y-115.5
X166.0Y-97.5
X170.0Y-120.0
X171.0Y-92.0
X171.0Y-103.5
X175.5Y-67.5
X179.0Y-115.5
X182.5Y-97.5
X194.0Y-67.5
X194.0Y-80.0
X194.5Y-96.5
X194.5Y-114.5
T3
X128.9Y-103.26
X131.44Y-103.26
X133.98Y-103.26
T4
X158.86Y-62.68
X158.86Y-65.22
X158.86Y-67.76
X158.86Y-70.3
X158.86Y-72.84
X158.86Y-75.38
X158.86Y-77.92
X161.4Y-62.68
X161.4Y-65.22
X161.4Y-67.76
X161.4Y-70.3
X161.4Y-72.84
X161.4Y-75.38
X161.4Y-77.92
T5
X152.4Y-86.36
X152.4Y-111.76
X154.94Y-86.36
X154.94Y-111.76
X157.48Y-86.36
X157.48Y-111.76
X160.02Y-86.36
X160.02Y-111.76
X162.56Y-86.36
X162.56Y-111.76
X165.1Y-86.36
X165.1Y-111.76
X167.64Y-86.36
X167.64Y-111.76
X170.18Y-86.36
X170.18Y-111.76
X172.72Y-86.36
X172.72Y-111.76
X175.26Y-86.36
X175.26Y-111.76
X177.8Y-86.36
X177.8Y-111.76
X180.34Y-86.36
X180.34Y-111.76
X182.88Y-86.36
X182.88Y-111.76
X185.42Y-86.36
X185.42Y-111.76
X187.96Y-86.36
X187.96Y-111.76
T5
G00X183.4Y-127.718
M15
G01X183.4Y-125.718
M16
G05
G00X187.4Y-122.017
M15
G01X185.4Y-122.017
M16
G05
G00X189.4Y-127.718
M15
G01X189.4Y-125.718
M16
G05
M30
