%TF.GenerationSoftware,KiCad,Pcbnew,9.0.0-9.0.0-2~ubuntu24.04.1*%
%TF.CreationDate,2025-04-06T07:06:59+03:00*%
%TF.ProjectId,InterfaceBoard_Transciever3,496e7465-7266-4616-9365-426f6172645f,rev?*%
%TF.SameCoordinates,Original*%
%TF.FileFunction,Soldermask,Top*%
%TF.FilePolarity,Negative*%
%FSLAX46Y46*%
G04 Gerber Fmt 4.6, Leading zero omitted, Abs format (unit mm)*
G04 Created by KiCad (PCBNEW 9.0.0-9.0.0-2~ubuntu24.04.1) date 2025-04-06 07:06:59*
%MOMM*%
%LPD*%
G01*
G04 APERTURE LIST*
G04 Aperture macros list*
%AMRoundRect*
0 Rectangle with rounded corners*
0 $1 Rounding radius*
0 $2 $3 $4 $5 $6 $7 $8 $9 X,Y pos of 4 corners*
0 Add a 4 corners polygon primitive as box body*
4,1,4,$2,$3,$4,$5,$6,$7,$8,$9,$2,$3,0*
0 Add four circle primitives for the rounded corners*
1,1,$1+$1,$2,$3*
1,1,$1+$1,$4,$5*
1,1,$1+$1,$6,$7*
1,1,$1+$1,$8,$9*
0 Add four rect primitives between the rounded corners*
20,1,$1+$1,$2,$3,$4,$5,0*
20,1,$1+$1,$4,$5,$6,$7,0*
20,1,$1+$1,$6,$7,$8,$9,0*
20,1,$1+$1,$8,$9,$2,$3,0*%
G04 Aperture macros list end*
%ADD10R,1.500000X1.000000*%
%ADD11RoundRect,0.250000X-1.250000X-0.550000X1.250000X-0.550000X1.250000X0.550000X-1.250000X0.550000X0*%
%ADD12RoundRect,0.250000X-0.325000X-0.650000X0.325000X-0.650000X0.325000X0.650000X-0.325000X0.650000X0*%
%ADD13R,1.300000X1.300000*%
%ADD14C,1.300000*%
%ADD15C,1.524000*%
%ADD16R,3.500000X3.500000*%
%ADD17RoundRect,0.750000X0.750000X1.000000X-0.750000X1.000000X-0.750000X-1.000000X0.750000X-1.000000X0*%
%ADD18RoundRect,0.875000X0.875000X0.875000X-0.875000X0.875000X-0.875000X-0.875000X0.875000X-0.875000X0*%
%ADD19C,2.000000*%
%ADD20R,2.000000X2.000000*%
G04 APERTURE END LIST*
%TO.C,jump3v3*%
G36*
X127650000Y-83410000D02*
G01*
X129150000Y-83410000D01*
X129150000Y-83110000D01*
X127650000Y-83110000D01*
X127650000Y-83410000D01*
G37*
%TO.C,jumpgnd*%
G36*
X131650000Y-83410000D02*
G01*
X133150000Y-83410000D01*
X133150000Y-83110000D01*
X131650000Y-83110000D01*
X131650000Y-83410000D01*
G37*
%TD*%
D10*
%TO.C,solderjump5V*%
X171600000Y-77930000D03*
X171600000Y-79230000D03*
%TD*%
%TO.C,jump3v3*%
X128400000Y-83910000D03*
X128400000Y-82610000D03*
%TD*%
%TO.C,jumpgnd*%
X132400000Y-83910000D03*
X132400000Y-82610000D03*
%TD*%
D11*
%TO.C,C2_1206_10uf*%
X127755000Y-95260000D03*
X132155000Y-95260000D03*
%TD*%
D12*
%TO.C,R2_1206*%
X172425000Y-127340000D03*
X175375000Y-127340000D03*
%TD*%
D11*
%TO.C,C1_1206_10uf*%
X151225000Y-124260000D03*
X155625000Y-124260000D03*
%TD*%
D12*
%TO.C,C2_1206_10nf*%
X128480000Y-89760000D03*
X131430000Y-89760000D03*
%TD*%
D13*
%TO.C,REGULATOR5V*%
X133980000Y-103260000D03*
D14*
X131440000Y-103260000D03*
X128900000Y-103260000D03*
%TD*%
D15*
%TO.C,LoRaType3*%
X158860000Y-62680000D03*
X158860000Y-65220000D03*
X158860000Y-67760000D03*
X158860000Y-70300000D03*
X158860000Y-72840000D03*
X158860000Y-75380000D03*
X158860000Y-77920000D03*
X161400000Y-77920000D03*
X161400000Y-75380000D03*
X161400000Y-72840000D03*
X161400000Y-70300000D03*
X161400000Y-67760000D03*
X161400000Y-65220000D03*
X161400000Y-62680000D03*
%TD*%
D16*
%TO.C,BarrelJack_Horizontal*%
X183400000Y-126717500D03*
D17*
X189400000Y-126717500D03*
D18*
X186400000Y-122017500D03*
%TD*%
D19*
%TO.C,ESP32C6*%
X170180000Y-86360000D03*
X167640000Y-86360000D03*
X185420000Y-111760000D03*
X182880000Y-111760000D03*
X185420000Y-86360000D03*
X180340000Y-86360000D03*
X177800000Y-86360000D03*
X152400000Y-86360000D03*
X152400000Y-111760000D03*
X175260000Y-86360000D03*
X172720000Y-86360000D03*
X165100000Y-86360000D03*
X157480000Y-111760000D03*
X162560000Y-86360000D03*
X160020000Y-86360000D03*
X157480000Y-86360000D03*
X154940000Y-86360000D03*
X175260000Y-111760000D03*
X160020000Y-111760000D03*
X162560000Y-111760000D03*
X165100000Y-111760000D03*
X167640000Y-111760000D03*
X170180000Y-111760000D03*
X172720000Y-111760000D03*
D20*
X154940000Y-111760000D03*
X187960000Y-86360000D03*
X187960000Y-111760000D03*
D19*
X182880000Y-86360000D03*
X177800000Y-111760000D03*
X180340000Y-111760000D03*
%TD*%
M02*
