%TF.GenerationSoftware,KiCad,Pcbnew,9.0.0-9.0.0-2~ubuntu24.04.1*%
%TF.CreationDate,2025-04-06T07:06:59+03:00*%
%TF.ProjectId,InterfaceBoard_Transciever3,496e7465-7266-4616-9365-426f6172645f,rev?*%
%TF.SameCoordinates,Original*%
%TF.FileFunction,Copper,L1,Top*%
%TF.FilePolarity,Positive*%
%FSLAX46Y46*%
G04 Gerber Fmt 4.6, Leading zero omitted, Abs format (unit mm)*
G04 Created by KiCad (PCBNEW 9.0.0-9.0.0-2~ubuntu24.04.1) date 2025-04-06 07:06:59*
%MOMM*%
%LPD*%
G01*
G04 APERTURE LIST*
G04 Aperture macros list*
%AMRoundRect*
0 Rectangle with rounded corners*
0 $1 Rounding radius*
0 $2 $3 $4 $5 $6 $7 $8 $9 X,Y pos of 4 corners*
0 Add a 4 corners polygon primitive as box body*
4,1,4,$2,$3,$4,$5,$6,$7,$8,$9,$2,$3,0*
0 Add four circle primitives for the rounded corners*
1,1,$1+$1,$2,$3*
1,1,$1+$1,$4,$5*
1,1,$1+$1,$6,$7*
1,1,$1+$1,$8,$9*
0 Add four rect primitives between the rounded corners*
20,1,$1+$1,$2,$3,$4,$5,0*
20,1,$1+$1,$4,$5,$6,$7,0*
20,1,$1+$1,$6,$7,$8,$9,0*
20,1,$1+$1,$8,$9,$2,$3,0*%
G04 Aperture macros list end*
%ADD10C,0.300000*%
%TA.AperFunction,NonConductor*%
%ADD11C,0.300000*%
%TD*%
%TA.AperFunction,EtchedComponent*%
%ADD12C,0.000000*%
%TD*%
%TA.AperFunction,SMDPad,CuDef*%
%ADD13R,1.500000X1.000000*%
%TD*%
%TA.AperFunction,SMDPad,CuDef*%
%ADD14RoundRect,0.250000X-1.250000X-0.550000X1.250000X-0.550000X1.250000X0.550000X-1.250000X0.550000X0*%
%TD*%
%TA.AperFunction,SMDPad,CuDef*%
%ADD15RoundRect,0.250000X-0.325000X-0.650000X0.325000X-0.650000X0.325000X0.650000X-0.325000X0.650000X0*%
%TD*%
%TA.AperFunction,ComponentPad*%
%ADD16R,1.300000X1.300000*%
%TD*%
%TA.AperFunction,ComponentPad*%
%ADD17C,1.300000*%
%TD*%
%TA.AperFunction,ComponentPad*%
%ADD18C,1.524000*%
%TD*%
%TA.AperFunction,ComponentPad*%
%ADD19R,3.500000X3.500000*%
%TD*%
%TA.AperFunction,ComponentPad*%
%ADD20RoundRect,0.750000X0.750000X1.000000X-0.750000X1.000000X-0.750000X-1.000000X0.750000X-1.000000X0*%
%TD*%
%TA.AperFunction,ComponentPad*%
%ADD21RoundRect,0.875000X0.875000X0.875000X-0.875000X0.875000X-0.875000X-0.875000X0.875000X-0.875000X0*%
%TD*%
%TA.AperFunction,ComponentPad*%
%ADD22C,2.000000*%
%TD*%
%TA.AperFunction,ComponentPad*%
%ADD23R,2.000000X2.000000*%
%TD*%
%TA.AperFunction,ViaPad*%
%ADD24C,0.800000*%
%TD*%
%TA.AperFunction,ViaPad*%
%ADD25C,1.000000*%
%TD*%
%TA.AperFunction,Conductor*%
%ADD26C,0.300000*%
%TD*%
G04 APERTURE END LIST*
D10*
D11*
X121214510Y-125260828D02*
X121214510Y-123760828D01*
X121214510Y-124475114D02*
X122071653Y-124475114D01*
X122071653Y-125260828D02*
X122071653Y-123760828D01*
X123071654Y-124546542D02*
X123071654Y-125260828D01*
X122571654Y-123760828D02*
X123071654Y-124546542D01*
X123071654Y-124546542D02*
X123571654Y-123760828D01*
X124357368Y-123760828D02*
X124643082Y-123760828D01*
X124643082Y-123760828D02*
X124785939Y-123832257D01*
X124785939Y-123832257D02*
X124928796Y-123975114D01*
X124928796Y-123975114D02*
X125000225Y-124260828D01*
X125000225Y-124260828D02*
X125000225Y-124760828D01*
X125000225Y-124760828D02*
X124928796Y-125046542D01*
X124928796Y-125046542D02*
X124785939Y-125189400D01*
X124785939Y-125189400D02*
X124643082Y-125260828D01*
X124643082Y-125260828D02*
X124357368Y-125260828D01*
X124357368Y-125260828D02*
X124214511Y-125189400D01*
X124214511Y-125189400D02*
X124071653Y-125046542D01*
X124071653Y-125046542D02*
X124000225Y-124760828D01*
X124000225Y-124760828D02*
X124000225Y-124260828D01*
X124000225Y-124260828D02*
X124071653Y-123975114D01*
X124071653Y-123975114D02*
X124214511Y-123832257D01*
X124214511Y-123832257D02*
X124357368Y-123760828D01*
X125643082Y-125260828D02*
X125643082Y-123760828D01*
X125643082Y-123760828D02*
X126143082Y-124832257D01*
X126143082Y-124832257D02*
X126643082Y-123760828D01*
X126643082Y-123760828D02*
X126643082Y-125260828D01*
X127357368Y-125260828D02*
X127357368Y-123760828D01*
X128071654Y-125260828D02*
X128071654Y-123760828D01*
X128071654Y-123760828D02*
X128928797Y-125260828D01*
X128928797Y-125260828D02*
X128928797Y-123760828D01*
X130785940Y-125260828D02*
X130785940Y-123760828D01*
X130785940Y-123760828D02*
X131285940Y-124832257D01*
X131285940Y-124832257D02*
X131785940Y-123760828D01*
X131785940Y-123760828D02*
X131785940Y-125260828D01*
X132500226Y-125260828D02*
X132500226Y-123760828D01*
X133357369Y-125260828D02*
X132714512Y-124403685D01*
X133357369Y-123760828D02*
X132500226Y-124617971D01*
X134785941Y-125260828D02*
X133928798Y-125260828D01*
X134357369Y-125260828D02*
X134357369Y-123760828D01*
X134357369Y-123760828D02*
X134214512Y-123975114D01*
X134214512Y-123975114D02*
X134071655Y-124117971D01*
X134071655Y-124117971D02*
X133928798Y-124189400D01*
X135071655Y-125403685D02*
X136214512Y-125403685D01*
X137357369Y-125260828D02*
X136500226Y-125260828D01*
X136928797Y-125260828D02*
X136928797Y-123760828D01*
X136928797Y-123760828D02*
X136785940Y-123975114D01*
X136785940Y-123975114D02*
X136643083Y-124117971D01*
X136643083Y-124117971D02*
X136500226Y-124189400D01*
D12*
%TA.AperFunction,EtchedComponent*%
%TO.C,jump3v3*%
G36*
X128700000Y-83510000D02*
G01*
X128100000Y-83510000D01*
X128100000Y-83010000D01*
X128700000Y-83010000D01*
X128700000Y-83510000D01*
G37*
%TD.AperFunction*%
%TA.AperFunction,EtchedComponent*%
%TO.C,jumpgnd*%
G36*
X132700000Y-83510000D02*
G01*
X132100000Y-83510000D01*
X132100000Y-83010000D01*
X132700000Y-83010000D01*
X132700000Y-83510000D01*
G37*
%TD.AperFunction*%
%TD*%
D13*
%TO.P,solderjump5V,1*%
%TO.N,L5V*%
X171600000Y-77930000D03*
%TO.P,solderjump5V,2*%
%TO.N,5V*%
X171600000Y-79230000D03*
%TD*%
%TO.P,jump3v3,1*%
%TO.N,3V3*%
X128400000Y-83910000D03*
%TO.P,jump3v3,2*%
%TO.N,L3V3*%
X128400000Y-82610000D03*
%TD*%
%TO.P,jumpgnd,1*%
%TO.N,GND*%
X132400000Y-83910000D03*
%TO.P,jumpgnd,2*%
%TO.N,LGND*%
X132400000Y-82610000D03*
%TD*%
D14*
%TO.P,C2_1206_10uf,1*%
%TO.N,3V3*%
X127755000Y-95260000D03*
%TO.P,C2_1206_10uf,2*%
%TO.N,GND*%
X132155000Y-95260000D03*
%TD*%
D15*
%TO.P,R2_1206,1*%
%TO.N,5V*%
X172425000Y-127340000D03*
%TO.P,R2_1206,2*%
%TO.N,5VEXT*%
X175375000Y-127340000D03*
%TD*%
D14*
%TO.P,C1_1206_10uf,1*%
%TO.N,5V*%
X151225000Y-124260000D03*
%TO.P,C1_1206_10uf,2*%
%TO.N,GND*%
X155625000Y-124260000D03*
%TD*%
D15*
%TO.P,C2_1206_10nf,1*%
%TO.N,3V3*%
X128480000Y-89760000D03*
%TO.P,C2_1206_10nf,2*%
%TO.N,GND*%
X131430000Y-89760000D03*
%TD*%
D16*
%TO.P,REGULATOR5V,1*%
%TO.N,5V*%
X133980000Y-103260000D03*
D17*
%TO.P,REGULATOR5V,2*%
%TO.N,GND*%
X131440000Y-103260000D03*
%TO.P,REGULATOR5V,3*%
%TO.N,3V3*%
X128900000Y-103260000D03*
%TD*%
D18*
%TO.P,LoRaType3,1*%
%TO.N,LSCK*%
X158860000Y-62680000D03*
%TO.P,LoRaType3,2*%
%TO.N,LMISO*%
X158860000Y-65220000D03*
%TO.P,LoRaType3,3*%
%TO.N,LMOSI*%
X158860000Y-67760000D03*
%TO.P,LoRaType3,4*%
%TO.N,LNSS*%
X158860000Y-70300000D03*
%TO.P,LoRaType3,5*%
%TO.N,LRST*%
X158860000Y-72840000D03*
%TO.P,LoRaType3,6*%
%TO.N,LGND*%
X158860000Y-75380000D03*
%TO.P,LoRaType3,7*%
%TO.N,L3V3*%
X158860000Y-77920000D03*
%TO.P,LoRaType3,8*%
%TO.N,L5V*%
X161400000Y-77920000D03*
%TO.P,LoRaType3,9*%
%TO.N,LGND*%
X161400000Y-75380000D03*
%TO.P,LoRaType3,10*%
%TO.N,DI3*%
X161400000Y-72840000D03*
%TO.P,LoRaType3,11*%
%TO.N,DI2*%
X161400000Y-70300000D03*
%TO.P,LoRaType3,12*%
%TO.N,DI1*%
X161400000Y-67760000D03*
%TO.P,LoRaType3,13*%
%TO.N,DI0*%
X161400000Y-65220000D03*
%TO.P,LoRaType3,14*%
%TO.N,DI4*%
X161400000Y-62680000D03*
%TD*%
D19*
%TO.P,BarrelJack_Horizontal,1*%
%TO.N,5VEXT*%
X183400000Y-126717500D03*
D20*
%TO.P,BarrelJack_Horizontal,2*%
%TO.N,GND*%
X189400000Y-126717500D03*
D21*
%TO.P,BarrelJack_Horizontal,3*%
X186400000Y-122017500D03*
%TD*%
D22*
%TO.P,ESP32C6,0*%
%TO.N,DI4*%
X170180000Y-86360000D03*
%TO.P,ESP32C6,1*%
%TO.N,DI3*%
X167640000Y-86360000D03*
%TO.P,ESP32C6,2*%
%TO.N,N/C*%
X185420000Y-111760000D03*
%TO.P,ESP32C6,3*%
X182880000Y-111760000D03*
%TO.P,ESP32C6,3V3*%
%TO.N,3V3_2*%
X185420000Y-86360000D03*
%TO.P,ESP32C6,4*%
%TO.N,LMOSI*%
X180340000Y-86360000D03*
%TO.P,ESP32C6,5*%
%TO.N,N/C*%
X177800000Y-86360000D03*
%TO.P,ESP32C6,5V*%
%TO.N,5V_2*%
X152400000Y-86360000D03*
%TO.N,5V*%
X152400000Y-111760000D03*
%TO.P,ESP32C6,6*%
%TO.N,LMISO*%
X175260000Y-86360000D03*
%TO.P,ESP32C6,7*%
%TO.N,N/C*%
X172720000Y-86360000D03*
%TO.P,ESP32C6,8*%
%TO.N,DI2*%
X165100000Y-86360000D03*
%TO.P,ESP32C6,9*%
%TO.N,N/C*%
X157480000Y-111760000D03*
%TO.P,ESP32C6,10*%
%TO.N,DI1*%
X162560000Y-86360000D03*
%TO.P,ESP32C6,11*%
%TO.N,DI0*%
X160020000Y-86360000D03*
%TO.P,ESP32C6,12*%
%TO.N,N/C*%
X157480000Y-86360000D03*
%TO.P,ESP32C6,13*%
X154940000Y-86360000D03*
%TO.P,ESP32C6,15*%
X175260000Y-111760000D03*
%TO.P,ESP32C6,18*%
%TO.N,LRST*%
X160020000Y-111760000D03*
%TO.P,ESP32C6,19*%
%TO.N,N/C*%
X162560000Y-111760000D03*
%TO.P,ESP32C6,20*%
%TO.N,LSCK*%
X165100000Y-111760000D03*
%TO.P,ESP32C6,21*%
%TO.N,N/C*%
X167640000Y-111760000D03*
%TO.P,ESP32C6,22*%
%TO.N,LNSS*%
X170180000Y-111760000D03*
%TO.P,ESP32C6,23*%
%TO.N,N/C*%
X172720000Y-111760000D03*
D23*
%TO.P,ESP32C6,GND*%
%TO.N,GND*%
X154940000Y-111760000D03*
X187960000Y-86360000D03*
X187960000Y-111760000D03*
D22*
%TO.P,ESP32C6,RST*%
%TO.N,N/C*%
X182880000Y-86360000D03*
%TO.P,ESP32C6,RX*%
X177800000Y-111760000D03*
%TO.P,ESP32C6,TX*%
X180340000Y-111760000D03*
%TD*%
D24*
%TO.N,5V*%
X150485800Y-80012600D03*
D25*
%TO.N,GND*%
X155000000Y-97000000D03*
X122000000Y-98000000D03*
X170000000Y-120000000D03*
X175500000Y-67500000D03*
X131000000Y-131000000D03*
X194000000Y-80000000D03*
X139000000Y-67000000D03*
X166000000Y-97500000D03*
X194500000Y-114500000D03*
X194500000Y-96500000D03*
X162500000Y-115500000D03*
X182500000Y-97500000D03*
X122000000Y-67000000D03*
X194000000Y-67500000D03*
X139500000Y-93500000D03*
X179000000Y-115500000D03*
X122000000Y-80000000D03*
X131000000Y-74500000D03*
X171000000Y-103500000D03*
X122500000Y-116000000D03*
X149000000Y-67000000D03*
X131000000Y-120000000D03*
X162000000Y-131000000D03*
X139500000Y-116500000D03*
X171000000Y-92000000D03*
D24*
%TO.N,DI1*%
X167545500Y-83474400D03*
%TO.N,DI3*%
X163278800Y-83651500D03*
%TO.N,LSCK*%
X148151500Y-110264900D03*
%TO.N,LMISO*%
X171213700Y-64595400D03*
%TO.N,LNSS*%
X150204600Y-106992700D03*
%TD*%
D26*
%TO.N,5V*%
X150153200Y-109513200D02*
X147840300Y-109513200D01*
X147840300Y-109513200D02*
X147399800Y-109953700D01*
X172425000Y-127340000D02*
X154305000Y-127340000D01*
X147399800Y-109953700D02*
X141675400Y-109953700D01*
X171600000Y-79230000D02*
X151268400Y-79230000D01*
X133980000Y-103260000D02*
X134981700Y-103260000D01*
X151268400Y-79230000D02*
X150485800Y-80012600D01*
X147399800Y-120434800D02*
X151225000Y-124260000D01*
X141675400Y-109953700D02*
X134981700Y-103260000D01*
X147399800Y-109953700D02*
X147399800Y-120434800D01*
X152400000Y-111760000D02*
X150153200Y-109513200D01*
X154305000Y-127340000D02*
X151225000Y-124260000D01*
%TO.N,3V3*%
X128400000Y-83910000D02*
X128400000Y-84761700D01*
X128480000Y-84841700D02*
X128480000Y-89760000D01*
X127755000Y-90485000D02*
X127755000Y-95260000D01*
X128480000Y-89760000D02*
X127755000Y-90485000D01*
X128900000Y-103260000D02*
X128900000Y-96405000D01*
X128400000Y-84761700D02*
X128480000Y-84841700D01*
X128900000Y-96405000D02*
X127755000Y-95260000D01*
%TO.N,5VEXT*%
X175997500Y-126717500D02*
X175375000Y-127340000D01*
X183400000Y-126717500D02*
X175997500Y-126717500D01*
%TO.N,DI1*%
X162560000Y-86360000D02*
X162527000Y-86327000D01*
X162527000Y-86327000D02*
X162527000Y-83328100D01*
X162527000Y-83328100D02*
X162955400Y-82899700D01*
X166970800Y-82899700D02*
X167545500Y-83474400D01*
X162955400Y-82899700D02*
X166970800Y-82899700D01*
%TO.N,DI3*%
X167640000Y-86360000D02*
X164931500Y-83651500D01*
X164931500Y-83651500D02*
X163278800Y-83651500D01*
%TO.N,LSCK*%
X150998300Y-113111700D02*
X163748300Y-113111700D01*
X163748300Y-113111700D02*
X165100000Y-111760000D01*
X148151500Y-110264900D02*
X150998300Y-113111700D01*
%TO.N,LMISO*%
X169468200Y-66340900D02*
X171213700Y-64595400D01*
X159980900Y-66340900D02*
X169468200Y-66340900D01*
X158860000Y-65220000D02*
X159980900Y-66340900D01*
%TO.N,LMOSI*%
X180340000Y-86360000D02*
X180340000Y-84828500D01*
X180340000Y-84828500D02*
X164541500Y-69030000D01*
X164541500Y-69030000D02*
X160130000Y-69030000D01*
X160130000Y-69030000D02*
X158860000Y-67760000D01*
%TO.N,LNSS*%
X150204600Y-106992700D02*
X165412700Y-106992700D01*
X165412700Y-106992700D02*
X170180000Y-111760000D01*
%TO.N,L5V*%
X161400000Y-77920000D02*
X170488300Y-77920000D01*
X170488300Y-77920000D02*
X170498300Y-77930000D01*
X171600000Y-77930000D02*
X170498300Y-77930000D01*
%TO.N,L3V3*%
X129501700Y-82610000D02*
X129501700Y-82759100D01*
X139594500Y-84761700D02*
X146436200Y-77920000D01*
X129501700Y-82759100D02*
X131504300Y-84761700D01*
X146436200Y-77920000D02*
X158860000Y-77920000D01*
X131504300Y-84761700D02*
X139594500Y-84761700D01*
X128400000Y-82610000D02*
X129501700Y-82610000D01*
%TO.N,LGND*%
X132400000Y-82610000D02*
X132400000Y-81758300D01*
X161400000Y-75380000D02*
X158860000Y-75380000D01*
X138778300Y-75380000D02*
X132400000Y-81758300D01*
X158860000Y-75380000D02*
X138778300Y-75380000D01*
%TD*%
%TA.AperFunction,Conductor*%
%TO.N,GND*%
G36*
X157714148Y-76032041D02*
G01*
X157719510Y-76030955D01*
X157747314Y-76041780D01*
X157775938Y-76050185D01*
X157780872Y-76054845D01*
X157784619Y-76056304D01*
X157809217Y-76081615D01*
X157897019Y-76202464D01*
X158037536Y-76342981D01*
X158198306Y-76459787D01*
X158316832Y-76520179D01*
X158354780Y-76539515D01*
X158405576Y-76587490D01*
X158422371Y-76655311D01*
X158399833Y-76721446D01*
X158354780Y-76760485D01*
X158198305Y-76840213D01*
X158037533Y-76957021D01*
X157897021Y-77097533D01*
X157897016Y-77097539D01*
X157809217Y-77218385D01*
X157753887Y-77261051D01*
X157708899Y-77269500D01*
X146372129Y-77269500D01*
X146246461Y-77294497D01*
X146246455Y-77294499D01*
X146128074Y-77343534D01*
X146021526Y-77414726D01*
X146021525Y-77414727D01*
X139361373Y-84074881D01*
X139300050Y-84108366D01*
X139273692Y-84111200D01*
X132524000Y-84111200D01*
X132515314Y-84108649D01*
X132506353Y-84109938D01*
X132482312Y-84098959D01*
X132456961Y-84091515D01*
X132451033Y-84084674D01*
X132442797Y-84080913D01*
X132428507Y-84058678D01*
X132411206Y-84038711D01*
X132408918Y-84028196D01*
X132405023Y-84022135D01*
X132400000Y-83987200D01*
X132400000Y-83784000D01*
X132419685Y-83716961D01*
X132472489Y-83671206D01*
X132524000Y-83660000D01*
X133650000Y-83660000D01*
X133650000Y-83362172D01*
X133649999Y-83362155D01*
X133643598Y-83302627D01*
X133641814Y-83295076D01*
X133643459Y-83294687D01*
X133639143Y-83234361D01*
X133644058Y-83217619D01*
X133644091Y-83217481D01*
X133648430Y-83177122D01*
X133650500Y-83157873D01*
X133650499Y-82062128D01*
X133644091Y-82002517D01*
X133636501Y-81982168D01*
X133593797Y-81867671D01*
X133593793Y-81867664D01*
X133507547Y-81752455D01*
X133504349Y-81749257D01*
X133470864Y-81687934D01*
X133475848Y-81618242D01*
X133504347Y-81573897D01*
X139011427Y-76066819D01*
X139072750Y-76033334D01*
X139099108Y-76030500D01*
X157708899Y-76030500D01*
X157714148Y-76032041D01*
G37*
%TD.AperFunction*%
%TA.AperFunction,Conductor*%
G36*
X198063039Y-55899685D02*
G01*
X198108794Y-55952489D01*
X198120000Y-56004000D01*
X198120000Y-134496000D01*
X198100315Y-134563039D01*
X198047511Y-134608794D01*
X197996000Y-134620000D01*
X116964000Y-134620000D01*
X116896961Y-134600315D01*
X116851206Y-134547511D01*
X116840000Y-134496000D01*
X116840000Y-126059185D01*
X120559010Y-126059185D01*
X138012869Y-126059185D01*
X138012869Y-123102484D01*
X120559010Y-123102484D01*
X120559010Y-126059185D01*
X116840000Y-126059185D01*
X116840000Y-94659983D01*
X125754500Y-94659983D01*
X125754500Y-95860001D01*
X125754501Y-95860018D01*
X125765000Y-95962796D01*
X125765001Y-95962799D01*
X125820115Y-96129119D01*
X125820186Y-96129334D01*
X125912288Y-96278656D01*
X126036344Y-96402712D01*
X126185666Y-96494814D01*
X126352203Y-96549999D01*
X126454991Y-96560500D01*
X128084191Y-96560499D01*
X128113631Y-96569143D01*
X128143618Y-96575667D01*
X128148633Y-96579421D01*
X128151230Y-96580184D01*
X128171872Y-96596818D01*
X128213181Y-96638127D01*
X128246666Y-96699450D01*
X128249500Y-96725808D01*
X128249500Y-102247337D01*
X128229815Y-102314376D01*
X128198386Y-102347654D01*
X128150505Y-102382442D01*
X128150496Y-102382449D01*
X128022445Y-102510500D01*
X128022441Y-102510505D01*
X127916006Y-102657002D01*
X127833788Y-102818360D01*
X127833787Y-102818363D01*
X127777829Y-102990589D01*
X127749500Y-103169448D01*
X127749500Y-103350551D01*
X127777829Y-103529410D01*
X127833787Y-103701636D01*
X127833788Y-103701639D01*
X127889664Y-103811300D01*
X127915869Y-103862730D01*
X127916006Y-103862997D01*
X128022441Y-104009494D01*
X128022445Y-104009499D01*
X128150500Y-104137554D01*
X128150505Y-104137558D01*
X128265068Y-104220792D01*
X128297006Y-104243996D01*
X128382132Y-104287370D01*
X128458360Y-104326211D01*
X128458363Y-104326212D01*
X128543251Y-104353793D01*
X128630591Y-104382171D01*
X128713429Y-104395291D01*
X128809449Y-104410500D01*
X128809454Y-104410500D01*
X128990551Y-104410500D01*
X129077259Y-104396765D01*
X129169409Y-104382171D01*
X129341639Y-104326211D01*
X129502994Y-104243996D01*
X129519388Y-104232085D01*
X130821466Y-104232085D01*
X130821466Y-104232086D01*
X130837267Y-104243566D01*
X130837275Y-104243571D01*
X130998552Y-104325747D01*
X130998555Y-104325748D01*
X131170706Y-104381682D01*
X131349494Y-104410000D01*
X131530506Y-104410000D01*
X131709293Y-104381682D01*
X131881444Y-104325748D01*
X131881452Y-104325745D01*
X132042730Y-104243568D01*
X132058532Y-104232085D01*
X132058533Y-104232085D01*
X131440001Y-103613553D01*
X131440000Y-103613553D01*
X130821466Y-104232085D01*
X129519388Y-104232085D01*
X129649501Y-104137553D01*
X129777553Y-104009501D01*
X129883996Y-103862994D01*
X129966211Y-103701639D01*
X130022171Y-103529409D01*
X130047780Y-103367720D01*
X130077709Y-103304585D01*
X130137021Y-103267654D01*
X130206883Y-103268652D01*
X130265116Y-103307262D01*
X130292726Y-103367720D01*
X130318317Y-103529293D01*
X130374251Y-103701444D01*
X130374252Y-103701447D01*
X130456431Y-103862730D01*
X130467913Y-103878532D01*
X130467913Y-103878533D01*
X131086446Y-103260001D01*
X131086446Y-103259999D01*
X131040369Y-103213922D01*
X131090000Y-103213922D01*
X131090000Y-103306078D01*
X131113852Y-103395095D01*
X131159930Y-103474905D01*
X131225095Y-103540070D01*
X131304905Y-103586148D01*
X131393922Y-103610000D01*
X131486078Y-103610000D01*
X131575095Y-103586148D01*
X131654905Y-103540070D01*
X131720070Y-103474905D01*
X131766148Y-103395095D01*
X131790000Y-103306078D01*
X131790000Y-103259999D01*
X131793553Y-103259999D01*
X131793553Y-103260001D01*
X132412085Y-103878533D01*
X132412085Y-103878532D01*
X132423568Y-103862730D01*
X132505745Y-103701452D01*
X132505748Y-103701444D01*
X132561683Y-103529292D01*
X132583027Y-103394529D01*
X132612956Y-103331394D01*
X132672267Y-103294462D01*
X132742130Y-103295460D01*
X132800363Y-103334069D01*
X132828477Y-103398033D01*
X132829500Y-103413926D01*
X132829500Y-103957870D01*
X132829501Y-103957876D01*
X132835908Y-104017483D01*
X132886202Y-104152328D01*
X132886206Y-104152335D01*
X132972452Y-104267544D01*
X132972455Y-104267547D01*
X133087664Y-104353793D01*
X133087671Y-104353797D01*
X133222517Y-104404091D01*
X133222516Y-104404091D01*
X133229444Y-104404835D01*
X133282127Y-104410500D01*
X134677872Y-104410499D01*
X134737483Y-104404091D01*
X134872331Y-104353796D01*
X134948286Y-104296935D01*
X135013747Y-104272519D01*
X135082020Y-104287370D01*
X135110276Y-104308522D01*
X141260726Y-110458973D01*
X141260729Y-110458976D01*
X141363375Y-110527561D01*
X141365361Y-110528887D01*
X141367273Y-110530165D01*
X141485656Y-110579201D01*
X141485660Y-110579201D01*
X141485661Y-110579202D01*
X141611328Y-110604200D01*
X141611331Y-110604200D01*
X146625300Y-110604200D01*
X146692339Y-110623885D01*
X146738094Y-110676689D01*
X146749300Y-110728200D01*
X146749300Y-120498869D01*
X146749300Y-120498871D01*
X146749299Y-120498871D01*
X146774297Y-120624538D01*
X146774299Y-120624544D01*
X146823334Y-120742925D01*
X146894526Y-120849473D01*
X146894527Y-120849474D01*
X149276377Y-123231323D01*
X149309862Y-123292646D01*
X149304878Y-123362338D01*
X149294240Y-123384092D01*
X149290188Y-123390662D01*
X149290186Y-123390665D01*
X149290115Y-123390880D01*
X149235001Y-123557203D01*
X149235001Y-123557204D01*
X149235000Y-123557204D01*
X149224500Y-123659983D01*
X149224500Y-124860001D01*
X149224501Y-124860018D01*
X149235000Y-124962796D01*
X149235001Y-124962799D01*
X149290185Y-125129331D01*
X149290187Y-125129336D01*
X149307658Y-125157661D01*
X149382288Y-125278656D01*
X149506344Y-125402712D01*
X149655666Y-125494814D01*
X149822203Y-125549999D01*
X149924991Y-125560500D01*
X151554191Y-125560499D01*
X151621230Y-125580184D01*
X151641872Y-125596818D01*
X153890325Y-127845272D01*
X153890326Y-127845273D01*
X153890329Y-127845275D01*
X153890331Y-127845277D01*
X153996873Y-127916465D01*
X154115256Y-127965501D01*
X154115260Y-127965501D01*
X154115261Y-127965502D01*
X154240928Y-127990500D01*
X154240931Y-127990500D01*
X154369069Y-127990500D01*
X171232465Y-127990500D01*
X171299504Y-128010185D01*
X171345259Y-128062989D01*
X171355823Y-128101898D01*
X171360001Y-128142797D01*
X171360001Y-128142799D01*
X171384755Y-128217500D01*
X171415186Y-128309334D01*
X171507288Y-128458656D01*
X171631344Y-128582712D01*
X171780666Y-128674814D01*
X171947203Y-128729999D01*
X172049991Y-128740500D01*
X172800008Y-128740499D01*
X172800016Y-128740498D01*
X172800019Y-128740498D01*
X172856302Y-128734748D01*
X172902797Y-128729999D01*
X173069334Y-128674814D01*
X173218656Y-128582712D01*
X173342712Y-128458656D01*
X173434814Y-128309334D01*
X173489999Y-128142797D01*
X173500500Y-128040009D01*
X173500499Y-126639992D01*
X173500498Y-126639983D01*
X174299500Y-126639983D01*
X174299500Y-128040001D01*
X174299501Y-128040018D01*
X174310000Y-128142796D01*
X174310001Y-128142799D01*
X174334755Y-128217500D01*
X174365186Y-128309334D01*
X174457288Y-128458656D01*
X174581344Y-128582712D01*
X174730666Y-128674814D01*
X174897203Y-128729999D01*
X174999991Y-128740500D01*
X175750008Y-128740499D01*
X175750016Y-128740498D01*
X175750019Y-128740498D01*
X175806302Y-128734748D01*
X175852797Y-128729999D01*
X176019334Y-128674814D01*
X176168656Y-128582712D01*
X176292712Y-128458656D01*
X176384814Y-128309334D01*
X176439999Y-128142797D01*
X176450500Y-128040009D01*
X176450500Y-127492000D01*
X176470185Y-127424961D01*
X176522989Y-127379206D01*
X176574500Y-127368000D01*
X181025501Y-127368000D01*
X181092540Y-127387685D01*
X181138295Y-127440489D01*
X181149501Y-127492000D01*
X181149501Y-128515376D01*
X181155908Y-128574983D01*
X181206202Y-128709828D01*
X181206206Y-128709835D01*
X181292452Y-128825044D01*
X181292455Y-128825047D01*
X181407664Y-128911293D01*
X181407671Y-128911297D01*
X181542517Y-128961591D01*
X181542516Y-128961591D01*
X181549444Y-128962335D01*
X181602127Y-128968000D01*
X185197872Y-128967999D01*
X185257483Y-128961591D01*
X185392331Y-128911296D01*
X185507546Y-128825046D01*
X185593796Y-128709831D01*
X185644091Y-128574983D01*
X185650500Y-128515373D01*
X185650499Y-125653303D01*
X187400000Y-125653303D01*
X187400000Y-126467500D01*
X188900000Y-126467500D01*
X188900000Y-126967500D01*
X187400001Y-126967500D01*
X187400001Y-127781697D01*
X187410400Y-127913832D01*
X187465377Y-128132019D01*
X187558428Y-128336874D01*
X187558431Y-128336880D01*
X187686559Y-128521823D01*
X187686569Y-128521835D01*
X187845664Y-128680930D01*
X187845676Y-128680940D01*
X188030619Y-128809068D01*
X188030625Y-128809071D01*
X188235480Y-128902122D01*
X188453667Y-128957099D01*
X188585810Y-128967499D01*
X189149999Y-128967499D01*
X189150000Y-128967498D01*
X189150000Y-128150512D01*
X189207007Y-128183425D01*
X189334174Y-128217500D01*
X189465826Y-128217500D01*
X189592993Y-128183425D01*
X189650000Y-128150512D01*
X189650000Y-128967499D01*
X190214182Y-128967499D01*
X190214197Y-128967498D01*
X190346332Y-128957099D01*
X190564519Y-128902122D01*
X190769374Y-128809071D01*
X190769380Y-128809068D01*
X190954323Y-128680940D01*
X190954335Y-128680930D01*
X191113430Y-128521835D01*
X191113440Y-128521823D01*
X191241568Y-128336880D01*
X191241571Y-128336874D01*
X191334622Y-128132019D01*
X191389599Y-127913832D01*
X191399999Y-127781696D01*
X191400000Y-127781684D01*
X191400000Y-126967500D01*
X189900000Y-126967500D01*
X189900000Y-126467500D01*
X191399999Y-126467500D01*
X191399999Y-125653317D01*
X191399998Y-125653302D01*
X191389599Y-125521167D01*
X191334622Y-125302980D01*
X191241571Y-125098125D01*
X191241568Y-125098119D01*
X191113440Y-124913176D01*
X191113430Y-124913164D01*
X190954335Y-124754069D01*
X190954323Y-124754059D01*
X190769380Y-124625931D01*
X190769374Y-124625928D01*
X190564519Y-124532877D01*
X190346332Y-124477900D01*
X190214196Y-124467500D01*
X189650000Y-124467500D01*
X189650000Y-125284488D01*
X189592993Y-125251575D01*
X189465826Y-125217500D01*
X189334174Y-125217500D01*
X189207007Y-125251575D01*
X189150000Y-125284488D01*
X189150000Y-124467500D01*
X188585817Y-124467500D01*
X188585802Y-124467501D01*
X188453667Y-124477900D01*
X188235480Y-124532877D01*
X188030625Y-124625928D01*
X188030619Y-124625931D01*
X187845676Y-124754059D01*
X187845664Y-124754069D01*
X187686569Y-124913164D01*
X187686559Y-124913176D01*
X187558431Y-125098119D01*
X187558428Y-125098125D01*
X187465377Y-125302980D01*
X187410400Y-125521167D01*
X187400000Y-125653303D01*
X185650499Y-125653303D01*
X185650499Y-124919628D01*
X185644091Y-124860017D01*
X185644079Y-124859986D01*
X185593797Y-124725171D01*
X185593793Y-124725164D01*
X185507547Y-124609955D01*
X185507544Y-124609952D01*
X185392335Y-124523706D01*
X185392328Y-124523702D01*
X185343492Y-124505488D01*
X185287558Y-124463617D01*
X185263141Y-124398153D01*
X185277992Y-124329880D01*
X185327397Y-124280474D01*
X185393404Y-124265481D01*
X185431382Y-124267498D01*
X185431421Y-124267499D01*
X186149999Y-124267499D01*
X186150000Y-124267498D01*
X186150000Y-122517500D01*
X186650000Y-122517500D01*
X186650000Y-124267499D01*
X187368576Y-124267499D01*
X187368588Y-124267498D01*
X187421191Y-124264705D01*
X187650987Y-124220262D01*
X187869975Y-124137620D01*
X188071841Y-124019160D01*
X188071848Y-124019155D01*
X188250786Y-123868288D01*
X188250788Y-123868286D01*
X188401655Y-123689348D01*
X188401660Y-123689341D01*
X188520120Y-123487475D01*
X188602762Y-123268487D01*
X188647205Y-123038691D01*
X188647205Y-123038690D01*
X188649998Y-122986117D01*
X188650000Y-122986078D01*
X188650000Y-122267500D01*
X187833012Y-122267500D01*
X187865925Y-122210493D01*
X187900000Y-122083326D01*
X187900000Y-121951674D01*
X187865925Y-121824507D01*
X187833012Y-121767500D01*
X188649999Y-121767500D01*
X188649999Y-121048923D01*
X188649998Y-121048911D01*
X188647205Y-120996308D01*
X188602762Y-120766512D01*
X188520120Y-120547524D01*
X188401660Y-120345658D01*
X188401655Y-120345651D01*
X188250788Y-120166713D01*
X188250786Y-120166711D01*
X188071848Y-120015844D01*
X188071841Y-120015839D01*
X187869975Y-119897379D01*
X187650987Y-119814737D01*
X187421190Y-119770294D01*
X187368617Y-119767501D01*
X187368579Y-119767500D01*
X186650000Y-119767500D01*
X186650000Y-121517500D01*
X186150000Y-121517500D01*
X186150000Y-119767500D01*
X185431423Y-119767500D01*
X185431411Y-119767501D01*
X185378808Y-119770294D01*
X185149012Y-119814737D01*
X184930024Y-119897379D01*
X184728158Y-120015839D01*
X184728151Y-120015844D01*
X184549213Y-120166711D01*
X184549211Y-120166713D01*
X184398344Y-120345651D01*
X184398339Y-120345658D01*
X184279879Y-120547524D01*
X184197237Y-120766512D01*
X184152794Y-120996308D01*
X184152794Y-120996309D01*
X184150001Y-121048882D01*
X184150000Y-121048921D01*
X184150000Y-121767500D01*
X184966988Y-121767500D01*
X184934075Y-121824507D01*
X184900000Y-121951674D01*
X184900000Y-122083326D01*
X184934075Y-122210493D01*
X184966988Y-122267500D01*
X184150001Y-122267500D01*
X184150001Y-122986088D01*
X184152794Y-123038691D01*
X184197237Y-123268487D01*
X184279879Y-123487475D01*
X184398339Y-123689341D01*
X184398344Y-123689348D01*
X184549211Y-123868286D01*
X184549213Y-123868288D01*
X184728151Y-124019155D01*
X184728158Y-124019160D01*
X184930024Y-124137620D01*
X185149012Y-124220262D01*
X185154150Y-124221256D01*
X185216232Y-124253312D01*
X185251127Y-124313844D01*
X185247758Y-124383632D01*
X185207193Y-124440520D01*
X185142311Y-124466446D01*
X185130604Y-124467000D01*
X181602129Y-124467000D01*
X181602123Y-124467001D01*
X181542516Y-124473408D01*
X181407671Y-124523702D01*
X181407664Y-124523706D01*
X181292455Y-124609952D01*
X181292452Y-124609955D01*
X181206206Y-124725164D01*
X181206202Y-124725171D01*
X181155908Y-124860017D01*
X181149501Y-124919616D01*
X181149501Y-124919623D01*
X181149500Y-124919635D01*
X181149500Y-125943000D01*
X181129815Y-126010039D01*
X181077011Y-126055794D01*
X181025500Y-126067000D01*
X176154718Y-126067000D01*
X176089622Y-126048539D01*
X176019340Y-126005189D01*
X176019335Y-126005187D01*
X176019334Y-126005186D01*
X175852797Y-125950001D01*
X175852795Y-125950000D01*
X175750010Y-125939500D01*
X174999998Y-125939500D01*
X174999980Y-125939501D01*
X174897203Y-125950000D01*
X174897200Y-125950001D01*
X174730668Y-126005185D01*
X174730663Y-126005187D01*
X174581342Y-126097289D01*
X174457289Y-126221342D01*
X174365187Y-126370663D01*
X174365186Y-126370666D01*
X174310001Y-126537203D01*
X174310001Y-126537204D01*
X174310000Y-126537204D01*
X174299500Y-126639983D01*
X173500498Y-126639983D01*
X173489999Y-126537203D01*
X173434814Y-126370666D01*
X173342712Y-126221344D01*
X173218656Y-126097288D01*
X173069334Y-126005186D01*
X172902797Y-125950001D01*
X172902795Y-125950000D01*
X172800010Y-125939500D01*
X172049998Y-125939500D01*
X172049980Y-125939501D01*
X171947203Y-125950000D01*
X171947200Y-125950001D01*
X171780668Y-126005185D01*
X171780663Y-126005187D01*
X171631342Y-126097289D01*
X171507289Y-126221342D01*
X171415187Y-126370663D01*
X171415185Y-126370668D01*
X171360001Y-126537204D01*
X171360000Y-126537205D01*
X171355823Y-126578102D01*
X171329427Y-126642793D01*
X171272247Y-126682945D01*
X171232465Y-126689500D01*
X154625808Y-126689500D01*
X154558769Y-126669815D01*
X154538127Y-126653181D01*
X153173622Y-125288676D01*
X153140137Y-125227353D01*
X153145121Y-125157661D01*
X153155761Y-125135903D01*
X153159814Y-125129334D01*
X153214999Y-124962797D01*
X153225500Y-124860009D01*
X153225500Y-124859986D01*
X153625001Y-124859986D01*
X153635494Y-124962697D01*
X153690641Y-125129119D01*
X153690643Y-125129124D01*
X153782684Y-125278345D01*
X153906654Y-125402315D01*
X154055875Y-125494356D01*
X154055880Y-125494358D01*
X154222302Y-125549505D01*
X154222309Y-125549506D01*
X154325019Y-125559999D01*
X155374999Y-125559999D01*
X155875000Y-125559999D01*
X156924972Y-125559999D01*
X156924986Y-125559998D01*
X157027697Y-125549505D01*
X157194119Y-125494358D01*
X157194124Y-125494356D01*
X157343345Y-125402315D01*
X157467315Y-125278345D01*
X157559356Y-125129124D01*
X157559358Y-125129119D01*
X157614505Y-124962697D01*
X157614506Y-124962690D01*
X157624999Y-124859986D01*
X157625000Y-124859973D01*
X157625000Y-124510000D01*
X155875000Y-124510000D01*
X155875000Y-125559999D01*
X155374999Y-125559999D01*
X155375000Y-125559998D01*
X155375000Y-124510000D01*
X153625001Y-124510000D01*
X153625001Y-124859986D01*
X153225500Y-124859986D01*
X153225499Y-124253312D01*
X153225499Y-123660013D01*
X153625000Y-123660013D01*
X153625000Y-124010000D01*
X155375000Y-124010000D01*
X155875000Y-124010000D01*
X157624999Y-124010000D01*
X157624999Y-123660028D01*
X157624998Y-123660013D01*
X157614505Y-123557302D01*
X157559358Y-123390880D01*
X157559356Y-123390875D01*
X157467315Y-123241654D01*
X157343345Y-123117684D01*
X157194124Y-123025643D01*
X157194119Y-123025641D01*
X157027697Y-122970494D01*
X157027690Y-122970493D01*
X156924986Y-122960000D01*
X155875000Y-122960000D01*
X155875000Y-124010000D01*
X155375000Y-124010000D01*
X155375000Y-122960000D01*
X154325028Y-122960000D01*
X154325012Y-122960001D01*
X154222302Y-122970494D01*
X154055880Y-123025641D01*
X154055875Y-123025643D01*
X153906654Y-123117684D01*
X153782684Y-123241654D01*
X153690643Y-123390875D01*
X153690641Y-123390880D01*
X153635494Y-123557302D01*
X153635493Y-123557309D01*
X153625000Y-123660013D01*
X153225499Y-123660013D01*
X153225499Y-123659998D01*
X153225498Y-123659981D01*
X153214999Y-123557203D01*
X153214998Y-123557200D01*
X153191893Y-123487475D01*
X153159814Y-123390666D01*
X153067712Y-123241344D01*
X152943656Y-123117288D01*
X152794334Y-123025186D01*
X152627797Y-122970001D01*
X152627795Y-122970000D01*
X152525016Y-122959500D01*
X152525009Y-122959500D01*
X150895808Y-122959500D01*
X150828769Y-122939815D01*
X150808127Y-122923181D01*
X148086619Y-120201673D01*
X148053134Y-120140350D01*
X148050300Y-120113992D01*
X148050300Y-111383007D01*
X148069985Y-111315968D01*
X148122789Y-111270213D01*
X148191947Y-111260269D01*
X148255503Y-111289294D01*
X148261967Y-111295313D01*
X150493024Y-113526369D01*
X150583629Y-113616974D01*
X150583632Y-113616977D01*
X150690166Y-113688161D01*
X150690172Y-113688164D01*
X150690173Y-113688165D01*
X150808556Y-113737201D01*
X150808560Y-113737201D01*
X150808561Y-113737202D01*
X150934228Y-113762200D01*
X150934231Y-113762200D01*
X163812371Y-113762200D01*
X163896915Y-113745382D01*
X163938044Y-113737201D01*
X164056427Y-113688165D01*
X164162969Y-113616977D01*
X164549808Y-113230136D01*
X164611127Y-113196654D01*
X164675802Y-113199888D01*
X164748632Y-113223553D01*
X164865270Y-113242026D01*
X164981903Y-113260500D01*
X164981908Y-113260500D01*
X165218097Y-113260500D01*
X165451368Y-113223553D01*
X165675992Y-113150568D01*
X165886433Y-113043343D01*
X166077510Y-112904517D01*
X166244517Y-112737510D01*
X166269682Y-112702872D01*
X166325011Y-112660207D01*
X166394625Y-112654228D01*
X166456420Y-112686833D01*
X166470315Y-112702870D01*
X166495483Y-112737510D01*
X166662490Y-112904517D01*
X166853567Y-113043343D01*
X166952991Y-113094002D01*
X167064003Y-113150566D01*
X167064005Y-113150566D01*
X167064008Y-113150568D01*
X167143535Y-113176408D01*
X167288631Y-113223553D01*
X167521903Y-113260500D01*
X167521908Y-113260500D01*
X167758097Y-113260500D01*
X167991368Y-113223553D01*
X168215992Y-113150568D01*
X168426433Y-113043343D01*
X168617510Y-112904517D01*
X168784517Y-112737510D01*
X168809682Y-112702872D01*
X168865011Y-112660207D01*
X168934625Y-112654228D01*
X168996420Y-112686833D01*
X169010315Y-112702870D01*
X169035483Y-112737510D01*
X169202490Y-112904517D01*
X169393567Y-113043343D01*
X169492991Y-113094002D01*
X169604003Y-113150566D01*
X169604005Y-113150566D01*
X169604008Y-113150568D01*
X169683535Y-113176408D01*
X169828631Y-113223553D01*
X170061903Y-113260500D01*
X170061908Y-113260500D01*
X170298097Y-113260500D01*
X170531368Y-113223553D01*
X170755992Y-113150568D01*
X170966433Y-113043343D01*
X171157510Y-112904517D01*
X171324517Y-112737510D01*
X171349682Y-112702872D01*
X171405011Y-112660207D01*
X171474625Y-112654228D01*
X171536420Y-112686833D01*
X171550315Y-112702870D01*
X171575483Y-112737510D01*
X171742490Y-112904517D01*
X171933567Y-113043343D01*
X172032991Y-113094002D01*
X172144003Y-113150566D01*
X172144005Y-113150566D01*
X172144008Y-113150568D01*
X172223535Y-113176408D01*
X172368631Y-113223553D01*
X172601903Y-113260500D01*
X172601908Y-113260500D01*
X172838097Y-113260500D01*
X173071368Y-113223553D01*
X173295992Y-113150568D01*
X173506433Y-113043343D01*
X173697510Y-112904517D01*
X173864517Y-112737510D01*
X173889682Y-112702872D01*
X173945011Y-112660207D01*
X174014625Y-112654228D01*
X174076420Y-112686833D01*
X174090315Y-112702870D01*
X174115483Y-112737510D01*
X174282490Y-112904517D01*
X174473567Y-113043343D01*
X174572991Y-113094002D01*
X174684003Y-113150566D01*
X174684005Y-113150566D01*
X174684008Y-113150568D01*
X174763535Y-113176408D01*
X174908631Y-113223553D01*
X175141903Y-113260500D01*
X175141908Y-113260500D01*
X175378097Y-113260500D01*
X175611368Y-113223553D01*
X175835992Y-113150568D01*
X176046433Y-113043343D01*
X176237510Y-112904517D01*
X176404517Y-112737510D01*
X176429682Y-112702872D01*
X176485011Y-112660207D01*
X176554625Y-112654228D01*
X176616420Y-112686833D01*
X176630315Y-112702870D01*
X176655483Y-112737510D01*
X176822490Y-112904517D01*
X177013567Y-113043343D01*
X177112991Y-113094002D01*
X177224003Y-113150566D01*
X177224005Y-113150566D01*
X177224008Y-113150568D01*
X177303535Y-113176408D01*
X177448631Y-113223553D01*
X177681903Y-113260500D01*
X177681908Y-113260500D01*
X177918097Y-113260500D01*
X178151368Y-113223553D01*
X178375992Y-113150568D01*
X178586433Y-113043343D01*
X178777510Y-112904517D01*
X178944517Y-112737510D01*
X178969682Y-112702872D01*
X179025011Y-112660207D01*
X179094625Y-112654228D01*
X179156420Y-112686833D01*
X179170315Y-112702870D01*
X179195483Y-112737510D01*
X179362490Y-112904517D01*
X179553567Y-113043343D01*
X179652991Y-113094002D01*
X179764003Y-113150566D01*
X179764005Y-113150566D01*
X179764008Y-113150568D01*
X179843535Y-113176408D01*
X179988631Y-113223553D01*
X180221903Y-113260500D01*
X180221908Y-113260500D01*
X180458097Y-113260500D01*
X180691368Y-113223553D01*
X180915992Y-113150568D01*
X181126433Y-113043343D01*
X181317510Y-112904517D01*
X181484517Y-112737510D01*
X181509682Y-112702872D01*
X181565011Y-112660207D01*
X181634625Y-112654228D01*
X181696420Y-112686833D01*
X181710315Y-112702870D01*
X181735483Y-112737510D01*
X181902490Y-112904517D01*
X182093567Y-113043343D01*
X182192991Y-113094002D01*
X182304003Y-113150566D01*
X182304005Y-113150566D01*
X182304008Y-113150568D01*
X182383535Y-113176408D01*
X182528631Y-113223553D01*
X182761903Y-113260500D01*
X182761908Y-113260500D01*
X182998097Y-113260500D01*
X183231368Y-113223553D01*
X183455992Y-113150568D01*
X183666433Y-113043343D01*
X183857510Y-112904517D01*
X184024517Y-112737510D01*
X184049682Y-112702872D01*
X184105011Y-112660207D01*
X184174625Y-112654228D01*
X184236420Y-112686833D01*
X184250315Y-112702870D01*
X184275483Y-112737510D01*
X184442490Y-112904517D01*
X184633567Y-113043343D01*
X184732991Y-113094002D01*
X184844003Y-113150566D01*
X184844005Y-113150566D01*
X184844008Y-113150568D01*
X184923535Y-113176408D01*
X185068631Y-113223553D01*
X185301903Y-113260500D01*
X185301908Y-113260500D01*
X185538097Y-113260500D01*
X185771368Y-113223553D01*
X185995992Y-113150568D01*
X186206433Y-113043343D01*
X186330579Y-112953145D01*
X186396383Y-112929665D01*
X186464437Y-112945490D01*
X186512057Y-112994489D01*
X186512396Y-112994304D01*
X186513061Y-112995522D01*
X186513132Y-112995595D01*
X186513276Y-112995916D01*
X186516649Y-113002093D01*
X186602809Y-113117187D01*
X186602812Y-113117190D01*
X186717906Y-113203350D01*
X186717913Y-113203354D01*
X186852620Y-113253596D01*
X186852627Y-113253598D01*
X186912155Y-113259999D01*
X186912172Y-113260000D01*
X187710000Y-113260000D01*
X187710000Y-112193012D01*
X187767007Y-112225925D01*
X187894174Y-112260000D01*
X188025826Y-112260000D01*
X188152993Y-112225925D01*
X188210000Y-112193012D01*
X188210000Y-113260000D01*
X189007828Y-113260000D01*
X189007844Y-113259999D01*
X189067372Y-113253598D01*
X189067379Y-113253596D01*
X189202086Y-113203354D01*
X189202093Y-113203350D01*
X189317187Y-113117190D01*
X189317190Y-113117187D01*
X189403350Y-113002093D01*
X189403354Y-113002086D01*
X189453596Y-112867379D01*
X189453598Y-112867372D01*
X189459999Y-112807844D01*
X189460000Y-112807827D01*
X189460000Y-112010000D01*
X188393012Y-112010000D01*
X188425925Y-111952993D01*
X188460000Y-111825826D01*
X188460000Y-111694174D01*
X188425925Y-111567007D01*
X188393012Y-111510000D01*
X189460000Y-111510000D01*
X189460000Y-110712172D01*
X189459999Y-110712155D01*
X189453598Y-110652627D01*
X189453596Y-110652620D01*
X189403354Y-110517913D01*
X189403350Y-110517906D01*
X189317190Y-110402812D01*
X189317187Y-110402809D01*
X189202093Y-110316649D01*
X189202086Y-110316645D01*
X189067379Y-110266403D01*
X189067372Y-110266401D01*
X189007844Y-110260000D01*
X188210000Y-110260000D01*
X188210000Y-111326988D01*
X188152993Y-111294075D01*
X188025826Y-111260000D01*
X187894174Y-111260000D01*
X187767007Y-111294075D01*
X187710000Y-111326988D01*
X187710000Y-110260000D01*
X186912155Y-110260000D01*
X186852627Y-110266401D01*
X186852620Y-110266403D01*
X186717913Y-110316645D01*
X186717906Y-110316649D01*
X186602812Y-110402809D01*
X186602809Y-110402812D01*
X186516649Y-110517906D01*
X186512396Y-110525696D01*
X186509184Y-110523942D01*
X186477435Y-110566056D01*
X186411888Y-110590249D01*
X186343666Y-110575165D01*
X186330585Y-110566859D01*
X186206433Y-110476657D01*
X186171732Y-110458976D01*
X185995996Y-110369433D01*
X185771368Y-110296446D01*
X185538097Y-110259500D01*
X185538092Y-110259500D01*
X185301908Y-110259500D01*
X185301903Y-110259500D01*
X185068631Y-110296446D01*
X184844003Y-110369433D01*
X184633566Y-110476657D01*
X184524550Y-110555862D01*
X184442490Y-110615483D01*
X184442488Y-110615485D01*
X184442487Y-110615485D01*
X184275484Y-110782488D01*
X184250318Y-110817127D01*
X184194987Y-110859792D01*
X184125374Y-110865771D01*
X184063579Y-110833165D01*
X184049682Y-110817127D01*
X184024517Y-110782490D01*
X183857510Y-110615483D01*
X183666433Y-110476657D01*
X183631732Y-110458976D01*
X183455996Y-110369433D01*
X183231368Y-110296446D01*
X182998097Y-110259500D01*
X182998092Y-110259500D01*
X182761908Y-110259500D01*
X182761903Y-110259500D01*
X182528631Y-110296446D01*
X182304003Y-110369433D01*
X182093566Y-110476657D01*
X181984550Y-110555862D01*
X181902490Y-110615483D01*
X181902488Y-110615485D01*
X181902487Y-110615485D01*
X181735484Y-110782488D01*
X181710318Y-110817127D01*
X181654987Y-110859792D01*
X181585374Y-110865771D01*
X181523579Y-110833165D01*
X181509682Y-110817127D01*
X181484517Y-110782490D01*
X181317510Y-110615483D01*
X181126433Y-110476657D01*
X181091732Y-110458976D01*
X180915996Y-110369433D01*
X180691368Y-110296446D01*
X180458097Y-110259500D01*
X180458092Y-110259500D01*
X180221908Y-110259500D01*
X180221903Y-110259500D01*
X179988631Y-110296446D01*
X179764003Y-110369433D01*
X179553566Y-110476657D01*
X179444550Y-110555862D01*
X179362490Y-110615483D01*
X179362488Y-110615485D01*
X179362487Y-110615485D01*
X179195484Y-110782488D01*
X179170318Y-110817127D01*
X179114987Y-110859792D01*
X179045374Y-110865771D01*
X178983579Y-110833165D01*
X178969682Y-110817127D01*
X178944517Y-110782490D01*
X178777510Y-110615483D01*
X178586433Y-110476657D01*
X178551732Y-110458976D01*
X178375996Y-110369433D01*
X178151368Y-110296446D01*
X177918097Y-110259500D01*
X177918092Y-110259500D01*
X177681908Y-110259500D01*
X177681903Y-110259500D01*
X177448631Y-110296446D01*
X177224003Y-110369433D01*
X177013566Y-110476657D01*
X176904550Y-110555862D01*
X176822490Y-110615483D01*
X176822488Y-110615485D01*
X176822487Y-110615485D01*
X176655484Y-110782488D01*
X176630318Y-110817127D01*
X176574987Y-110859792D01*
X176505374Y-110865771D01*
X176443579Y-110833165D01*
X176429682Y-110817127D01*
X176404517Y-110782490D01*
X176237510Y-110615483D01*
X176046433Y-110476657D01*
X176011732Y-110458976D01*
X175835996Y-110369433D01*
X175611368Y-110296446D01*
X175378097Y-110259500D01*
X175378092Y-110259500D01*
X175141908Y-110259500D01*
X175141903Y-110259500D01*
X174908631Y-110296446D01*
X174684003Y-110369433D01*
X174473566Y-110476657D01*
X174364550Y-110555862D01*
X174282490Y-110615483D01*
X174282488Y-110615485D01*
X174282487Y-110615485D01*
X174115484Y-110782488D01*
X174090318Y-110817127D01*
X174034987Y-110859792D01*
X173965374Y-110865771D01*
X173903579Y-110833165D01*
X173889682Y-110817127D01*
X173864517Y-110782490D01*
X173697510Y-110615483D01*
X173506433Y-110476657D01*
X173471732Y-110458976D01*
X173295996Y-110369433D01*
X173071368Y-110296446D01*
X172838097Y-110259500D01*
X172838092Y-110259500D01*
X172601908Y-110259500D01*
X172601903Y-110259500D01*
X172368631Y-110296446D01*
X172144003Y-110369433D01*
X171933566Y-110476657D01*
X171824550Y-110555862D01*
X171742490Y-110615483D01*
X171742488Y-110615485D01*
X171742487Y-110615485D01*
X171575484Y-110782488D01*
X171550318Y-110817127D01*
X171494987Y-110859792D01*
X171425374Y-110865771D01*
X171363579Y-110833165D01*
X171349682Y-110817127D01*
X171324517Y-110782490D01*
X171157510Y-110615483D01*
X170966433Y-110476657D01*
X170931732Y-110458976D01*
X170755996Y-110369433D01*
X170531368Y-110296446D01*
X170298097Y-110259500D01*
X170298092Y-110259500D01*
X170061908Y-110259500D01*
X170061903Y-110259500D01*
X169828628Y-110296447D01*
X169755803Y-110320109D01*
X169685962Y-110322104D01*
X169629805Y-110289859D01*
X165827374Y-106487427D01*
X165827373Y-106487426D01*
X165827369Y-106487423D01*
X165720827Y-106416235D01*
X165602444Y-106367199D01*
X165602438Y-106367197D01*
X165476771Y-106342200D01*
X165476769Y-106342200D01*
X150878962Y-106342200D01*
X150811923Y-106322515D01*
X150791281Y-106305881D01*
X150778638Y-106293238D01*
X150778634Y-106293235D01*
X150631153Y-106194690D01*
X150631140Y-106194683D01*
X150467267Y-106126806D01*
X150467258Y-106126803D01*
X150293294Y-106092200D01*
X150293291Y-106092200D01*
X150115909Y-106092200D01*
X150115906Y-106092200D01*
X149941941Y-106126803D01*
X149941932Y-106126806D01*
X149778059Y-106194683D01*
X149778046Y-106194690D01*
X149630565Y-106293235D01*
X149630561Y-106293238D01*
X149505138Y-106418661D01*
X149505135Y-106418665D01*
X149406590Y-106566146D01*
X149406583Y-106566159D01*
X149338706Y-106730032D01*
X149338703Y-106730041D01*
X149304100Y-106904004D01*
X149304100Y-107081395D01*
X149338703Y-107255358D01*
X149338706Y-107255367D01*
X149406583Y-107419240D01*
X149406590Y-107419253D01*
X149505135Y-107566734D01*
X149505138Y-107566738D01*
X149630561Y-107692161D01*
X149630565Y-107692164D01*
X149778046Y-107790709D01*
X149778059Y-107790716D01*
X149900963Y-107841623D01*
X149941934Y-107858594D01*
X149941936Y-107858594D01*
X149941941Y-107858596D01*
X150115904Y-107893199D01*
X150115907Y-107893200D01*
X150115909Y-107893200D01*
X150293293Y-107893200D01*
X150293294Y-107893199D01*
X150351282Y-107881664D01*
X150467258Y-107858596D01*
X150467261Y-107858594D01*
X150467266Y-107858594D01*
X150631147Y-107790713D01*
X150778635Y-107692164D01*
X150778638Y-107692161D01*
X150791281Y-107679519D01*
X150852604Y-107646034D01*
X150878962Y-107643200D01*
X165091892Y-107643200D01*
X165158931Y-107662885D01*
X165179573Y-107679519D01*
X167554976Y-110054922D01*
X167588461Y-110116245D01*
X167583477Y-110185937D01*
X167541605Y-110241870D01*
X167486694Y-110265076D01*
X167288630Y-110296447D01*
X167064003Y-110369433D01*
X166853566Y-110476657D01*
X166744550Y-110555862D01*
X166662490Y-110615483D01*
X166662488Y-110615485D01*
X166662487Y-110615485D01*
X166495484Y-110782488D01*
X166470318Y-110817127D01*
X166414987Y-110859792D01*
X166345374Y-110865771D01*
X166283579Y-110833165D01*
X166269682Y-110817127D01*
X166244517Y-110782490D01*
X166077510Y-110615483D01*
X165886433Y-110476657D01*
X165851732Y-110458976D01*
X165675996Y-110369433D01*
X165451368Y-110296446D01*
X165218097Y-110259500D01*
X165218092Y-110259500D01*
X164981908Y-110259500D01*
X164981903Y-110259500D01*
X164748631Y-110296446D01*
X164524003Y-110369433D01*
X164313566Y-110476657D01*
X164204550Y-110555862D01*
X164122490Y-110615483D01*
X164122488Y-110615485D01*
X164122487Y-110615485D01*
X163955484Y-110782488D01*
X163930318Y-110817127D01*
X163874987Y-110859792D01*
X163805374Y-110865771D01*
X163743579Y-110833165D01*
X163729682Y-110817127D01*
X163704517Y-110782490D01*
X163537510Y-110615483D01*
X163346433Y-110476657D01*
X163311732Y-110458976D01*
X163135996Y-110369433D01*
X162911368Y-110296446D01*
X162678097Y-110259500D01*
X162678092Y-110259500D01*
X162441908Y-110259500D01*
X162441903Y-110259500D01*
X162208631Y-110296446D01*
X161984003Y-110369433D01*
X161773566Y-110476657D01*
X161664550Y-110555862D01*
X161582490Y-110615483D01*
X161582488Y-110615485D01*
X161582487Y-110615485D01*
X161415484Y-110782488D01*
X161390318Y-110817127D01*
X161334987Y-110859792D01*
X161265374Y-110865771D01*
X161203579Y-110833165D01*
X161189682Y-110817127D01*
X161164517Y-110782490D01*
X160997510Y-110615483D01*
X160806433Y-110476657D01*
X160771732Y-110458976D01*
X160595996Y-110369433D01*
X160371368Y-110296446D01*
X160138097Y-110259500D01*
X160138092Y-110259500D01*
X159901908Y-110259500D01*
X159901903Y-110259500D01*
X159668631Y-110296446D01*
X159444003Y-110369433D01*
X159233566Y-110476657D01*
X159124550Y-110555862D01*
X159042490Y-110615483D01*
X159042488Y-110615485D01*
X159042487Y-110615485D01*
X158875484Y-110782488D01*
X158850318Y-110817127D01*
X158794987Y-110859792D01*
X158725374Y-110865771D01*
X158663579Y-110833165D01*
X158649682Y-110817127D01*
X158624517Y-110782490D01*
X158457510Y-110615483D01*
X158266433Y-110476657D01*
X158231732Y-110458976D01*
X158055996Y-110369433D01*
X157831368Y-110296446D01*
X157598097Y-110259500D01*
X157598092Y-110259500D01*
X157361908Y-110259500D01*
X157361903Y-110259500D01*
X157128631Y-110296446D01*
X156904003Y-110369433D01*
X156693566Y-110476657D01*
X156569422Y-110566854D01*
X156503615Y-110590334D01*
X156435561Y-110574509D01*
X156387942Y-110525510D01*
X156387604Y-110525696D01*
X156386938Y-110524478D01*
X156386866Y-110524403D01*
X156386719Y-110524076D01*
X156383350Y-110517906D01*
X156297190Y-110402812D01*
X156297187Y-110402809D01*
X156182093Y-110316649D01*
X156182086Y-110316645D01*
X156047379Y-110266403D01*
X156047372Y-110266401D01*
X155987844Y-110260000D01*
X155190000Y-110260000D01*
X155190000Y-111326988D01*
X155132993Y-111294075D01*
X155005826Y-111260000D01*
X154874174Y-111260000D01*
X154747007Y-111294075D01*
X154690000Y-111326988D01*
X154690000Y-110260000D01*
X153892155Y-110260000D01*
X153832627Y-110266401D01*
X153832620Y-110266403D01*
X153697913Y-110316645D01*
X153697906Y-110316649D01*
X153582812Y-110402809D01*
X153582809Y-110402812D01*
X153496649Y-110517906D01*
X153492396Y-110525696D01*
X153489184Y-110523942D01*
X153457435Y-110566056D01*
X153391888Y-110590249D01*
X153323666Y-110575165D01*
X153310585Y-110566859D01*
X153186433Y-110476657D01*
X153151732Y-110458976D01*
X152975996Y-110369433D01*
X152751368Y-110296446D01*
X152518097Y-110259500D01*
X152518092Y-110259500D01*
X152281908Y-110259500D01*
X152281903Y-110259500D01*
X152048628Y-110296447D01*
X151975803Y-110320109D01*
X151905962Y-110322104D01*
X151849805Y-110289859D01*
X150567874Y-109007927D01*
X150567873Y-109007926D01*
X150567869Y-109007923D01*
X150461327Y-108936735D01*
X150342944Y-108887699D01*
X150342938Y-108887697D01*
X150217271Y-108862700D01*
X150217269Y-108862700D01*
X147776231Y-108862700D01*
X147776229Y-108862700D01*
X147650561Y-108887697D01*
X147650555Y-108887699D01*
X147532174Y-108936734D01*
X147425626Y-109007926D01*
X147425625Y-109007927D01*
X147166673Y-109266881D01*
X147105350Y-109300366D01*
X147078992Y-109303200D01*
X141996208Y-109303200D01*
X141929169Y-109283515D01*
X141908527Y-109266881D01*
X135396374Y-102754727D01*
X135396373Y-102754726D01*
X135289824Y-102683533D01*
X135204706Y-102648276D01*
X135150302Y-102604434D01*
X135128869Y-102546967D01*
X135124091Y-102502516D01*
X135073797Y-102367671D01*
X135073793Y-102367664D01*
X134987547Y-102252455D01*
X134987544Y-102252452D01*
X134872335Y-102166206D01*
X134872328Y-102166202D01*
X134737482Y-102115908D01*
X134737483Y-102115908D01*
X134677883Y-102109501D01*
X134677881Y-102109500D01*
X134677873Y-102109500D01*
X134677864Y-102109500D01*
X133282129Y-102109500D01*
X133282123Y-102109501D01*
X133222516Y-102115908D01*
X133087671Y-102166202D01*
X133087664Y-102166206D01*
X132972455Y-102252452D01*
X132972452Y-102252455D01*
X132886206Y-102367664D01*
X132886202Y-102367671D01*
X132835908Y-102502517D01*
X132829501Y-102562116D01*
X132829500Y-102562135D01*
X132829500Y-103106072D01*
X132809815Y-103173111D01*
X132757011Y-103218866D01*
X132687853Y-103228810D01*
X132624297Y-103199785D01*
X132586523Y-103141007D01*
X132583027Y-103125470D01*
X132561682Y-102990706D01*
X132505748Y-102818555D01*
X132505747Y-102818552D01*
X132423571Y-102657275D01*
X132423566Y-102657267D01*
X132412085Y-102641466D01*
X131793553Y-103259999D01*
X131790000Y-103259999D01*
X131790000Y-103213922D01*
X131766148Y-103124905D01*
X131720070Y-103045095D01*
X131654905Y-102979930D01*
X131575095Y-102933852D01*
X131486078Y-102910000D01*
X131393922Y-102910000D01*
X131304905Y-102933852D01*
X131225095Y-102979930D01*
X131159930Y-103045095D01*
X131113852Y-103124905D01*
X131090000Y-103213922D01*
X131040369Y-103213922D01*
X130467912Y-102641466D01*
X130456432Y-102657269D01*
X130374254Y-102818547D01*
X130374251Y-102818555D01*
X130318317Y-102990706D01*
X130292726Y-103152279D01*
X130262797Y-103215414D01*
X130203485Y-103252345D01*
X130133622Y-103251347D01*
X130075390Y-103212737D01*
X130047780Y-103152279D01*
X130040461Y-103106072D01*
X130022171Y-102990591D01*
X129966273Y-102818552D01*
X129966212Y-102818363D01*
X129966211Y-102818360D01*
X129897512Y-102683533D01*
X129883996Y-102657006D01*
X129861726Y-102626354D01*
X129777558Y-102510505D01*
X129777554Y-102510500D01*
X129693403Y-102426349D01*
X129649501Y-102382447D01*
X129597737Y-102344838D01*
X129594080Y-102341722D01*
X129577471Y-102316345D01*
X129558948Y-102292324D01*
X129558119Y-102287912D01*
X130821466Y-102287912D01*
X130821466Y-102287913D01*
X131440000Y-102906446D01*
X131440001Y-102906446D01*
X132058533Y-102287913D01*
X132042730Y-102276431D01*
X131881447Y-102194252D01*
X131881444Y-102194251D01*
X131709293Y-102138317D01*
X131530506Y-102110000D01*
X131349494Y-102110000D01*
X131170706Y-102138317D01*
X130998555Y-102194251D01*
X130998547Y-102194254D01*
X130837269Y-102276432D01*
X130821466Y-102287912D01*
X129558119Y-102287912D01*
X129557820Y-102286320D01*
X129555818Y-102283261D01*
X129555751Y-102275303D01*
X129550500Y-102247337D01*
X129550500Y-96377230D01*
X129570185Y-96310191D01*
X129586817Y-96289550D01*
X129597712Y-96278656D01*
X129689814Y-96129334D01*
X129744999Y-95962797D01*
X129755500Y-95860009D01*
X129755500Y-95859986D01*
X130155001Y-95859986D01*
X130165494Y-95962697D01*
X130220641Y-96129119D01*
X130220643Y-96129124D01*
X130312684Y-96278345D01*
X130436654Y-96402315D01*
X130585875Y-96494356D01*
X130585880Y-96494358D01*
X130752302Y-96549505D01*
X130752309Y-96549506D01*
X130855019Y-96559999D01*
X131904999Y-96559999D01*
X132405000Y-96559999D01*
X133454972Y-96559999D01*
X133454986Y-96559998D01*
X133557697Y-96549505D01*
X133724119Y-96494358D01*
X133724124Y-96494356D01*
X133873345Y-96402315D01*
X133997315Y-96278345D01*
X134089356Y-96129124D01*
X134089358Y-96129119D01*
X134144505Y-95962697D01*
X134144506Y-95962690D01*
X134154999Y-95859986D01*
X134155000Y-95859973D01*
X134155000Y-95510000D01*
X132405000Y-95510000D01*
X132405000Y-96559999D01*
X131904999Y-96559999D01*
X131905000Y-96559998D01*
X131905000Y-95510000D01*
X130155001Y-95510000D01*
X130155001Y-95859986D01*
X129755500Y-95859986D01*
X129755499Y-94660013D01*
X130155000Y-94660013D01*
X130155000Y-95010000D01*
X131905000Y-95010000D01*
X132405000Y-95010000D01*
X134154999Y-95010000D01*
X134154999Y-94660028D01*
X134154998Y-94660013D01*
X134144505Y-94557302D01*
X134089358Y-94390880D01*
X134089356Y-94390875D01*
X133997315Y-94241654D01*
X133873345Y-94117684D01*
X133724124Y-94025643D01*
X133724119Y-94025641D01*
X133557697Y-93970494D01*
X133557690Y-93970493D01*
X133454986Y-93960000D01*
X132405000Y-93960000D01*
X132405000Y-95010000D01*
X131905000Y-95010000D01*
X131905000Y-93960000D01*
X130855028Y-93960000D01*
X130855012Y-93960001D01*
X130752302Y-93970494D01*
X130585880Y-94025641D01*
X130585875Y-94025643D01*
X130436654Y-94117684D01*
X130312684Y-94241654D01*
X130220643Y-94390875D01*
X130220641Y-94390880D01*
X130165494Y-94557302D01*
X130165493Y-94557309D01*
X130155000Y-94660013D01*
X129755499Y-94660013D01*
X129755499Y-94659992D01*
X129744999Y-94557203D01*
X129689814Y-94390666D01*
X129597712Y-94241344D01*
X129473656Y-94117288D01*
X129324334Y-94025186D01*
X129157797Y-93970001D01*
X129157795Y-93970000D01*
X129055016Y-93959500D01*
X129055009Y-93959500D01*
X128529500Y-93959500D01*
X128462461Y-93939815D01*
X128416706Y-93887011D01*
X128405500Y-93835500D01*
X128405500Y-91284499D01*
X128425185Y-91217460D01*
X128477989Y-91171705D01*
X128529500Y-91160499D01*
X128855002Y-91160499D01*
X128855008Y-91160499D01*
X128957797Y-91149999D01*
X129124334Y-91094814D01*
X129273656Y-91002712D01*
X129397712Y-90878656D01*
X129489814Y-90729334D01*
X129544999Y-90562797D01*
X129555500Y-90460009D01*
X129555500Y-90459986D01*
X130355001Y-90459986D01*
X130365494Y-90562697D01*
X130420641Y-90729119D01*
X130420643Y-90729124D01*
X130512684Y-90878345D01*
X130636654Y-91002315D01*
X130785875Y-91094356D01*
X130785880Y-91094358D01*
X130952302Y-91149505D01*
X130952309Y-91149506D01*
X131055019Y-91159999D01*
X131179999Y-91159999D01*
X131680000Y-91159999D01*
X131804972Y-91159999D01*
X131804986Y-91159998D01*
X131907697Y-91149505D01*
X132074119Y-91094358D01*
X132074124Y-91094356D01*
X132223345Y-91002315D01*
X132347315Y-90878345D01*
X132439356Y-90729124D01*
X132439358Y-90729119D01*
X132494505Y-90562697D01*
X132494506Y-90562690D01*
X132504999Y-90459986D01*
X132505000Y-90459973D01*
X132505000Y-90010000D01*
X131680000Y-90010000D01*
X131680000Y-91159999D01*
X131179999Y-91159999D01*
X131180000Y-91159998D01*
X131180000Y-90010000D01*
X130355001Y-90010000D01*
X130355001Y-90459986D01*
X129555500Y-90459986D01*
X129555499Y-89510000D01*
X129555499Y-89060013D01*
X130355000Y-89060013D01*
X130355000Y-89510000D01*
X131180000Y-89510000D01*
X131680000Y-89510000D01*
X132504999Y-89510000D01*
X132504999Y-89060028D01*
X132504998Y-89060013D01*
X132494505Y-88957302D01*
X132439358Y-88790880D01*
X132439356Y-88790875D01*
X132347315Y-88641654D01*
X132223345Y-88517684D01*
X132074124Y-88425643D01*
X132074119Y-88425641D01*
X131907697Y-88370494D01*
X131907690Y-88370493D01*
X131804986Y-88360000D01*
X131680000Y-88360000D01*
X131680000Y-89510000D01*
X131180000Y-89510000D01*
X131180000Y-88360000D01*
X131055027Y-88360000D01*
X131055012Y-88360001D01*
X130952302Y-88370494D01*
X130785880Y-88425641D01*
X130785875Y-88425643D01*
X130636654Y-88517684D01*
X130512684Y-88641654D01*
X130420643Y-88790875D01*
X130420641Y-88790880D01*
X130365494Y-88957302D01*
X130365493Y-88957309D01*
X130355000Y-89060013D01*
X129555499Y-89060013D01*
X129555499Y-89059998D01*
X129555498Y-89059981D01*
X129544999Y-88957203D01*
X129544998Y-88957200D01*
X129489814Y-88790666D01*
X129397712Y-88641344D01*
X129273656Y-88517288D01*
X129273652Y-88517285D01*
X129189403Y-88465319D01*
X129142678Y-88413371D01*
X129130500Y-88359781D01*
X129130500Y-85029126D01*
X129150185Y-84962087D01*
X129202989Y-84916332D01*
X129241248Y-84905836D01*
X129257483Y-84904091D01*
X129392331Y-84853796D01*
X129507546Y-84767546D01*
X129593796Y-84652331D01*
X129644091Y-84517483D01*
X129650500Y-84457873D01*
X129650499Y-84127205D01*
X129670183Y-84060168D01*
X129722987Y-84014413D01*
X129792146Y-84004469D01*
X129855701Y-84033494D01*
X129862180Y-84039526D01*
X131089625Y-85266972D01*
X131089632Y-85266978D01*
X131189602Y-85333775D01*
X131189603Y-85333775D01*
X131189606Y-85333777D01*
X131196173Y-85338165D01*
X131314556Y-85387201D01*
X131314560Y-85387201D01*
X131314561Y-85387202D01*
X131440228Y-85412200D01*
X131440231Y-85412200D01*
X139658571Y-85412200D01*
X139743115Y-85395382D01*
X139784244Y-85387201D01*
X139902627Y-85338165D01*
X139909194Y-85333777D01*
X140009169Y-85266977D01*
X146669327Y-78606819D01*
X146730650Y-78573334D01*
X146757008Y-78570500D01*
X150708591Y-78570500D01*
X150775630Y-78590185D01*
X150821385Y-78642989D01*
X150831329Y-78712147D01*
X150802304Y-78775703D01*
X150796272Y-78782181D01*
X150502673Y-79075781D01*
X150441350Y-79109266D01*
X150414992Y-79112100D01*
X150397106Y-79112100D01*
X150223141Y-79146703D01*
X150223132Y-79146706D01*
X150059259Y-79214583D01*
X150059246Y-79214590D01*
X149911765Y-79313135D01*
X149911761Y-79313138D01*
X149786338Y-79438561D01*
X149786335Y-79438565D01*
X149687790Y-79586046D01*
X149687783Y-79586059D01*
X149619906Y-79749932D01*
X149619903Y-79749941D01*
X149585300Y-79923904D01*
X149585300Y-80101295D01*
X149619903Y-80275258D01*
X149619906Y-80275267D01*
X149687783Y-80439140D01*
X149687790Y-80439153D01*
X149786335Y-80586634D01*
X149786338Y-80586638D01*
X149911761Y-80712061D01*
X149911765Y-80712064D01*
X150059246Y-80810609D01*
X150059259Y-80810616D01*
X150182163Y-80861523D01*
X150223134Y-80878494D01*
X150223136Y-80878494D01*
X150223141Y-80878496D01*
X150397104Y-80913099D01*
X150397107Y-80913100D01*
X150397109Y-80913100D01*
X150574493Y-80913100D01*
X150574494Y-80913099D01*
X150632482Y-80901564D01*
X150748458Y-80878496D01*
X150748461Y-80878494D01*
X150748466Y-80878494D01*
X150912347Y-80810613D01*
X151059835Y-80712064D01*
X151185264Y-80586635D01*
X151283813Y-80439147D01*
X151351694Y-80275266D01*
X151361874Y-80224091D01*
X151386299Y-80101295D01*
X151386300Y-80101293D01*
X151386300Y-80083408D01*
X151394944Y-80053967D01*
X151401468Y-80023981D01*
X151405222Y-80018965D01*
X151405985Y-80016369D01*
X151422619Y-79995727D01*
X151501527Y-79916819D01*
X151562850Y-79883334D01*
X151589208Y-79880500D01*
X170285859Y-79880500D01*
X170352898Y-79900185D01*
X170398653Y-79952989D01*
X170402030Y-79961140D01*
X170406204Y-79972331D01*
X170406205Y-79972332D01*
X170406206Y-79972335D01*
X170492452Y-80087544D01*
X170492455Y-80087547D01*
X170607664Y-80173793D01*
X170607671Y-80173797D01*
X170742517Y-80224091D01*
X170742516Y-80224091D01*
X170749444Y-80224835D01*
X170802127Y-80230500D01*
X172397872Y-80230499D01*
X172457483Y-80224091D01*
X172592331Y-80173796D01*
X172707546Y-80087546D01*
X172793796Y-79972331D01*
X172844091Y-79837483D01*
X172850500Y-79777873D01*
X172850499Y-78682128D01*
X172844091Y-78622517D01*
X172844090Y-78622515D01*
X172844090Y-78622512D01*
X172842308Y-78614969D01*
X172843773Y-78614622D01*
X172843055Y-78604592D01*
X172836768Y-78586880D01*
X172840180Y-78564425D01*
X172839409Y-78553651D01*
X172839845Y-78551721D01*
X172841642Y-78544048D01*
X172844091Y-78537483D01*
X172844863Y-78530293D01*
X172846604Y-78522865D01*
X172860213Y-78498855D01*
X172870778Y-78473345D01*
X172877203Y-78468883D01*
X172881059Y-78462081D01*
X172905494Y-78449237D01*
X172928168Y-78433493D01*
X172935982Y-78433213D01*
X172942906Y-78429574D01*
X172970407Y-78431980D01*
X172997993Y-78430993D01*
X173005051Y-78435012D01*
X173012510Y-78435665D01*
X173030103Y-78449277D01*
X173055017Y-78463463D01*
X179517306Y-84925752D01*
X179550791Y-84987075D01*
X179545807Y-85056767D01*
X179503935Y-85112700D01*
X179502511Y-85113751D01*
X179362488Y-85215484D01*
X179195484Y-85382488D01*
X179183222Y-85399365D01*
X179173898Y-85412200D01*
X179170318Y-85417127D01*
X179114987Y-85459792D01*
X179045374Y-85465771D01*
X178983579Y-85433165D01*
X178969682Y-85417127D01*
X178944517Y-85382490D01*
X178777510Y-85215483D01*
X178586433Y-85076657D01*
X178556568Y-85061440D01*
X178375996Y-84969433D01*
X178151368Y-84896446D01*
X177918097Y-84859500D01*
X177918092Y-84859500D01*
X177681908Y-84859500D01*
X177681903Y-84859500D01*
X177448631Y-84896446D01*
X177224003Y-84969433D01*
X177013566Y-85076657D01*
X176904550Y-85155862D01*
X176822490Y-85215483D01*
X176822488Y-85215485D01*
X176822487Y-85215485D01*
X176655484Y-85382488D01*
X176643222Y-85399365D01*
X176633898Y-85412200D01*
X176630318Y-85417127D01*
X176574987Y-85459792D01*
X176505374Y-85465771D01*
X176443579Y-85433165D01*
X176429682Y-85417127D01*
X176404517Y-85382490D01*
X176237510Y-85215483D01*
X176046433Y-85076657D01*
X176016568Y-85061440D01*
X175835996Y-84969433D01*
X175611368Y-84896446D01*
X175378097Y-84859500D01*
X175378092Y-84859500D01*
X175141908Y-84859500D01*
X175141903Y-84859500D01*
X174908631Y-84896446D01*
X174684003Y-84969433D01*
X174473566Y-85076657D01*
X174364550Y-85155862D01*
X174282490Y-85215483D01*
X174282488Y-85215485D01*
X174282487Y-85215485D01*
X174115484Y-85382488D01*
X174103222Y-85399365D01*
X174093898Y-85412200D01*
X174090318Y-85417127D01*
X174034987Y-85459792D01*
X173965374Y-85465771D01*
X173903579Y-85433165D01*
X173889682Y-85417127D01*
X173864517Y-85382490D01*
X173697510Y-85215483D01*
X173506433Y-85076657D01*
X173476568Y-85061440D01*
X173295996Y-84969433D01*
X173071368Y-84896446D01*
X172838097Y-84859500D01*
X172838092Y-84859500D01*
X172601908Y-84859500D01*
X172601903Y-84859500D01*
X172368631Y-84896446D01*
X172144003Y-84969433D01*
X171933566Y-85076657D01*
X171824550Y-85155862D01*
X171742490Y-85215483D01*
X171742488Y-85215485D01*
X171742487Y-85215485D01*
X171575484Y-85382488D01*
X171563222Y-85399365D01*
X171553898Y-85412200D01*
X171550318Y-85417127D01*
X171494987Y-85459792D01*
X171425374Y-85465771D01*
X171363579Y-85433165D01*
X171349682Y-85417127D01*
X171324517Y-85382490D01*
X171157510Y-85215483D01*
X170966433Y-85076657D01*
X170936568Y-85061440D01*
X170755996Y-84969433D01*
X170531368Y-84896446D01*
X170298097Y-84859500D01*
X170298092Y-84859500D01*
X170061908Y-84859500D01*
X170061903Y-84859500D01*
X169828631Y-84896446D01*
X169604003Y-84969433D01*
X169393566Y-85076657D01*
X169284550Y-85155862D01*
X169202490Y-85215483D01*
X169202488Y-85215485D01*
X169202487Y-85215485D01*
X169035484Y-85382488D01*
X169023222Y-85399365D01*
X169013898Y-85412200D01*
X169010318Y-85417127D01*
X168954987Y-85459792D01*
X168885374Y-85465771D01*
X168823579Y-85433165D01*
X168809682Y-85417127D01*
X168784517Y-85382490D01*
X168617510Y-85215483D01*
X168426433Y-85076657D01*
X168396568Y-85061440D01*
X168215996Y-84969433D01*
X167991368Y-84896446D01*
X167758097Y-84859500D01*
X167758092Y-84859500D01*
X167521908Y-84859500D01*
X167521903Y-84859500D01*
X167288628Y-84896447D01*
X167215803Y-84920109D01*
X167145962Y-84922104D01*
X167089805Y-84889859D01*
X165961827Y-83761881D01*
X165928342Y-83700558D01*
X165933326Y-83630866D01*
X165975198Y-83574933D01*
X166040662Y-83550516D01*
X166049508Y-83550200D01*
X166540672Y-83550200D01*
X166607711Y-83569885D01*
X166653466Y-83622689D01*
X166662289Y-83650009D01*
X166679603Y-83737058D01*
X166679606Y-83737067D01*
X166747483Y-83900940D01*
X166747490Y-83900953D01*
X166846035Y-84048434D01*
X166846038Y-84048438D01*
X166971461Y-84173861D01*
X166971465Y-84173864D01*
X167118946Y-84272409D01*
X167118959Y-84272416D01*
X167190383Y-84302000D01*
X167282834Y-84340294D01*
X167282836Y-84340294D01*
X167282841Y-84340296D01*
X167456804Y-84374899D01*
X167456807Y-84374900D01*
X167456809Y-84374900D01*
X167634193Y-84374900D01*
X167634194Y-84374899D01*
X167692182Y-84363364D01*
X167808158Y-84340296D01*
X167808161Y-84340294D01*
X167808166Y-84340294D01*
X167972047Y-84272413D01*
X168119535Y-84173864D01*
X168244964Y-84048435D01*
X168343513Y-83900947D01*
X168411394Y-83737066D01*
X168424495Y-83671206D01*
X168436570Y-83610499D01*
X168446000Y-83563091D01*
X168446000Y-83385709D01*
X168446000Y-83385706D01*
X168445999Y-83385704D01*
X168411396Y-83211741D01*
X168411393Y-83211732D01*
X168343516Y-83047859D01*
X168343509Y-83047846D01*
X168244964Y-82900365D01*
X168244961Y-82900361D01*
X168119538Y-82774938D01*
X168119534Y-82774935D01*
X167972053Y-82676390D01*
X167972040Y-82676383D01*
X167808167Y-82608506D01*
X167808158Y-82608503D01*
X167634194Y-82573900D01*
X167634191Y-82573900D01*
X167616308Y-82573900D01*
X167549269Y-82554215D01*
X167528631Y-82537585D01*
X167385469Y-82394423D01*
X167278927Y-82323235D01*
X167160544Y-82274199D01*
X167160538Y-82274197D01*
X167034871Y-82249200D01*
X167034869Y-82249200D01*
X162891331Y-82249200D01*
X162891329Y-82249200D01*
X162765661Y-82274197D01*
X162765655Y-82274199D01*
X162647274Y-82323234D01*
X162540726Y-82394426D01*
X162021726Y-82913426D01*
X161957201Y-83009997D01*
X161957199Y-83009999D01*
X161950537Y-83019968D01*
X161950534Y-83019974D01*
X161901499Y-83138355D01*
X161901497Y-83138361D01*
X161876500Y-83264028D01*
X161876500Y-84948222D01*
X161856815Y-85015261D01*
X161808796Y-85058706D01*
X161773569Y-85076655D01*
X161716783Y-85117913D01*
X161582490Y-85215483D01*
X161582488Y-85215485D01*
X161582487Y-85215485D01*
X161415484Y-85382488D01*
X161403222Y-85399365D01*
X161393898Y-85412200D01*
X161390318Y-85417127D01*
X161334987Y-85459792D01*
X161265374Y-85465771D01*
X161203579Y-85433165D01*
X161189682Y-85417127D01*
X161164517Y-85382490D01*
X160997510Y-85215483D01*
X160806433Y-85076657D01*
X160776568Y-85061440D01*
X160595996Y-84969433D01*
X160371368Y-84896446D01*
X160138097Y-84859500D01*
X160138092Y-84859500D01*
X159901908Y-84859500D01*
X159901903Y-84859500D01*
X159668631Y-84896446D01*
X159444003Y-84969433D01*
X159233566Y-85076657D01*
X159124550Y-85155862D01*
X159042490Y-85215483D01*
X159042488Y-85215485D01*
X159042487Y-85215485D01*
X158875484Y-85382488D01*
X158863222Y-85399365D01*
X158853898Y-85412200D01*
X158850318Y-85417127D01*
X158794987Y-85459792D01*
X158725374Y-85465771D01*
X158663579Y-85433165D01*
X158649682Y-85417127D01*
X158624517Y-85382490D01*
X158457510Y-85215483D01*
X158266433Y-85076657D01*
X158236568Y-85061440D01*
X158055996Y-84969433D01*
X157831368Y-84896446D01*
X157598097Y-84859500D01*
X157598092Y-84859500D01*
X157361908Y-84859500D01*
X157361903Y-84859500D01*
X157128631Y-84896446D01*
X156904003Y-84969433D01*
X156693566Y-85076657D01*
X156584550Y-85155862D01*
X156502490Y-85215483D01*
X156502488Y-85215485D01*
X156502487Y-85215485D01*
X156335484Y-85382488D01*
X156323222Y-85399365D01*
X156313898Y-85412200D01*
X156310318Y-85417127D01*
X156254987Y-85459792D01*
X156185374Y-85465771D01*
X156123579Y-85433165D01*
X156109682Y-85417127D01*
X156084517Y-85382490D01*
X155917510Y-85215483D01*
X155726433Y-85076657D01*
X155696568Y-85061440D01*
X155515996Y-84969433D01*
X155291368Y-84896446D01*
X155058097Y-84859500D01*
X155058092Y-84859500D01*
X154821908Y-84859500D01*
X154821903Y-84859500D01*
X154588631Y-84896446D01*
X154364003Y-84969433D01*
X154153566Y-85076657D01*
X154044550Y-85155862D01*
X153962490Y-85215483D01*
X153962488Y-85215485D01*
X153962487Y-85215485D01*
X153795484Y-85382488D01*
X153783222Y-85399365D01*
X153773898Y-85412200D01*
X153770318Y-85417127D01*
X153714987Y-85459792D01*
X153645374Y-85465771D01*
X153583579Y-85433165D01*
X153569682Y-85417127D01*
X153544517Y-85382490D01*
X153377510Y-85215483D01*
X153186433Y-85076657D01*
X153156568Y-85061440D01*
X152975996Y-84969433D01*
X152751368Y-84896446D01*
X152518097Y-84859500D01*
X152518092Y-84859500D01*
X152281908Y-84859500D01*
X152281903Y-84859500D01*
X152048631Y-84896446D01*
X151824003Y-84969433D01*
X151613566Y-85076657D01*
X151504550Y-85155862D01*
X151422490Y-85215483D01*
X151422488Y-85215485D01*
X151422487Y-85215485D01*
X151255485Y-85382487D01*
X151255485Y-85382488D01*
X151255483Y-85382490D01*
X151199320Y-85459792D01*
X151116657Y-85573566D01*
X151009433Y-85784003D01*
X150936446Y-86008631D01*
X150899500Y-86241902D01*
X150899500Y-86478097D01*
X150936446Y-86711368D01*
X151009433Y-86935996D01*
X151116657Y-87146433D01*
X151255483Y-87337510D01*
X151422490Y-87504517D01*
X151613567Y-87643343D01*
X151712991Y-87694002D01*
X151824003Y-87750566D01*
X151824005Y-87750566D01*
X151824008Y-87750568D01*
X151944412Y-87789689D01*
X152048631Y-87823553D01*
X152281903Y-87860500D01*
X152281908Y-87860500D01*
X152518097Y-87860500D01*
X152751368Y-87823553D01*
X152975992Y-87750568D01*
X153186433Y-87643343D01*
X153377510Y-87504517D01*
X153544517Y-87337510D01*
X153569682Y-87302872D01*
X153625011Y-87260207D01*
X153694625Y-87254228D01*
X153756420Y-87286833D01*
X153770315Y-87302870D01*
X153795483Y-87337510D01*
X153962490Y-87504517D01*
X154153567Y-87643343D01*
X154252991Y-87694002D01*
X154364003Y-87750566D01*
X154364005Y-87750566D01*
X154364008Y-87750568D01*
X154484412Y-87789689D01*
X154588631Y-87823553D01*
X154821903Y-87860500D01*
X154821908Y-87860500D01*
X155058097Y-87860500D01*
X155291368Y-87823553D01*
X155515992Y-87750568D01*
X155726433Y-87643343D01*
X155917510Y-87504517D01*
X156084517Y-87337510D01*
X156109682Y-87302872D01*
X156165011Y-87260207D01*
X156234625Y-87254228D01*
X156296420Y-87286833D01*
X156310315Y-87302870D01*
X156335483Y-87337510D01*
X156502490Y-87504517D01*
X156693567Y-87643343D01*
X156792991Y-87694002D01*
X156904003Y-87750566D01*
X156904005Y-87750566D01*
X156904008Y-87750568D01*
X157024412Y-87789689D01*
X157128631Y-87823553D01*
X157361903Y-87860500D01*
X157361908Y-87860500D01*
X157598097Y-87860500D01*
X157831368Y-87823553D01*
X158055992Y-87750568D01*
X158266433Y-87643343D01*
X158457510Y-87504517D01*
X158624517Y-87337510D01*
X158649682Y-87302872D01*
X158705011Y-87260207D01*
X158774625Y-87254228D01*
X158836420Y-87286833D01*
X158850315Y-87302870D01*
X158875483Y-87337510D01*
X159042490Y-87504517D01*
X159233567Y-87643343D01*
X159332991Y-87694002D01*
X159444003Y-87750566D01*
X159444005Y-87750566D01*
X159444008Y-87750568D01*
X159564412Y-87789689D01*
X159668631Y-87823553D01*
X159901903Y-87860500D01*
X159901908Y-87860500D01*
X160138097Y-87860500D01*
X160371368Y-87823553D01*
X160595992Y-87750568D01*
X160806433Y-87643343D01*
X160997510Y-87504517D01*
X161164517Y-87337510D01*
X161189682Y-87302872D01*
X161245011Y-87260207D01*
X161314625Y-87254228D01*
X161376420Y-87286833D01*
X161390315Y-87302870D01*
X161415483Y-87337510D01*
X161582490Y-87504517D01*
X161773567Y-87643343D01*
X161872991Y-87694002D01*
X161984003Y-87750566D01*
X161984005Y-87750566D01*
X161984008Y-87750568D01*
X162104412Y-87789689D01*
X162208631Y-87823553D01*
X162441903Y-87860500D01*
X162441908Y-87860500D01*
X162678097Y-87860500D01*
X162911368Y-87823553D01*
X163135992Y-87750568D01*
X163346433Y-87643343D01*
X163537510Y-87504517D01*
X163704517Y-87337510D01*
X163729682Y-87302872D01*
X163785011Y-87260207D01*
X163854625Y-87254228D01*
X163916420Y-87286833D01*
X163930315Y-87302870D01*
X163955483Y-87337510D01*
X164122490Y-87504517D01*
X164313567Y-87643343D01*
X164412991Y-87694002D01*
X164524003Y-87750566D01*
X164524005Y-87750566D01*
X164524008Y-87750568D01*
X164644412Y-87789689D01*
X164748631Y-87823553D01*
X164981903Y-87860500D01*
X164981908Y-87860500D01*
X165218097Y-87860500D01*
X165451368Y-87823553D01*
X165675992Y-87750568D01*
X165886433Y-87643343D01*
X166077510Y-87504517D01*
X166244517Y-87337510D01*
X166269682Y-87302872D01*
X166325011Y-87260207D01*
X166394625Y-87254228D01*
X166456420Y-87286833D01*
X166470315Y-87302870D01*
X166495483Y-87337510D01*
X166662490Y-87504517D01*
X166853567Y-87643343D01*
X166952991Y-87694002D01*
X167064003Y-87750566D01*
X167064005Y-87750566D01*
X167064008Y-87750568D01*
X167184412Y-87789689D01*
X167288631Y-87823553D01*
X167521903Y-87860500D01*
X167521908Y-87860500D01*
X167758097Y-87860500D01*
X167991368Y-87823553D01*
X168215992Y-87750568D01*
X168426433Y-87643343D01*
X168617510Y-87504517D01*
X168784517Y-87337510D01*
X168809682Y-87302872D01*
X168865011Y-87260207D01*
X168934625Y-87254228D01*
X168996420Y-87286833D01*
X169010315Y-87302870D01*
X169035483Y-87337510D01*
X169202490Y-87504517D01*
X169393567Y-87643343D01*
X169492991Y-87694002D01*
X169604003Y-87750566D01*
X169604005Y-87750566D01*
X169604008Y-87750568D01*
X169724412Y-87789689D01*
X169828631Y-87823553D01*
X170061903Y-87860500D01*
X170061908Y-87860500D01*
X170298097Y-87860500D01*
X170531368Y-87823553D01*
X170755992Y-87750568D01*
X170966433Y-87643343D01*
X171157510Y-87504517D01*
X171324517Y-87337510D01*
X171349682Y-87302872D01*
X171405011Y-87260207D01*
X171474625Y-87254228D01*
X171536420Y-87286833D01*
X171550315Y-87302870D01*
X171575483Y-87337510D01*
X171742490Y-87504517D01*
X171933567Y-87643343D01*
X172032991Y-87694002D01*
X172144003Y-87750566D01*
X172144005Y-87750566D01*
X172144008Y-87750568D01*
X172264412Y-87789689D01*
X172368631Y-87823553D01*
X172601903Y-87860500D01*
X172601908Y-87860500D01*
X172838097Y-87860500D01*
X173071368Y-87823553D01*
X173295992Y-87750568D01*
X173506433Y-87643343D01*
X173697510Y-87504517D01*
X173864517Y-87337510D01*
X173889682Y-87302872D01*
X173945011Y-87260207D01*
X174014625Y-87254228D01*
X174076420Y-87286833D01*
X174090315Y-87302870D01*
X174115483Y-87337510D01*
X174282490Y-87504517D01*
X174473567Y-87643343D01*
X174572991Y-87694002D01*
X174684003Y-87750566D01*
X174684005Y-87750566D01*
X174684008Y-87750568D01*
X174804412Y-87789689D01*
X174908631Y-87823553D01*
X175141903Y-87860500D01*
X175141908Y-87860500D01*
X175378097Y-87860500D01*
X175611368Y-87823553D01*
X175835992Y-87750568D01*
X176046433Y-87643343D01*
X176237510Y-87504517D01*
X176404517Y-87337510D01*
X176429682Y-87302872D01*
X176485011Y-87260207D01*
X176554625Y-87254228D01*
X176616420Y-87286833D01*
X176630315Y-87302870D01*
X176655483Y-87337510D01*
X176822490Y-87504517D01*
X177013567Y-87643343D01*
X177112991Y-87694002D01*
X177224003Y-87750566D01*
X177224005Y-87750566D01*
X177224008Y-87750568D01*
X177344412Y-87789689D01*
X177448631Y-87823553D01*
X177681903Y-87860500D01*
X177681908Y-87860500D01*
X177918097Y-87860500D01*
X178151368Y-87823553D01*
X178375992Y-87750568D01*
X178586433Y-87643343D01*
X178777510Y-87504517D01*
X178944517Y-87337510D01*
X178969682Y-87302872D01*
X179025011Y-87260207D01*
X179094625Y-87254228D01*
X179156420Y-87286833D01*
X179170315Y-87302870D01*
X179195483Y-87337510D01*
X179362490Y-87504517D01*
X179553567Y-87643343D01*
X179652991Y-87694002D01*
X179764003Y-87750566D01*
X179764005Y-87750566D01*
X179764008Y-87750568D01*
X179884412Y-87789689D01*
X179988631Y-87823553D01*
X180221903Y-87860500D01*
X180221908Y-87860500D01*
X180458097Y-87860500D01*
X180691368Y-87823553D01*
X180915992Y-87750568D01*
X181126433Y-87643343D01*
X181317510Y-87504517D01*
X181484517Y-87337510D01*
X181509682Y-87302872D01*
X181565011Y-87260207D01*
X181634625Y-87254228D01*
X181696420Y-87286833D01*
X181710315Y-87302870D01*
X181735483Y-87337510D01*
X181902490Y-87504517D01*
X182093567Y-87643343D01*
X182192991Y-87694002D01*
X182304003Y-87750566D01*
X182304005Y-87750566D01*
X182304008Y-87750568D01*
X182424412Y-87789689D01*
X182528631Y-87823553D01*
X182761903Y-87860500D01*
X182761908Y-87860500D01*
X182998097Y-87860500D01*
X183231368Y-87823553D01*
X183455992Y-87750568D01*
X183666433Y-87643343D01*
X183857510Y-87504517D01*
X184024517Y-87337510D01*
X184049682Y-87302872D01*
X184105011Y-87260207D01*
X184174625Y-87254228D01*
X184236420Y-87286833D01*
X184250315Y-87302870D01*
X184275483Y-87337510D01*
X184442490Y-87504517D01*
X184633567Y-87643343D01*
X184732991Y-87694002D01*
X184844003Y-87750566D01*
X184844005Y-87750566D01*
X184844008Y-87750568D01*
X184964412Y-87789689D01*
X185068631Y-87823553D01*
X185301903Y-87860500D01*
X185301908Y-87860500D01*
X185538097Y-87860500D01*
X185771368Y-87823553D01*
X185995992Y-87750568D01*
X186206433Y-87643343D01*
X186330579Y-87553145D01*
X186396383Y-87529665D01*
X186464437Y-87545490D01*
X186512057Y-87594489D01*
X186512396Y-87594304D01*
X186513061Y-87595522D01*
X186513132Y-87595595D01*
X186513276Y-87595916D01*
X186516649Y-87602093D01*
X186602809Y-87717187D01*
X186602812Y-87717190D01*
X186717906Y-87803350D01*
X186717913Y-87803354D01*
X186852620Y-87853596D01*
X186852627Y-87853598D01*
X186912155Y-87859999D01*
X186912172Y-87860000D01*
X187710000Y-87860000D01*
X187710000Y-86793012D01*
X187767007Y-86825925D01*
X187894174Y-86860000D01*
X188025826Y-86860000D01*
X188152993Y-86825925D01*
X188210000Y-86793012D01*
X188210000Y-87860000D01*
X189007828Y-87860000D01*
X189007844Y-87859999D01*
X189067372Y-87853598D01*
X189067379Y-87853596D01*
X189202086Y-87803354D01*
X189202093Y-87803350D01*
X189317187Y-87717190D01*
X189317190Y-87717187D01*
X189403350Y-87602093D01*
X189403354Y-87602086D01*
X189453596Y-87467379D01*
X189453598Y-87467372D01*
X189459999Y-87407844D01*
X189460000Y-87407827D01*
X189460000Y-86610000D01*
X188393012Y-86610000D01*
X188425925Y-86552993D01*
X188460000Y-86425826D01*
X188460000Y-86294174D01*
X188425925Y-86167007D01*
X188393012Y-86110000D01*
X189460000Y-86110000D01*
X189460000Y-85312172D01*
X189459999Y-85312155D01*
X189453598Y-85252627D01*
X189453596Y-85252620D01*
X189403354Y-85117913D01*
X189403350Y-85117906D01*
X189317190Y-85002812D01*
X189317187Y-85002809D01*
X189202093Y-84916649D01*
X189202086Y-84916645D01*
X189067379Y-84866403D01*
X189067372Y-84866401D01*
X189007844Y-84860000D01*
X188210000Y-84860000D01*
X188210000Y-85926988D01*
X188152993Y-85894075D01*
X188025826Y-85860000D01*
X187894174Y-85860000D01*
X187767007Y-85894075D01*
X187710000Y-85926988D01*
X187710000Y-84860000D01*
X186912155Y-84860000D01*
X186852627Y-84866401D01*
X186852620Y-84866403D01*
X186717913Y-84916645D01*
X186717906Y-84916649D01*
X186602812Y-85002809D01*
X186602809Y-85002812D01*
X186516649Y-85117906D01*
X186512396Y-85125696D01*
X186509184Y-85123942D01*
X186477435Y-85166056D01*
X186411888Y-85190249D01*
X186343666Y-85175165D01*
X186330585Y-85166859D01*
X186206433Y-85076657D01*
X186176568Y-85061440D01*
X185995996Y-84969433D01*
X185771368Y-84896446D01*
X185538097Y-84859500D01*
X185538092Y-84859500D01*
X185301908Y-84859500D01*
X185301903Y-84859500D01*
X185068631Y-84896446D01*
X184844003Y-84969433D01*
X184633566Y-85076657D01*
X184524550Y-85155862D01*
X184442490Y-85215483D01*
X184442488Y-85215485D01*
X184442487Y-85215485D01*
X184275484Y-85382488D01*
X184263222Y-85399365D01*
X184253898Y-85412200D01*
X184250318Y-85417127D01*
X184194987Y-85459792D01*
X184125374Y-85465771D01*
X184063579Y-85433165D01*
X184049682Y-85417127D01*
X184024517Y-85382490D01*
X183857510Y-85215483D01*
X183666433Y-85076657D01*
X183636568Y-85061440D01*
X183455996Y-84969433D01*
X183231368Y-84896446D01*
X182998097Y-84859500D01*
X182998092Y-84859500D01*
X182761908Y-84859500D01*
X182761903Y-84859500D01*
X182528631Y-84896446D01*
X182304003Y-84969433D01*
X182093566Y-85076657D01*
X181984550Y-85155862D01*
X181902490Y-85215483D01*
X181902488Y-85215485D01*
X181902487Y-85215485D01*
X181735484Y-85382488D01*
X181723222Y-85399365D01*
X181713898Y-85412200D01*
X181710318Y-85417127D01*
X181654987Y-85459792D01*
X181585374Y-85465771D01*
X181523579Y-85433165D01*
X181509682Y-85417127D01*
X181484517Y-85382490D01*
X181317510Y-85215483D01*
X181126433Y-85076657D01*
X181126432Y-85076656D01*
X181126430Y-85076655D01*
X181058204Y-85041891D01*
X181007408Y-84993916D01*
X180990500Y-84931407D01*
X180990500Y-84764428D01*
X180965502Y-84638761D01*
X180965501Y-84638760D01*
X180965501Y-84638756D01*
X180916465Y-84520373D01*
X180916464Y-84520370D01*
X180916463Y-84520369D01*
X180914535Y-84517483D01*
X180845278Y-84413832D01*
X180845272Y-84413825D01*
X164956173Y-68524726D01*
X164956169Y-68524723D01*
X164849627Y-68453535D01*
X164731244Y-68404499D01*
X164731238Y-68404497D01*
X164605571Y-68379500D01*
X164605569Y-68379500D01*
X162696855Y-68379500D01*
X162629816Y-68359815D01*
X162584061Y-68307011D01*
X162574117Y-68237853D01*
X162578924Y-68217182D01*
X162581177Y-68210245D01*
X162631413Y-68055636D01*
X162662500Y-67859361D01*
X162662500Y-67660639D01*
X162631413Y-67464364D01*
X162570005Y-67275368D01*
X162570005Y-67275367D01*
X162517181Y-67171695D01*
X162504285Y-67103026D01*
X162530561Y-67038285D01*
X162587668Y-66998028D01*
X162627666Y-66991400D01*
X169532271Y-66991400D01*
X169616815Y-66974582D01*
X169657944Y-66966401D01*
X169776327Y-66917365D01*
X169834493Y-66878500D01*
X169882869Y-66846177D01*
X171196827Y-65532219D01*
X171258150Y-65498734D01*
X171284508Y-65495900D01*
X171302393Y-65495900D01*
X171302394Y-65495899D01*
X171360382Y-65484364D01*
X171476358Y-65461296D01*
X171476361Y-65461294D01*
X171476366Y-65461294D01*
X171640247Y-65393413D01*
X171787735Y-65294864D01*
X171913164Y-65169435D01*
X172011713Y-65021947D01*
X172079594Y-64858066D01*
X172114200Y-64684091D01*
X172114200Y-64506709D01*
X172114200Y-64506706D01*
X172114199Y-64506704D01*
X172079596Y-64332741D01*
X172079593Y-64332732D01*
X172011716Y-64168859D01*
X172011709Y-64168846D01*
X171913164Y-64021365D01*
X171913161Y-64021361D01*
X171787738Y-63895938D01*
X171787734Y-63895935D01*
X171640253Y-63797390D01*
X171640240Y-63797383D01*
X171476367Y-63729506D01*
X171476358Y-63729503D01*
X171302394Y-63694900D01*
X171302391Y-63694900D01*
X171125009Y-63694900D01*
X171125006Y-63694900D01*
X170951041Y-63729503D01*
X170951032Y-63729506D01*
X170787159Y-63797383D01*
X170787146Y-63797390D01*
X170639665Y-63895935D01*
X170639661Y-63895938D01*
X170514238Y-64021361D01*
X170514235Y-64021365D01*
X170415690Y-64168846D01*
X170415683Y-64168859D01*
X170347806Y-64332732D01*
X170347803Y-64332741D01*
X170313200Y-64506704D01*
X170313200Y-64524592D01*
X170293515Y-64591631D01*
X170276881Y-64612273D01*
X169235073Y-65654081D01*
X169173750Y-65687566D01*
X169147392Y-65690400D01*
X162745300Y-65690400D01*
X162678261Y-65670715D01*
X162632506Y-65617911D01*
X162622562Y-65548753D01*
X162627370Y-65528080D01*
X162631412Y-65515638D01*
X162631413Y-65515636D01*
X162662500Y-65319361D01*
X162662500Y-65120639D01*
X162631413Y-64924364D01*
X162570005Y-64735368D01*
X162570005Y-64735367D01*
X162524035Y-64645149D01*
X162479787Y-64558306D01*
X162362981Y-64397536D01*
X162222464Y-64257019D01*
X162061694Y-64140213D01*
X161905218Y-64060484D01*
X161854423Y-64012510D01*
X161837628Y-63944689D01*
X161860165Y-63878554D01*
X161905218Y-63839515D01*
X162061694Y-63759787D01*
X162222464Y-63642981D01*
X162362981Y-63502464D01*
X162479787Y-63341694D01*
X162570005Y-63164632D01*
X162631413Y-62975636D01*
X162662500Y-62779361D01*
X162662500Y-62580639D01*
X162631413Y-62384364D01*
X162570005Y-62195368D01*
X162570005Y-62195367D01*
X162479786Y-62018305D01*
X162362981Y-61857536D01*
X162222464Y-61717019D01*
X162061694Y-61600213D01*
X161884632Y-61509994D01*
X161884629Y-61509993D01*
X161695637Y-61448587D01*
X161597498Y-61433043D01*
X161499361Y-61417500D01*
X161300639Y-61417500D01*
X161235214Y-61427862D01*
X161104362Y-61448587D01*
X160915370Y-61509993D01*
X160915367Y-61509994D01*
X160738305Y-61600213D01*
X160577533Y-61717021D01*
X160437021Y-61857533D01*
X160320213Y-62018305D01*
X160240485Y-62174780D01*
X160192510Y-62225576D01*
X160124689Y-62242371D01*
X160058554Y-62219833D01*
X160019515Y-62174780D01*
X159939786Y-62018305D01*
X159822981Y-61857536D01*
X159682464Y-61717019D01*
X159521694Y-61600213D01*
X159344632Y-61509994D01*
X159344629Y-61509993D01*
X159155637Y-61448587D01*
X159057498Y-61433043D01*
X158959361Y-61417500D01*
X158760639Y-61417500D01*
X158695214Y-61427862D01*
X158564362Y-61448587D01*
X158375370Y-61509993D01*
X158375367Y-61509994D01*
X158198305Y-61600213D01*
X158037533Y-61717021D01*
X157897021Y-61857533D01*
X157780213Y-62018305D01*
X157689994Y-62195367D01*
X157689993Y-62195370D01*
X157628587Y-62384362D01*
X157597500Y-62580639D01*
X157597500Y-62779360D01*
X157628587Y-62975637D01*
X157689993Y-63164629D01*
X157689994Y-63164632D01*
X157780213Y-63341694D01*
X157897019Y-63502464D01*
X158037536Y-63642981D01*
X158198306Y-63759787D01*
X158272092Y-63797383D01*
X158354780Y-63839515D01*
X158405576Y-63887490D01*
X158422371Y-63955311D01*
X158399833Y-64021446D01*
X158354780Y-64060485D01*
X158198305Y-64140213D01*
X158037533Y-64257021D01*
X157897021Y-64397533D01*
X157780213Y-64558305D01*
X157689994Y-64735367D01*
X157689993Y-64735370D01*
X157628587Y-64924362D01*
X157597500Y-65120639D01*
X157597500Y-65319360D01*
X157628587Y-65515637D01*
X157689993Y-65704629D01*
X157689994Y-65704632D01*
X157780213Y-65881694D01*
X157897019Y-66042464D01*
X158037536Y-66182981D01*
X158198306Y-66299787D01*
X158316832Y-66360179D01*
X158354780Y-66379515D01*
X158405576Y-66427490D01*
X158422371Y-66495311D01*
X158399833Y-66561446D01*
X158354780Y-66600485D01*
X158198305Y-66680213D01*
X158037533Y-66797021D01*
X157897021Y-66937533D01*
X157780213Y-67098305D01*
X157689994Y-67275367D01*
X157689993Y-67275370D01*
X157628587Y-67464362D01*
X157597500Y-67660639D01*
X157597500Y-67859360D01*
X157628587Y-68055637D01*
X157689993Y-68244629D01*
X157689994Y-68244632D01*
X157748684Y-68359815D01*
X157780213Y-68421694D01*
X157897019Y-68582464D01*
X158037536Y-68722981D01*
X158198306Y-68839787D01*
X158316832Y-68900179D01*
X158354780Y-68919515D01*
X158405576Y-68967490D01*
X158422371Y-69035311D01*
X158399833Y-69101446D01*
X158354780Y-69140485D01*
X158198305Y-69220213D01*
X158037533Y-69337021D01*
X157897021Y-69477533D01*
X157780213Y-69638305D01*
X157689994Y-69815367D01*
X157689993Y-69815370D01*
X157628587Y-70004362D01*
X157597500Y-70200639D01*
X157597500Y-70399360D01*
X157628587Y-70595637D01*
X157689993Y-70784629D01*
X157689994Y-70784632D01*
X157780213Y-70961694D01*
X157897019Y-71122464D01*
X158037536Y-71262981D01*
X158198306Y-71379787D01*
X158316832Y-71440179D01*
X158354780Y-71459515D01*
X158405576Y-71507490D01*
X158422371Y-71575311D01*
X158399833Y-71641446D01*
X158354780Y-71680485D01*
X158198305Y-71760213D01*
X158037533Y-71877021D01*
X157897021Y-72017533D01*
X157780213Y-72178305D01*
X157689994Y-72355367D01*
X157689993Y-72355370D01*
X157628587Y-72544362D01*
X157597500Y-72740639D01*
X157597500Y-72939360D01*
X157628587Y-73135637D01*
X157689993Y-73324629D01*
X157689994Y-73324632D01*
X157780213Y-73501694D01*
X157897019Y-73662464D01*
X158037536Y-73802981D01*
X158198306Y-73919787D01*
X158316832Y-73980179D01*
X158354780Y-73999515D01*
X158405576Y-74047490D01*
X158422371Y-74115311D01*
X158399833Y-74181446D01*
X158354780Y-74220485D01*
X158198305Y-74300213D01*
X158037533Y-74417021D01*
X157897021Y-74557533D01*
X157897016Y-74557539D01*
X157809217Y-74678385D01*
X157753887Y-74721051D01*
X157708899Y-74729500D01*
X138714229Y-74729500D01*
X138588561Y-74754497D01*
X138588555Y-74754499D01*
X138470170Y-74803535D01*
X138363631Y-74874722D01*
X138363624Y-74874728D01*
X131894726Y-81343626D01*
X131823533Y-81450174D01*
X131789246Y-81532953D01*
X131745405Y-81587356D01*
X131679111Y-81609421D01*
X131674687Y-81609500D01*
X131602130Y-81609500D01*
X131602123Y-81609501D01*
X131542516Y-81615908D01*
X131407671Y-81666202D01*
X131407664Y-81666206D01*
X131292455Y-81752452D01*
X131292452Y-81752455D01*
X131206206Y-81867664D01*
X131206202Y-81867671D01*
X131155908Y-82002517D01*
X131149501Y-82062116D01*
X131149501Y-82062123D01*
X131149500Y-82062135D01*
X131149500Y-83157870D01*
X131149501Y-83157886D01*
X131151569Y-83177122D01*
X131139160Y-83245881D01*
X131091548Y-83297016D01*
X131023847Y-83314292D01*
X130957554Y-83292224D01*
X130940598Y-83278052D01*
X130164823Y-82502277D01*
X130131338Y-82440954D01*
X130130902Y-82438863D01*
X130127201Y-82420256D01*
X130078165Y-82301873D01*
X130078164Y-82301872D01*
X130078161Y-82301866D01*
X130006976Y-82195331D01*
X130006973Y-82195327D01*
X129916372Y-82104726D01*
X129916368Y-82104723D01*
X129809833Y-82033538D01*
X129809824Y-82033533D01*
X129691444Y-81984499D01*
X129689202Y-81983819D01*
X129688171Y-81983143D01*
X129685816Y-81982168D01*
X129686001Y-81981721D01*
X129630765Y-81945518D01*
X129609022Y-81908493D01*
X129593796Y-81867669D01*
X129593793Y-81867664D01*
X129507547Y-81752455D01*
X129507544Y-81752452D01*
X129392335Y-81666206D01*
X129392328Y-81666202D01*
X129257482Y-81615908D01*
X129257483Y-81615908D01*
X129197883Y-81609501D01*
X129197881Y-81609500D01*
X129197873Y-81609500D01*
X129197864Y-81609500D01*
X127602129Y-81609500D01*
X127602123Y-81609501D01*
X127542516Y-81615908D01*
X127407671Y-81666202D01*
X127407664Y-81666206D01*
X127292455Y-81752452D01*
X127292452Y-81752455D01*
X127206206Y-81867664D01*
X127206202Y-81867671D01*
X127155908Y-82002517D01*
X127149501Y-82062116D01*
X127149501Y-82062123D01*
X127149500Y-82062135D01*
X127149500Y-83157870D01*
X127149501Y-83157876D01*
X127155908Y-83217479D01*
X127157692Y-83225026D01*
X127156229Y-83225371D01*
X127160585Y-83286371D01*
X127156173Y-83301396D01*
X127155908Y-83302517D01*
X127149501Y-83362116D01*
X127149500Y-83362135D01*
X127149500Y-84457870D01*
X127149501Y-84457876D01*
X127155908Y-84517483D01*
X127206202Y-84652328D01*
X127206206Y-84652335D01*
X127292452Y-84767544D01*
X127292455Y-84767547D01*
X127407664Y-84853793D01*
X127407671Y-84853797D01*
X127437912Y-84865076D01*
X127542517Y-84904091D01*
X127602127Y-84910500D01*
X127674684Y-84910499D01*
X127693865Y-84916131D01*
X127713844Y-84916845D01*
X127726702Y-84925772D01*
X127741723Y-84930183D01*
X127754814Y-84945290D01*
X127771237Y-84956693D01*
X127785443Y-84980636D01*
X127787479Y-84982986D01*
X127789243Y-84987040D01*
X127818125Y-85056767D01*
X127820061Y-85061440D01*
X127829500Y-85108893D01*
X127829500Y-88359781D01*
X127809815Y-88426820D01*
X127770597Y-88465319D01*
X127686347Y-88517285D01*
X127686343Y-88517288D01*
X127562289Y-88641342D01*
X127470187Y-88790663D01*
X127470185Y-88790668D01*
X127470115Y-88790880D01*
X127415001Y-88957203D01*
X127415001Y-88957204D01*
X127415000Y-88957204D01*
X127404500Y-89059983D01*
X127404500Y-89864190D01*
X127384815Y-89931229D01*
X127368182Y-89951871D01*
X127249723Y-90070331D01*
X127180016Y-90174657D01*
X127180009Y-90174668D01*
X127178532Y-90176877D01*
X127129500Y-90295251D01*
X127129497Y-90295261D01*
X127104500Y-90420928D01*
X127104500Y-93835500D01*
X127084815Y-93902539D01*
X127032011Y-93948294D01*
X126980500Y-93959500D01*
X126454998Y-93959500D01*
X126454980Y-93959501D01*
X126352203Y-93970000D01*
X126352200Y-93970001D01*
X126185668Y-94025185D01*
X126185663Y-94025187D01*
X126036342Y-94117289D01*
X125912289Y-94241342D01*
X125820187Y-94390663D01*
X125820185Y-94390668D01*
X125820115Y-94390880D01*
X125765001Y-94557203D01*
X125765001Y-94557204D01*
X125765000Y-94557204D01*
X125754500Y-94659983D01*
X116840000Y-94659983D01*
X116840000Y-56004000D01*
X116859685Y-55936961D01*
X116912489Y-55891206D01*
X116964000Y-55880000D01*
X197996000Y-55880000D01*
X198063039Y-55899685D01*
G37*
%TD.AperFunction*%
%TD*%
%TA.AperFunction,NonConductor*%
G36*
X160201446Y-63140165D02*
G01*
X160240484Y-63185218D01*
X160320213Y-63341694D01*
X160437019Y-63502464D01*
X160577536Y-63642981D01*
X160738306Y-63759787D01*
X160812092Y-63797383D01*
X160894780Y-63839515D01*
X160945576Y-63887490D01*
X160962371Y-63955311D01*
X160939833Y-64021446D01*
X160894780Y-64060485D01*
X160738305Y-64140213D01*
X160577533Y-64257021D01*
X160437021Y-64397533D01*
X160320213Y-64558305D01*
X160240485Y-64714780D01*
X160192510Y-64765576D01*
X160124689Y-64782371D01*
X160058554Y-64759833D01*
X160019515Y-64714780D01*
X160000179Y-64676832D01*
X159939787Y-64558306D01*
X159822981Y-64397536D01*
X159682464Y-64257019D01*
X159521694Y-64140213D01*
X159365218Y-64060484D01*
X159314423Y-64012510D01*
X159297628Y-63944689D01*
X159320165Y-63878554D01*
X159365218Y-63839515D01*
X159521694Y-63759787D01*
X159682464Y-63642981D01*
X159822981Y-63502464D01*
X159939787Y-63341694D01*
X160019515Y-63185218D01*
X160067490Y-63134423D01*
X160135311Y-63117628D01*
X160201446Y-63140165D01*
G37*
%TD.AperFunction*%
%TA.AperFunction,NonConductor*%
G36*
X160147228Y-70741689D02*
G01*
X160159807Y-70741150D01*
X160179670Y-70752744D01*
X160201446Y-70760165D01*
X160210720Y-70770868D01*
X160220149Y-70776372D01*
X160240483Y-70805217D01*
X160320213Y-70961694D01*
X160437019Y-71122464D01*
X160577536Y-71262981D01*
X160738306Y-71379787D01*
X160856832Y-71440179D01*
X160894780Y-71459515D01*
X160945576Y-71507490D01*
X160962371Y-71575311D01*
X160939833Y-71641446D01*
X160894780Y-71680485D01*
X160738305Y-71760213D01*
X160577533Y-71877021D01*
X160437021Y-72017533D01*
X160320213Y-72178305D01*
X160240485Y-72334780D01*
X160192510Y-72385576D01*
X160124689Y-72402371D01*
X160058554Y-72379833D01*
X160019515Y-72334780D01*
X159939786Y-72178305D01*
X159822981Y-72017536D01*
X159682464Y-71877019D01*
X159521694Y-71760213D01*
X159365218Y-71680484D01*
X159314423Y-71632510D01*
X159297628Y-71564689D01*
X159320165Y-71498554D01*
X159365218Y-71459515D01*
X159521694Y-71379787D01*
X159682464Y-71262981D01*
X159822981Y-71122464D01*
X159939787Y-70961694D01*
X160019515Y-70805218D01*
X160028159Y-70796065D01*
X160032895Y-70784399D01*
X160051696Y-70771144D01*
X160067490Y-70754423D01*
X160079710Y-70751396D01*
X160090002Y-70744142D01*
X160112984Y-70743156D01*
X160135311Y-70737628D01*
X160147228Y-70741689D01*
G37*
%TD.AperFunction*%
%TA.AperFunction,NonConductor*%
G36*
X160201446Y-73300165D02*
G01*
X160240484Y-73345218D01*
X160320213Y-73501694D01*
X160437019Y-73662464D01*
X160577536Y-73802981D01*
X160738306Y-73919787D01*
X160856832Y-73980179D01*
X160894780Y-73999515D01*
X160945576Y-74047490D01*
X160962371Y-74115311D01*
X160939833Y-74181446D01*
X160894780Y-74220485D01*
X160738305Y-74300213D01*
X160577533Y-74417021D01*
X160437021Y-74557533D01*
X160437016Y-74557539D01*
X160349217Y-74678385D01*
X160344885Y-74681725D01*
X160342612Y-74686703D01*
X160317509Y-74702835D01*
X160293887Y-74721051D01*
X160287215Y-74722303D01*
X160283834Y-74724477D01*
X160248899Y-74729500D01*
X160011101Y-74729500D01*
X159944062Y-74709815D01*
X159910783Y-74678385D01*
X159822983Y-74557539D01*
X159822978Y-74557533D01*
X159682466Y-74417021D01*
X159682464Y-74417019D01*
X159521694Y-74300213D01*
X159365218Y-74220484D01*
X159314423Y-74172510D01*
X159297628Y-74104689D01*
X159320165Y-74038554D01*
X159365218Y-73999515D01*
X159521694Y-73919787D01*
X159682464Y-73802981D01*
X159822981Y-73662464D01*
X159939787Y-73501694D01*
X160019515Y-73345218D01*
X160067490Y-73294423D01*
X160135311Y-73277628D01*
X160201446Y-73300165D01*
G37*
%TD.AperFunction*%
%TA.AperFunction,NonConductor*%
G36*
X164287731Y-69700185D02*
G01*
X164308373Y-69716819D01*
X171309373Y-76717819D01*
X171342858Y-76779142D01*
X171337874Y-76848834D01*
X171296002Y-76904767D01*
X171230538Y-76929184D01*
X171221692Y-76929500D01*
X170802129Y-76929500D01*
X170802123Y-76929501D01*
X170742516Y-76935908D01*
X170607671Y-76986202D01*
X170607664Y-76986206D01*
X170492455Y-77072452D01*
X170492452Y-77072455D01*
X170406206Y-77187664D01*
X170406200Y-77187674D01*
X170405767Y-77188838D01*
X170405023Y-77189831D01*
X170401953Y-77195454D01*
X170401144Y-77195012D01*
X170363894Y-77244770D01*
X170298429Y-77269184D01*
X170289587Y-77269500D01*
X162551101Y-77269500D01*
X162484062Y-77249815D01*
X162450783Y-77218385D01*
X162362983Y-77097539D01*
X162362978Y-77097533D01*
X162222466Y-76957021D01*
X162222464Y-76957019D01*
X162061694Y-76840213D01*
X161905218Y-76760484D01*
X161854423Y-76712510D01*
X161837628Y-76644689D01*
X161860165Y-76578554D01*
X161905218Y-76539515D01*
X162061694Y-76459787D01*
X162222464Y-76342981D01*
X162362981Y-76202464D01*
X162479787Y-76041694D01*
X162570005Y-75864632D01*
X162631413Y-75675636D01*
X162662500Y-75479361D01*
X162662500Y-75280639D01*
X162631413Y-75084364D01*
X162570005Y-74895368D01*
X162570005Y-74895367D01*
X162498227Y-74754497D01*
X162479787Y-74718306D01*
X162362981Y-74557536D01*
X162222464Y-74417019D01*
X162061694Y-74300213D01*
X161905218Y-74220484D01*
X161854423Y-74172510D01*
X161837628Y-74104689D01*
X161860165Y-74038554D01*
X161905218Y-73999515D01*
X162061694Y-73919787D01*
X162222464Y-73802981D01*
X162362981Y-73662464D01*
X162479787Y-73501694D01*
X162570005Y-73324632D01*
X162631413Y-73135636D01*
X162662500Y-72939361D01*
X162662500Y-72740639D01*
X162631413Y-72544364D01*
X162570005Y-72355368D01*
X162570005Y-72355367D01*
X162479786Y-72178305D01*
X162362981Y-72017536D01*
X162222464Y-71877019D01*
X162061694Y-71760213D01*
X161905218Y-71680484D01*
X161854423Y-71632510D01*
X161837628Y-71564689D01*
X161860165Y-71498554D01*
X161905218Y-71459515D01*
X162061694Y-71379787D01*
X162222464Y-71262981D01*
X162362981Y-71122464D01*
X162479787Y-70961694D01*
X162570005Y-70784632D01*
X162631413Y-70595636D01*
X162662500Y-70399361D01*
X162662500Y-70200639D01*
X162631413Y-70004364D01*
X162578924Y-69842818D01*
X162576929Y-69772977D01*
X162613009Y-69713144D01*
X162675710Y-69682316D01*
X162696855Y-69680500D01*
X164220692Y-69680500D01*
X164287731Y-69700185D01*
G37*
%TD.AperFunction*%
%TA.AperFunction,NonConductor*%
G36*
X160315938Y-76050185D02*
G01*
X160349217Y-76081615D01*
X160437019Y-76202464D01*
X160577536Y-76342981D01*
X160738306Y-76459787D01*
X160856832Y-76520179D01*
X160894780Y-76539515D01*
X160945576Y-76587490D01*
X160962371Y-76655311D01*
X160939833Y-76721446D01*
X160894780Y-76760485D01*
X160738305Y-76840213D01*
X160577533Y-76957021D01*
X160437021Y-77097533D01*
X160320213Y-77258305D01*
X160240485Y-77414780D01*
X160192510Y-77465576D01*
X160124689Y-77482371D01*
X160058554Y-77459833D01*
X160019515Y-77414780D01*
X160000179Y-77376832D01*
X159939787Y-77258306D01*
X159822981Y-77097536D01*
X159682464Y-76957019D01*
X159521694Y-76840213D01*
X159365218Y-76760484D01*
X159314423Y-76712510D01*
X159297628Y-76644689D01*
X159320165Y-76578554D01*
X159365218Y-76539515D01*
X159521694Y-76459787D01*
X159682464Y-76342981D01*
X159822981Y-76202464D01*
X159910783Y-76081615D01*
X159915114Y-76078274D01*
X159917388Y-76073297D01*
X159942490Y-76057164D01*
X159966113Y-76038949D01*
X159972784Y-76037696D01*
X159976166Y-76035523D01*
X160011101Y-76030500D01*
X160248899Y-76030500D01*
X160315938Y-76050185D01*
G37*
%TD.AperFunction*%
%TA.AperFunction,NonConductor*%
G36*
X164677731Y-84321685D02*
G01*
X164698373Y-84338319D01*
X165014976Y-84654922D01*
X165048461Y-84716245D01*
X165043477Y-84785937D01*
X165001605Y-84841870D01*
X164946694Y-84865076D01*
X164748630Y-84896447D01*
X164524003Y-84969433D01*
X164313566Y-85076657D01*
X164204550Y-85155862D01*
X164122490Y-85215483D01*
X164122488Y-85215485D01*
X164122487Y-85215485D01*
X163955484Y-85382488D01*
X163943222Y-85399365D01*
X163933898Y-85412200D01*
X163930318Y-85417127D01*
X163874987Y-85459792D01*
X163805374Y-85465771D01*
X163743579Y-85433165D01*
X163729682Y-85417127D01*
X163704517Y-85382490D01*
X163537510Y-85215483D01*
X163403217Y-85117913D01*
X163346431Y-85076655D01*
X163245204Y-85025077D01*
X163234140Y-85014628D01*
X163220297Y-85008306D01*
X163209255Y-84991125D01*
X163194409Y-84977103D01*
X163190167Y-84961423D01*
X163182523Y-84949528D01*
X163177500Y-84914593D01*
X163177500Y-84676000D01*
X163197185Y-84608961D01*
X163249989Y-84563206D01*
X163301500Y-84552000D01*
X163367493Y-84552000D01*
X163367494Y-84551999D01*
X163425482Y-84540464D01*
X163541458Y-84517396D01*
X163541461Y-84517394D01*
X163541466Y-84517394D01*
X163705347Y-84449513D01*
X163852835Y-84350964D01*
X163852838Y-84350961D01*
X163865481Y-84338319D01*
X163926804Y-84304834D01*
X163953162Y-84302000D01*
X164610692Y-84302000D01*
X164677731Y-84321685D01*
G37*
%TD.AperFunction*%
%TA.AperFunction,NonConductor*%
G36*
X149899431Y-110183385D02*
G01*
X149920073Y-110200019D01*
X150929859Y-111209805D01*
X150963344Y-111271128D01*
X150960109Y-111335803D01*
X150936447Y-111408628D01*
X150899500Y-111641902D01*
X150899500Y-111793592D01*
X150879815Y-111860631D01*
X150827011Y-111906386D01*
X150757853Y-111916330D01*
X150694297Y-111887305D01*
X150687819Y-111881273D01*
X149181927Y-110375381D01*
X149148442Y-110314058D01*
X149153426Y-110244366D01*
X149195298Y-110188433D01*
X149260762Y-110164016D01*
X149269608Y-110163700D01*
X149832392Y-110163700D01*
X149899431Y-110183385D01*
G37*
%TD.AperFunction*%
M02*
